<svg width="45" height="45" viewBox="0 0 45 45" fill="none" xmlns="http://www.w3.org/2000/svg">
  <rect width="45" height="45" />
  <ellipse cx="22.8153" cy="26.6816" rx="17.423" ry="16.7261" fill="#2A2A2A" />
  <path
    d="M8.6839 3.12213C8.72352 3.06276 8.81143 3.06344 8.85102 3.12344L14.7383 12.0459L18.3624 18.4042C19.1246 19.7413 19.0547 21.3894 18.1827 22.6454L10.363 33.9078C9.97494 34.4667 9.14838 34.4776 8.73714 33.9293L7.60268 32.4168C6.16319 30.4975 5.34117 28.1912 5.24607 25.8049L5.01063 19.8971C4.85839 16.0768 5.26016 12.2589 6.20353 8.56134L6.28805 8.23006C6.7029 6.60407 7.39002 5.06137 8.3206 3.66664L8.6839 3.12213Z"
    fill="#2A2A2A" />
  <path
    d="M35.8853 3.1224C35.8457 3.06302 35.7578 3.06371 35.7182 3.12371L29.8309 12.0462L26.1854 18.4421C25.4343 19.7597 25.4904 21.3811 26.3301 22.6321L33.8302 33.8045C34.2263 34.3945 35.1002 34.3885 35.4971 33.7931L38.0953 29.8959C39.4884 27.8062 40.1899 25.3376 40.1003 22.8398L39.9947 19.8949C39.8574 16.0672 39.3113 12.268 38.3657 8.56161L38.2812 8.23033C37.8663 6.60433 37.1792 5.06163 36.2486 3.66691L35.8853 3.1224Z"
    fill="#2A2A2A" />
  <path
    d="M34.6629 22.7856L24.906 28.361C26.2998 29.0579 29.3548 30.8273 32.5721 29.7548C34.6629 29.0579 35.3598 24.8764 34.6629 22.7856Z"
    fill="white" />
  <path d="M31.5835 28.8049L29.2773 24.6312L31.5355 24.0367L31.5835 28.8049Z" fill="#2A2A2A" />
  <path
    d="M11.2292 22.7856L20.9861 28.361C19.5922 29.0579 16.5373 30.8273 13.32 29.7548C11.2292 29.0579 10.5323 24.8764 11.2292 22.7856Z"
    fill="white" />
  <path d="M14.3084 28.8049L16.6146 24.6312L14.3564 24.0367L14.3084 28.8049Z" fill="#2A2A2A" />
  <path d="M13.4409 32.9536H32.8551V38.9272H13.4409V32.9536Z" fill="black" />
  <path
    d="M14.6634 37.7477C14.4534 37.7477 14.2684 37.7094 14.1084 37.6327C13.9484 37.5527 13.8234 37.4411 13.7334 37.2977C13.6468 37.1511 13.6034 36.9761 13.6034 36.7727C13.6034 36.5461 13.6801 36.3411 13.8334 36.1577C13.9868 35.9744 14.1884 35.7827 14.4384 35.5827L14.8534 35.2527C15.0301 35.1127 15.1434 34.9894 15.1934 34.8827C15.2434 34.7761 15.2701 34.6661 15.2734 34.5527C15.2734 34.4261 15.2301 34.3161 15.1434 34.2227C15.0601 34.1294 14.9384 34.0827 14.7784 34.0827C14.6318 34.0827 14.5134 34.1261 14.4234 34.2127C14.3334 34.2994 14.2884 34.4011 14.2884 34.5177C14.2884 34.6044 14.3068 34.6894 14.3434 34.7727C14.3834 34.8561 14.4468 34.9411 14.5334 35.0277L16.8084 37.2977C16.8618 37.3511 16.8918 37.4011 16.8984 37.4477C16.9051 37.4944 16.8818 37.5444 16.8284 37.5977C16.7218 37.7044 16.6151 37.7044 16.5084 37.5977L14.2084 35.3027C14.0951 35.1861 14.0084 35.0644 13.9484 34.9377C13.8884 34.8077 13.8584 34.6711 13.8584 34.5277C13.8584 34.3677 13.8984 34.2244 13.9784 34.0977C14.0584 33.9677 14.1684 33.8661 14.3084 33.7927C14.4484 33.7194 14.6051 33.6827 14.7784 33.6827C14.9584 33.6827 15.1168 33.7211 15.2534 33.7977C15.3934 33.8744 15.5034 33.9794 15.5834 34.1127C15.6634 34.2461 15.7034 34.3961 15.7034 34.5627C15.7034 34.6927 15.6801 34.8111 15.6334 34.9177C15.5901 35.0244 15.5218 35.1294 15.4284 35.2327C15.3351 35.3327 15.2134 35.4427 15.0634 35.5627L14.6684 35.8777C14.5551 35.9677 14.4534 36.0594 14.3634 36.1527C14.2734 36.2461 14.2018 36.3427 14.1484 36.4427C14.0984 36.5394 14.0734 36.6427 14.0734 36.7527C14.0734 36.9394 14.1251 37.0811 14.2284 37.1777C14.3318 37.2711 14.4768 37.3177 14.6634 37.3177C14.8634 37.3177 15.0368 37.2727 15.1834 37.1827C15.3334 37.0894 15.4851 36.9627 15.6384 36.8027L16.3684 36.0327C16.4184 35.9794 16.4651 35.9461 16.5084 35.9327C16.5518 35.9194 16.6001 35.9377 16.6534 35.9877C16.7068 36.0377 16.7334 36.0894 16.7334 36.1427C16.7368 36.1961 16.7134 36.2511 16.6634 36.3077L15.9334 37.0777C15.7601 37.2744 15.5718 37.4361 15.3684 37.5627C15.1651 37.6861 14.9301 37.7477 14.6634 37.7477ZM18.6656 37.7277C18.4556 37.7277 18.2556 37.6994 18.0656 37.6427C17.879 37.5861 17.7156 37.5027 17.5756 37.3927C17.4356 37.2827 17.334 37.1511 17.2706 36.9977C17.2406 36.9277 17.2406 36.8644 17.2706 36.8077C17.304 36.7477 17.3606 36.7094 17.4406 36.6927C17.4973 36.6794 17.5523 36.6894 17.6056 36.7227C17.659 36.7527 17.699 36.7977 17.7256 36.8577C17.7823 36.9811 17.8973 37.0811 18.0706 37.1577C18.2473 37.2344 18.4456 37.2727 18.6656 37.2727C18.8056 37.2727 18.9356 37.2477 19.0556 37.1977C19.179 37.1477 19.279 37.0761 19.3556 36.9827C19.4323 36.8861 19.4706 36.7694 19.4706 36.6327C19.4706 36.4594 19.4056 36.3061 19.2756 36.1727C19.149 36.0361 18.939 35.9511 18.6456 35.9177C18.3923 35.8911 18.1706 35.8294 17.9806 35.7327C17.794 35.6327 17.649 35.5061 17.5456 35.3527C17.4456 35.1961 17.3956 35.0194 17.3956 34.8227C17.3956 34.6094 17.454 34.4277 17.5706 34.2777C17.6906 34.1244 17.849 34.0077 18.0456 33.9277C18.2456 33.8444 18.4656 33.8027 18.7056 33.8027C18.909 33.8027 19.084 33.8311 19.2306 33.8877C19.3806 33.9411 19.509 34.0177 19.6156 34.1177C19.7223 34.2177 19.814 34.3344 19.8906 34.4677C19.934 34.5411 19.9523 34.6094 19.9456 34.6727C19.939 34.7327 19.9073 34.7811 19.8506 34.8177C19.794 34.8577 19.7323 34.8677 19.6656 34.8477C19.599 34.8244 19.5473 34.7811 19.5106 34.7177C19.4373 34.5777 19.3373 34.4661 19.2106 34.3827C19.084 34.2961 18.9123 34.2511 18.6956 34.2477C18.4656 34.2444 18.274 34.2927 18.1206 34.3927C17.9673 34.4894 17.8906 34.6344 17.8906 34.8277C17.8906 34.9277 17.9123 35.0244 17.9556 35.1177C18.0023 35.2077 18.089 35.2877 18.2156 35.3577C18.3423 35.4277 18.5256 35.4761 18.7656 35.5027C19.1323 35.5394 19.424 35.6544 19.6406 35.8477C19.8606 36.0377 19.9706 36.2944 19.9706 36.6177C19.9706 36.8011 19.934 36.9627 19.8606 37.1027C19.7873 37.2427 19.6873 37.3594 19.5606 37.4527C19.4373 37.5427 19.2973 37.6111 19.1406 37.6577C18.9873 37.7044 18.829 37.7277 18.6656 37.7277ZM18.6956 38.1877C18.6523 38.1877 18.6156 38.1727 18.5856 38.1427C18.5556 38.1127 18.5406 38.0761 18.5406 38.0327V33.5677C18.5406 33.5211 18.5556 33.4844 18.5856 33.4577C18.6156 33.4277 18.6523 33.4127 18.6956 33.4127C18.7423 33.4127 18.779 33.4277 18.8056 33.4577C18.8356 33.4844 18.8506 33.5211 18.8506 33.5677V38.0327C18.8506 38.0761 18.8356 38.1127 18.8056 38.1427C18.779 38.1727 18.7423 38.1877 18.6956 38.1877ZM28.4119 36.7527C28.3386 36.7527 28.2769 36.7277 28.2269 36.6777C28.1802 36.6244 28.1569 36.5644 28.1569 36.4977V34.0327C28.1569 33.9594 28.1802 33.8977 28.2269 33.8477C28.2769 33.7977 28.3386 33.7727 28.4119 33.7727C28.4852 33.7727 28.5452 33.7977 28.5919 33.8477C28.6419 33.8977 28.6669 33.9594 28.6669 34.0327V36.4977C28.6669 36.5677 28.6402 36.6277 28.5869 36.6777C28.5369 36.7277 28.4786 36.7527 28.4119 36.7527ZM28.4119 37.6777C28.3186 37.6777 28.2369 37.6444 28.1669 37.5777C28.1002 37.5111 28.0669 37.4294 28.0669 37.3327C28.0669 37.2361 28.1002 37.1544 28.1669 37.0877C28.2369 37.0177 28.3186 36.9827 28.4119 36.9827C28.5086 36.9827 28.5902 37.0177 28.6569 37.0877C28.7236 37.1544 28.7569 37.2361 28.7569 37.3327C28.7569 37.4294 28.7219 37.5111 28.6519 37.5777C28.5852 37.6444 28.5052 37.6777 28.4119 37.6777ZM32.3923 34.9227C32.4623 34.9227 32.519 34.9394 32.5623 34.9727C32.6057 35.0061 32.6223 35.0611 32.6123 35.1377C32.609 35.2011 32.579 35.2511 32.5223 35.2877C32.4657 35.3244 32.4007 35.3427 32.3273 35.3427H31.9923L31.8723 36.0527H32.1923C32.269 36.0527 32.3257 36.0711 32.3623 36.1077C32.4023 36.1444 32.4223 36.1927 32.4223 36.2527C32.4223 36.3061 32.3957 36.3561 32.3423 36.4027C32.289 36.4494 32.2173 36.4727 32.1273 36.4727H31.7673L31.6023 37.4277C31.589 37.5011 31.559 37.5611 31.5123 37.6077C31.469 37.6544 31.409 37.6777 31.3323 37.6777C31.259 37.6777 31.204 37.6511 31.1673 37.5977C31.134 37.5444 31.124 37.4811 31.1373 37.4077L31.2923 36.4727H30.5223L30.3623 37.4277C30.349 37.4977 30.3173 37.5577 30.2673 37.6077C30.2207 37.6544 30.1623 37.6777 30.0923 37.6777C30.019 37.6777 29.964 37.6561 29.9273 37.6127C29.8907 37.5661 29.879 37.4977 29.8923 37.4077L30.0523 36.4727H29.7073C29.6373 36.4727 29.5807 36.4561 29.5373 36.4227C29.4973 36.3861 29.479 36.3394 29.4823 36.2827C29.489 36.2061 29.5173 36.1494 29.5673 36.1127C29.6207 36.0727 29.689 36.0527 29.7723 36.0527H30.1573L30.2723 35.3427H29.9023C29.8357 35.3427 29.7807 35.3277 29.7373 35.2977C29.694 35.2677 29.6723 35.2211 29.6723 35.1577C29.6723 35.0777 29.699 35.0194 29.7523 34.9827C29.8057 34.9427 29.8773 34.9227 29.9673 34.9227H30.3723L30.5373 34.0177C30.554 33.9411 30.584 33.8811 30.6273 33.8377C30.6707 33.7911 30.7307 33.7677 30.8073 33.7677C30.8807 33.7677 30.9357 33.7927 30.9723 33.8427C31.0123 33.8927 31.024 33.9577 31.0073 34.0377L30.8473 34.9227H31.6173L31.7823 34.0177C31.7957 33.9477 31.8257 33.8894 31.8723 33.8427C31.919 33.7927 31.979 33.7677 32.0523 33.7677C32.129 33.7677 32.184 33.7927 32.2173 33.8427C32.254 33.8927 32.264 33.9577 32.2473 34.0377L32.0923 34.9227H32.3923ZM31.3973 36.0527L31.5173 35.3427H30.7473L30.6323 36.0527H31.3973Z"
    fill="white" />
  <path
    d="M21.4194 37.6777C21.3527 37.6777 21.2944 37.6527 21.2444 37.6027C21.1944 37.5527 21.1694 37.4927 21.1694 37.4227V34.3727L20.8044 34.5277C20.7477 34.5511 20.6944 34.5627 20.6444 34.5627C20.571 34.5627 20.5094 34.5394 20.4594 34.4927C20.4127 34.4461 20.3894 34.3861 20.3894 34.3127C20.3894 34.2594 20.4027 34.2111 20.4294 34.1677C20.456 34.1244 20.4977 34.0927 20.5544 34.0727L21.3344 33.7927C21.351 33.7861 21.3677 33.7811 21.3844 33.7777C21.401 33.7744 21.416 33.7727 21.4294 33.7727C21.506 33.7727 21.566 33.7977 21.6094 33.8477C21.656 33.8944 21.6794 33.9561 21.6794 34.0327V37.4227C21.6794 37.4927 21.6544 37.5527 21.6044 37.6027C21.5544 37.6527 21.4927 37.6777 21.4194 37.6777ZM23.6322 37.6727C23.4122 37.6727 23.2139 37.6211 23.0372 37.5177C22.8639 37.4111 22.7272 37.2677 22.6272 37.0877C22.5272 36.9044 22.4772 36.6994 22.4772 36.4727C22.4772 36.2527 22.5272 36.0561 22.6272 35.8827C22.7272 35.7061 22.8639 35.5677 23.0372 35.4677C23.2139 35.3677 23.4122 35.3177 23.6322 35.3177C23.8522 35.3177 24.0489 35.3677 24.2222 35.4677C24.3956 35.5677 24.5322 35.7061 24.6322 35.8827C24.7356 36.0561 24.7856 36.2527 24.7822 36.4727C24.7822 36.6994 24.7306 36.9044 24.6272 37.0877C24.5272 37.2677 24.3906 37.4111 24.2172 37.5177C24.0439 37.6211 23.8489 37.6727 23.6322 37.6727ZM23.6322 37.2127C23.7556 37.2127 23.8656 37.1794 23.9622 37.1127C24.0622 37.0461 24.1406 36.9577 24.1972 36.8477C24.2539 36.7344 24.2822 36.6094 24.2822 36.4727C24.2856 36.3394 24.2589 36.2211 24.2022 36.1177C24.1456 36.0111 24.0672 35.9277 23.9672 35.8677C23.8706 35.8044 23.7589 35.7727 23.6322 35.7727C23.5089 35.7727 23.3972 35.8044 23.2972 35.8677C23.1972 35.9277 23.1189 36.0111 23.0622 36.1177C23.0056 36.2211 22.9772 36.3394 22.9772 36.4727C22.9772 36.6094 23.0039 36.7344 23.0572 36.8477C23.1139 36.9577 23.1922 37.0461 23.2922 37.1127C23.3922 37.1794 23.5056 37.2127 23.6322 37.2127ZM23.6322 35.6827C23.4422 35.6827 23.2722 35.6411 23.1222 35.5577C22.9756 35.4744 22.8589 35.3627 22.7722 35.2227C22.6856 35.0794 22.6422 34.9177 22.6422 34.7377C22.6422 34.5477 22.6856 34.3794 22.7722 34.2327C22.8589 34.0827 22.9756 33.9644 23.1222 33.8777C23.2722 33.7877 23.4422 33.7427 23.6322 33.7427C23.8222 33.7394 23.9906 33.7811 24.1372 33.8677C24.2872 33.9544 24.4056 34.0727 24.4922 34.2227C24.5789 34.3727 24.6206 34.5444 24.6172 34.7377C24.6172 34.9177 24.5739 35.0794 24.4872 35.2227C24.4006 35.3627 24.2822 35.4744 24.1322 35.5577C23.9856 35.6411 23.8189 35.6827 23.6322 35.6827ZM23.6322 35.2677C23.7256 35.2677 23.8089 35.2427 23.8822 35.1927C23.9556 35.1427 24.0139 35.0777 24.0572 34.9977C24.1006 34.9144 24.1222 34.8227 24.1222 34.7227C24.1256 34.6227 24.1056 34.5344 24.0622 34.4577C24.0189 34.3811 23.9606 34.3211 23.8872 34.2777C23.8139 34.2311 23.7289 34.2077 23.6322 34.2077C23.4922 34.2077 23.3756 34.2561 23.2822 34.3527C23.1889 34.4494 23.1406 34.5727 23.1372 34.7227C23.1339 34.8727 23.1789 35.0011 23.2722 35.1077C23.3689 35.2144 23.4889 35.2677 23.6322 35.2677ZM26.4525 37.1277C26.3792 37.1277 26.3175 37.1044 26.2675 37.0577C26.2209 37.0077 26.1975 36.9461 26.1975 36.8727V36.2027H25.5275C25.4542 36.2027 25.3925 36.1777 25.3425 36.1277C25.2959 36.0777 25.2725 36.0161 25.2725 35.9427C25.2725 35.8694 25.2959 35.8094 25.3425 35.7627C25.3925 35.7127 25.4542 35.6877 25.5275 35.6877H26.1975V35.0177C26.1975 34.9477 26.2225 34.8877 26.2725 34.8377C26.3259 34.7877 26.3859 34.7627 26.4525 34.7627C26.5292 34.7627 26.5909 34.7877 26.6375 34.8377C26.6842 34.8844 26.7075 34.9444 26.7075 35.0177V35.6877H27.3775C27.4475 35.6877 27.5075 35.7127 27.5575 35.7627C27.6109 35.8127 27.6375 35.8727 27.6375 35.9427C27.6375 36.0161 27.6109 36.0777 27.5575 36.1277C27.5075 36.1777 27.4475 36.2027 27.3775 36.2027H26.7075V36.8727C26.7075 36.9461 26.6842 37.0077 26.6375 37.0577C26.5909 37.1044 26.5292 37.1277 26.4525 37.1277Z"
    fill="#D71E1E" />
</svg>