<svg width="30" height="30" viewBox="0 0 45 45" fill="none" xmlns="http://www.w3.org/2000/svg">
  <rect width="45" height="45" />
  <ellipse cx="22.8153" cy="26.6816" rx="17.423" ry="16.7261" fill="#2A2A2A" />
  <path
    d="M8.6839 3.12213C8.72352 3.06276 8.81143 3.06344 8.85102 3.12344L14.7383 12.0459L18.3624 18.4042C19.1246 19.7413 19.0547 21.3894 18.1827 22.6454L10.363 33.9078C9.97494 34.4667 9.14838 34.4776 8.73714 33.9293L7.60268 32.4168C6.16319 30.4975 5.34117 28.1912 5.24607 25.8049L5.01063 19.8971C4.85839 16.0768 5.26016 12.2589 6.20353 8.56134V8.56134L6.28805 8.23006C6.7029 6.60407 7.39002 5.06137 8.3206 3.66664L8.6839 3.12213Z"
    fill="#2A2A2A" />
  <path
    d="M35.8853 3.1224C35.8457 3.06302 35.7578 3.06371 35.7182 3.12371L29.8309 12.0462L26.1854 18.4421C25.4343 19.7597 25.4904 21.3811 26.3301 22.6321L33.8302 33.8045C34.2263 34.3945 35.1002 34.3885 35.4971 33.7931L38.0953 29.8959C39.4884 27.8062 40.1899 25.3376 40.1003 22.8398L39.9947 19.8949C39.8574 16.0672 39.3113 12.268 38.3657 8.56161V8.56161L38.2812 8.23033C37.8663 6.60433 37.1792 5.06163 36.2486 3.66691L35.8853 3.1224Z"
    fill="#2A2A2A" />
  <path
    d="M34.6629 22.7856L24.906 28.361C26.2998 29.0579 29.3548 30.8273 32.5721 29.7548C34.6629 29.0579 35.3598 24.8764 34.6629 22.7856Z"
    fill="white" />
  <path d="M31.5835 28.8049L29.2773 24.6312L31.5355 24.0367L31.5835 28.8049Z" fill="#2A2A2A" />
  <path
    d="M11.2292 22.7856L20.9861 28.361C19.5922 29.0579 16.5373 30.8273 13.32 29.7548C11.2292 29.0579 10.5323 24.8764 11.2292 22.7856Z"
    fill="white" />
  <path d="M14.3084 28.8049L16.6146 24.6312L14.3564 24.0367L14.3084 28.8049Z" fill="#2A2A2A" />
  <path
    d="M27.8532 30.2853C26.3186 29.2623 24.1198 31.032 24.1198 31.032H21.133C21.133 31.032 18.9338 29.2621 17.3994 30.2852C15.1594 31.7787 17.1651 34.6872 19.6394 35.5121C21.8794 36.2588 23.3999 36.2496 25.6131 35.512C27.8533 34.7655 30.0934 31.7787 27.8532 30.2853Z"
    fill="#DB8FBD" stroke="#B8518F" stroke-width="0.2" />
  <path
    d="M20.3861 35.5121C20.1307 34.626 21.8795 33.272 21.8795 33.272H23.3728C23.3728 33.272 25.1216 34.626 24.8663 35.5121C24.5752 36.5224 23.6776 37.0055 22.6262 37.0055C21.5748 37.0055 20.6772 36.5224 20.3861 35.5121Z"
    stroke="#B13D83" stroke-width="0.2" />
  <path
    d="M24.0196 33.2722C24.0196 34.0418 23.3958 34.6656 22.6262 34.6656C21.8567 34.6656 21.2328 34.0418 21.2328 33.2722C21.2328 32.5027 21.8567 31.8788 22.6262 31.8788C23.3958 31.8788 24.0196 32.5027 24.0196 33.2722Z"
    fill="#D06DA9" stroke="#B8518F" stroke-width="0.2" />
</svg>