<svg width="130" height="80" viewBox="0 0 171 104" fill="none" xmlns="http://www.w3.org/2000/svg">
  <path
    d="M74.0973 46.1858L52.2954 84.0616L42.8602 73.3891C41.5733 71.9334 40.6644 70.2067 40.2481 68.3349C38.642 61.1147 35.0238 43.0265 35.9231 30.4758C36.3085 25.0969 37.2983 17.0193 37.3621 16.5011L37.3683 16.4506C37.8859 12.3173 38.3225 10.5768 39.6476 7.20724C40.4535 5.15775 42.177 2.55236 43.1854 1.11174L60.4054 23.1276L73.9708 43.0111C74.6191 43.9614 74.6682 45.194 74.0973 46.1858Z"
    fill="#2A2A2A" stroke="black" stroke-width="2" />
  <path
    d="M95.2411 39.9503L109.389 80.6941L125.403 66.3669C127.276 64.6904 128.577 62.4739 129.122 60.029L133.551 40.1545C134.904 34.084 135.605 27.8902 135.644 21.6773L135.682 15.55L135.715 10.2942C135.724 8.72877 135.469 7.17388 134.96 5.69457L133.339 0.982224L112.732 19.5958L95.926 36.8882C95.1361 37.701 94.8712 38.885 95.2411 39.9503Z"
    fill="#2A2A2A" stroke="black" stroke-width="2" />
  <path
    d="M131.119 58.7121C131.119 83.1442 110.568 103.012 85.1395 103.012C59.7109 103.012 39.1597 83.1442 39.1597 58.7121C39.1597 34.2801 59.7109 14.4124 85.1395 14.4124C110.568 14.4124 131.119 34.2801 131.119 58.7121Z"
    fill="#2A2A2A" stroke="black" stroke-width="2" />
  <path
    d="M129.601 6.04849C129.578 5.98079 129.492 5.95915 129.439 6.0074L109.678 23.8562L94.458 39.5172C93.4047 40.6009 93.0516 42.1796 93.5448 43.6L106.353 80.4868C106.587 81.16 107.436 81.3761 107.97 80.8983L122.913 67.5289C124.512 66.0984 125.732 64.2987 126.466 62.2896L129.552 53.843L131.427 44.3374L132.102 35.0447L132.19 20.8165L132.219 16.2362C132.229 14.559 131.956 12.893 131.411 11.308L129.601 6.04849Z"
    fill="#2A2A2A" />
  <path
    d="M44.3342 5.06772C44.3686 5.00543 44.4557 4.99834 44.5003 5.05421L60.8495 25.5033L72.8373 43.5103C73.6781 44.7732 73.7335 46.3971 72.9804 47.7054L53.5035 81.542C53.163 82.1335 52.3383 82.2136 51.8836 81.6994L43.776 72.5285C42.3214 70.8832 41.3058 68.9006 40.8233 66.7649L40.1798 63.9163C38.3536 55.8322 37.6688 47.5396 38.1454 39.2791L39.3158 18.9889L40.0583 14.5629C40.3358 12.9087 40.8907 11.3143 41.6999 9.84642L44.3342 5.06772Z"
    fill="#2A2A2A" />
  <path
    d="M119.644 53.3856L89.67 58.0428C92.5011 61.1529 98.4712 68.581 107.611 68.9819C113.55 69.2424 119.367 59.3454 119.644 53.3856Z"
    fill="white" />
  <path d="M106.046 65.6237L104.296 52.8415L110.557 53.5229L106.046 65.6237Z" fill="#2A2A2A" />
  <path
    d="M51.2447 53.7444L81.3195 57.7022C78.5615 60.8774 72.766 68.4425 63.638 69.0561C57.7062 69.4549 51.6606 59.696 51.2447 53.7444Z"
    fill="white" />
  <path d="M65.1236 65.6632L66.575 52.8437L60.3312 53.6707L65.1236 65.6632Z" fill="#2A2A2A" />
  <path
    d="M107.322 34.0331C106.423 30.6292 111.133 25.8154 111.133 25.8154C111.133 25.8154 116.086 30.6292 115.188 34.0331C114.62 36.1859 112.929 36.6011 111.133 36.6011C109.336 36.6011 107.89 36.1859 107.322 34.0331Z"
    fill="#A1E9E4" />
  <circle cx="145.384" cy="27.401" r="3.54422" fill="#2A2A2A" stroke="black" />
  <circle cx="156.169" cy="27.401" r="3.54422" fill="#2A2A2A" stroke="black" />
  <circle cx="166.955" cy="27.401" r="3.54422" fill="#2A2A2A" stroke="black" />
</svg>
  