<svg viewBox="140 200 1340 1100" xmlns="http://www.w3.org/2000/svg">
    <g opacity="1" fill-rule="nonzero" stroke="none" fill="#2A2A2A">
        <path
            d="M781.3 295C777.4 295.4 771.1 296.1 767.4 296.5C763.6 296.9 760.3 297.3 760 297.5C759.7 297.6 756.8 298.1 753.5 298.4C742.8 299.6 720.4 304.1 707 307.9C694.1 311.5 691.6 311.9 680.8 312.2C675 312.4 670.4 312.8 670.6 313.2C670.9 313.6 668.9 314.1 666.3 314.5C663.6 314.8 656.6 316 650.5 317C644.5 318.1 637.9 319.2 636 319.5C634.1 319.8 629.6 320.8 626 321.6C622.4 322.5 618.4 323.4 617 323.6C615.6 323.9 610.9 325 606.5 326.2C602.1 327.3 597.4 328.4 596 328.7C594.6 328.9 592.8 329.4 592 329.7C591.2 330 590.1 330.4 589.5 330.5C589 330.7 586 331.5 582.9 332.4C579.8 333.3 576.4 334.2 575.4 334.5C574.3 334.7 570.5 335.8 566.7 336.9C563 338 559.7 338.9 559.5 338.9C559.2 339 558.9 339 558.8 339.1C558.6 339.1 557.6 339.3 556.5 339.5C555.4 339.7 552.3 340.6 549.5 341.4C546.8 342.2 539.6 344.3 533.5 346C527.5 347.7 521.8 349.4 521 349.7C520.2 350 519.1 350.4 518.5 350.5C518 350.6 517.3 350.8 517 350.9C516.7 351.1 515.8 351.3 515 351.5C514.2 351.8 512.8 352.1 512 352.3C511.2 352.5 509.8 352.9 509 353.2C508.2 353.5 504.8 354.5 501.5 355.6C498.2 356.6 494.8 357.7 494 358.1C493.2 358.6 489.4 359.8 485.5 361C481.7 362.1 476.9 363.7 475 364.4C473.1 365.2 469.3 366.5 466.5 367.3C463.8 368.2 458.4 370.1 454.5 371.5C450.7 373 445.3 375 442.5 376C439.8 377 434.1 379.3 430 381C425.9 382.7 422.1 384.3 421.5 384.4C419.7 384.9 416.6 386.2 412.3 388.2C409.9 389.3 407.4 390.3 406.8 390.4C405.6 390.7 400.8 392.8 385.3 400C381.9 401.6 378 403.2 376.6 403.6C375.2 403.9 374 404.5 374 404.9C374 405.2 372.5 406.1 370.8 406.9C360.8 411.2 358 412.5 353 415C350 416.5 347.2 417.8 346.7 417.8C346.3 417.9 344.8 418.7 343.3 419.7C341.9 420.6 340.2 421.5 339.6 421.6C339 421.7 335.1 423.4 331 425.3C326.9 427.2 322 429.4 320.2 430.1C318.5 430.9 317 431.8 317 432.1C317 432.4 315.2 433.3 313 434C310.8 434.7 309 435.7 309 436.2C309 436.6 308.7 436.9 308.3 436.8C307.3 436.5 288 446.1 274.5 453.5C269 456.5 262.7 459.8 260.4 460.9C258.2 462 255.7 463.6 255 464.5C254.3 465.3 253.2 466 252.6 466C251.2 466 241.4 472 225.1 482.9C218.9 487.1 212.4 491.3 210.8 492.3C209.1 493.3 207.1 494.8 206.3 495.6C205.5 496.4 203.4 497.8 201.7 498.6C199.9 499.5 196.7 501.7 194.5 503.4C191.3 506 180.1 514.7 175.5 518.2C171.5 521.2 167 525.7 167 526.7C167 527.3 166.4 528.1 165.8 528.3C164.8 528.7 164.8 528.9 165.8 528.9C166.7 529 166.8 529.5 166 530.9C165.3 532.3 165.3 533.1 166 533.5C166.6 533.9 166.8 534.5 166.5 535C166.2 535.5 166.8 536.5 167.7 537.2C168.7 537.9 169.6 539.8 169.8 541.3C170 542.8 171 545 172.1 546.1C173.2 547.2 173.8 548.5 173.5 548.9C173.3 549.4 174.2 550.1 175.8 550.5C177.3 550.8 180.3 551.9 182.5 553C184.7 554 187.7 555.1 189.2 555.4C190.7 555.7 192.5 556.7 193.3 557.5C194.1 558.3 195 558.7 195.3 558.4C195.9 557.8 215.6 565.3 224 569.2C226.5 570.4 229 571.4 229.5 571.4C230.1 571.5 231.4 572 232.5 572.6C233.6 573.2 238.1 574.9 242.5 576.4C246.9 577.9 252.1 579.9 254 580.9C255.9 581.9 258.7 583 260.3 583.4C261.8 583.8 265.4 585.1 268.3 586.4C271.1 587.7 276.2 589.7 279.5 591C282.8 592.2 288.2 594.5 291.5 596C294.8 597.5 299.5 599.5 302 600.4C307.6 602.6 312.8 604.9 320.5 608.5C323.8 610.1 327 611.4 327.5 611.5C328.1 611.6 328.8 611.8 329.3 612C330.3 612.4 331.8 612.7 333.1 612.9C333.6 612.9 333.9 613.4 333.6 613.8C333.3 614.3 333.6 614.7 334.3 614.7C336.4 614.7 358.3 623.8 360.2 625.4C361.2 626.3 362.7 627 363.6 627C365.1 627 369.4 628.8 381 634.3C384.6 636.1 388 637.5 388.6 637.5C389.2 637.5 390.8 638.3 392.3 639.3C393.7 640.2 395.4 641 395.9 641C396.5 641 398.1 641.5 399.5 642.2C401.9 643.3 402 643.6 401.4 648.4C401 651.2 399.7 656.4 398.6 660C396.6 666.2 396.5 668.4 396.6 705.5C396.6 741.9 397 752.9 398.6 762.3C399.2 766.2 399.4 767.5 400.4 775C400.8 777.5 401.7 780 402.5 780.6C403.7 781.5 405.2 789.2 405.1 794.3C405.1 795.3 405.5 797.3 406.1 798.7C406.8 800.5 407.4 800.9 408.3 800.2C408.9 799.7 411.5 798.7 414 798C423.5 795.5 451.6 786.9 453.2 786C454.2 785.4 455.8 785 456.8 785C457.8 785 460.9 784.3 463.6 783.5C470.9 781.2 476.9 779.4 482 778C489.5 776 496.4 773.6 497.3 772.9C497.8 772.6 496.8 769.6 495.2 766.4C489.9 755.7 484.3 736.8 482.5 724C481.2 714.6 481 699.1 482 688C483.7 668.9 483.9 667.7 484.9 665.1C485.4 663.7 486.1 660.7 486.4 658.4C487.2 652.9 490.3 645.8 495.3 638.3C500.8 630 504.3 628.8 510.4 632.9C514.1 635.4 535.9 649 558.5 662.8C563.5 665.8 569.3 669.5 571.5 671C573.7 672.5 581.6 677.3 589 681.8C596.4 686.3 607.6 693.2 613.8 697.2C620 701.2 632.5 709 641.5 714.5C672.2 733.1 673.3 734 674.7 738.8C675.3 741.1 676.7 744.3 677.8 745.8C678.8 747.3 680.7 751 681.9 754C683.2 757 685.3 761.9 686.6 764.8C687.9 767.7 689 770.3 689 770.6C689 770.8 690.1 772.7 691.4 774.8C692.7 776.8 694.4 780.2 695.1 782.2C695.8 784.3 696.8 786 697.3 786C697.7 786 697.8 786.4 697.5 787C697.2 787.5 697.4 788 697.9 788C698.5 788 699 788.6 699 789.3C699 790.1 699.6 792 700.4 793.6C701.2 795.2 702.3 797.7 702.9 799.2C703.5 800.8 704.3 802 704.7 802C705.2 802 711.6 796 719 788.7C726.4 781.5 733.3 774.9 734.2 774.2C735.9 772.8 736.7 773.2 748 780.5C749.9 781.7 756.3 785.8 762.3 789.5C768.2 793.3 773.5 796.9 774.1 797.6C774.8 798.4 775 800.4 774.6 802.4C774.1 805 773.3 806 771.2 806.5C769.7 806.8 767.8 807.7 767 808.5C764.7 810.5 743.4 821.4 734 825.5C729.3 827.5 724.6 829.5 723.5 830C715.2 833.9 685.7 842.3 675.1 843.8C672 844.2 671.8 844.4 672.5 847.4C672.8 849.1 673.3 851.4 673.5 852.5C673.8 853.6 675.3 858.8 677 864C678.6 869.2 680.5 875.3 681 877.5C681.6 879.7 683.4 885.8 685 891C686.6 896.2 688.1 901.6 688.3 903C688.7 905.1 694.1 924.1 695.8 929C696.1 929.8 697.3 934.1 698.6 938.5C699.9 942.9 703 953.7 705.6 962.5C708.1 971.3 711.1 981.6 712.1 985.5C713.2 989.3 714.5 993.4 715 994.5C715.6 995.6 716.4 998.5 716.9 1001C717.9 1005.6 724.5 1027.9 726 1031.5C726.5 1032.6 727.8 1037.3 729 1042C730.2 1046.7 732.2 1053.9 733.5 1058C734.8 1062.1 737 1069.8 738.5 1075C739.9 1080.2 741.8 1086.7 742.6 1089.5C743.4 1092.2 744 1095.6 743.9 1097C743.9 1098.4 744.1 1101.1 744.4 1103C744.7 1104.9 744.4 1107 743.8 1107.7C743.2 1108.4 743.1 1109 743.5 1109C745.5 1109 740.1 1113.5 736 1115.2C731.5 1117.2 730.7 1117.4 723.5 1119.1C715.6 1120.9 710 1122.6 710.4 1123.1C710.6 1123.3 709.4 1123.6 707.7 1123.8C702.9 1124.2 701.1 1124.5 700.4 1125.3C700 1125.7 698.8 1126 697.8 1126C696.8 1126 696 1126.4 696 1126.9C696 1127.8 698.7 1128.8 703.5 1129.6C705.2 1129.9 708.1 1130.6 710 1131.2C711.9 1131.9 714 1132.5 714.5 1132.6C719.1 1133.8 720.8 1134.2 723 1134.6C724.4 1134.9 726.2 1135.3 727 1135.5C727.8 1135.7 729.9 1136.1 731.5 1136.4C733.2 1136.7 738.7 1137.6 743.9 1138.5C749.1 1139.3 754.9 1140.3 756.9 1140.6C758.9 1140.9 761.6 1141.3 763 1141.5C764.4 1141.7 769.3 1142.1 774 1142.5C778.7 1142.8 784.3 1143.3 786.5 1143.6C789.9 1144.1 798.1 1144.2 827 1144.1C830 1144.1 833 1144.1 833.5 1144.1C834.1 1144.2 837.9 1143.9 842 1143.5C846.1 1143.1 852.1 1142.8 855.2 1142.7C858.4 1142.6 861 1142.2 861 1141.9C861 1141.6 863.8 1141 867.3 1140.6C877.1 1139.6 881.3 1139 884.8 1137.9C886.6 1137.3 889.7 1136.7 891.8 1136.6C893.8 1136.4 897.4 1135.8 899.8 1135.1C902.1 1134.4 904.5 1134.2 905 1134.5C905.6 1134.8 906 1134.6 906 1133.9C906 1133.2 906.3 1132.9 906.6 1133.3C906.9 1133.6 909 1133.2 911.2 1132.4C913.4 1131.7 915.6 1131.3 916.1 1131.6C916.6 1131.9 917 1131.7 917 1131.2C917 1130.7 918.4 1130.3 920.1 1130.2C921.8 1130.2 923.8 1129.6 924.6 1128.9C925.4 1128.3 926 1128.1 926 1128.5C926 1128.9 926.6 1128.8 927.3 1128.3C927.9 1127.7 929.5 1127.4 930.7 1127.5C931.9 1127.6 932.7 1127.3 932.5 1127C932.2 1126.6 933.9 1126 936.2 1125.7C938.4 1125.4 940.6 1124.7 940.9 1124.1C941.3 1123.6 942.8 1122.9 944.3 1122.6C945.7 1122.4 947.4 1121.9 948 1121.5C948.5 1121.2 949.8 1120.7 950.9 1120.5C951.9 1120.3 954.8 1119.2 957.3 1118.1C959.8 1116.9 962.6 1116 963.4 1116C964.2 1116 965 1115.6 965.2 1115C965.4 1114.5 966.6 1113.9 968 1113.8C969.4 1113.6 971.1 1112.9 971.8 1112.3C972.5 1111.6 974.9 1110.7 977.1 1110.4C979.2 1110 981 1109.4 981 1108.9C981 1108.4 981.7 1108 982.5 1108C983.3 1108 984 1107.5 984 1107C984 1106.4 984.8 1106 985.8 1106C986.7 1106 988.3 1105.3 989.3 1104.5C991.1 1103.2 991 1103.1 988.3 1101.3C986.8 1100.3 984.6 1098.7 983.5 1097.7C978.8 1093.4 967.2 1085 966 1085C965.3 1085 964.9 1084.7 965.3 1084.4C966 1083.6 964.8 1082.4 959.5 1078.5C957.3 1076.9 954.8 1074.9 953.8 1074C952.9 1073.2 950.7 1071.4 948.9 1070C947.1 1068.6 944.8 1066.7 943.9 1065.8C942.9 1064.9 941.9 1064.4 941.6 1064.8C941.3 1065.1 941 1064.9 941 1064.3C941 1063.3 936.1 1060.5 934.8 1060.8C934.3 1060.9 934 1060.3 934 1059.5C934 1058.7 933.7 1058 933.3 1058C932.8 1058 930.7 1056.4 928.5 1054.5C926.3 1052.6 924 1051 923.3 1051C922.6 1051 921.2 1050.2 920.2 1049.2C919.2 1048.3 916.6 1046 914.5 1044.2C910.8 1041.1 910.5 1040.5 910.6 1035.5C910.6 1032.6 911.1 1029.6 911.7 1028.8C912.2 1028.1 913 1026.4 913.4 1025C913.7 1023.6 915.6 1020.7 917.5 1018.5C919.4 1016.3 921 1014 921 1013.3C921 1012.7 921.3 1012 921.8 1011.8C922.6 1011.5 926.8 1005.9 931.9 998.5C933.8 995.8 936.2 992.6 937.2 991.5C938.3 990.4 940.5 987.3 942.3 984.5C944 981.8 945.7 979.3 946 979C946.3 978.7 949.8 974.1 953.9 968.8C961.5 958.6 963.6 955.7 969.5 947.5C976.3 937.9 997.9 908.9 1000.5 905.7C1001.3 904.8 1002 903.5 1002 903C1002 902.4 1002.3 902 1002.8 902C1003.2 901.9 1005.5 899 1008 895.4C1010.5 891.8 1013.6 887.4 1015 885.6C1025.8 871.4 1040 852.1 1040 851.5C1040 851.2 1040.4 850.4 1041 849.7C1045.8 843.8 1047.2 841.9 1046.9 841.5C1046.6 841.3 1042 842.2 1036.5 843.6C1018.8 848 994.7 849.8 975.5 848.1C963.5 847.1 942.2 843.8 936.5 842C925.8 838.8 910.6 833.8 905.6 832C897.5 829.1 875.2 818.1 865 812.1C860.3 809.3 856 807 855.3 807C854.6 807 853.8 805.4 853.4 803.5C852.9 800.6 853.2 799.7 855.1 798.1C857.3 796.3 889.4 775.9 907.3 765C919.2 757.7 936.9 746.7 941.3 743.8C943.6 742.3 946.9 740.3 948.5 739.4C951.7 737.6 983.2 718.2 989 714.5C998.2 708.5 1007.5 703.2 1007.7 703.8C1007.9 704.2 1009.1 708.5 1010.6 713.5C1013.7 724.8 1013.6 724.2 1014.3 726C1014.7 726.8 1016.3 732.2 1017.9 738C1019.6 743.8 1022.3 753.2 1024.1 759C1025.8 764.8 1027.3 769.9 1027.4 770.5C1027.6 771 1028 772.2 1028.3 773C1028.6 773.8 1029.4 776.5 1030 779C1031.5 784.9 1036.2 793.1 1037.7 792.6C1038.3 792.3 1039.1 792.4 1039.3 792.8C1039.5 793.2 1039.5 792.9 1039.3 792.2C1039.2 791.4 1040.3 789 1041.8 786.7C1043.3 784.4 1045.5 780 1046.6 777C1049.7 768.8 1054 756.3 1056 749.5C1057 746.2 1061 734.3 1065 723C1068.9 711.7 1072.2 702 1072.4 701.5C1073 699 1075.2 692.3 1076 690.5C1076.5 689.4 1077.8 685.5 1078.9 681.7C1080 678 1081.4 674.1 1081.9 673.1C1082.5 672.1 1083.2 669.8 1083.5 668C1083.8 666.2 1084.7 663.5 1085.5 661.9C1086.3 660.4 1087 658.3 1087 657.2C1087 656.2 1087.8 654.5 1088.9 653.4C1092.3 649.7 1121.6 632 1124.3 632C1129.4 632 1139.8 648.8 1141.9 660.4C1142.4 663.2 1143.3 667.4 1143.9 669.8C1144.5 672.2 1144.8 674.5 1144.5 675C1144.2 675.4 1144.4 676.9 1144.9 678.3C1146 681.1 1147.3 697.9 1147 706C1146.7 718.6 1146.1 724 1144.1 733.5L1141.9 743.5L1145.7 746.8C1151.3 751.6 1220.2 802.1 1220.6 801.7C1220.8 801.5 1221.9 795.3 1223 787.9C1224.1 780.5 1225.2 773.4 1225.4 772C1228.3 754.3 1229.5 707.1 1227.6 681C1227.1 674.1 1226.7 664.6 1226.6 659.7C1226.5 651.8 1226.7 650.9 1228.5 650.4C1229.6 650 1232.8 648.6 1235.5 647.3C1238.3 645.9 1241.8 644.6 1243.5 644.3C1245.1 644 1247.7 643 1249.1 641.9C1250.6 640.9 1252.1 640 1252.5 640C1252.9 640 1254.6 639.4 1256.3 638.6C1258.1 637.8 1262.4 636.1 1266 634.9C1269.6 633.7 1273.2 632 1274.1 631.3C1275 630.5 1277 629.7 1278.6 629.4C1280.2 629.2 1282.4 628.5 1283.5 628C1288.2 625.8 1293.6 623.6 1294.5 623.5C1295.1 623.4 1297.1 622.6 1299 621.8C1306.1 618.5 1321.8 612 1322.4 612C1322.8 612 1325.6 610.9 1328.6 609.5C1331.6 608.1 1334.8 607 1335.8 607C1336.7 607 1338.9 606.3 1340.5 605.4C1342.2 604.6 1346.2 603 1349.5 601.8C1352.8 600.7 1355.9 599.4 1356.5 598.9C1357 598.4 1358.4 598 1359.7 598C1361 598 1362 597.5 1362 597C1362 596.4 1362.8 596 1363.8 596C1365.2 596 1371.9 593.8 1378 591.3C1378.8 591 1380 590.6 1380.5 590.6C1381.1 590.5 1383.1 589.6 1385 588.6C1388.2 586.8 1389.8 586.3 1393.8 585.8C1394.4 585.7 1395 585.3 1395 584.8C1395 584.4 1395.8 584 1396.8 584C1397.8 584 1399.4 583.4 1400.5 582.6C1401.6 581.9 1405.2 580.5 1408.5 579.5C1411.8 578.6 1416.4 576.9 1418.7 575.9C1421.1 574.8 1423.3 574.1 1423.7 574.2C1424.2 574.2 1426.5 573.4 1429 572.2C1431.5 571 1434.1 570 1434.8 570C1435.4 570 1436 569.5 1436 569C1436 568.4 1436.8 567.2 1437.9 566.1C1440.5 563.5 1441.5 559 1439.5 559C1437.8 559 1437.7 557.6 1439 554.5C1439.6 553.1 1439.9 552.9 1440 554C1440.1 554.8 1440.6 553.8 1441.1 551.6C1442 548 1441.8 547.4 1438.4 543.4C1436.5 541 1434.4 539 1433.9 539C1433.3 539 1433.2 538.6 1433.5 538C1433.8 537.5 1433.5 537.2 1432.8 537.5C1431 538.1 1421.8 531.2 1422.6 529.8C1423 529.1 1422.9 529 1422.2 529.4C1421.6 529.8 1420.2 529.2 1419 528C1417.9 526.9 1416.8 526 1416.5 526C1416.2 526 1413.4 524.1 1410.3 521.7C1394.2 509.5 1370.4 493.1 1368.8 493C1368.3 493 1367.2 492.3 1366.3 491.4C1364 489.4 1354.8 483.7 1353.4 483.4C1352.8 483.3 1351.4 482.5 1350.4 481.6C1349.3 480.7 1348.3 480.1 1348 480.2C1347.2 480.5 1341 476.7 1341 475.8C1341 475.4 1339.4 474.8 1337.5 474.4C1335.6 474.1 1333.7 473.4 1333.4 472.9C1333.1 472.4 1329.7 470.4 1325.7 468.4C1321.7 466.5 1316.9 464 1315 463C1313.1 462 1307.2 459.1 1302 456.6C1296.8 454 1291.8 451.5 1291 451.1C1288.2 449.5 1280.5 446.1 1279 445.8C1278.2 445.6 1277 444.8 1276.3 444C1275.7 443.2 1274.6 442.5 1273.8 442.5C1273.1 442.5 1268.7 440.6 1264 438.4C1253.4 433.2 1247.7 430.6 1246.9 430.5C1246.6 430.5 1244.8 429.7 1242.9 428.8C1235.2 425.1 1225.8 421 1224.9 421C1224.3 421 1224.2 420.5 1224.5 420C1224.9 419.4 1224.8 419.1 1224.3 419.2C1223 419.7 1212 415.7 1212 414.8C1212 414.4 1211.3 414 1210.4 414C1209.5 414 1209.2 413.5 1209.6 412.8C1210 412.1 1209.9 412 1209.2 412.4C1208.1 413.1 1205.1 411.7 1195.5 406C1192.8 404.4 1189 402.4 1187.2 401.5C1185.1 400.6 1184.1 399.6 1184.6 398.9C1185 398.2 1184.9 398 1184.3 398.3C1183.4 398.9 1175.3 395.6 1170 392.4C1167.6 391 1160 387.4 1149.5 382.5C1135.3 375.9 1132.2 374.6 1129 373.4C1127.1 372.7 1125.6 371.8 1125.7 371.3C1125.8 370.9 1124.6 370.5 1123 370.4C1121.5 370.3 1118.3 369.3 1116.1 368.2C1113.8 367 1112 366.3 1112 366.5C1112 366.8 1110.5 366.3 1108.8 365.3C1107 364.4 1104.4 363.4 1103 363.2C1101.6 363 1098.5 361.9 1096 360.8C1093.5 359.6 1091.1 358.8 1090.7 358.9C1090.2 359 1088.4 358.4 1086.7 357.6C1083 355.9 1071.5 351.9 1069.1 351.5C1068.2 351.3 1067.4 351.1 1067.3 351C1067.1 350.8 1066.7 350.7 1066.3 350.6C1065.8 350.5 1063.5 349.7 1061 348.8C1058.5 347.8 1054.6 346.6 1052.3 346C1049.9 345.4 1048 344.6 1048 344.2C1048 343.8 1047.2 343.4 1046.3 343.4C1044.7 343.3 1040 342.4 1037.5 341.6C1037 341.4 1034.8 340.6 1032.8 339.6C1030.7 338.7 1028 338 1026.7 338C1025.4 338 1024 337.7 1023.6 337.2C1023.2 336.8 1022.5 336.5 1022.2 336.4C1021.8 336.4 1019.5 335.8 1017 335.1C1014.5 334.4 1012.1 333.7 1011.5 333.5C1008.7 332.9 1004.3 331.8 1003 331.4C1002.2 331.1 1001.4 330.9 1001.2 330.9C1001.1 331 999.5 330.4 997.7 329.7C996 328.9 993.9 328.5 993.1 328.8C992.3 329 992 328.9 992.3 328.4C992.6 327.9 991.8 327.5 990.7 327.4C987.7 327.3 982.5 326.2 976.5 324.5C973.8 323.7 970.4 323 969 322.8C967.6 322.6 966 322.1 965.4 321.8C964.8 321.4 962.8 320.8 960.9 320.5C959 320.2 950.5 317.7 941.9 314.9C923.3 309 912.2 306.1 890.5 301.4C884.8 300.2 870.4 298 862 297C856.8 296.5 850.5 295.7 848 295.5C840.3 294.6 788.9 294.2 781.3 295Z" />
        <path
            d="M612.5 746.6C610.3 747.5 605.4 749 601.5 750C582.8 754.9 578.3 756.2 575.6 757.6C574 758.4 572 759 571.1 759C569.2 759 547.9 765.1 535.8 769.1C531.1 770.7 526.5 772 525.6 772C524.8 772 522.6 772.6 520.8 773.4C517.8 774.7 506.8 777.6 501.1 778.6C499.8 778.9 497.9 779.5 496.9 780C496 780.6 492.5 781.7 489.3 782.6C486.1 783.4 481.3 784.8 478.5 785.6C472.7 787.3 469.7 788.2 462 790.3C459 791.2 451.1 793.5 444.5 795.5C437.9 797.5 430 799.8 427 800.6C424 801.5 420.3 802.8 418.9 803.6C417.5 804.3 416 804.7 415.6 804.3C415.3 804 415 804.2 415 804.8C415 805.4 414.1 806.2 413 806.5C411.9 806.9 411.3 807.6 411.6 808.2C412 808.8 411.5 809 410.1 808.5C407.7 807.8 407.6 807.9 409 811.5C409.9 813.8 409.8 814.1 408.5 813.6C407.6 813.3 406.2 813.5 405.2 814.1C402.6 815.7 403.3 823.6 406.9 835.9C409.9 845.9 409.9 846.4 408.2 847.9C405.2 850.6 398.7 855.5 393.5 859C390.8 860.9 387.9 862.9 387.3 863.6C386.6 864.3 382.8 866.9 378.9 869.5C375 872.1 371.6 874.9 371.3 875.6C371 876.4 370.3 877 369.7 877C369.2 877 367.3 878.1 365.6 879.3C363.9 880.6 360 883.4 357 885.5C354 887.6 350.4 890.4 349 891.7C347.6 893 345.7 894.3 344.8 894.6C343.8 894.9 343 895.5 343 896C343 896.5 342.2 897.1 341.3 897.4C340.3 897.7 338.4 899 337 900.3C335.6 901.5 332.8 903.6 330.8 904.9C328.7 906.1 327 907.5 327 907.9C327 908.3 325.8 909.3 324.3 910.1C322.7 910.8 319.2 913.3 316.3 915.5C313.5 917.7 309.3 920.8 307.1 922.4C304.9 924 303.3 925.7 303.6 926.1C303.9 926.6 303.4 926.7 302.6 926.4C301.7 926 300.8 926.5 300.4 927.4C300.1 928.3 299.2 929 298.5 929C297.8 929 297 929.4 296.8 929.8C296.7 930.2 294.3 932.1 291.7 934C288.7 936.1 287.1 937.9 287.5 938.8C287.8 939.7 287.5 940 286.6 939.7C285.6 939.3 285.2 939.7 285.5 941.1C285.8 942.6 285.5 943 284.5 942.6C282.2 941.8 281.9 943.6 284 945.5C285.9 947.2 285.8 949.6 283.9 948.4C283.3 948.1 282.3 948.6 281.5 949.6C280.4 951.1 280.4 951.8 281.6 953.4C282.4 954.5 283 956.3 283 957.3C283 958.3 283.7 959.8 284.6 960.7C285.4 961.6 285.9 962.9 285.6 963.7C285.3 964.5 285.5 964.8 286 964.5C286.5 964.2 288.4 966 290.2 968.6C292.9 972.5 304.3 987.8 307.2 991.5C307.7 992 310.2 995.6 312.9 999.5C318.6 1007.6 324.1 1015 325.5 1016.7C326.1 1017.3 328.3 1020.3 330.5 1023.4C332.7 1026.5 334.8 1029 335.2 1029C335.6 1029 336 1029.6 336 1030.4C336 1031.2 338.1 1033.9 340.6 1036.5C343.2 1039 345 1041.3 344.7 1041.7C344.3 1042 347.6 1046.8 351.9 1052.5C356.2 1058.1 360.3 1063.7 361 1065C361.7 1066.3 363.1 1068.3 364.1 1069.4C365.2 1070.6 368.2 1074.4 370.8 1078C373.3 1081.6 375.8 1084.6 376.2 1084.8C376.7 1085 377 1085.7 377 1086.3C377 1086.9 378.8 1089.5 381 1092.1C383.2 1094.7 385 1097.1 385 1097.4C385 1098.1 391 1106 393.8 1109.1C395 1110.3 396.2 1112.2 396.6 1113.2C396.9 1114.2 397.6 1115 398.1 1115C398.6 1115 399 1115.7 399 1116.5C399 1117.3 399.4 1118 399.8 1118C400.3 1118 401.3 1119.2 402.1 1120.7C403.6 1123.6 405.4 1126.2 408.2 1129.1C409.1 1130 410.1 1131.7 410.5 1132.9C410.8 1134.1 411.6 1135 412.1 1135C412.6 1135 413.4 1135.8 413.7 1136.7C414.1 1137.7 415.4 1139.4 416.7 1140.6C418 1141.8 419 1143.2 419 1143.8C419 1144.4 419.4 1145 419.8 1145.2C420.3 1145.3 422.5 1148.2 424.8 1151.5C427.1 1154.8 430.6 1159.5 432.5 1162C434.4 1164.5 436.3 1167.2 436.7 1168C437.1 1168.8 438.2 1170.1 439.2 1170.8C440.2 1171.5 441 1172.6 441 1173.1C441 1174.1 447.4 1182.8 451.9 1187.9C453.1 1189.2 454 1190.6 454 1191C454 1191.4 454.9 1192.8 456 1194.1C457.2 1195.3 460.7 1200.2 463.8 1204.9C466.9 1209.6 470.5 1214.4 471.8 1215.7C473 1216.9 474 1218.4 474 1219C474 1219.6 474.5 1219.8 475 1219.5C475.6 1219.2 476 1219.5 476 1220.2C476 1221.6 479.4 1225 480.8 1225C481.3 1225 482.2 1226.1 483 1227.4C483.8 1229 484.8 1229.6 485.8 1229.3C486.7 1228.9 487.1 1229.1 486.7 1229.7C486.3 1230.4 486.7 1230.7 487.7 1230.6C488.7 1230.4 489.8 1230.7 490.1 1231.2C492 1234.1 500.2 1231.6 506.5 1226.3C508.8 1224.3 511.2 1223.1 512.2 1223.4C513.2 1223.6 513.8 1223.5 513.5 1223C512.9 1222 519.5 1216.3 524.3 1213.9C526.3 1212.8 528 1211.5 528 1211C528 1210.4 528.6 1210 529.4 1210C530.2 1210 531.7 1209 532.7 1207.7C533.7 1206.5 535.2 1205.4 536 1205.2C536.7 1205 537.9 1204.2 538.5 1203.4C539.1 1202.6 540.3 1201.8 541.1 1201.7C542.6 1201.4 568.3 1183.4 575.9 1177.2C577.8 1175.7 581.8 1172.8 584.9 1170.6C588 1168.5 591.4 1165.9 592.6 1164.9C593.7 1163.8 595 1163 595.4 1163C596.2 1163 600.6 1159.7 604 1156.6C606 1154.9 615.9 1148 616.4 1148C616.7 1148 618.4 1146.4 620.3 1144.5C622.2 1142.6 624.2 1141 624.8 1141C625.4 1141 626.3 1140.2 626.9 1139.3C627.4 1138.3 628.2 1137.8 628.6 1138.2C629 1138.6 629.8 1138.3 630.4 1137.5C631 1136.7 632.8 1135.9 634.3 1135.6C637.1 1135.1 643.1 1133.4 646 1132.3C646.8 1131.9 647.7 1131.6 648 1131.5C648.3 1131.5 649.4 1131.1 650.5 1130.7C651.6 1130.4 653.6 1129.9 655 1129.6C656.4 1129.4 660.2 1128.2 663.5 1127C672.4 1123.8 675.9 1122.8 676.9 1123.4C677.4 1123.7 678.3 1123.3 679 1122.5C679.6 1121.8 680.7 1121.3 681.5 1121.6C682.2 1121.9 683.1 1121.7 683.5 1121.1C683.8 1120.5 685.1 1120 686.4 1120C687.6 1120 689 1119.7 689.4 1119.3C689.8 1118.8 690.6 1118.4 691.1 1118.4C691.6 1118.3 692.1 1118.1 692.3 1118C692.4 1117.9 693.4 1117.6 694.5 1117.5C696.3 1117.2 707.9 1114.4 710.5 1113.6C711.1 1113.4 712 1113.2 712.5 1113C713.1 1112.9 714 1112.4 714.6 1111.9C715.2 1111.4 716.4 1111.2 717.3 1111.6C718.1 1111.9 719.1 1111.7 719.5 1111.1C719.8 1110.5 720.9 1110 721.8 1110C722.7 1110 725.4 1109.2 727.8 1108.2C732 1106.5 732.1 1106.4 731.4 1102.7C730.9 1099.4 731.1 1099 732.9 1099C734.1 1099 735 1098.4 735.1 1097.7C735.4 1092.2 734.9 1087.5 733.2 1081.2C732 1077.2 731.1 1073.8 731 1073.5C730.9 1072.9 730.6 1071.9 728.9 1066.5C728.1 1064.3 727.5 1061.8 727.3 1061C727 1059 726.2 1055.6 726 1055.2C725.8 1055.1 725.7 1054.7 725.5 1054.2C725.4 1053.8 725 1052.8 724.7 1052C724.3 1051.2 722.9 1046 721.5 1040.5C720.1 1035 718.6 1029.6 718.1 1028.5C717.6 1027.4 716.7 1024.7 716.2 1022.5C715.6 1020.3 713.8 1013.8 712.1 1008C705.3 985.5 699.7 966.3 698.8 962.5C698.3 960.3 697.4 957.6 696.9 956.5C696.4 955.4 695.8 953.4 695.6 952C695.3 950.6 695.1 949.4 694.9 949.2C694.8 949.1 694.7 948.7 694.5 948.2C694.4 947.8 694.1 946.8 693.8 946C692.3 941.7 691 937.1 690.4 933.7C690.1 931.7 689.4 929.7 688.9 929.4C688.4 929.1 688 927.9 688 926.8C688 924.8 686.7 920 684.9 915.5C684.5 914.4 683.9 912.4 683.6 911C683.3 909.6 682.4 906 681.5 903C680.6 900 679.7 896.5 679.5 895.4C679.3 894.2 678.8 892.4 678.2 891.4C677.7 890.3 676.5 886.3 675.5 882.5C674.5 878.6 672.4 871.4 670.8 866.5C669.1 861.5 667.6 856.2 667.4 854.7C667.2 853.2 666.6 851 666 849.9C665.4 848.8 664.7 846.7 664.5 845.2C664 841.7 657.1 818 656.1 815.9C655.6 815.1 654.7 811.8 654 808.7C653.4 805.6 652.4 802.8 651.9 802.4C651.4 802.1 651.2 801.5 651.4 801.1C651.7 800.7 650.8 797.2 649.5 793.4C648.1 789.6 647 785.7 647 784.7C647 783.8 645.7 778.8 644.1 773.7C642.5 768.7 640.7 762.5 640 760.1C639.2 757.1 637.2 754 633.6 750.3C628.4 745.1 628.2 745 622.4 745.1C619.2 745.1 614.7 745.8 612.5 746.6ZM618.2 773.9C619.2 775.2 620 777.2 620 778.4C620 779.6 621.3 784.3 623 788.9C624.6 793.5 625.8 797.6 625.5 798C625.3 798.3 626.4 802.5 628 807.3C629.7 812.1 631.2 817.3 631.5 818.8C631.7 820.4 633.4 826.1 635.1 831.6C636.8 837 638.6 842.8 639 844.5C641.5 853.6 644.2 862.8 645 865C645.5 866.4 646.1 868.6 646.4 870C646.6 871.4 647.3 873.7 647.8 875.1C648.4 876.6 648.6 878 648.4 878.3C648.1 878.6 648.3 879.6 648.9 880.7C649.4 881.7 651.1 886.5 652.5 891.5C657.3 908 658.4 911.5 659.3 912.7C659.8 913.4 660 914 659.7 914C658.9 914 663.9 932.1 665.1 933.6C665.6 934.3 666.3 936.6 666.4 938.7C666.6 940.8 666.8 942.6 666.9 942.7C667 942.9 667 943.2 667 943.5C667 943.8 667.6 945.3 668.3 946.8C669.1 948.3 670.5 952.6 671.5 956.5C672.5 960.3 673.7 963.9 674.1 964.4C674.6 965 675 966.3 675 967.4C675 969.4 684.3 1002.4 686.1 1006.5C686.5 1007.6 687.6 1011.2 688.5 1014.5C692.6 1030.2 693.9 1034.7 694.8 1037C695.4 1038.4 696.6 1042.6 697.6 1046.5C698.5 1050.3 699.7 1053.9 700.2 1054.4C700.6 1055 701 1056.4 701 1057.6C701 1058.9 701.5 1061.1 702.2 1062.7C702.8 1064.2 703.4 1065.7 703.5 1066C703.5 1066.3 704.2 1069 704.9 1072C705.7 1075 706.7 1078.3 707.2 1079.2C708.9 1082.5 709.3 1089 707.8 1089.1C704.8 1089.3 697.3 1091.3 693.5 1093.1C692.4 1093.6 689.7 1094.4 687.5 1094.9C685.3 1095.4 679.9 1096.8 675.5 1098C671.1 1099.2 663.9 1101 659.5 1102C650.4 1104.2 639.1 1107.1 631 1109.5C621.7 1112.2 611.8 1115 605 1116.9C601.4 1117.9 597.2 1119.3 595.7 1119.9C594.2 1120.5 591.6 1121.1 590 1121.2C588.3 1121.3 587 1121.7 587 1122.1C587 1122.5 585.5 1123 583.8 1123.4C580.3 1124 574.3 1125.9 554.6 1132.2C548.1 1134.3 541.8 1136 540.6 1136C539.5 1136 535.5 1137.2 531.8 1138.6C524.6 1141.3 522.2 1141.4 521 1139C520.3 1137.6 517.7 1129.2 513.7 1115C512.3 1110.3 508.2 1096.4 500 1069C498.9 1065.4 497.4 1060 496.6 1057C495.9 1054 494.4 1048.8 493.4 1045.5C492.4 1042.2 491.5 1039 491.4 1038.5C491.4 1037.9 491.1 1036.8 490.8 1036C490.5 1035.2 489.5 1031.8 488.6 1028.5C485.7 1018.3 482 1005.9 478.4 994.9C476.5 989.1 475 983.2 475 981.9C475 980.5 474.5 978.9 473.8 978.2C473.1 977.5 472.9 977 473.3 977C473.7 977 473.4 975.3 472.6 973.2C470.4 967.2 469.1 962.7 468.6 959.5C468.3 957.8 466.9 953.3 465.5 949.5C464.1 945.6 462.8 941.4 462.6 940C462.4 938.6 461 933.4 459.5 928.5C455.1 913.7 454.2 910 454.7 910C455 910 454.8 909.4 454.2 908.7C453.6 908 452.9 906.3 452.6 904.8C452.4 903.4 451.7 901.3 451.2 900.3C450.6 899.3 450 897.1 449.7 895.5C449.4 893.8 448 889.1 446.7 885C445.3 880.9 444 876.1 443.7 874.5C443.4 872.8 442.5 869.5 441.6 867C440.7 864.5 440 861.7 440 860.7C440 859.8 439.6 859 439 859C438.5 859 438 857.7 438 856.1C438 852.8 435 842.8 433.7 841.9C433.3 841.6 432.8 839.8 432.8 837.9C432.7 836 432.1 833.1 431.3 831.3C430.6 829.5 430 827.7 430 827.1C430 825.6 434.6 823.1 438.2 822.6C440 822.4 442.6 821.7 444 821.2C445.4 820.7 448.6 820 451.2 819.6C453.8 819.2 456.2 818.5 456.5 818C456.8 817.5 459.1 816.8 461.5 816.4C464 816.1 466 815.4 466 815C466 814.6 468.1 813.9 470.6 813.5C473.2 813.1 476 812.4 476.9 811.9C477.8 811.4 482.3 810.1 487 809C491.7 807.8 496 806.8 496.5 806.6C503.9 804.6 506.8 803.7 508.2 802.9C509.2 802.4 510.8 802 511.8 802C512.8 802 514 801.7 514.4 801.3C514.7 800.9 515.6 800.5 516.3 800.4C517.7 800.2 528.7 797 531 796.2C531.8 795.9 533 795.6 533.5 795.5C534.1 795.5 535 795.1 535.6 794.7C536.2 794.4 538.1 793.9 539.9 793.8C541.6 793.7 543 793.3 543 793C543 792.6 543.6 792.3 544.4 792.3C545.1 792.3 550.3 790.9 556 789.1C561.6 787.3 566.7 785.7 567.4 785.5C568 785.4 569.2 785 570 784.7C572.9 783.5 580.5 781.6 581.8 781.7C582.4 781.7 583 781.4 583 780.9C583 780.4 583.9 780 585.1 780C586.2 780 587.9 779.6 588.9 779C589.9 778.5 592 777.8 593.6 777.6C595.2 777.3 600.3 775.8 605 774.2C614.9 770.9 615.7 770.9 618.2 773.9ZM422.1 888.6C428 910.3 428.2 911 428.9 911C429.2 911 429.5 912.3 429.6 913.8C429.6 915.3 430.4 918.1 431.3 920C432.2 921.9 433.2 925 433.5 926.9C434.1 930.4 432.7 932.3 426.8 935.8C425.2 936.7 424 937.7 424 938C424 938.3 422.4 940.3 420.5 942.5C418.6 944.7 417 946.9 417 947.3C417 947.7 416.2 949.2 415.3 950.7C414.3 952.1 413.5 953.8 413.3 954.4C413.2 955 412.3 957.5 411.4 960C408.9 966.7 409.2 978.9 412.1 988.1C414.5 995.8 420.5 1005.6 425.4 1009.9C426.9 1011.2 428.7 1012.9 429.4 1013.5C430 1014.1 431.4 1014.9 432.4 1015.3C434.1 1016 433.9 1016.4 430.4 1019.9C425.9 1024.2 424 1026.6 424 1027.6C424 1028 423.4 1029.1 422.6 1029.9C418.7 1034.2 416.8 1051.2 419 1060.5C421.8 1071.9 428.7 1080.3 441 1087.6C452.9 1094.6 456.2 1095.6 462.3 1094C465.2 1093.3 470.3 1091.2 473.7 1089.3L479.9 1085.9L480.5 1088.7C480.8 1090.2 482.4 1095.8 484 1101C489.5 1119.3 491 1124.6 491 1126.4C491 1130.2 499.8 1155 501.1 1155C501.5 1155 502.1 1156.1 502.4 1157.5C503 1159.7 507 1164.9 507 1163.4C507 1163.1 508 1164 509.3 1165.3C512.5 1168.8 515.9 1168.4 538.2 1161.9C541.9 1160.8 546.5 1159.6 548.5 1159.3C550.4 1159 552 1158.3 552 1157.8C552 1157.3 552.6 1157 553.3 1157.3C553.9 1157.5 555.9 1157.1 557.7 1156.3C561.4 1154.8 562.8 1156 559.9 1158.1C558.7 1158.9 556.6 1160.5 555.2 1161.8C553.7 1163 551.7 1164.3 550.8 1164.6C549.8 1164.9 549 1165.6 549 1166.1C549 1166.7 548.6 1166.8 548 1166.5C547.5 1166.2 547 1166.3 547 1166.9C547 1167.5 545.7 1168.6 544.1 1169.5C542.4 1170.3 539.4 1172.6 537.3 1174.5C535.2 1176.4 532.7 1178.2 531.8 1178.5C530.9 1178.8 528.2 1180.9 525.8 1183.1C523.4 1185.3 520.3 1187.9 518.8 1188.8C517.2 1189.7 516 1190.8 516 1191.2C516 1191.6 515.3 1192 514.5 1192C513.7 1192 513 1192.4 513 1193C513 1193.5 512.4 1194 511.6 1194C510.8 1194 508.9 1195.1 507.4 1196.4C496.8 1205.5 495.9 1206 493.9 1204.7C492.9 1204.1 492 1203.1 492 1202.5C492 1202 490.6 1199.9 488.9 1198C487.2 1196.1 484.5 1192.4 482.8 1189.8C481.1 1187.2 479.4 1185 479.1 1185C478.7 1185 477.6 1183.4 476.6 1181.5C475.5 1179.6 474.3 1178 473.7 1178C473.2 1178 473.3 1177.3 474 1176.5C475.1 1175.2 475 1175.1 473.8 1175.5C472.2 1176.1 458 1158.2 458 1155.5C458 1154.6 457.6 1154.2 457 1154.5C456.5 1154.8 456 1154.4 456 1153.5C456 1152.7 455.4 1151.7 454.7 1151.4C453.9 1151.1 451.4 1148 449 1144.5C446.7 1140.9 444.3 1138 443.8 1138C443.3 1138 443.1 1137.6 443.4 1137.2C443.7 1136.7 442.9 1135.3 441.7 1133.9C438 1129.8 432.8 1123 433.4 1123C433.7 1123 433.2 1122.2 432.3 1121.1C431.3 1120.1 428.7 1116.7 426.5 1113.5C424.3 1110.4 420.6 1105.4 418.3 1102.5C415.9 1099.7 414 1096.8 414 1096.1C414 1095.5 413.6 1095 413 1095C412.5 1095 412 1094.5 412 1093.9C412 1093.3 411.4 1092.3 410.8 1091.6C408.2 1088.9 405 1085 405 1084.4C405 1084.2 403.9 1082.7 402.5 1081.2C401.1 1079.7 400.2 1077.8 400.5 1077C400.9 1076.2 400.8 1075.9 400.4 1076.2C399.7 1077 397 1074.7 397 1073.3C397 1072.8 395.7 1071.1 394 1069.5C392.4 1068 390.4 1065.2 389.5 1063.4C388.6 1061.5 387.4 1060 386.8 1060C386.2 1060 386 1059.7 386.3 1059.4C386.7 1059 386.2 1058 385.2 1057.1C384.2 1056.2 381.9 1053.4 380 1050.7C378.2 1048.1 376.3 1046 375.8 1046C375.4 1046 375 1045.2 375 1044.2C375 1043.2 374.2 1041.7 373.3 1040.8C371.1 1038.8 370.4 1037.8 366.5 1032C364.9 1029.6 362.7 1026.7 361.7 1025.7C360.7 1024.7 360.2 1023.4 360.6 1022.8C361 1022.1 360.9 1022 360.2 1022.4C359.5 1022.8 359 1022.7 359 1022.2C359 1021.7 357.7 1019.6 356 1017.5C354.4 1015.5 353.3 1013.3 353.7 1012.7C354 1012.2 353.8 1012 353.2 1012.4C351.9 1013.2 348.8 1009.1 349.7 1007.7C350 1007.1 349.8 1007 349.2 1007.4C348.5 1007.8 348 1007.7 348 1007.2C348 1006.7 347 1005.2 345.9 1003.9C342 999.5 336 991.3 336 990.4C336 989.9 334.5 987.8 332.6 985.8C330.7 983.7 328.9 981.1 328.5 980C328.1 978.8 327.6 978.1 327.2 978.4C326.9 978.7 325.4 976.9 323.9 974.2C322.3 971.6 319.5 967.7 317.5 965.5C315.6 963.3 314 961.2 314 960.9C314 960.6 312.7 958.6 311 956.5C308.3 953.1 308.2 952.6 309.5 950.6C310.4 949.3 312.2 947.7 313.8 946.9C317.4 945.1 321.5 942 320.4 942C319.9 941.9 321.1 941.2 323 940.3C324.9 939.4 326.8 938.7 327.2 938.8C327.6 938.9 328.2 938.1 328.5 937C328.8 936 329.9 934.8 330.8 934.5C332.3 934 336.2 931.1 341.3 926.6C342.2 925.7 343 925.3 343 925.6C343 925.9 345.6 924.2 348.8 921.8C351.9 919.4 355.8 916.6 357.5 915.5C359.1 914.5 361.5 912.6 362.9 911.4C364.2 910.2 366.4 908.6 367.9 907.8C369.3 907.1 371 906 371.5 905.4C373.5 903.3 385.8 894 386.7 894C387.2 894 388.3 893.2 389.1 892.2C390 891.3 391.7 889.8 393 889C394.2 888.2 395.9 886.9 396.6 886.2C397.4 885.5 398 885.1 398 885.4C398 885.8 399.2 884.9 400.8 883.6C402.3 882.2 403.7 881.2 404 881.3C404.3 881.4 405.6 880.5 406.9 879.3C408.2 878.1 409.8 877.3 410.3 877.7C410.9 878 411 877.8 410.7 877.3C409.8 875.9 416.2 871.8 417.3 872.9C417.8 873.4 419.9 880.4 422.1 888.6Z" />
        <path
            d="M604.5 885.7C590.8 888.8 578.1 904 568.2 929.1C567.6 930.6 566.8 933.8 566.5 936.4C565.6 942 564.2 943.2 562.1 939.9C560 936.8 555.3 932.1 551.2 929C549.3 927.6 546.6 925.6 545.2 924.4C532.8 914.7 513.9 910.7 501.2 915.1C494.3 917.5 493.1 918.4 490.1 923.5C488 927 487.7 928.7 487.8 937.7C487.8 943.3 488.1 949.4 488.5 951.2C489.7 957.5 491.4 963 492.2 963C492.6 963 493 963.5 493 964.2C493 964.8 494.2 967.8 495.6 970.9C498.3 976.6 506.8 985.6 520.3 997.4C524 1000.6 528.5 1004.6 530.3 1006.1C532 1007.7 534.3 1009.2 535.3 1009.6C536.2 1009.9 537 1010.5 537 1011C537 1011.4 539.1 1013.2 541.8 1014.9C544.4 1016.5 549.9 1020.4 554 1023.5C564 1030.9 569.8 1034.7 580.4 1041.1L589.3 1046.4L591.2 1043.9C595 1039 604.9 1023.3 609 1015.5C611.3 1011.1 613.8 1006.8 614.5 1006C616.7 1003.3 625.8 979.3 627.5 971.6C627.7 970.6 628.6 967.4 629.4 964.6C633.7 949.5 635.3 937.7 634.6 925.5C633.8 908.6 631 900.2 623.6 892.2C618.1 886.2 611.7 884.1 604.5 885.7Z"
            fill="#e61e1e" />
        <path
            d="M1131 748.7C1125.7 750.6 1121.2 753.6 1119 756.7C1117.6 758.7 1115.5 761.3 1114.3 762.7C1113 764 1112 765.5 1112 766C1112 766.4 1110.5 768.4 1108.8 770.3C1107 772.2 1104.4 775.6 1103.1 777.8C1101.8 780 1099.2 783.5 1097.4 785.5C1095.6 787.6 1094.2 789.5 1094.3 789.9C1094.4 790.2 1093.2 791.8 1091.7 793.4C1090.2 795 1089.2 797 1089.4 797.7C1089.7 798.4 1089.6 798.9 1089.2 798.7C1088.2 798.4 1084.8 802.1 1083.1 805.3C1082.3 806.8 1081.3 808 1080.8 808C1080.4 808 1080 808.7 1080 809.5C1080 810.3 1079.6 811 1079.2 811C1078.2 811 1074.5 817.2 1074.8 818.3C1074.9 818.8 1074.7 818.9 1074.2 818.6C1073.3 818.1 1070.5 821.6 1068.1 826.2C1067.3 827.7 1066.4 828.7 1066 828.5C1065.6 828.3 1064.3 830 1063 832.3C1061.7 834.6 1059.7 837.5 1058.5 838.6C1057.4 839.8 1054.7 843.3 1052.5 846.4C1050.3 849.6 1046.5 854.9 1044 858.2C1041.5 861.6 1039.1 865 1038.5 865.9C1038 866.8 1036.9 867.9 1036.3 868.3C1035.6 868.7 1035 869.7 1035 870.3C1035 871 1033.7 873 1032.1 874.7C1030.5 876.5 1029.5 878.1 1029.8 878.4C1030.1 878.7 1029.8 879 1029.2 879C1028.5 879 1028 879.6 1028 880.3C1028 881 1027.1 882.1 1025.9 882.8C1024.7 883.6 1024.1 884.7 1024.4 885.6C1024.7 886.4 1024.4 887 1023.7 887.1C1022.5 887.1 1015 896.8 1012.1 902C1011.3 903.4 1009 906.5 1006.8 908.9C1004.7 911.3 1003.2 913.5 1003.4 913.7C1003.6 913.9 1002.7 915.3 1001.4 916.7C1000.1 918.1 999.3 919.8 999.7 920.4C1000 921 1000 921.2 999.5 920.8C999.1 920.4 996.6 922.8 994.1 926.3C991.6 929.7 989.3 932.7 989 933C988.7 933.3 986.8 936.1 984.6 939.2C982.5 942.4 980.3 945 979.7 945C979.1 945 978.9 945.3 979.3 945.6C979.6 945.9 979.2 946.9 978.3 947.8C977.5 948.7 972.4 955.6 966.9 963C961.4 970.4 956.4 977.2 955.7 978C955 978.8 953.5 981.1 952.3 983C951.1 985 949.2 987.7 948.1 989C946.9 990.4 945.1 992.6 944 994C942.8 995.4 941 997.8 939.9 999.5C938.9 1001.1 936.6 1004.3 934.9 1006.5C933.3 1008.7 930.5 1012.6 928.9 1015.2C927.2 1017.9 925.4 1020 925 1020C924.1 1020 921.8 1026.8 921.4 1030.2C921.3 1031.2 921.8 1032 922.5 1032C923.2 1032 923.8 1033.1 923.8 1034.5C923.8 1035.8 923.4 1036.7 923 1036.5C922.6 1036.2 921.9 1036.7 921.6 1037.5C921 1039.1 927.7 1046.6 928.8 1045.5C929.1 1045.3 929.9 1045.9 930.7 1047C931.5 1048.1 932.7 1049 933.3 1049C934 1049 936.3 1050.6 938.5 1052.5C940.7 1054.4 943.1 1056 943.8 1056C944.4 1056 945 1056.4 945 1056.8C945 1057.2 946.5 1058.4 948.3 1059.5C950 1060.5 952 1062.1 952.7 1062.9C953.4 1063.8 954 1064.1 954 1063.6C954 1063.2 954.9 1063.8 956 1065.1C957 1066.4 957.9 1067.1 958 1066.5C958 1066 958.7 1066.6 959.6 1067.8C960.4 1069 961.6 1069.8 962.1 1069.4C962.7 1069.1 963.4 1069.7 963.7 1070.8C964 1072.1 964.8 1072.6 965.6 1072.3C966.4 1072 967 1072.3 967 1072.9C967 1073.6 967.8 1074.3 968.8 1074.7C969.7 1075 972 1076.8 973.8 1078.7C975.6 1080.5 977.3 1082 977.6 1082C978.1 1082 988 1088.9 990 1090.6C993.4 1093.7 997.8 1097 998.6 1097C999 1097 1000.3 1097.8 1001.4 1098.9C1002.6 1099.9 1006 1102.5 1009.1 1104.6C1012.2 1106.8 1016.2 1109.7 1018.1 1111.2C1025.7 1117.4 1051.4 1135.4 1052.9 1135.7C1053.7 1135.8 1054.9 1136.6 1055.5 1137.4C1056.1 1138.2 1057.3 1139 1058 1139.2C1058.8 1139.4 1060.3 1140.5 1061.3 1141.7C1062.3 1143 1063.8 1144 1064.6 1144C1065.4 1144 1066 1144.4 1066 1145C1066 1145.5 1067.7 1146.8 1069.8 1147.9C1074.5 1150.3 1081.1 1156 1080.5 1157C1080.2 1157.5 1080.8 1157.6 1081.8 1157.4C1082.8 1157.1 1085.2 1158.3 1087.5 1160.3C1093.9 1165.6 1102.8 1168.2 1103.8 1165.1C1104.1 1164.3 1104.8 1164.4 1106.2 1165.1C1108 1166.1 1108.2 1166 1107.7 1164.5C1107.2 1163.4 1107.4 1163 1108.2 1163.3C1108.9 1163.5 1110.2 1162.6 1111.1 1161.3C1112 1159.9 1112.9 1159 1113.1 1159.1C1113.9 1159.7 1118 1155.5 1118 1154.2C1118 1153.5 1118.4 1153.1 1118.9 1153.4C1119.3 1153.7 1120.2 1152.8 1120.9 1151.4C1121.5 1149.9 1122.5 1149.2 1123.2 1149.6C1123.9 1150 1124 1149.9 1123.6 1149.2C1123.2 1148.5 1123.3 1148 1123.7 1148C1124.2 1148 1125.4 1146.4 1126.4 1144.5C1127.4 1142.6 1128.6 1141.3 1129.1 1141.6C1130.1 1142.2 1132.2 1138.5 1131.3 1137.6C1131 1137.3 1131.1 1137 1131.7 1137C1132.3 1137 1133.1 1135.9 1133.4 1134.5C1133.8 1133.1 1134.5 1132 1135 1132C1135.5 1132 1137.2 1129.9 1138.7 1127.2C1140.2 1124.6 1142.1 1121.8 1143 1121C1143.8 1120.2 1145.9 1117.7 1147.5 1115.5C1149.1 1113.3 1151 1110.9 1151.7 1110.2C1152.4 1109.5 1153 1108.3 1153 1107.7C1153 1107.1 1153.9 1105.7 1155 1104.5C1157.3 1102.3 1164.9 1092.1 1169.1 1085.8C1170.5 1083.7 1172 1082.3 1172.4 1082.7C1172.8 1083.2 1173 1083 1172.8 1082.3C1172.6 1081.7 1174.2 1079.1 1176.3 1076.6C1178.3 1074.2 1180 1071.6 1180 1071C1180 1070.4 1180.7 1069.7 1181.5 1069.4C1182.3 1069.1 1183.2 1067.9 1183.5 1066.9C1183.9 1065.8 1185.1 1063.9 1186.3 1062.6C1188.8 1059.9 1189.2 1059.4 1193.9 1052.5C1195.8 1049.7 1197.9 1047.2 1198.4 1046.8C1199.1 1046.3 1199.1 1046 1198.5 1046C1198 1046 1198.4 1045.3 1199.4 1044.5C1200.5 1043.7 1201 1043 1200.4 1043C1199.9 1043 1200 1042.6 1200.6 1042.2C1202 1041.4 1209 1032.3 1209 1031.4C1209 1031.1 1211.1 1028.4 1213.6 1025.4C1216.2 1022.4 1218 1020 1217.6 1020C1217.1 1020 1220.1 1016.3 1223.6 1012.6C1224.1 1012 1225.5 1009.9 1226.6 1008C1227.6 1006.1 1229.1 1004.1 1229.8 1003.7C1230.4 1003.3 1231.7 1001.5 1232.6 999.9C1233.4 998.2 1235 995.9 1236 994.7C1237 993.5 1239 990.9 1240.3 989C1241.6 987.1 1243.3 985.7 1244.1 985.8C1244.9 986 1245.2 985.9 1244.8 985.5C1244.4 985.1 1245.7 982.5 1247.6 979.8C1249.4 977 1250.7 974.3 1250.3 973.7C1250 973.1 1250.2 973 1250.8 973.4C1251.5 973.8 1252 973.8 1252 973.3C1252 972.9 1253.4 971.1 1255 969.3C1256.7 967.5 1258 965.7 1258 965.1C1258 964.5 1259 963 1260.3 961.7C1263.7 958.1 1268 952.6 1268 951.7C1268 951.3 1268.9 949.9 1270 948.7C1271.1 947.5 1274.1 943.5 1276.6 939.8C1279.2 936.1 1281.6 933 1282 933C1282.4 933 1283.5 931.2 1284.5 929C1285.5 926.8 1286.7 925.3 1287.1 925.6C1287.6 925.9 1288 925.6 1288 924.9C1288 924.2 1288.9 922.6 1290.1 921.4C1291.2 920.2 1295.4 914.5 1299.4 908.8C1303.4 903.2 1307.2 898.6 1307.8 898.7C1308.4 898.9 1308.7 898.4 1308.4 897.6C1308.1 896.9 1308.6 895.7 1309.5 895C1310.3 894.3 1311 892.7 1311 891.4C1311 890.1 1311.5 889 1312.2 889C1312.8 889 1313 888.7 1312.7 888.3C1312.3 888 1312.5 887.1 1313 886.5C1313.7 885.6 1313.2 884.5 1311.4 882.6C1309 880.3 1309 879.6 1311.2 879.9C1311.5 879.9 1311.7 879.2 1311.5 878.2C1311.4 877.3 1310.6 876.6 1309.7 876.8C1308.6 877 1308.2 876.5 1308.5 875.1C1308.8 873.7 1308.4 873.3 1307.4 873.7C1306.5 874 1306.2 873.7 1306.5 872.8C1306.9 871.9 1305.3 870.1 1302.3 868C1299.7 866.1 1297.4 864.2 1297.2 863.8C1297 863.4 1296.2 863 1295.5 863C1294.8 863 1293.9 862.3 1293.6 861.4C1293.2 860.5 1292.3 860 1291.4 860.4C1290.6 860.7 1290.1 860.6 1290.3 860.2C1290.6 859.8 1289.1 858.3 1287.1 856.7C1285.1 855.2 1281 852 1278 849.7C1275 847.4 1271.3 844.8 1269.8 844.1C1268.2 843.3 1267 842.3 1267 841.9C1267 841.5 1265.3 840.1 1263.3 838.9C1261.2 837.6 1258.4 835.5 1257 834.3C1255.6 833 1253.7 831.7 1252.8 831.4C1251.8 831.1 1251 830.5 1251 830C1251 829.5 1250.2 828.9 1249.3 828.6C1248.3 828.3 1246.4 827 1245 825.7C1243.6 824.4 1240 821.6 1237 819.5C1234 817.4 1230.1 814.6 1228.4 813.3C1226.7 812.1 1224.8 811 1224.3 811C1223.7 811 1223 810.4 1222.7 809.6C1222.4 808.9 1219 806.1 1215.1 803.5C1211.2 800.9 1207.4 798.3 1206.7 797.6C1206.1 796.9 1203.3 794.9 1200.5 793C1195.1 789.4 1188.4 784.3 1186.1 782.2C1185.4 781.5 1183.5 780.1 1182.1 779.2C1180.7 778.3 1176.8 775.5 1173.5 773C1170.2 770.5 1166.2 767.5 1164.5 766.2C1162.9 765 1159 762.3 1156 760.2C1153 758.2 1149.8 755.8 1148.9 755C1144.4 751.1 1141.3 749.1 1142.4 750.9C1142.8 751.5 1141.5 751.1 1139.5 750C1136 748 1133.8 747.7 1131 748.7ZM1141.4 778.6C1146.4 782.6 1152.6 787.4 1155 789C1156.2 789.8 1158 791.2 1159 792C1160 792.8 1161.8 794.2 1163 795C1171 800.5 1183.5 810.5 1183.2 811.2C1183.1 811.7 1183.3 811.9 1183.8 811.6C1184.3 811.3 1185.7 812 1186.8 813.1C1188 814.1 1189.2 814.9 1189.4 814.8C1189.6 814.6 1191.2 815.7 1192.9 817.3C1194.6 818.8 1196 819.8 1196 819.4C1196 819.1 1196.6 819.5 1197.4 820.2C1198.1 820.9 1199.8 822.2 1201 823C1202.3 823.8 1204 825.3 1204.9 826.2C1205.7 827.2 1206.8 828 1207.3 828C1208.2 828 1220.5 837.3 1222.5 839.4C1223.1 840 1224.7 841.1 1226.1 841.8C1227.6 842.6 1229.8 844.2 1231.1 845.4C1232.5 846.6 1234.9 848.5 1236.5 849.5C1238.2 850.6 1242.1 853.4 1245.3 855.8C1248.4 858.2 1251 859.9 1251 859.6C1251 859.3 1251.8 859.7 1252.8 860.6C1257.8 865.1 1261.7 868 1263.2 868.5C1264.1 868.8 1265.2 870 1265.5 871C1265.8 872.1 1266.4 872.9 1266.8 872.8C1267.2 872.7 1269.1 873.4 1271 874.3C1272.9 875.2 1274.1 875.9 1273.6 876C1272.5 876 1276.6 879.1 1280.2 880.9C1281.8 881.7 1283.6 883.3 1284.5 884.6C1285.8 886.6 1285.7 887.1 1283 890.5C1281.3 892.6 1280 894.6 1280 894.9C1280 895.2 1278.4 897.3 1276.5 899.5C1274.5 901.7 1271.7 905.6 1270.1 908.2C1268.6 910.9 1267.1 912.7 1266.8 912.4C1266.4 912.1 1265.9 912.8 1265.5 914C1265.1 915.1 1263.3 917.7 1261.4 919.8C1259.5 921.8 1258 923.9 1258 924.4C1258 925.3 1252 933.5 1248.1 937.9C1247 939.2 1246 940.7 1246 941.2C1246 941.7 1245.5 941.8 1244.8 941.4C1244.2 941 1244 941.1 1244.3 941.7C1245.2 943.1 1242.1 947.2 1240.8 946.4C1240.2 946 1240 946.2 1240.3 946.7C1240.7 947.3 1239.6 949.5 1238 951.5C1236.3 953.6 1235 955.7 1235 956.2C1235 956.7 1234.5 956.8 1233.8 956.4C1233.1 956 1233 956.1 1233.4 956.8C1233.8 957.4 1233.3 958.7 1232.3 959.7C1231.3 960.7 1229.2 963.6 1227.5 966C1223.6 971.8 1222.9 972.8 1220.8 974.8C1219.8 975.7 1219 977.2 1219 978.2C1219 979.2 1218.6 980 1218.2 980C1217.7 980 1215.8 982.1 1214 984.7C1212.1 987.4 1209.8 990.2 1208.8 991.1C1207.8 992 1207.3 993 1207.7 993.4C1208 993.7 1207.8 994 1207.2 994C1206.6 994 1205.4 995.5 1204.5 997.4C1203.6 999.2 1201.6 1002 1200 1003.5C1198.3 1005.1 1197 1006.8 1197 1007.3C1197 1008.7 1194.3 1011 1193.6 1010.2C1193.2 1009.9 1193.1 1010.2 1193.5 1011C1193.8 1011.8 1192.9 1013.7 1191.5 1015.2C1190.1 1016.7 1189 1018.2 1189 1018.5C1189 1018.9 1188.4 1019.7 1187.8 1020.4C1184.5 1023.8 1182 1027.1 1182 1028C1182 1028.6 1181.6 1029 1181 1029C1180.5 1029 1180 1029.5 1180 1030.1C1180 1030.8 1178.1 1033.7 1175.8 1036.5C1173.4 1039.4 1169.7 1044.4 1167.5 1047.5C1165.3 1050.7 1162.7 1054.1 1161.8 1055.1C1160.8 1056.2 1160.3 1057 1160.6 1057C1161.2 1057 1156 1063.8 1152.3 1067.9C1151.1 1069.3 1150.3 1070.7 1150.6 1071.2C1150.9 1071.6 1150.7 1072 1150.2 1072C1149.7 1072 1147.3 1074.9 1145 1078.5C1142.6 1082 1140.1 1085.1 1139.3 1085.4C1138.6 1085.7 1138 1086.7 1138 1087.5C1138 1088.4 1137.6 1088.8 1137 1088.5C1136.5 1088.2 1136 1088.6 1136 1089.5C1136 1092.2 1121.8 1110.1 1120.2 1109.5C1119 1109.1 1118.9 1109.2 1120 1110.5C1120.7 1111.3 1120.8 1112 1120.3 1112C1119.7 1112 1118.5 1113.6 1117.4 1115.5C1116.4 1117.4 1115.3 1119 1114.9 1119C1114.6 1119 1112.9 1121.2 1111.2 1123.8C1109.5 1126.4 1106.8 1130.1 1105.1 1132C1103.4 1133.9 1102 1136 1102 1136.5C1102 1137.1 1101.1 1138.1 1100.1 1138.7C1098.1 1140 1097.2 1139.5 1086.6 1130.4C1085.1 1129.1 1083.2 1128 1082.4 1128C1081.6 1128 1081 1127.5 1081 1127C1081 1126.4 1080.3 1126 1079.5 1126C1078.7 1126 1078 1125.6 1078 1125.2C1078 1124.8 1076.8 1123.7 1075.3 1122.8C1073.7 1121.9 1070.6 1119.3 1068.2 1117.1C1065.8 1114.9 1063.1 1112.8 1062.2 1112.5C1061.3 1112.2 1058.8 1110.4 1056.7 1108.5C1054.6 1106.6 1051.6 1104.3 1049.9 1103.5C1048.3 1102.6 1047 1101.5 1047 1100.9C1047 1100.3 1046.6 1100.2 1046 1100.5C1045.5 1100.8 1045 1100.7 1045 1100.1C1045 1099.6 1044.2 1098.9 1043.3 1098.6C1041.7 1098.1 1039.7 1096.6 1034.3 1092C1033.6 1091.4 1031.5 1090 1029.5 1088.9C1027.6 1087.7 1026 1086.4 1026 1085.9C1026 1085.4 1025.3 1085 1024.5 1085C1023.7 1085 1023 1084.6 1023 1084C1023 1083.5 1021.6 1082.3 1019.8 1081.4C1018 1080.5 1016.1 1079.2 1015.4 1078.6C1012.4 1075.8 1009.9 1074 1008.9 1074C1008.4 1074 1008.1 1073.6 1008.5 1073.1C1008.8 1072.6 1008.2 1071.9 1007.2 1071.6C1003.9 1070.5 990 1060.4 990.8 1059.6C991.2 1059.2 991.1 1059 990.5 1059.1C989.2 1059.5 982 1055.8 982 1054.8C982 1054.4 981.3 1054 980.5 1054C979.7 1054 979 1053.5 979 1052.9C979 1052.4 978.6 1052.2 978 1052.5C977.5 1052.8 977 1052.7 977 1052.1C977 1051.5 975 1049.9 972.5 1048.4C970 1047 968 1045.4 968 1045C968 1044.5 967.2 1043.9 966.1 1043.5C965.1 1043.2 963 1041.8 961.6 1040.5C960.2 1039.2 959 1038.3 959 1038.5C959 1038.7 957.5 1037.5 955.6 1035.8C953.7 1034.2 952 1033 951.8 1033.1C951.5 1033.3 950.6 1032.7 949.6 1031.7C947.9 1030.1 947.9 1029.8 949.7 1027.1C954.7 1019.3 959.4 1013 960.2 1013C960.7 1013 960.8 1012.5 960.5 1012C960.2 1011.4 960.3 1011 960.7 1011C961.2 1011 962.3 1009.7 963.3 1008.1C964.2 1006.6 966.5 1003.5 968.5 1001.4C970.4 999.3 972 997.2 972 996.8C972 996.4 972.6 995.5 973.3 994.8C973.9 994.1 976.1 991.1 978 988.3C979.9 985.4 981.8 983 982.3 983C982.7 983 983 982.5 983 981.9C983 981.3 984.5 978.9 986.2 976.6C988 974.4 989.9 971.9 990.5 971.2C991 970.5 992.4 969 993.5 967.8C994.7 966.6 994.9 966 994 966.4C993.2 966.8 993.5 966.3 994.6 965.3C995.8 964.3 997.6 962.1 998.6 960.5C999.6 958.8 1000.8 957 1001.3 956.5C1009.4 946.1 1013.5 940.6 1016.2 936.3C1017.9 933.5 1020.4 930.7 1021.7 930.1C1023 929.5 1023.8 928.6 1023.5 928C1022.9 927.1 1028.5 918.7 1032.8 914.1C1034 912.8 1035 911.1 1035 910.4C1035 909.6 1035.5 909 1036 909C1036.6 909 1037 908.3 1037 907.5C1037 906.7 1037.4 906 1037.9 906C1038.4 906 1041.2 902.7 1044.1 898.7C1047 894.8 1049.7 891.3 1050.2 891.2C1050.6 891 1050.8 890.4 1050.4 889.9C1050.1 889.4 1050.6 888.7 1051.4 888.4C1052.3 888.1 1053 887.3 1053 886.8C1053 885.9 1055.7 882.3 1060.5 876.7C1061.3 875.8 1061.7 875 1061.4 875C1061.1 875 1061.5 874.4 1062.2 873.7C1062.9 872.9 1064.4 871.1 1065.5 869.5C1066.6 868 1068.5 865.5 1069.8 864C1071 862.5 1072 861 1072 860.6C1072 859.9 1087.4 839.1 1089.7 836.7C1090.7 835.7 1091.5 834.5 1091.5 834.2C1091.5 833.8 1092 832.8 1092.7 832C1093.4 831.2 1095.2 828.9 1096.8 827C1098.4 825.1 1100.9 821.7 1102.3 819.5C1106.7 812.9 1108.5 810.5 1109.3 810.2C1109.7 810 1110 809.2 1110 808.4C1110 807.5 1110.5 807.2 1111 807.5C1111.6 807.8 1112 807.5 1112 806.8C1112 806.1 1113.6 803.7 1115.5 801.5C1117.4 799.3 1119 796.9 1119 796.2C1119 795.6 1119.5 795 1120 795C1120.6 795 1121 794.4 1121 793.7C1121 793.1 1123.3 790 1126 787C1128.8 784 1131 781.2 1131 780.8C1131 779.2 1134.5 776 1136.3 776C1137.4 776 1139.6 777.1 1141.4 778.6Z"
        />
        <path
            d="M1163.6 873.6C1157.1 874.9 1150.4 876.4 1148.6 877C1146.9 877.6 1141.2 879.2 1136 880.5C1118.3 885.3 1106 889.4 1091.3 895.7C1089.6 896.4 1087.7 897 1087.2 897C1085.7 897 1073.9 903 1071 905.2C1069.6 906.3 1065.8 909.8 1062.5 913C1056.6 918.7 1050.7 928.6 1046.5 940C1041.7 952.8 1047.5 962.9 1063.4 969.4C1070.4 972.2 1089.7 972.2 1098.2 969.3C1102.4 967.8 1104.2 967.6 1105.1 968.4C1106 969.2 1106.1 969.2 1105.6 968.2C1105.1 967.5 1105.5 967 1106.5 967C1107.4 967 1107.8 967.5 1107.5 968C1102.8 975.6 1099.5 979.5 1095 982.9C1092 985.2 1089.2 987 1088.7 987C1088.3 987 1087 987.9 1085.8 989C1081.9 992.6 1069.7 997.9 1062.7 999C1055.1 1000.2 1034.8 999.5 1032 998C1029.7 996.7 1023 996.7 1023 997.9C1023 1001 1026.1 1003.8 1043.6 1016.5C1050.4 1021.4 1059.5 1028.3 1060 1029C1060.3 1029.3 1063.9 1032.1 1068 1035.2C1072.1 1038.3 1080.2 1044.5 1086 1049C1102.1 1061.5 1105 1063.2 1106.6 1061.5C1108.3 1059.9 1108.4 1057.4 1106.9 1056.5C1106.4 1056.1 1106.1 1055.3 1106.3 1054.7C1106.5 1054 1105.9 1051.2 1104.9 1048.5C1099.6 1033.8 1100 1011.3 1105.9 998.7C1106.9 996.4 1109.1 991.8 1110.6 988.5C1112.1 985.2 1114.3 981 1115.6 979.2L1117.8 975.8L1118.4 978.7C1118.7 980.2 1119.2 983.1 1119.5 985C1119.8 986.9 1120.5 988.9 1121 989.5C1121.5 990.1 1122.2 993 1122.5 995.9C1123.6 1005.4 1128.8 1016.8 1134.8 1022.8C1146 1034 1161.2 1030.8 1173.2 1014.7C1178.9 1007.1 1185.5 990.3 1187.4 978.5C1189.9 963.3 1189.9 962.6 1190.6 946C1191.5 924.3 1189 903.8 1181.8 874.7C1180.7 870.2 1180.5 870.2 1163.6 873.6Z"
        />
    </g>
</svg>