<svg xmlns="http://www.w3.org/2000/svg" viewBox="360 80 1000 1200">
    <path
        fill="#2A2A2A"
        d="M528.8 122.8c-1.6.9-4.4 4.8-6.4 8.6-3.3 6.1-6.9 12.2-9.1 15.1-1.2 1.5-4 7.9-3.9 8.7 0 .4-.7 1.3-1.6 2a30 30 0 0 0-5.1 7.8c-8.6 16.4-14 26.6-14.6 27.5-.4.5-2 4.1-3.6 8a59.7 59.7 0 0 1-4 8.5c-.7.8-1.6 2.6-2 4-.4 1.4-1.4 3.6-2.2 4.9-1.3 2-2 4.5-2.5 8.8-.1.7-.5 1-1 .7-.4-.3-.8-.2-.9.3-.3 3.1-2.5 9.4-6.5 19-.8 1.7-1.4 3.6-1.4 4.2 0 .6-.4 1.9-.9 2.9a27 27 0 0 0-2.7 7.2c-.2 1.6-3.1 9.6-4.3 12-.5.9-1.2 3-1.6 4.8-.3 1.8-1 3.2-1.4 3.2-.4 0-.8 1.4-.9 3.2a13 13 0 0 1-1.1 4.2c-.5.6-1.4 3-2 5.3-.7 2.4-1.5 4.3-1.9 4.3-.4 0-.8 1-.8 2.2-.1 1.3-1.1 5-2.4 8.3a91 91 0 0 0-2.7 8.5 106 106 0 0 1-3.3 11 477.5 477.5 0 0 0-9.1 29.1c-.4.9-1 2.7-1.3 4-.3 1.3-.9 3.9-1.5 5.6-.5 1.8-.8 3.3-.5 3.3.3 0 0 1-.7 2.1-1.1 2.1-1.3 3-2.4 9.7-.2 1.9-.8 3.9-1.2 4.5-.4.6-.8 1.8-.9 2.7l-.8 3.5c-1.4 5-2.6 10.5-2.4 11.2.1.5-.4 2.8-1.1 5.3a57.1 57.1 0 0 0-2.3 12.7c-.1 1.3-.5 2.3-.9 2.3s-.6.8-.5 1.7c.2.9-.3 4.5-1 7.8a317 317 0 0 0-2.5 15.1 433.9 433.9 0 0 0-4.5 36.4l-1.1 11c-.5 4.7-1.3 15.2-1.4 18.2 0 1-.5 1.8-1.1 1.8-.7 0-.7.4 0 1.3.6.7 1 2.4.7 3.8-.4 3-1.2 17.5-2.1 37.4l-1 21c-.5 6.1-.5 7.5-.3 9.7.1.7-.2 9.4-.6 19.3-1 25.6-1.1 55.5-.2 55.5.5 0 .5.6 0 1.2-.8 1.4-.7 8.4.3 18.8.4 3.6.6 7.7.5 9.2-.1 1.4.3 3.8.9 5.3.7 2 .7 3.1-.1 4.1-.6.8-.8 1.4-.3 1.4 1.1 0 1.4 3.6 1.8 20 .7 24.8 2 46.3 3.1 48 .3.5.1 1.1-.5 1.5-.6.4-.8 1-.5 1.5.7 1.1 1.5 5.8 2 11 .2 1.9.6 4.3 1 5.2.4 1 .5 2.5.1 3.3-.3.8-.2 2.5.3 3.8.5 1.2 1.4 5.1 2.1 8.7l1.4 8 1 5.5c.4 2.2 1 4.7 1.3 5.5.3.8.7 2.6.9 4 .2 1.4 1 4.5 1.9 6.9.8 2.4 1.5 5.1 1.5 6.1s.6 3 1.4 4.5c.8 1.5 1.2 3.4.9 4.1-.3.8 0 1.4.7 1.4s1 .7.6 1.5c-.3.8-.1 1.5.5 1.5s.8.4.4.9c-.3.5-.1 1.2.5 1.6.6.4.8 1 .5 1.5-.3.5.1 2.2.9 3.8.8 1.6 1.2 3.2.9 3.6-.4.3-.1.6.6.6s1 .4.7.9c-.3.4.1 1.6.8 2.7.8 1 1.2 2.4.9 3-.2.7 0 1.5.6 1.9.6.3 1.1 1.4 1.1 2.4 0 .9 1 3.7 2.2 6.2 1.2 2.4 2.3 4.8 2.4 5.4l1.5 4 1.4 3.5c0 .3 1.5 3.5 3.3 7.1a68 68 0 0 1 3.2 7.2c0 .3 1.6 3.3 3.5 6.7 1.9 3.4 3.5 6.7 3.5 7.3 0 .6.6 1.8 1.4 2.6.7.9 3.1 4.7 5.1 8.6a97.6 97.6 0 0 0 8.5 13.7c.7 1.6 1.7 2.8 2.2 2.8.4 0 .8.8.8 1.8 0 1.1.9 2.7 2 3.7s1.8 2 1.6 2.2c-.2.2 1.4 2.2 3.5 4.5s3.6 4.5 3.3 4.9c-.3.5 1 2.5 2.9 4.6 1.8 2.1 4.9 6 6.8 8.8 1.9 2.7 4 5.6 4.7 6.3.6.7 1.2 1.6 1.2 2 0 .4 1.4 2.2 3 4.1 1.6 1.8 2.7 3.7 2.4 4.2-.3.5.1.9.9.9.7 0 5.1 4.1 9.8 9.2a381 381 0 0 0 34.9 33.6c2.4 2 5.4 4.7 6.6 5.9 1.2 1.3 2.6 2.3 3.3 2.3.6 0 1.1.4 1.1 1 0 .5 1.2 1.6 2.8 2.4a30 30 0 0 1 5.2 3.8c1.4 1.3 3.3 2.7 4.3 3.1.9.3 1.7 1.1 1.7 1.7 0 .5.6 1 1.4 1 .7 0 1.9.7 2.6 1.5.7.9 1.5 1.3 1.8 1 .3-.3 1.1.4 1.9 1.5.8 1.1 1.8 2 2.3 2 .5 0 3.8 2 7.4 4.5 3.6 2.5 6.6 4.2 6.6 3.9 0-.3 1.3.6 3 1.9 1.6 1.4 3.9 2.8 5 3.2 1.1.3 2 1.1 2 1.6s.5.9 1.1.9c.6 0 3.1 1.4 5.6 3 2.4 1.7 4.1 2.5 3.7 1.8-.4-.7.1-.6 1.2.3 1 .9 5.1 3.1 8.9 5 3.9 1.9 7.2 3.7 7.5 4 .3.3 2.1 1.1 4 1.9 1.9.8 4.6 2.1 5.9 2.9 1.3.8 3 1.6 3.6 1.7.7.1 2.8.9 4.8 1.9 1.9.9 4.1 1.8 4.9 1.9.7.1 2.4.8 3.8 1.6s3 1.5 3.6 1.6c2.6.4 6 1.7 7.2 2.7.8.6 2.2 1.2 3.2 1.4.9.1 3 .8 4.6 1.4 1.6.7 3.5 1.1 4.3 1 .7-.1 1 .2.7.7-.3.6.2.8 1.2.5a4 4 0 0 1 3.3.9c.8.7 2.7 1.4 4.4 1.6 1.6.2 3.2.7 3.5 1.1.3.3 1.2.6 2 .6.8-.1 2 .3 2.6.7.7.5 2 1 3 1.2 8.3 1.5 10 1.9 10.9 2.4.5.4 1.5.7 2 .9 4.7 1 5.6 1.3 6.7 1.9.7.5.8.3.3-.6-.6-1-.4-1.1.6-.4l2.4 1.1 3.3.7c4.3 1.1 6.1 1.5 10.9 2.1l7.3 1.1 12 1.9a273 273 0 0 0 31.5 3.1c13.9.9 15.5.9 15.5.4 0-.3 2.8-.3 6.2 0 3.4.3 7.1.5 8.2.4 1.2-.2 7.5-.5 14.1-.8 15.6-.8 23.7-1.5 24.3-2.1.3-.3 1.2.1 2 .8.9.6 1.3.7.9.1-.4-.7 2.8-1.5 9.6-2.4l10.7-1.5c4.1-.9 9.7-1.8 10.3-1.7.4.1.7-.4.7-1 0-1 .2-1 .9 0 .7 1.2 1.4 1.1 4-.2 1.7-.9 3.3-1.6 3.6-1.5 1.4.2 9.6-1.5 15.3-3.2 3.5-1 6.6-1.8 7-1.7 1.2.2 4.2-1.4 3.8-2.1-.2-.3 1.7-.7 4.2-.8 2.5-.1 5.3-.5 6.1-.9l2.1-.9 2-.8c3-1.2 10.5-3.8 12.5-4.2 1.1-.3 3.8-1.3 6-2.4 2.2-1 4.3-1.7 4.7-1.4.5.2.8 0 .8-.5 0-.8 1.2-1.5 5-2.6 2.9-.9 13.6-5.1 14-5.5 1.4-1.6 15.4-8 16.3-7.4.6.3.7.1.3-.5-.4-.7 0-1.2 1.1-1.3 1 0 3.2-.9 4.8-2 1.7-1.1 4.2-2.5 5.8-3.1 1.5-.7 2.7-1.6 2.7-2.1 0-.4.4-.6.9-.3s1.4-.1 2.1-.9c.7-.8 1.9-1.5 2.6-1.5.8 0 1.4-.5 1.4-1 0-.6.8-1.3 1.8-1.7.9-.3 3.9-2 6.6-3.7 2.7-1.7 5.3-3.1 5.8-3.1s1.2-.5 1.6-1a27 27 0 0 1 4.4-3.5c2.1-1.4 3.8-2.8 3.8-3.3a74.1 74.1 0 0 0 14.8-10.4c.7-.7 3.7-2.7 6.7-4.5 3-1.8 5.5-3.6 5.5-4 0-1.1 3.7-4.7 4.3-4.2a22 22 0 0 0 5.3-4.6 259 259 0 0 0 29.4-29.1c0-.5.7-.9 1.5-.9s1.5-.4 1.5-.9 1.8-2.9 4.1-5.3l8.2-9.1 6.5-7.4c1.2-1.3 2.2-2.8 2.2-3.3s1.3-2.1 2.8-3.7c1.5-1.5 3.9-4.6 5.2-6.8 2.3-3.7 3.9-5.9 6.5-8.9a144 144 0 0 0 10.1-15.6 96 96 0 0 1 3.3-5.5l4.4-7.5c1-1.9 2.6-4.1 3.5-4.8.9-.6 1.3-1.2.9-1.2s-.2-1 .5-2.2c.7-1.3 1.3-2.5 1.3-2.8 0-.3.8-1.6 1.7-3 .9-1.4 1.8-3.2 2-4 .3-1.5.6-1.9 3.7-5.9 1.8-2.4 1.9-2.5 7.7-1.2a139 139 0 0 1 96.8 90.9c7.7 22.2 9.4 41 5.7 63.2a84.5 84.5 0 0 1-7.9 27.5c-14.1 28.3-56.1 61.5-98.4 77.9-15.2 5.9-33.8 10.9-33.8 9.1 0-.2 1.1-3.5 2.5-7.2a159 159 0 0 0 8-32.2c.9-5.7 2.2-13.5 3-17.3 1.8-8.4 1.9-17 .3-18.6a5.4 5.4 0 0 0-3.4-1.2c-1.8 0-3.6 2.2-8.7 11-14.9 25-33 44.4-56.5 60.4a115.2 115.2 0 0 1-31.2 15.5c-7.5 2.6-10.6 4.1-10.8 5.4-.7 3.5 1.5 4.4 12.1 5.1 18.9 1.3 38.5 6.1 66.6 16.3a774.5 774.5 0 0 1 51.6 21.5l3.9 2 1.7-2.1c1.4-1.6 1.5-2.8.9-5.2-2.2-7.5-6.3-12.6-29.4-36.6-3.3-3.4-5.7-6.5-5.4-6.8.9-.9 34.7-10.5 37-10.5 3.9 0 26.1-8 37.3-13.5 20.2-9.8 36.2-22.1 57.5-44.2a164.7 164.7 0 0 0 32.5-44.9c14.8-27.7 18.8-42.3 18.9-67.9 0-29.5-6.7-52.8-23.6-81.8-17.9-30.7-54.7-64.2-95-86.3-12.3-6.8-11.5-4.4-7.7-21.4l2.4-11.6c.1-1.1.8-4.5 1.4-7.5.5-3 1.3-7.7 1.6-10.4.5-4.9 1.2-9.4 2.1-14.5a300 300 0 0 0 1.9-29l.5-13.5.5-16c.3-8.8.7-17.4.9-19 .9-5.7 1-17 .3-18.3-.5-.6-.5-1.2 0-1.2.9 0 .8-29.9-.2-55.5-.4-9.9-.7-18.6-.6-19.3.2-2.2.2-3.6-.3-9.7l-1-21c-.9-19.9-1.7-34.4-2.1-37.4-.3-1.4.1-3.1.7-3.8.7-.9.7-1.3 0-1.3-.6 0-1.1-.8-1.1-1.8a411.7 411.7 0 0 0-2.5-29.2 433.9 433.9 0 0 0-4.5-36.4 317 317 0 0 0-2.5-15.1c-.7-3.3-1.2-6.9-1-7.8.1-.9-.1-1.7-.5-1.7s-.8-1-.9-2.3c-.4-4.8-1-8.4-2.3-12.7-.7-2.5-1.2-4.8-1.1-5.3.2-.7-1-6.2-2.4-11.2l-.8-3.5c-.1-.9-.5-2.1-.9-2.7-.4-.6-1-2.6-1.2-4.5-1.1-6.7-1.3-7.6-2.4-9.7-.7-1.1-1-2.1-.7-2.1.3 0 0-1.5-.5-3.3a60 60 0 0 1-1.5-5.6c-.3-1.3-1-3.4-1.6-4.5-.6-1.2-1-2.1-.8-2.1.4 0-3.8-13.9-8-26.5a106 106 0 0 1-3.3-11 91 91 0 0 0-2.7-8.5c-1.3-3.3-2.3-7-2.4-8.3 0-1.2-.4-2.2-.8-2.2s-1.2-1.9-1.9-4.3c-.6-2.3-1.5-4.7-2-5.3a13 13 0 0 1-1.1-4.2c-.1-1.8-.5-3.2-.9-3.2s-1.1-1.4-1.4-3.2c-.4-1.8-1.1-3.9-1.6-4.8a80.5 80.5 0 0 1-4.3-12 27 27 0 0 0-2.7-7.2c-.5-1-.9-2.3-.9-2.9 0-.6-.6-2.5-1.4-4.2-4-9.6-6.2-15.9-6.5-19-.1-.5-.5-.6-.9-.3-.5.3-.9 0-1-.7-.5-4.3-1.2-6.8-2.5-8.8-.8-1.3-1.8-3.5-2.2-4.9-.4-1.4-1.3-3.2-2-4-.6-.8-2.5-4.7-4-8.5a77.3 77.3 0 0 0-3.6-8c-.6-.9-6-11.1-14.6-27.5a30 30 0 0 0-6.4-9.3c.3-.2-3-7.6-4.2-9.2-2.2-2.9-5.8-9-9.1-15.1a22.8 22.8 0 0 0-6.7-8.8l-3.1-1.9.6 4.4c1.4 10.3 1.8 49.9.7 59.6-3 23.8-9.4 45-20.6 67.8-15.2 31-34.5 53.6-58.8 68.9a81.9 81.9 0 0 1-26.2 11.6c-1.5 0-9.5-1.8-17.8-4a673.7 673.7 0 0 0-49.2-10.6 32 32 0 0 1-5.9-1.6c-1-.6-3.3-1.2-5-1.5-1.7-.2-6.9-1.3-11.6-2.3a202 202 0 0 0-10-1.9c-2.9-.2-5.5-.7-6.5-1.3-.6-.3-3.9-.9-7.5-1.3l-9.5-1.1a231.4 231.4 0 0 0-17.5-1.8 16 16 0 0 1-4.5-.7c-1.1-.6-53.4-.2-63 .5-3.3.2-7.9.7-10.2 1-9.4 1.5-11 1.7-14.8 2-2.2.2-6.7.9-10 1.6-3.3.7-6.7 1.3-7.5 1.2-.8 0-3.7.6-6.5 1.4a67.2 67.2 0 0 1-14.2 2.7c-.7 0-1.3.3-1.3.7 0 .5-.8.9-1.7.9-2.4 0-4.5.5-6 1.4-.7.5-1.3.6-1.3.3s-1.2-.1-2.7.5c-1.6.6-4.1 1.3-5.8 1.6-1.6.3-3.6.9-4.2 1.5-.7.6-2.5 1.1-4 1.3-1.6.1-4.6 1-6.8 1.9a110 110 0 0 1-45.1 3.3c-27.8-5.9-56.5-31-72.9-63.7a304 304 0 0 1-26.7-76 268 268 0 0 1-.4-67c2.6-15.8 2.7-17 1-16.3-.8.3-1.4 0-1.4-.6 0-1.6-4.1-1.3-7.2.7zM1123 614.5c0 .6.9 2.2 2 3.5 1.1 1.3 2.3 3.4 2.6 4.7.4 1.3 1.2 2.3 2 2.3.9 0 1.4 1.2 1.5 3.2.1 3.8.2 4.4 1.3 8 .5 1.6 1.3 2.8 1.8 2.8.6 0 .8 1 .5 2.2-.6 2.1.9 11.1 2.2 13.8.9 1.7.8 5-.1 6.6-.4.6-.1 2.8.7 5 .7 2.2.9 4.4.5 4.9-.5.6-.8 5.1-.7 10 0 5-.3 10.1-.7 11.4-.5 1.4-.4 2.1.1 1.8.9-.6-.6 9.8-1.8 11.8-.3.5-.7 3-.8 5.5-.1 2.5-.9 5.7-1.6 7.2-.7 1.5-1.7 4.2-2 6a25.8 25.8 0 0 1-2.1 6.3 82.9 82.9 0 0 0-3 8.3c-.4 2.3-3.6 8.6-5.1 10-1.1 1.2-1.5 2.5-1.2 4.8 0 .3-.7 1.1-1.6 1.8a5 5 0 0 0-1.8 3.3c0 1.2-.4 2-.8 1.8-.7-.5-3.4 4.6-3 5.9.1.5-.5.6-1.3.3-.9-.4-1.5-.3-1.4.1.3 1.5-1.5 4.2-2.8 4.2-.8 0-1.5.6-1.5 1.2l-.4 2.3-.3 2.4c-.1.8-.5 1.2-.8.9-.5-.6-4.5 2.8-13.9 11.7-2.3 2.2-5.3 4.9-6.7 6-1.4 1.1-2.4 2.3-2.1 2.7.2.5-.1.8-.6.8a30 30 0 0 0-6.8 4 36 36 0 0 1-6.7 4c-.5 0-1.4.6-2 1.3-.6.7-3.1 2.2-5.6 3.2-2.5 1-5.3 2.5-6.3 3.3-.9.9-2 1.2-2.4.9-.4-.4-1.8.3-3.1 1.5-1.4 1.3-2.2 1.7-1.8 1 .4-.6.3-1.2-.3-1.2-.5 0-1.1.5-1.3 1.1-.2.6-1.6 1.1-3.1 1.1s-2.7.5-2.7 1.1c0 .6-.3.7-.6.4-.4-.3-1.6-.2-2.6.4-1.1.6-3.7 1.3-5.7 1.5-5.3.7-6.4.9-8.6 2-1.1.6-3.8 1-6 .9-2.5-.1-4.5.5-5.3 1.4-.8.9-1 1-.7.3.6-1.1-.4-1.3-4.4-1-2.7.2-5.3.7-5.7 1.1-.4.4-1.2.7-1.8.7-.6 0-.4-.5.4-1 1.3-.8 1.3-1-.2-1-.9 0-2 .5-2.3 1-.4.6-1.2.7-1.8.3-.7-.5-5-.8-9.7-.9-4.7-.1-11.1-.7-14.3-1.4-5-1.1-6-1.1-6.9.1-.8 1.1-.8 1-.4-.5.5-1.5.2-1.8-1.9-1.4-1.3.3-2.2.2-2-.2.7-1.2-2.1-2-3.2-.9-1.2 1.2-4.5.1-3.7-1.2.3-.5-.6-.9-2-.9s-4.2-.9-6.1-2c-2-1.1-4.1-1.8-4.6-1.4-.6.3-1.9-.2-3-1.2-1-.9-1.9-1.3-1.9-.9s-1 0-2.2-1.1c-1.2-1-1.8-1.3-1.4-.7.4.7.2 1.3-.3 1.3-.6 0-1.1-.5-1.1-1 0-.6-1.1-1-2.4-1-1.3 0-2.7-.7-3-1.6-.3-.8-1-1.3-1.5-.9-.5.3-1.7-.5-2.6-1.7-1.3-2-1.7-2.1-2.5-.8s-1 1.3-1-.1c0-1.4-2.3-2.7-4.7-2.7-.3 0-.9-.6-1.4-1.4-.5-.7-1.2-1.3-1.6-1.3-.7 0-8.2-5.1-11-7.5-.7-.5-1.5-1-1.9-1-.8 0-3-1.9-9.1-8-2.3-2.3-4.6-3.9-5.1-3.6-.6.3-1.9-1-3.1-2.9-1.1-1.9-2.7-3.5-3.6-3.5-.9 0-1.4-.4-1.1-.8.6-1-7.8-10.2-9.3-10.2-.6 0-1.1-.7-1.1-1.5 0-.9-.7-1.8-1.5-2.1-.8-.4-1.5-1.2-1.5-1.9s-1.3-2.7-2.9-4.4c-1.6-1.7-2.5-3.1-2-3.1.6 0 0-1-1.2-2.3-3.1-3.3-4.1-6.5-3.3-11.4.5-3.6 1.3-4.8 5.3-7.7a169.3 169.3 0 0 1 29.6-15.2c1.7-.9 7.3-3.1 12.5-4.9a86.6 86.6 0 0 0 21.2-9c.4-.6.8-.6.8-.1s.6.4 1.3-.2a54.6 54.6 0 0 1 13.1-5c.2.1 8.3 12.5 17.9 27.3a455.8 455.8 0 0 0 20.1 29.4c2.8 2.7 5.2 2.3 6.5-1.1.5-1.3 5.5-20.3 11.1-42.2 5.6-22 10.5-40.9 11-42.1.8-2.2 11.9-8.1 25.5-13.6l9.4-3.9c5.9-3 79.2-36 81.6-36.8 3.5-1 6.5-.5 6.5 1.3zm-575 21.2 40.1 18.3 9.4 3.9c13.6 5.5 24.7 11.4 25.5 13.6.5 1.2 5.4 20.1 11 42.1 5.6 21.9 10.6 40.9 11.1 42.2 1.3 3.4 3.7 3.8 6.5 1.1 1.4-1.3 10.4-14.5 20.1-29.4 9.6-14.8 17.7-27.2 17.9-27.3.4-.5 11.6 3.8 13.1 5 .7.6 1.3.7 1.3.2 0-.5.4-.5.8.1 1 1.4 9.9 5.2 21.2 9a121 121 0 0 1 12.5 4.9 169.3 169.3 0 0 1 29.6 15.2c4 2.9 4.8 4.1 5.3 7.7.8 4.9-.2 8.1-3.3 11.4-1.2 1.3-1.8 2.3-1.2 2.3.5 0-.4 1.4-2 3.1-1.6 1.7-2.9 3.7-2.9 4.4 0 .7-.7 1.5-1.5 1.9-.8.3-1.5 1.2-1.5 2.1 0 .8-.5 1.5-1.1 1.5-1.5 0-9.9 9.2-9.3 10.2.3.4-.2.8-1.1.8-.9 0-2.5 1.6-3.6 3.5-1.2 1.9-2.5 3.2-3.1 2.9-.5-.3-2.8 1.3-5.1 3.6-6.1 6.1-8.3 8-9.1 8-.4 0-1.2.5-1.9 1a71.8 71.8 0 0 1-11 7.5c-.4 0-1.1.6-1.6 1.3-.5.8-1.1 1.4-1.4 1.4-2.4 0-4.7 1.3-4.7 2.7 0 1.4-.2 1.4-1 .1-.8-1.3-1.2-1.2-2.5.8-.9 1.2-2.1 2-2.6 1.7-.5-.4-1.2.1-1.5.9-.3.9-1.7 1.6-3 1.6s-2.4.4-2.4 1c0 .5-.5 1-1.1 1-.5 0-.7-.6-.3-1.3.4-.6-.2-.3-1.4.7-1.2 1.1-2.2 1.5-2.2 1.1 0-.4-.9 0-1.9.9-1.1 1-2.4 1.5-3 1.2-.5-.4-2.6.3-4.6 1.4-1.9 1.1-4.7 2-6.1 2-1.4 0-2.3.4-2 .9.8 1.3-2.5 2.4-3.7 1.2-1.1-1.1-3.9-.3-3.2.9.2.4-.7.5-2 .2-2.1-.4-2.4-.1-1.9 1.4.4 1.5.4 1.6-.4.5-.9-1.2-1.9-1.2-6.9-.1-3.2.7-9.6 1.3-14.3 1.4-4.7.1-9 .4-9.7.9-.6.4-1.4.3-1.8-.3-.3-.5-1.4-1-2.3-1-1.5 0-1.5.2-.2 1 .8.5 1 1 .4 1s-1.4-.3-1.8-.7c-.4-.4-3-.9-5.7-1.1-4-.3-5-.1-4.4 1 .3.7.1.6-.7-.3-.8-.9-2.8-1.5-5.3-1.4-2.2.1-4.9-.3-6-.9a22.6 22.6 0 0 0-8.6-2c-2-.2-4.6-.9-5.7-1.5-1-.6-2.2-.7-2.6-.4-.3.3-.6.2-.6-.4 0-.6-1.2-1.1-2.7-1.1-1.5 0-2.9-.5-3.1-1.1-.2-.6-.8-1.1-1.3-1.1-.6 0-.7.6-.3 1.2.4.7-.4.3-1.8-1-1.3-1.2-2.7-1.9-3.1-1.5-.4.3-1.5 0-2.4-.9-1-.8-3.8-2.3-6.3-3.3s-5-2.5-5.6-3.2c-.6-.7-1.5-1.3-2-1.3a36 36 0 0 1-6.7-4 30 30 0 0 0-6.8-4c-.5 0-.8-.3-.6-.8.3-.4-.7-1.6-2.1-2.7-1.4-1.1-4.4-3.8-6.7-6-9.4-8.9-13.4-12.3-13.9-11.7-.3.3-.7-.1-.8-.9l-.3-2.4-.4-2.3c0-.6-.7-1.2-1.5-1.2-1.3 0-3.1-2.7-2.8-4.2.1-.4-.5-.5-1.4-.1-.8.3-1.4.2-1.3-.3.4-1.3-2.3-6.4-3-5.9-.4.2-.8-.6-.8-1.8a5 5 0 0 0-1.8-3.3c-.9-.7-1.6-1.5-1.6-1.8.3-2.3-.1-3.6-1.2-4.8a30.5 30.5 0 0 1-5.1-10 82.9 82.9 0 0 0-3-8.3 25.8 25.8 0 0 1-2.1-6.3c-.3-1.8-1.3-4.5-2-6s-1.5-4.7-1.6-7.2c-.1-2.5-.5-5-.8-5.5-1.2-2-2.7-12.4-1.8-11.8.5.3.6-.4.1-1.8-.4-1.3-.7-6.4-.7-11.4.1-4.9-.2-9.4-.7-10-.4-.5-.2-2.7.5-4.9.8-2.2 1.1-4.4.7-5-.9-1.6-1-4.9-.1-6.6a36.8 36.8 0 0 0 2.2-13.8c-.3-1.2-.1-2.2.5-2.2.5 0 1.3-1.2 1.8-2.8 1.1-3.6 1.2-4.2 1.3-8 .1-2 .6-3.2 1.5-3.2.8 0 1.6-1 2-2.3.3-1.3 1.5-3.4 2.6-4.7 1.1-1.3 2-2.9 2-3.6 0-1.7 2.9-2.2 6.5-1.1 1.7.5 20.3 8.8 41.5 18.4z"
    />
</svg>
  