<svg width="140" height="140" viewBox="0 0 128 115" fill="none" xmlns="http://www.w3.org/2000/svg">
  <path
    d="M26.1523 82.2385C28.262 81.1935 34.1702 81.8194 66.2379 84.3276C98.3056 86.8357 91.3853 73.3836 105.268 88.508C113.683 97.6764 119.494 96.946 112.652 107.32C104.342 119.919 88.8068 110.913 73.6219 110.455C56.0172 109.924 62.2849 116.544 45.1407 112.545C34.7382 110.119 37.4511 106.457 28.2629 101.05C22.3683 97.5807 15.0358 99.4645 14.5498 92.6891C14.0744 86.0621 24.0426 83.2836 26.1523 82.2385Z"
    fill="#86DBEE" />
  <path
    d="M2.77612 24.8722L1.75516 15.6837L33.3431 26.1106L49.8695 31.8017C51.0137 32.1957 51.8077 33.2331 51.8844 34.4342L54.7369 79.0811L41.4525 82.0394C36.8073 83.0739 31.988 81.2929 29.1568 77.4953L22.4944 68.5587C18.3614 63.0151 14.9021 57.0053 12.1882 50.654L6.99232 38.4941L3.40303 27.7263C3.0941 26.7995 2.88398 25.8429 2.77612 24.8722Z"
    fill="#2A2A2A" stroke="black" stroke-width="2" />
  <path
    d="M69.649 40.5865L84.0749 82.1707L100.181 71.9719C102.907 70.2462 104.826 67.507 105.508 64.3688L109.797 44.6393C110.711 40.4331 111.314 36.167 111.6 31.8754L112.167 23.3729C112.403 19.8258 112.163 16.265 111.451 12.7851L110.616 8.70351L108.272 1.13435L87.3994 19.9761L70.3348 37.5247C69.5446 38.3372 69.2794 39.5212 69.649 40.5865Z"
    fill="#2A2A2A" stroke="black" stroke-width="2" />
  <path
    d="M109.845 59.8802C109.845 84.6547 89.0063 104.8 63.2226 104.8C37.4389 104.8 16.5997 84.6547 16.5997 59.8802C16.5997 35.1057 37.4389 14.9604 63.2226 14.9604C89.0063 14.9604 109.845 35.1057 109.845 59.8802Z"
    fill="#2A2A2A" stroke="black" stroke-width="2" />
  <path
    d="M101.176 12.4346C101.148 12.3848 101.084 12.3688 101.035 12.3997L83.4784 23.5607L71.6206 32.6413C70.0003 33.8821 69.5705 36.1319 70.622 37.8678L89.2846 68.6771C89.5449 69.1069 90.0868 69.2756 90.549 69.0707L99.8313 64.9561C103.975 63.1193 106.871 59.2777 107.48 54.81L108.38 48.2124C109.124 42.7554 109.237 37.2341 108.717 31.7564V31.7564C108.38 28.2038 107.468 24.7308 106.017 21.4714L105.045 19.2878L101.176 12.4346Z"
    fill="#2A2A2A" />
  <path
    d="M4.02832 18.6577C4.01529 18.5849 4.08373 18.5238 4.15517 18.5444L36.1515 27.7717L51.8075 33.1631C53.3329 33.6884 54.3917 35.0716 54.494 36.6731L57.2049 79.105C57.2362 79.5948 56.9041 80.0347 56.422 80.1421L43.781 82.9572C38.9481 84.0334 33.922 82.2983 30.8067 78.478L27.6414 74.5965C21.9142 67.5732 17.3026 59.7197 13.9666 51.3082L9.80814 40.8228L6.23694 30.1093C6.01044 29.4297 5.83337 28.7349 5.70712 28.03L4.02832 18.6577Z"
    fill="#2A2A2A" />
  <path
    d="M98.7835 58.2657L68.1409 55.7066C70.1886 59.4459 74.2994 68.188 83.2087 70.7624C88.9984 72.4353 97.0893 64.0714 98.7835 58.2657Z"
    fill="white" />
  <path d="M82.4671 67.0803L83.7914 54.0695L89.7979 56.2339L82.4671 67.0803Z" fill="#2A2A2A" />
  <path
    d="M28.3697 58.5152L58.9691 55.4828C56.9794 59.2533 53.0042 68.0579 44.1358 70.7697C38.3726 72.5319 30.1535 64.294 28.3697 58.5152Z"
    fill="white" />
  <path d="M44.8199 67.0772L43.2947 54.0885L37.3224 56.3454L44.8199 67.0772Z" fill="#2A2A2A" />
  <path
    d="M77.3999 68.9005C77.7773 67.7683 80.1328 68.9005 80.1328 68.9005C80.1328 68.9005 85.1592 69.5856 88.3325 68.9001C90.4835 68.4355 89.7 67.5335 91.0667 67.5335C92.4334 67.5335 92.8337 67.1333 93.8 66.1668C95.1667 64.8 96.5334 68.9002 95.1667 70.2668C93.8 71.6335 95.1667 73 95.1667 74.3667C95.1667 75.8762 93.9429 77.1 92.4334 77.1C90.9238 77.1 89.7 75.7333 91.0667 73C92.433 70.2674 90.3845 70.2674 89.7006 70.2674H89.7C89.0166 70.2674 83.0096 71.6344 81.5 71.6341C79.9904 71.6338 76.9225 70.3326 77.3999 68.9005Z"
    fill="#86DBEE" />
  <path
    d="M50.7552 67.8322C50.3778 66.7 47.3308 68.9248 47.3308 68.9248C47.3308 68.9248 44.2373 71.252 41.064 70.5666C38.9131 70.102 39.6965 69.1999 38.3298 69.1999C36.9632 69.1999 35.9996 68.5232 35.0333 67.5568C33.6666 66.19 32.3 69.1764 33.6666 70.5431C35.0333 71.9098 33.6666 73 33.6666 74.3667C33.6666 75.8763 34.8904 77.1 36.4 77.1C37.9095 77.1 39.1333 75.7333 37.7666 73C36.4 70.2667 40.1219 73.0237 41.8666 73.0237C43.6113 73.0237 43.2333 71.6571 45.964 71.6571C48.6947 71.6571 51.2326 69.2643 50.7552 67.8322Z"
    fill="#86DBEE" />
</svg>
  