<svg viewBox="410 160 1000 1200" xmlns="http://www.w3.org/2000/svg">
    <g opacity="1">
        <path
            d="M1332.77 237.641C1331.57 237.841 1329.17 239.341 1327.27 240.941C1325.37 242.641 1323.27 243.941 1322.67 243.941C1321.97 243.941 1321.27 244.641 1320.87 245.441C1320.57 246.241 1319.67 246.941 1318.77 246.941C1317.97 246.941 1317.27 247.341 1317.27 247.941C1317.27 248.441 1316.77 248.941 1316.27 248.941C1315.37 248.941 1291.57 264.341 1288.57 266.941C1287.87 267.441 1287.07 267.941 1286.67 267.941C1286.27 267.941 1284.47 269.041 1282.67 270.441C1280.87 271.841 1278.97 272.941 1278.37 272.941C1277.87 272.941 1276.97 273.541 1276.57 274.341C1276.17 275.041 1273.17 277.141 1270.07 278.941C1266.87 280.641 1264.27 282.541 1264.27 283.041C1264.27 283.541 1263.67 283.941 1262.87 283.941C1261.77 283.941 1257.27 286.941 1252.57 290.941C1251.87 291.541 1251.27 291.641 1251.27 291.241C1251.27 290.841 1250.67 291.141 1249.97 291.941C1249.27 292.741 1246.57 294.541 1243.97 295.941C1241.27 297.341 1238.07 299.441 1236.67 300.641C1235.37 301.841 1233.37 303.041 1232.27 303.441C1231.17 303.841 1229.17 305.041 1227.87 306.341C1226.47 307.541 1224.17 309.141 1222.57 309.941C1221.07 310.741 1217.77 312.841 1215.37 314.641C1212.97 316.441 1210.67 317.641 1210.17 317.341C1209.67 317.041 1209.27 317.241 1209.27 317.741C1209.27 318.241 1208.07 319.241 1206.57 320.041C1205.07 320.841 1202.97 322.241 1201.97 323.241C1200.97 324.241 1199.77 324.741 1199.27 324.441C1198.67 324.041 1198.27 324.241 1198.27 324.741C1198.27 325.241 1197.47 325.941 1196.57 326.341C1193.97 327.141 1190.87 329.241 1189.97 330.741C1189.47 331.441 1188.77 331.741 1188.17 331.441C1187.67 331.041 1187.27 331.241 1187.27 331.741C1187.27 332.341 1185.87 333.241 1184.07 333.841C1182.37 334.441 1179.37 336.141 1177.37 337.741C1175.37 339.241 1173.47 340.441 1173.07 340.441C1172.77 340.441 1171.17 341.541 1169.57 342.941C1168.07 344.241 1166.57 345.341 1166.27 345.241C1164.97 345.041 1158.27 348.241 1158.27 349.141C1158.27 349.741 1157.57 349.841 1156.67 349.541C1155.87 349.241 1155.47 349.341 1155.77 349.941C1156.07 350.541 1155.97 350.941 1155.37 350.941C1154.87 350.941 1153.77 351.541 1153.07 352.141C1152.37 352.841 1149.57 354.541 1146.77 355.841C1144.07 357.241 1141.47 358.741 1141.07 359.341C1140.67 359.941 1140.27 360.041 1140.27 359.641C1140.27 359.141 1138.97 359.741 1137.37 360.841C1135.77 362.041 1133.97 362.941 1133.37 362.941C1132.77 362.941 1132.27 363.341 1132.27 363.941C1132.27 364.441 1131.17 365.141 1129.77 365.541C1128.37 365.841 1127.27 366.441 1127.27 366.841C1127.27 367.141 1124.77 368.541 1121.77 369.941C1118.77 371.341 1116.27 372.741 1116.27 373.141C1116.27 373.641 1115.77 373.941 1115.27 373.941C1114.67 373.941 1111.67 375.541 1108.67 377.441C1105.67 379.341 1102.87 380.941 1102.37 380.941C1101.87 380.941 1101.27 381.241 1101.07 381.641C1100.97 382.141 1099.07 383.341 1096.97 384.341C1094.87 385.441 1092.17 387.141 1091.07 388.141C1089.97 389.141 1088.57 389.641 1088.17 389.341C1087.67 389.041 1087.27 389.241 1087.27 389.741C1087.27 390.241 1086.07 391.141 1084.57 391.841C1082.97 392.541 1079.77 394.241 1077.27 395.741C1074.77 397.241 1072.47 398.241 1072.07 398.141C1071.57 398.041 1071.27 398.341 1071.27 398.741C1071.27 399.241 1069.27 400.541 1066.87 401.741C1062.17 404.141 1062.37 404.141 1053.27 400.141C1051.37 399.241 1049.37 398.441 1048.77 398.341C1048.27 398.241 1045.77 397.441 1043.27 396.541C1027.77 391.341 1005.37 385.541 990.273 382.941C983.373 381.841 976.173 380.541 974.273 380.241C972.373 379.841 969.873 379.641 968.773 379.641C967.673 379.741 965.173 379.441 963.273 378.941C957.073 377.441 940.273 376.541 916.273 376.541C882.473 376.441 860.373 378.741 834.273 384.841C829.573 385.841 824.473 386.941 822.773 387.241C819.473 387.741 804.373 392.241 789.273 397.241C784.073 398.941 779.573 400.441 779.273 400.541C778.973 400.541 777.173 401.341 775.273 402.141C764.573 406.941 760.273 408.041 760.273 406.141C760.273 405.741 758.473 404.541 756.273 403.541C754.073 402.441 752.273 401.241 752.273 400.741C752.273 400.341 751.973 400.041 751.573 400.141C751.073 400.241 748.773 399.241 746.273 397.741C743.773 396.241 740.573 394.541 739.073 393.841C737.473 393.141 736.273 392.241 736.273 391.741C736.273 391.241 735.873 391.041 735.373 391.341C734.973 391.641 733.573 391.141 732.473 390.141C731.373 389.141 728.673 387.441 726.573 386.341C724.473 385.341 722.673 384.141 722.473 383.641C722.273 383.241 721.673 382.941 721.173 382.941C720.673 382.941 717.873 381.341 714.873 379.441C711.873 377.541 708.873 375.941 708.273 375.941C707.773 375.941 707.273 375.641 707.273 375.141C707.273 374.741 704.773 373.341 701.773 371.941C698.773 370.541 696.273 369.141 696.273 368.841C696.273 368.441 695.173 367.841 693.773 367.541C692.373 367.141 691.273 366.441 691.273 365.941C691.273 365.341 690.773 364.941 690.173 364.941C689.573 364.941 687.773 364.041 686.173 362.841C684.573 361.741 683.273 361.141 683.273 361.641C683.273 362.041 682.873 361.941 682.473 361.341C682.073 360.741 679.573 359.241 676.773 357.841C674.073 356.541 671.173 354.841 670.473 354.141C669.773 353.541 668.673 352.941 668.173 352.941C667.573 352.941 667.473 352.541 667.773 351.941C668.073 351.341 667.673 351.241 666.873 351.541C665.973 351.841 665.273 351.741 665.273 351.141C665.273 350.341 659.473 347.441 657.073 347.041C656.573 346.941 655.073 345.941 653.673 344.641C652.273 343.441 650.773 342.441 650.473 342.441C650.073 342.441 648.173 341.241 646.173 339.741C644.173 338.141 641.173 336.441 639.473 335.841C637.673 335.241 636.273 334.341 636.273 333.741C636.273 333.241 635.873 333.041 635.373 333.441C634.773 333.741 634.073 333.441 633.573 332.741C632.673 331.241 629.573 329.141 627.073 328.341C626.073 327.941 625.273 327.241 625.273 326.741C625.273 326.241 624.873 326.041 624.273 326.441C623.773 326.741 622.573 326.241 621.573 325.241C620.573 324.241 618.473 322.841 616.973 322.041C615.473 321.241 614.273 320.241 614.273 319.741C614.273 319.241 613.873 319.041 613.373 319.341C612.873 319.641 610.573 318.441 608.173 316.641C605.773 314.841 602.473 312.741 600.973 311.941C599.373 311.141 597.073 309.541 595.673 308.341C594.373 307.041 592.373 305.841 591.273 305.441C590.173 305.041 588.173 303.841 586.873 302.641C585.473 301.441 582.273 299.341 579.573 297.941C576.973 296.541 574.273 294.741 573.573 293.941C572.873 293.141 572.273 292.841 572.273 293.241C572.273 293.641 571.673 293.541 571.073 292.941C566.273 288.941 561.773 285.941 560.673 285.941C559.873 285.941 559.273 285.541 559.273 285.041C559.273 284.541 556.673 282.641 553.573 280.941C550.373 279.141 547.373 277.041 546.973 276.341C546.573 275.541 545.673 274.941 545.173 274.941C544.573 274.941 542.673 273.841 540.873 272.441C539.073 271.041 537.273 269.941 536.873 269.941C536.473 269.941 535.673 269.441 534.973 268.941C531.973 266.341 508.173 250.941 507.273 250.941C506.773 250.941 506.273 250.441 506.273 249.941C506.273 249.341 505.573 248.941 504.773 248.941C503.873 248.941 502.973 248.241 502.673 247.441C502.273 246.641 501.573 245.941 500.873 245.941C500.273 245.941 498.173 244.541 496.273 242.941C494.373 241.341 491.973 239.841 491.073 239.841C485.073 239.341 482.973 239.541 482.073 240.641C481.473 241.341 480.473 241.941 479.873 241.941C478.173 241.941 475.973 246.041 475.573 249.941C475.373 251.841 474.873 256.541 474.373 260.441C473.873 264.241 473.473 268.141 473.473 268.941C473.473 269.741 473.273 271.741 472.973 273.341C470.073 287.741 469.973 401.041 472.673 454.441C472.973 458.841 473.373 468.741 473.773 476.441C474.073 484.141 474.473 492.641 474.773 495.441C474.973 498.141 475.373 504.741 475.773 509.941C476.073 515.141 476.573 521.941 476.773 524.941C477.073 527.941 477.573 533.841 477.873 537.941C478.173 542.041 478.573 547.241 478.773 549.441C478.973 551.641 479.373 555.641 479.673 558.441C480.073 563.341 481.973 581.141 482.873 589.941C483.173 592.441 483.573 596.241 483.773 598.441C484.673 607.241 485.473 613.541 485.973 614.941C486.273 615.741 486.573 617.741 486.773 619.441C487.373 625.441 488.373 632.641 490.273 643.841C491.373 650.141 492.073 655.541 491.773 655.741C491.573 656.041 491.773 656.941 492.273 657.941C492.773 658.841 493.473 662.041 493.773 665.041C494.073 668.041 494.773 671.741 495.273 673.441C495.673 675.041 496.373 678.941 496.673 681.941C496.873 684.941 497.573 688.941 498.173 690.741C498.673 692.541 499.673 697.441 500.273 701.741C500.873 705.941 501.673 710.141 501.973 710.941C502.273 711.741 502.673 713.441 502.873 714.741C502.973 715.941 503.573 719.341 504.173 722.241C504.773 725.041 505.473 729.041 505.773 730.941C506.073 732.841 506.573 735.241 506.873 736.241C507.173 737.341 507.573 739.141 507.773 740.241C508.273 744.141 509.673 751.841 511.273 758.941C511.773 761.441 513.073 767.441 514.173 772.441C515.273 777.341 517.073 785.741 518.273 790.941C519.473 796.141 520.573 801.541 520.773 802.941C521.173 805.441 525.173 819.941 531.073 839.441C532.673 844.941 535.573 853.241 537.373 857.941C539.173 862.641 540.773 866.641 540.773 866.941C540.873 867.241 542.073 870.141 543.673 873.341C545.173 876.641 546.473 880.241 546.673 881.341C546.773 882.541 547.373 884.341 547.973 885.441C548.573 886.541 549.073 887.641 549.073 887.941C549.073 888.241 549.573 889.741 550.173 891.241C550.773 892.841 551.273 894.341 551.273 894.541C551.273 894.841 552.173 897.041 553.273 899.541C554.473 901.941 555.073 904.441 554.773 904.841C554.473 905.341 554.573 905.941 555.073 906.141C555.473 906.241 557.073 909.341 558.673 912.941C563.573 924.041 568.973 935.041 573.873 943.941C576.473 948.641 579.473 954.241 580.673 956.441C584.973 964.641 607.373 996.541 610.073 998.241C610.673 998.641 611.273 999.641 611.273 1000.34C611.273 1001.04 612.273 1002.54 613.573 1003.64C614.773 1004.74 616.873 1007.04 618.273 1008.84C625.173 1017.64 649.473 1042.94 651.073 1042.94C651.473 1042.94 651.673 1002.24 651.673 952.441L651.573 861.841L667.173 846.041C675.773 837.241 699.373 813.241 719.773 792.541L756.673 754.941L962.973 755.041C1077.27 755.041 1169.27 755.341 1169.27 755.841C1169.27 756.341 1170.37 757.041 1171.77 757.341C1173.87 757.841 1174.27 758.541 1174.27 761.741C1174.37 763.741 1174.37 829.541 1174.37 907.941C1174.37 986.341 1174.57 1051.24 1174.87 1052.14C1175.37 1053.74 1175.67 1053.74 1178.47 1051.64C1181.57 1049.44 1202.27 1029.04 1209.87 1020.84C1212.07 1018.44 1216.57 1013.04 1219.97 1008.94C1223.27 1004.84 1226.97 1000.54 1228.17 999.541C1229.27 998.441 1230.27 997.241 1230.27 996.841C1230.27 995.941 1232.37 993.041 1235.47 989.841C1236.37 988.941 1236.97 987.941 1236.67 987.741C1236.47 987.541 1237.57 985.941 1239.17 984.241C1240.67 982.541 1242.17 980.541 1242.47 979.741C1242.77 979.041 1245.47 974.741 1248.37 970.341C1254.27 961.441 1259.67 952.741 1259.67 951.941C1259.77 951.641 1260.87 949.841 1262.27 947.941C1263.67 946.041 1264.57 944.441 1264.37 944.441C1264.17 944.441 1266.67 938.841 1270.07 931.941C1276.17 919.241 1281.27 908.241 1281.27 907.441C1281.27 907.241 1281.77 905.841 1282.47 904.241C1283.07 902.741 1283.67 901.241 1283.77 900.941C1283.87 900.641 1284.27 899.541 1284.67 898.441C1288.77 887.841 1289.97 884.241 1293.67 871.941C1297.77 858.141 1303.47 832.541 1304.77 822.041C1305.17 819.041 1305.67 815.741 1305.87 814.541C1306.07 813.441 1306.47 809.541 1306.87 805.941C1307.17 802.341 1307.67 799.241 1307.77 798.941C1307.97 798.641 1308.37 792.141 1308.77 784.441C1309.37 771.441 1309.97 767.041 1312.37 756.441C1313.77 750.241 1315.27 742.241 1315.77 738.241C1315.97 737.141 1316.37 735.341 1316.67 734.241C1316.97 733.241 1317.47 730.841 1317.77 728.941C1318.07 727.041 1318.77 723.041 1319.37 720.241C1319.97 717.341 1320.57 713.941 1320.67 712.741C1320.87 711.441 1321.27 709.741 1321.57 708.941C1321.87 708.141 1322.67 703.941 1323.27 699.741C1323.87 695.441 1324.87 690.541 1325.37 688.741C1325.97 686.941 1326.67 682.941 1326.87 679.941C1327.17 676.941 1327.87 673.041 1328.27 671.441C1328.77 669.741 1329.47 666.041 1329.77 663.041C1330.07 660.041 1330.77 656.841 1331.27 655.941C1331.77 654.941 1331.97 654.041 1331.77 653.741C1331.47 653.541 1332.17 648.141 1333.27 641.841C1335.17 630.641 1336.17 623.441 1336.77 617.441C1336.97 615.741 1337.27 613.741 1337.57 612.941C1338.07 611.541 1338.87 605.241 1339.77 596.441C1339.97 594.241 1340.37 590.441 1340.67 587.941C1341.57 579.141 1343.47 561.341 1343.87 556.441C1344.17 553.641 1344.57 549.641 1344.77 547.441C1344.97 545.241 1345.37 540.041 1345.67 535.941C1345.97 531.841 1346.47 525.941 1346.77 522.941C1346.97 519.941 1347.47 513.141 1347.77 507.941C1348.17 502.741 1348.57 496.141 1348.77 493.441C1349.07 490.641 1349.47 482.141 1349.77 474.441C1350.17 466.741 1350.57 456.841 1350.87 452.441C1353.57 399.041 1353.47 285.741 1350.57 271.341C1350.27 269.741 1350.07 267.741 1350.07 266.941C1350.07 266.141 1349.67 262.241 1349.17 258.441C1348.67 254.541 1348.17 249.841 1347.97 247.941C1347.57 244.141 1345.37 239.941 1343.77 239.941C1343.17 239.941 1342.17 239.441 1341.57 238.841C1340.37 237.641 1336.27 237.141 1332.77 237.641ZM712.273 546.341C725.273 548.241 739.273 551.941 742.073 554.141C742.673 554.741 743.273 554.841 743.273 554.541C743.273 554.141 744.173 554.341 745.273 554.941C746.773 555.741 747.273 555.741 747.373 554.741C747.373 553.641 747.573 553.641 747.973 554.741C748.273 555.441 753.273 558.341 759.073 561.141C764.973 563.941 770.373 566.841 771.073 567.641C771.773 568.341 772.773 568.941 773.273 568.941C773.773 568.941 775.373 570.041 776.973 571.341C778.473 572.641 780.873 574.041 782.173 574.441C783.573 574.841 788.873 579.441 793.973 584.541C799.073 589.741 803.773 593.941 804.273 593.941C804.873 593.941 805.273 594.641 805.273 595.441C805.273 596.241 805.673 596.941 806.173 596.941C806.773 596.941 810.073 600.641 813.673 605.141C817.173 609.741 821.073 614.541 822.173 615.941C825.873 620.441 828.273 623.741 828.273 624.441C828.273 624.741 830.473 628.241 833.073 632.241C835.773 636.241 838.573 640.741 839.373 642.441C840.273 644.041 841.473 646.341 842.073 647.441C842.773 648.541 843.673 650.541 844.273 651.941C844.773 653.341 845.673 655.141 846.173 655.941C848.673 660.441 850.273 663.941 849.773 663.941C849.473 663.941 850.073 665.641 851.073 667.641C852.673 670.941 853.673 673.541 854.873 678.441C854.973 678.941 855.673 680.741 856.373 682.441C857.073 684.041 857.573 685.741 857.473 686.041C857.473 686.341 858.073 688.741 858.773 691.441C860.573 697.241 859.773 703.941 857.373 703.941C855.973 703.941 855.973 703.741 857.273 702.841C858.573 701.941 858.573 701.841 857.273 702.241C856.473 702.441 855.873 703.541 856.073 704.641C856.473 707.341 852.373 709.341 848.073 708.541C846.273 708.241 842.073 707.741 838.773 707.341C835.473 707.041 832.173 706.241 831.373 705.641C830.173 704.641 830.073 704.741 830.773 705.841C831.373 706.941 831.073 707.141 829.173 706.541C827.173 706.041 822.273 704.941 815.773 703.541C815.273 703.441 814.273 703.041 813.573 702.641C812.973 702.241 812.073 702.341 811.773 702.941C811.373 703.641 810.673 703.741 809.973 703.141C809.273 702.641 807.473 702.341 805.873 702.541C803.973 702.741 802.373 702.141 800.873 700.441C795.273 694.341 755.273 632.441 755.273 629.841C755.273 629.341 754.973 628.941 754.573 629.041C753.773 629.041 740.973 648.041 726.373 670.941C718.873 682.641 715.973 686.341 714.873 685.241C714.573 684.941 713.773 685.141 713.073 685.641C711.673 686.641 706.773 686.641 704.273 685.641C703.473 685.241 700.773 684.841 698.273 684.741C695.773 684.541 693.473 684.141 693.173 683.641C692.873 683.241 690.173 682.741 687.173 682.441C684.173 682.241 681.573 681.941 681.273 681.841C680.973 681.741 679.673 681.441 678.273 681.341C676.873 681.141 674.673 680.841 673.273 680.641C671.873 680.441 669.673 679.841 668.273 679.241C666.673 678.541 665.573 678.541 665.173 679.141C664.773 679.741 664.273 679.641 663.773 678.941C663.173 678.041 662.773 678.041 662.173 679.041C661.573 680.041 661.273 680.141 661.273 679.141C661.273 678.541 660.073 677.941 658.673 677.941C657.273 677.941 655.173 677.441 654.073 676.841C652.473 675.941 652.173 676.041 652.773 677.041C653.373 677.941 653.173 678.041 652.173 677.341C651.373 676.841 650.573 676.441 650.273 676.341C647.673 675.941 640.073 674.841 637.273 674.541C635.373 674.341 633.073 673.941 632.173 673.541C631.173 673.141 629.873 672.941 629.173 673.041C627.273 673.441 619.173 671.941 617.073 670.741C615.873 670.141 615.273 670.241 615.273 671.041C615.273 671.941 614.873 671.841 613.873 671.041C612.573 669.941 609.673 669.541 599.573 668.641C598.273 668.541 597.273 668.041 597.273 667.541C597.273 667.041 596.973 666.941 596.573 667.241C596.273 667.641 595.373 667.441 594.673 666.841C593.873 666.141 593.273 666.141 592.773 666.941C592.373 667.641 591.473 667.441 590.073 666.541C588.573 665.441 587.473 665.341 586.173 666.041C585.073 666.641 584.173 666.641 583.773 665.941C583.473 665.441 582.173 664.941 580.973 664.941C577.073 664.941 573.273 664.341 572.573 663.641C572.273 663.241 571.173 662.941 570.273 662.941C569.273 662.941 567.973 662.241 567.273 661.441C566.573 660.641 565.273 659.941 564.273 659.941C561.373 659.941 557.973 656.241 558.573 653.741C558.873 652.441 559.373 650.441 559.673 649.141C559.973 647.841 562.673 641.641 565.773 635.441C568.873 629.141 571.273 623.841 571.073 623.741C570.873 623.541 571.773 622.341 573.073 620.941C574.273 619.641 575.273 618.041 575.273 617.541C575.273 616.941 576.573 614.841 578.273 613.041C579.873 611.141 581.973 608.041 582.973 606.241C583.973 604.441 585.073 602.941 585.473 602.941C585.973 602.941 586.273 602.541 586.273 602.141C586.273 600.941 591.573 594.941 599.673 587.141C609.873 577.141 611.073 576.141 611.673 576.741C611.973 577.041 612.273 576.541 612.273 575.641C612.273 574.641 612.673 573.941 613.273 573.941C613.773 573.941 617.473 571.741 621.473 569.141C629.373 563.941 640.173 557.641 641.773 557.341C642.373 557.241 644.973 556.141 647.773 554.841C655.673 551.341 671.273 547.541 683.273 546.341C686.273 546.041 688.773 545.741 688.873 545.641C689.273 545.241 708.873 545.841 712.273 546.341ZM1142.27 546.341C1154.37 547.641 1169.87 551.341 1177.77 554.841C1180.57 556.141 1183.27 557.241 1183.77 557.341C1185.37 557.641 1196.17 563.941 1204.07 569.141C1208.07 571.741 1211.77 573.941 1212.27 573.941C1212.87 573.941 1213.27 574.641 1213.27 575.641C1213.27 576.541 1213.57 577.041 1213.87 576.741C1214.47 576.141 1215.67 577.141 1225.87 587.141C1233.97 594.941 1239.27 600.941 1239.27 602.141C1239.27 602.541 1239.57 602.941 1240.07 602.941C1240.47 602.941 1241.57 604.441 1242.57 606.241C1243.57 608.041 1245.67 611.141 1247.27 613.041C1248.97 614.841 1250.27 616.941 1250.27 617.541C1250.27 618.041 1251.17 619.541 1252.27 620.741C1253.37 621.941 1254.27 623.141 1254.17 623.441C1254.17 623.741 1256.67 629.141 1259.77 635.441C1262.87 641.641 1265.57 647.841 1265.87 649.141C1266.17 650.441 1266.67 652.441 1266.97 653.741C1267.57 656.241 1264.17 659.941 1261.27 659.941C1260.27 659.941 1258.97 660.641 1258.27 661.441C1257.57 662.241 1256.27 662.941 1255.27 662.941C1254.37 662.941 1253.27 663.241 1252.97 663.641C1252.27 664.341 1248.47 664.941 1244.57 664.941C1243.37 664.941 1242.07 665.441 1241.77 665.941C1241.37 666.641 1240.47 666.641 1239.37 666.041C1238.07 665.341 1236.97 665.441 1235.47 666.541C1234.07 667.441 1233.17 667.641 1232.77 666.941C1232.27 666.141 1231.67 666.141 1230.87 666.841C1230.17 667.441 1229.27 667.641 1228.97 667.241C1228.57 666.941 1228.27 667.041 1228.27 667.541C1228.27 668.041 1227.27 668.541 1226.07 668.641C1215.87 669.541 1212.97 669.941 1211.67 671.041C1210.67 671.841 1210.27 671.941 1210.27 671.041C1210.27 670.241 1209.67 670.141 1208.57 670.741C1206.37 671.941 1198.27 673.441 1196.37 673.041C1195.67 672.941 1194.37 673.141 1193.37 673.541C1192.47 673.941 1190.17 674.341 1188.27 674.541C1185.47 674.841 1177.87 675.941 1175.27 676.341C1174.97 676.441 1174.17 676.841 1173.37 677.341C1172.37 678.041 1172.17 677.941 1172.77 677.041C1173.37 676.041 1173.07 675.941 1171.47 676.841C1170.37 677.441 1168.27 677.941 1166.87 677.941C1165.47 677.941 1164.27 678.541 1164.27 679.141C1164.27 680.141 1163.97 680.041 1163.37 679.041C1162.77 678.041 1162.37 678.041 1161.77 678.941C1161.27 679.641 1160.77 679.741 1160.37 679.141C1159.97 678.541 1158.87 678.541 1157.27 679.241C1155.87 679.841 1153.67 680.441 1152.27 680.641C1150.87 680.841 1148.67 681.141 1147.27 681.341C1145.87 681.441 1144.57 681.741 1144.27 681.841C1143.97 681.941 1141.67 682.241 1139.07 682.441C1136.47 682.641 1133.77 683.141 1133.07 683.641C1132.37 684.041 1130.17 684.541 1128.07 684.641C1123.37 684.941 1121.47 683.041 1112.97 669.241C1109.27 663.341 1102.87 653.241 1098.77 646.941C1094.77 640.641 1089.87 632.941 1088.07 629.941C1084.47 624.141 1081.67 622.541 1080.57 625.641C1080.27 626.641 1078.77 629.241 1077.27 631.441C1073.37 637.141 1069.37 643.941 1057.97 663.941C1042.57 691.041 1039.57 695.941 1038.27 695.941C1037.87 695.941 1036.27 697.041 1034.77 698.341C1033.27 699.641 1031.37 700.541 1030.67 700.241C1029.97 699.941 1027.97 700.441 1026.27 701.241C1024.67 702.141 1023.27 702.341 1023.27 701.841C1023.27 701.241 1022.67 701.141 1022.07 701.641C1021.37 702.041 1019.87 702.441 1018.77 702.441C1017.67 702.441 1016.27 702.841 1015.57 703.241C1014.97 703.641 1014.17 703.541 1013.77 702.941C1013.37 702.341 1012.57 702.241 1011.97 702.641C1011.27 703.041 1010.37 703.441 1009.77 703.541C1003.27 704.941 998.373 706.041 996.373 706.541C994.473 707.141 994.173 706.941 994.773 705.841C995.473 704.741 995.373 704.641 994.173 705.641C993.373 706.241 990.073 707.041 986.773 707.341C983.473 707.741 979.273 708.241 977.473 708.541C973.173 709.341 969.073 707.341 969.473 704.641C969.673 703.541 969.073 702.441 968.273 702.241C966.973 701.841 966.973 701.941 968.273 702.841C969.573 703.741 969.573 703.941 968.173 703.941C965.773 703.941 964.973 697.241 966.773 691.441C967.473 688.741 968.073 686.341 968.073 686.041C967.973 685.741 968.473 684.041 969.173 682.441C969.873 680.741 970.573 678.941 970.673 678.441C971.873 673.541 972.873 670.941 974.473 667.641C975.473 665.641 976.073 663.941 975.773 663.941C975.273 663.941 976.873 660.441 979.373 655.941C979.873 655.141 980.773 653.341 981.273 651.941C981.873 650.541 982.773 648.541 983.473 647.441C984.073 646.341 985.273 644.041 986.173 642.441C986.973 640.741 989.773 636.241 992.473 632.241C995.073 628.241 997.273 624.741 997.273 624.441C997.273 623.741 999.673 620.441 1003.37 615.941C1004.47 614.541 1008.37 609.741 1011.87 605.141C1015.47 600.641 1018.77 596.941 1019.37 596.941C1019.87 596.941 1020.27 596.241 1020.27 595.441C1020.27 594.641 1020.67 593.941 1021.27 593.941C1021.77 593.941 1026.47 589.741 1031.57 584.541C1036.67 579.441 1041.97 574.841 1043.37 574.441C1044.67 574.041 1047.07 572.641 1048.57 571.341C1050.17 570.041 1051.77 568.941 1052.27 568.941C1052.77 568.941 1053.77 568.341 1054.47 567.641C1055.17 566.841 1060.57 563.941 1066.57 561.141C1072.47 558.241 1077.27 555.341 1077.37 554.641C1077.37 553.741 1077.57 553.741 1077.97 554.641C1078.27 555.541 1078.97 555.641 1080.37 554.941C1081.37 554.341 1082.27 554.141 1082.27 554.541C1082.27 554.841 1082.87 554.741 1083.57 554.141C1086.87 551.541 1104.37 547.241 1116.27 546.241C1119.87 545.941 1122.87 545.641 1122.97 545.541C1123.37 545.241 1137.17 545.841 1142.27 546.341Z"
            fill="#2A2A2A" fill-rule="nonzero" opacity="1" stroke="none"
        />
        <path
            d="M730.673 797.641C712.573 816.041 689.873 839.141 680.173 848.941L662.633 866.879C662.595 866.918 662.573 866.971 662.573 867.026L662.573 1052.44C662.573 1202.44 662.273 1238.24 661.273 1239.44C660.373 1240.44 660.273 1241.34 660.973 1242.04C661.573 1242.64 684.773 1243.04 722.573 1243.04L783.063 1243.14C783.179 1243.14 783.273 1243.23 783.273 1243.35L783.273 1294.94C783.273 1345.44 783.273 1346.74 785.273 1347.24C786.273 1347.54 787.373 1347.24 787.673 1346.54C787.973 1345.84 788.173 1345.84 788.173 1346.74C788.273 1347.44 811.873 1324.34 840.773 1295.44L893.311 1242.9C893.351 1242.86 893.405 1242.84 893.461 1242.84L932.073 1242.94C953.373 1243.04 971.673 1242.84 972.773 1242.54C973.873 1242.34 975.073 1242.04 975.373 1242.04C975.773 1241.94 1018.07 1199.84 1069.47 1148.44C1120.87 1097.04 1163.47 1054.94 1164.17 1054.94C1164.77 1054.94 1165.27 1054.34 1165.27 1053.64C1165.37 1052.24 1165.37 774.941 1165.27 770.241C1165.27 767.641 1164.77 766.941 1162.07 765.841C1159.47 764.841 1117.47 764.541 961.173 764.441L763.562 764.241C763.505 764.241 763.451 764.263 763.411 764.304L730.673 797.641ZM1119.07 916.441L1119.27 1025.45C1119.27 1025.51 1119.25 1025.56 1119.21 1025.6L1074.27 1070.74L1029.43 1115.88C1029.4 1115.92 1029.34 1115.94 1029.29 1115.94L990.973 1115.94C962.373 1115.94 952.373 1115.64 951.473 1114.74C950.473 1113.74 943.073 1120.74 917.273 1146.44L884.622 1179.09C884.491 1179.22 884.266 1179.13 884.262 1178.95L884.173 1174.94C884.073 1172.44 884.073 1158.94 884.073 1144.94C884.073 1121.14 883.573 1116.54 881.173 1114.94C880.773 1114.64 859.973 1114.44 834.873 1114.44L789.484 1114.54C789.368 1114.54 789.273 1114.45 789.273 1114.33L789.273 1021.24C789.273 969.941 789.273 909.741 789.273 887.441C789.273 800.541 789.073 808.141 791.073 807.741C791.973 807.541 866.173 807.341 955.773 807.441L1118.56 807.441C1118.68 807.441 1118.77 807.535 1118.77 807.651L1119.07 916.441Z"
            fill="#9e25ce" fill-rule="nonzero" opacity="1" stroke="none"
        />
        <path
            d="M900.473 938.341L900.773 1000.44L922.573 1000.54L944.273 1000.64L944.073 938.541L943.773 876.441L921.973 876.341L900.273 876.241L900.473 938.341Z"
            fill="#9e25ce" fill-rule="nonzero" opacity="1" stroke="none"
        />
        <path
            d="M1016.47 938.341L1016.77 1000.44L1038.57 1000.54L1060.27 1000.64L1060.07 938.541L1059.77 876.441L1037.97 876.341L1016.27 876.241L1016.47 938.341Z"
            fill="#9e25ce" fill-rule="nonzero" opacity="1" stroke="none"
        />
    </g>
</svg>