<svg width="150" height="187" viewBox="0 0 149 185" fill="none" xmlns="http://www.w3.org/2000/svg">
  <rect x="60.6586" width="27.3476" height="48.75" rx="4" fill="#D81A14" />
  <rect y="56.75" width="26.9235" height="47.9941" rx="4" fill="#D9D9D9" />
  <ellipse cx="12.9747" cy="82.0348" rx="5.43871" ry="5.15054" fill="#2A2A2A" />
  <path
    d="M8.55774 74.7886C8.57298 74.7661 8.60656 74.7665 8.62187 74.7894L10.4536 77.5278L10.6988 77.9523C11.4772 79.2994 11.4087 80.9624 10.523 82.2207L9.14886 84.1731C8.99698 84.3889 8.67575 84.3921 8.51408 84.1795L8.22599 83.8005C7.77698 83.21 7.52015 82.4985 7.49043 81.7629L7.41716 79.9493C7.36954 78.7705 7.49493 77.5933 7.78938 76.4548C7.93633 75.8866 8.17912 75.3484 8.50747 74.8629L8.55774 74.7886Z"
    fill="#2A2A2A" />
  <path
    d="M17.0606 74.7888C17.0454 74.7663 17.0118 74.7667 16.9965 74.7895L15.1648 77.528L14.8977 77.9903C14.1306 79.3178 14.1852 80.9542 15.0383 82.2079L16.2258 83.9529C16.4397 84.2671 16.9081 84.2623 17.1234 83.9437L17.7438 83.0257C18.1789 82.3819 18.3983 81.6196 18.3703 80.8493L18.3376 79.948C18.2946 78.7673 18.1241 77.5963 17.829 76.455C17.682 75.8868 17.4392 75.3486 17.1109 74.8631L17.0606 74.7888Z"
    fill="#2A2A2A" />
  <path
    d="M16.6731 80.835L13.6274 82.5518C14.0625 82.7664 15.0162 83.3113 16.0205 82.981C16.6731 82.7664 16.8907 81.4788 16.6731 80.835Z"
    fill="white" />
  <path d="M15.7119 82.6885L14.992 81.4032L15.6969 81.2202L15.7119 82.6885Z" fill="#2A2A2A" />
  <path
    d="M9.35801 80.835L12.4037 82.5518C11.9686 82.7664 11.015 83.3113 10.0107 82.981C9.35801 82.7664 9.14046 81.4788 9.35801 80.835Z"
    fill="white" />
  <path d="M10.3192 82.6885L11.0391 81.4032L10.3342 81.2202L10.3192 82.6885Z" fill="#2A2A2A" />
  <rect x="30.4353" y="56.75" width="26.9235" height="47.9941" rx="4" fill="#D9D9D9" />
  <ellipse cx="43.4101" cy="82.0348" rx="5.43871" ry="5.15054" fill="#2A2A2A" />
  <path
    d="M38.993 74.7886C39.0083 74.7661 39.0419 74.7665 39.0572 74.7894L40.8889 77.5278L41.1341 77.9523C41.9125 79.2994 41.844 80.9624 40.9583 82.2207L39.5842 84.1731C39.4323 84.3889 39.1111 84.3921 38.9494 84.1795L38.6613 83.8005C38.2123 83.21 37.9555 82.4985 37.9257 81.7629L37.8525 79.9493C37.8048 78.7705 37.9302 77.5933 38.2247 76.4548C38.3716 75.8866 38.6144 75.3484 38.9428 74.8629L38.993 74.7886Z"
    fill="#2A2A2A" />
  <path
    d="M47.4959 74.7888C47.4807 74.7663 47.4471 74.7667 47.4318 74.7895L45.6001 77.528L45.333 77.9903C44.5659 79.3178 44.6205 80.9542 45.4736 82.2079L46.6611 83.9529C46.875 84.2671 47.3434 84.2623 47.5587 83.9437L48.1791 83.0257C48.6142 82.3819 48.8336 81.6196 48.8056 80.8493L48.7729 79.948C48.7299 78.7673 48.5594 77.5963 48.2643 76.455C48.1173 75.8868 47.8745 75.3486 47.5462 74.8631L47.4959 74.7888Z"
    fill="#2A2A2A" />
  <path
    d="M47.1084 80.835L44.0627 82.5518C44.4978 82.7664 45.4515 83.3113 46.4558 82.981C47.1084 82.7664 47.326 81.4788 47.1084 80.835Z"
    fill="white" />
  <path d="M46.1472 82.6885L45.4273 81.4032L46.1322 81.2202L46.1472 82.6885Z" fill="#2A2A2A" />
  <path
    d="M39.7933 80.835L42.839 82.5518C42.4039 82.7664 41.4503 83.3113 40.446 82.981C39.7933 82.7664 39.5758 81.4788 39.7933 80.835Z"
    fill="white" />
  <path d="M40.7545 82.6885L41.4744 81.4032L40.7695 81.2202L40.7545 82.6885Z" fill="#2A2A2A" />
  <rect x="60.8706" y="56.75" width="26.9235" height="47.9941" rx="4" fill="#D9D9D9" />
  <ellipse cx="73.8454" cy="82.0348" rx="5.43871" ry="5.15054" fill="#2A2A2A" />
  <path
    d="M69.4283 74.7886C69.4436 74.7661 69.4772 74.7665 69.4925 74.7894L71.3242 77.5278L71.5694 77.9523C72.3478 79.2994 72.2793 80.9624 71.3936 82.2207L70.0195 84.1731C69.8676 84.3889 69.5464 84.3921 69.3847 84.1795L69.0966 83.8005C68.6476 83.21 68.3908 82.4985 68.361 81.7629L68.2878 79.9493C68.2401 78.7705 68.3655 77.5933 68.66 76.4548C68.8069 75.8866 69.0497 75.3484 69.3781 74.8629L69.4283 74.7886Z"
    fill="#2A2A2A" />
  <path
    d="M77.9312 74.7888C77.916 74.7663 77.8824 74.7667 77.8671 74.7895L76.0354 77.528L75.7683 77.9903C75.0012 79.3178 75.0558 80.9542 75.9089 82.2079L77.0964 83.9529C77.3103 84.2671 77.7787 84.2623 77.994 83.9437L78.6144 83.0257C79.0495 82.3819 79.2689 81.6196 79.2409 80.8493L79.2082 79.948C79.1652 78.7673 78.9947 77.5963 78.6996 76.455C78.5526 75.8868 78.3098 75.3486 77.9815 74.8631L77.9312 74.7888Z"
    fill="#2A2A2A" />
  <path
    d="M77.5437 80.835L74.498 82.5518C74.9331 82.7664 75.8868 83.3113 76.8911 82.981C77.5437 82.7664 77.7613 81.4788 77.5437 80.835Z"
    fill="white" />
  <path d="M76.5825 82.6885L75.8626 81.4032L76.5675 81.2202L76.5825 82.6885Z" fill="#2A2A2A" />
  <path
    d="M70.2286 80.835L73.2743 82.5518C72.8392 82.7664 71.8856 83.3113 70.8813 82.981C70.2286 82.7664 70.0111 81.4788 70.2286 80.835Z"
    fill="white" />
  <path d="M71.1898 82.6885L71.9097 81.4032L71.2048 81.2202L71.1898 82.6885Z" fill="#2A2A2A" />
  <rect x="91.3059" y="56.75" width="26.9235" height="47.9941" rx="4" fill="#D9D9D9" />
  <ellipse cx="104.281" cy="82.0348" rx="5.43871" ry="5.15054" fill="#2A2A2A" />
  <path
    d="M99.8636 74.7886C99.8789 74.7661 99.9125 74.7665 99.9278 74.7894L101.759 77.5278L102.005 77.9523C102.783 79.2994 102.715 80.9624 101.829 82.2207L100.455 84.1731C100.303 84.3889 99.9817 84.3921 99.82 84.1795L99.5319 83.8005C99.0829 83.21 98.8261 82.4985 98.7963 81.7629L98.7231 79.9493C98.6754 78.7705 98.8008 77.5933 99.0953 76.4548C99.2422 75.8866 99.485 75.3484 99.8134 74.8629L99.8636 74.7886Z"
    fill="#2A2A2A" />
  <path
    d="M108.367 74.7888C108.351 74.7663 108.318 74.7667 108.302 74.7895L106.471 77.528L106.204 77.9903C105.437 79.3178 105.491 80.9542 106.344 82.2079L107.532 83.9529C107.746 84.2671 108.214 84.2623 108.429 83.9437L109.05 83.0257C109.485 82.3819 109.704 81.6196 109.676 80.8493L109.644 79.948C109.601 78.7673 109.43 77.5963 109.135 76.455C108.988 75.8868 108.745 75.3486 108.417 74.8631L108.367 74.7888Z"
    fill="#2A2A2A" />
  <path
    d="M107.979 80.835L104.933 82.5518C105.368 82.7664 106.322 83.3113 107.326 82.981C107.979 82.7664 108.197 81.4788 107.979 80.835Z"
    fill="white" />
  <path d="M107.018 82.6885L106.298 81.4032L107.003 81.2202L107.018 82.6885Z" fill="#2A2A2A" />
  <path
    d="M100.664 80.835L103.71 82.5518C103.275 82.7664 102.321 83.3113 101.317 82.981C100.664 82.7664 100.446 81.4788 100.664 80.835Z"
    fill="white" />
  <path d="M101.625 82.6885L102.345 81.4032L101.64 81.2202L101.625 82.6885Z" fill="#2A2A2A" />
  <rect x="121.741" y="56.75" width="26.9235" height="47.9941" rx="4" fill="#D9D9D9" />
  <ellipse cx="134.716" cy="82.0348" rx="5.43871" ry="5.15054" fill="#2A2A2A" />
  <path
    d="M130.299 74.7886C130.314 74.7661 130.348 74.7665 130.363 74.7894L132.195 77.5278L132.44 77.9523C133.218 79.2994 133.15 80.9624 132.264 82.2207L130.89 84.1731C130.738 84.3889 130.417 84.3921 130.255 84.1795L129.967 83.8005C129.518 83.21 129.261 82.4985 129.232 81.7629L129.158 79.9493C129.111 78.7705 129.236 77.5933 129.531 76.4548C129.678 75.8866 129.92 75.3484 130.249 74.8629L130.299 74.7886Z"
    fill="#2A2A2A" />
  <path
    d="M138.802 74.7888C138.787 74.7663 138.753 74.7667 138.738 74.7895L136.906 77.528L136.639 77.9903C135.872 79.3178 135.927 80.9542 136.78 82.2079L137.967 83.9529C138.181 84.2671 138.649 84.2623 138.865 83.9437L139.485 83.0257C139.92 82.3819 140.14 81.6196 140.112 80.8493L140.079 79.948C140.036 78.7673 139.865 77.5963 139.57 76.455C139.423 75.8868 139.181 75.3486 138.852 74.8631L138.802 74.7888Z"
    fill="#2A2A2A" />
  <path
    d="M138.414 80.835L135.369 82.5518C135.804 82.7664 136.757 83.3113 137.762 82.981C138.414 82.7664 138.632 81.4788 138.414 80.835Z"
    fill="white" />
  <path d="M137.453 82.6885L136.733 81.4032L137.438 81.2202L137.453 82.6885Z" fill="#2A2A2A" />
  <path
    d="M131.099 80.835L134.145 82.5518C133.71 82.7664 132.756 83.3113 131.752 82.981C131.099 82.7664 130.882 81.4788 131.099 80.835Z"
    fill="white" />
  <path d="M132.06 82.6885L132.78 81.4032L132.075 81.2202L132.06 82.6885Z" fill="#2A2A2A" />
  <rect x="121.741" y="108.256" width="26.9235" height="47.9941" rx="4" fill="#D9D9D9" />
  <ellipse cx="134.716" cy="133.541" rx="5.43871" ry="5.15054" fill="#2A2A2A" />
  <path
    d="M130.299 126.295C130.314 126.272 130.348 126.273 130.363 126.295L132.195 129.034L132.44 129.458C133.218 130.806 133.15 132.469 132.264 133.727L130.89 135.679C130.738 135.895 130.417 135.898 130.255 135.686L129.967 135.307C129.518 134.716 129.261 134.005 129.232 133.269L129.158 131.455C129.111 130.277 129.236 129.099 129.531 127.961C129.678 127.393 129.92 126.855 130.249 126.369L130.299 126.295Z"
    fill="#2A2A2A" />
  <path
    d="M138.802 126.295C138.787 126.272 138.753 126.273 138.738 126.295L136.906 129.034L136.639 129.496C135.872 130.824 135.927 132.46 136.78 133.714L137.967 135.459C138.181 135.773 138.649 135.768 138.865 135.45L139.485 134.532C139.92 133.888 140.14 133.125 140.112 132.355L140.079 131.454C140.036 130.273 139.865 129.102 139.57 127.961C139.423 127.393 139.181 126.854 138.852 126.369L138.802 126.295Z"
    fill="#2A2A2A" />
  <path
    d="M138.414 132.341L135.369 134.058C135.804 134.273 136.757 134.817 137.762 134.487C138.414 134.273 138.632 132.985 138.414 132.341Z"
    fill="white" />
  <path d="M137.453 134.194L136.733 132.909L137.438 132.726L137.453 134.194Z" fill="#2A2A2A" />
  <path
    d="M131.099 132.341L134.145 134.058C133.71 134.273 132.756 134.817 131.752 134.487C131.099 134.273 130.882 132.985 131.099 132.341Z"
    fill="white" />
  <path d="M132.06 134.194L132.78 132.909L132.075 132.726L132.06 134.194Z" fill="#2A2A2A" />
  <rect x="91.3059" y="108.256" width="26.9235" height="47.9941" rx="4" fill="#D9D9D9" />
  <ellipse cx="104.281" cy="133.541" rx="5.43871" ry="5.15054" fill="#2A2A2A" />
  <path
    d="M99.8636 126.295C99.8789 126.272 99.9125 126.273 99.9278 126.295L101.759 129.034L102.005 129.458C102.783 130.806 102.715 132.469 101.829 133.727L100.455 135.679C100.303 135.895 99.9817 135.898 99.82 135.686L99.5319 135.307C99.0829 134.716 98.8261 134.005 98.7963 133.269L98.7231 131.455C98.6754 130.277 98.8008 129.099 99.0953 127.961C99.2422 127.393 99.485 126.855 99.8134 126.369L99.8636 126.295Z"
    fill="#2A2A2A" />
  <path
    d="M108.367 126.295C108.351 126.272 108.318 126.273 108.302 126.295L106.471 129.034L106.204 129.496C105.437 130.824 105.491 132.46 106.344 133.714L107.532 135.459C107.746 135.773 108.214 135.768 108.429 135.45L109.05 134.532C109.485 133.888 109.704 133.125 109.676 132.355L109.644 131.454C109.601 130.273 109.43 129.102 109.135 127.961C108.988 127.393 108.745 126.854 108.417 126.369L108.367 126.295Z"
    fill="#2A2A2A" />
  <path
    d="M107.979 132.341L104.933 134.058C105.368 134.273 106.322 134.817 107.326 134.487C107.979 134.273 108.197 132.985 107.979 132.341Z"
    fill="white" />
  <path d="M107.018 134.194L106.298 132.909L107.003 132.726L107.018 134.194Z" fill="#2A2A2A" />
  <path
    d="M100.664 132.341L103.71 134.058C103.275 134.273 102.321 134.817 101.317 134.487C100.664 134.273 100.446 132.985 100.664 132.341Z"
    fill="white" />
  <path d="M101.625 134.194L102.345 132.909L101.64 132.726L101.625 134.194Z" fill="#2A2A2A" />
  <rect y="108.256" width="26.9235" height="47.9941" rx="4" fill="#D9D9D9" />
  <ellipse cx="12.9747" cy="133.541" rx="5.43871" ry="5.15054" fill="#2A2A2A" />
  <path
    d="M8.55774 126.295C8.57298 126.272 8.60656 126.273 8.62187 126.295L10.4536 129.034L10.6988 129.458C11.4772 130.806 11.4087 132.469 10.523 133.727L9.14886 135.679C8.99698 135.895 8.67575 135.898 8.51408 135.686L8.22599 135.307C7.77698 134.716 7.52015 134.005 7.49043 133.269L7.41716 131.455C7.36954 130.277 7.49493 129.099 7.78938 127.961C7.93633 127.393 8.17912 126.855 8.50747 126.369L8.55774 126.295Z"
    fill="#2A2A2A" />
  <path
    d="M17.0606 126.295C17.0454 126.272 17.0118 126.273 16.9965 126.295L15.1648 129.034L14.8977 129.496C14.1306 130.824 14.1852 132.46 15.0383 133.714L16.2258 135.459C16.4397 135.773 16.9081 135.768 17.1234 135.45L17.7438 134.532C18.1789 133.888 18.3983 133.125 18.3703 132.355L18.3376 131.454C18.2946 130.273 18.1241 129.102 17.829 127.961C17.682 127.393 17.4392 126.854 17.1109 126.369L17.0606 126.295Z"
    fill="#2A2A2A" />
  <path
    d="M16.6731 132.341L13.6274 134.058C14.0625 134.273 15.0162 134.817 16.0205 134.487C16.6731 134.273 16.8907 132.985 16.6731 132.341Z"
    fill="white" />
  <path d="M15.7119 134.194L14.992 132.909L15.6969 132.726L15.7119 134.194Z" fill="#2A2A2A" />
  <path
    d="M9.35801 132.341L12.4037 134.058C11.9686 134.273 11.015 134.817 10.0107 134.487C9.35801 134.273 9.14046 132.985 9.35801 132.341Z"
    fill="white" />
  <path d="M10.3192 134.194L11.0391 132.909L10.3342 132.726L10.3192 134.194Z" fill="#2A2A2A" />
  <rect x="30.4353" y="108.256" width="26.9235" height="47.9941" rx="4" fill="#D9D9D9" />
  <ellipse cx="43.4101" cy="133.541" rx="5.43871" ry="5.15054" fill="#2A2A2A" />
  <path
    d="M38.993 126.295C39.0083 126.272 39.0419 126.273 39.0572 126.295L40.8889 129.034L41.1341 129.458C41.9125 130.806 41.844 132.469 40.9583 133.727L39.5842 135.679C39.4323 135.895 39.1111 135.898 38.9494 135.686L38.6613 135.307C38.2123 134.716 37.9555 134.005 37.9257 133.269L37.8525 131.455C37.8048 130.277 37.9302 129.099 38.2247 127.961C38.3716 127.393 38.6144 126.855 38.9428 126.369L38.993 126.295Z"
    fill="#2A2A2A" />
  <path
    d="M47.4959 126.295C47.4807 126.272 47.4471 126.273 47.4318 126.295L45.6001 129.034L45.333 129.496C44.5659 130.824 44.6205 132.46 45.4736 133.714L46.6611 135.459C46.875 135.773 47.3434 135.768 47.5587 135.45L48.1791 134.532C48.6142 133.888 48.8336 133.125 48.8056 132.355L48.7729 131.454C48.7299 130.273 48.5594 129.102 48.2643 127.961C48.1173 127.393 47.8745 126.854 47.5462 126.369L47.4959 126.295Z"
    fill="#2A2A2A" />
  <path
    d="M47.1084 132.341L44.0627 134.058C44.4978 134.273 45.4515 134.817 46.4558 134.487C47.1084 134.273 47.326 132.985 47.1084 132.341Z"
    fill="white" />
  <path d="M46.1472 134.194L45.4273 132.909L46.1322 132.726L46.1472 134.194Z" fill="#2A2A2A" />
  <path
    d="M39.7933 132.341L42.839 134.058C42.4039 134.273 41.4503 134.817 40.446 134.487C39.7933 134.273 39.5758 132.985 39.7933 132.341Z"
    fill="white" />
  <path d="M40.7545 134.194L41.4744 132.909L40.7695 132.726L40.7545 134.194Z" fill="#2A2A2A" />
  <rect x="60.8706" y="108.256" width="26.9235" height="47.9941" rx="4" fill="#D9D9D9" />
  <ellipse cx="73.8454" cy="133.541" rx="5.43871" ry="5.15054" fill="#2A2A2A" />
  <path
    d="M69.4283 126.295C69.4436 126.272 69.4772 126.273 69.4925 126.295L71.3242 129.034L71.5694 129.458C72.3478 130.806 72.2793 132.469 71.3936 133.727L70.0195 135.679C69.8676 135.895 69.5464 135.898 69.3847 135.686L69.0966 135.307C68.6476 134.716 68.3908 134.005 68.361 133.269L68.2878 131.455C68.2401 130.277 68.3655 129.099 68.66 127.961C68.8069 127.393 69.0497 126.855 69.3781 126.369L69.4283 126.295Z"
    fill="#2A2A2A" />
  <path
    d="M77.9312 126.295C77.916 126.272 77.8824 126.273 77.8671 126.295L76.0354 129.034L75.7683 129.496C75.0012 130.824 75.0558 132.46 75.9089 133.714L77.0964 135.459C77.3103 135.773 77.7787 135.768 77.994 135.45L78.6144 134.532C79.0495 133.888 79.2689 133.125 79.2409 132.355L79.2082 131.454C79.1652 130.273 78.9947 129.102 78.6996 127.961C78.5526 127.393 78.3098 126.854 77.9815 126.369L77.9312 126.295Z"
    fill="#2A2A2A" />
  <path
    d="M77.5437 132.341L74.498 134.058C74.9331 134.273 75.8868 134.817 76.8911 134.487C77.5437 134.273 77.7613 132.985 77.5437 132.341Z"
    fill="white" />
  <path d="M76.5825 134.194L75.8626 132.909L76.5675 132.726L76.5825 134.194Z" fill="#2A2A2A" />
  <path
    d="M70.2286 132.341L73.2743 134.058C72.8392 134.273 71.8856 134.817 70.8813 134.487C70.2286 134.273 70.0111 132.985 70.2286 132.341Z"
    fill="white" />
  <path d="M71.1898 134.194L71.9097 132.909L71.2048 132.726L71.1898 134.194Z" fill="#2A2A2A" />
  <path
    d="M109.245 158.639C108.594 161.019 106.931 166.787 104.886 171.818C103.862 174.338 102.754 176.643 101.643 178.242C101.087 179.043 100.551 179.637 100.049 179.996C99.5527 180.352 99.1414 180.444 98.7841 180.356C97.9466 180.15 97.3289 179.802 96.8768 179.346C96.4239 178.889 96.1128 178.299 95.9287 177.572C95.5554 176.098 95.7162 174.116 96.2272 171.732C96.7357 169.36 97.5746 166.657 98.5018 163.769C98.6301 163.369 98.7601 162.965 98.8911 162.559C99.7036 160.038 100.553 157.402 101.274 154.767C102.108 151.72 102.764 149.477 103.347 147.839C103.935 146.188 104.429 145.208 104.916 144.643C105.153 144.369 105.378 144.203 105.603 144.102C105.828 144.002 106.081 143.954 106.388 143.954C106.986 143.955 107.704 144.132 108.707 144.38C108.787 144.4 108.868 144.42 108.951 144.44C109.803 144.65 110.353 145.346 110.653 146.501C110.953 147.657 110.968 149.166 110.82 150.768C110.524 153.963 109.597 157.354 109.245 158.639Z"
    fill="#444243" stroke="#101010" />
  <line y1="-0.5" x2="13.3255" y2="-0.5"
    transform="matrix(0.822123 -0.56931 0.60998 0.792417 96.7032 173.637)" stroke="black" />
  <line y1="-0.5" x2="13.3255" y2="-0.5"
    transform="matrix(0.822123 -0.56931 0.60998 0.792417 95.4041 169.94)" stroke="black" />
  <line y1="-0.5" x2="13.3683" y2="-0.5"
    transform="matrix(0.85748 0.514517 -0.554892 0.831922 39.5372 166.051)" stroke="black" />
  <line y1="-0.5" x2="13.3683" y2="-0.5"
    transform="matrix(0.85748 0.514517 -0.554892 0.831922 39.5372 169.748)" stroke="black" />
  <path
    d="M46.2695 121C46.2695 121 44.6906 145.752 44.6906 152.683C44.6906 159.613 47.8417 174.53 57.322 180.9C64.6903 185.85 89.4269 184.365 96.2689 177.93C100.479 173.969 101.707 158.458 99.4268 151.692L88.3743 121L83.1112 145.257H61.0062L46.2695 121Z"
    fill="#444243" stroke="#101010" stroke-width="2" />
</svg>
  