<svg width="150" height="193" viewBox="0 0 150 193" fill="none" xmlns="http://www.w3.org/2000/svg">
<rect x="61.3262" y="0.528442" width="27.3476" height="48.75" rx="4" fill="#D81A14"/>
<rect x="0.667603" y="57.2784" width="26.9235" height="47.9941" rx="4" fill="#D9D9D9"/>
<ellipse cx="13.6423" cy="82.5631" rx="5.43871" ry="5.15054" fill="#2A2A2A"/>
<path d="M9.22534 75.3172C9.24058 75.2947 9.27417 75.295 9.28947 75.3179L11.1212 78.0564L11.3664 78.4809C12.1448 79.828 12.0763 81.491 11.1906 82.7493L9.81646 84.7017C9.66458 84.9175 9.34336 84.9207 9.18168 84.708L8.89359 84.3291C8.44459 83.7385 8.18775 83.0271 8.15803 82.2915L8.08476 80.4778C8.03714 79.2991 8.16253 78.1219 8.45698 76.9834V76.9834V76.9834C8.60394 76.4152 8.84672 75.877 9.17508 75.3915L9.22534 75.3172Z" fill="#2A2A2A"/>
<path d="M17.7283 75.3171C17.713 75.2946 17.6794 75.295 17.6641 75.3179L15.8324 78.0564L15.5653 78.5186C14.7983 79.8461 14.8529 81.4825 15.706 82.7362L16.8935 84.4812C17.1073 84.7954 17.5758 84.7906 17.7911 84.472L18.4114 83.554C18.8466 82.9102 19.066 82.1479 19.038 81.3776L19.0052 80.4763C18.9623 79.2956 18.7918 78.1246 18.4966 76.9833V76.9833V76.9833C18.3497 76.4151 18.1069 75.8769 17.7785 75.3915L17.7283 75.3171Z" fill="#2A2A2A"/>
<path d="M17.3407 81.3635L14.295 83.0804C14.7301 83.295 15.6838 83.8398 16.6881 83.5096C17.3407 83.295 17.5583 82.0073 17.3407 81.3635Z" fill="white"/>
<path d="M16.3795 83.2169L15.6596 81.9317L16.3645 81.7486L16.3795 83.2169Z" fill="#2A2A2A"/>
<path d="M10.0256 81.3635L13.0713 83.0804C12.6362 83.295 11.6826 83.8398 10.6783 83.5096C10.0256 83.295 9.80806 82.0073 10.0256 81.3635Z" fill="white"/>
<path d="M10.9868 83.2169L11.7067 81.9317L11.0018 81.7486L10.9868 83.2169Z" fill="#2A2A2A"/>
<rect x="31.1029" y="57.2784" width="26.9235" height="47.9941" rx="4" fill="#D9D9D9"/>
<ellipse cx="44.0777" cy="82.5631" rx="5.43871" ry="5.15054" fill="#2A2A2A"/>
<path d="M39.6606 75.3172C39.6759 75.2947 39.7095 75.295 39.7248 75.3179L41.5565 78.0564L41.8017 78.4809C42.5801 79.828 42.5116 81.491 41.6259 82.7493L40.2518 84.7017C40.0999 84.9175 39.7787 84.9207 39.617 84.708L39.3289 84.3291C38.8799 83.7385 38.6231 83.0271 38.5933 82.2915L38.5201 80.4778C38.4724 79.2991 38.5978 78.1219 38.8923 76.9834V76.9834V76.9834C39.0392 76.4152 39.282 75.877 39.6104 75.3915L39.6606 75.3172Z" fill="#2A2A2A"/>
<path d="M48.1636 75.3171C48.1483 75.2946 48.1147 75.295 48.0994 75.3179L46.2677 78.0564L46.0006 78.5186C45.2336 79.8461 45.2882 81.4825 46.1413 82.7362L47.3288 84.4812C47.5426 84.7954 48.0111 84.7906 48.2264 84.472L48.8467 83.554C49.2819 82.9102 49.5013 82.1479 49.4733 81.3776L49.4405 80.4763C49.3976 79.2956 49.2271 78.1246 48.9319 76.9833V76.9833V76.9833C48.785 76.4151 48.5422 75.8769 48.2138 75.3915L48.1636 75.3171Z" fill="#2A2A2A"/>
<path d="M47.776 81.3635L44.7303 83.0804C45.1654 83.295 46.1191 83.8398 47.1234 83.5096C47.776 83.295 47.9936 82.0073 47.776 81.3635Z" fill="white"/>
<path d="M46.8148 83.2169L46.0949 81.9317L46.7998 81.7486L46.8148 83.2169Z" fill="#2A2A2A"/>
<path d="M40.461 81.3635L43.5067 83.0804C43.0716 83.295 42.1179 83.8398 41.1136 83.5096C40.461 83.295 40.2434 82.0073 40.461 81.3635Z" fill="white"/>
<path d="M41.4222 83.2169L42.1421 81.9317L41.4372 81.7486L41.4222 83.2169Z" fill="#2A2A2A"/>
<rect x="61.5382" y="57.2784" width="26.9235" height="47.9941" rx="4" fill="#D9D9D9"/>
<ellipse cx="74.513" cy="82.5631" rx="5.43871" ry="5.15054" fill="#2A2A2A"/>
<path d="M70.096 75.3172C70.1112 75.2947 70.1448 75.295 70.1601 75.3179L71.9918 78.0564L72.2371 78.4809C73.0154 79.828 72.9469 81.491 72.0613 82.7493L70.6871 84.7017C70.5352 84.9175 70.214 84.9207 70.0523 84.708L69.7643 84.3291C69.3153 83.7385 69.0584 83.0271 69.0287 82.2915L68.9554 80.4778C68.9078 79.2991 69.0332 78.1219 69.3276 76.9834V76.9834V76.9834C69.4746 76.4152 69.7174 75.877 70.0457 75.3915L70.096 75.3172Z" fill="#2A2A2A"/>
<path d="M78.5989 75.3171C78.5837 75.2946 78.5501 75.295 78.5348 75.3179L76.7031 78.0564L76.436 78.5186C75.669 79.8461 75.7235 81.4825 76.5767 82.7362L77.7642 84.4812C77.978 84.7954 78.4464 84.7906 78.6618 84.472L79.2821 83.554C79.7172 82.9102 79.9367 82.1479 79.9087 81.3776L79.8759 80.4763C79.833 79.2956 79.6625 78.1246 79.3673 76.9833V76.9833V76.9833C79.2203 76.4151 78.9776 75.8769 78.6492 75.3915L78.5989 75.3171Z" fill="#2A2A2A"/>
<path d="M78.2114 81.3635L75.1657 83.0804C75.6008 83.295 76.5544 83.8398 77.5587 83.5096C78.2114 83.295 78.4289 82.0073 78.2114 81.3635Z" fill="white"/>
<path d="M77.2502 83.2169L76.5303 81.9317L77.2352 81.7486L77.2502 83.2169Z" fill="#2A2A2A"/>
<path d="M70.8963 81.3635L73.942 83.0804C73.5069 83.295 72.5533 83.8398 71.549 83.5096C70.8963 83.295 70.6788 82.0073 70.8963 81.3635Z" fill="white"/>
<path d="M71.8576 83.2169L72.5775 81.9317L71.8726 81.7486L71.8576 83.2169Z" fill="#2A2A2A"/>
<rect x="91.9735" y="57.2784" width="26.9235" height="47.9941" rx="4" fill="#D9D9D9"/>
<ellipse cx="104.948" cy="82.5631" rx="5.43871" ry="5.15054" fill="#2A2A2A"/>
<path d="M100.531 75.3172C100.547 75.2947 100.58 75.295 100.595 75.3179L102.427 78.0564L102.672 78.4809C103.451 79.828 103.382 81.491 102.497 82.7493L101.122 84.7017C100.971 84.9175 100.649 84.9207 100.488 84.708L100.2 84.3291C99.7506 83.7385 99.4937 83.0271 99.464 82.2915L99.3907 80.4778C99.3431 79.2991 99.4685 78.1219 99.763 76.9834V76.9834V76.9834C99.9099 76.4152 100.153 75.877 100.481 75.3915L100.531 75.3172Z" fill="#2A2A2A"/>
<path d="M109.034 75.3171C109.019 75.2946 108.985 75.295 108.97 75.3179L107.138 78.0564L106.871 78.5186C106.104 79.8461 106.159 81.4825 107.012 82.7362L108.199 84.4812C108.413 84.7954 108.882 84.7906 109.097 84.472L109.717 83.554C110.153 82.9102 110.372 82.1479 110.344 81.3776L110.311 80.4763C110.268 79.2956 110.098 78.1246 109.803 76.9833V76.9833V76.9833C109.656 76.4151 109.413 75.8769 109.084 75.3915L109.034 75.3171Z" fill="#2A2A2A"/>
<path d="M108.647 81.3635L105.601 83.0804C106.036 83.295 106.99 83.8398 107.994 83.5096C108.647 83.295 108.864 82.0073 108.647 81.3635Z" fill="white"/>
<path d="M107.685 83.2169L106.966 81.9317L107.671 81.7486L107.685 83.2169Z" fill="#2A2A2A"/>
<path d="M101.332 81.3635L104.377 83.0804C103.942 83.295 102.989 83.8398 101.984 83.5096C101.332 83.295 101.114 82.0073 101.332 81.3635Z" fill="white"/>
<path d="M102.293 83.2169L103.013 81.9317L102.308 81.7486L102.293 83.2169Z" fill="#2A2A2A"/>
<rect x="122.409" y="57.2784" width="26.9235" height="47.9941" rx="4" fill="#D9D9D9"/>
<ellipse cx="135.384" cy="82.5631" rx="5.43871" ry="5.15054" fill="#2A2A2A"/>
<path d="M130.967 75.3172C130.982 75.2947 131.015 75.295 131.031 75.3179L132.862 78.0564L133.108 78.4809C133.886 79.828 133.817 81.491 132.932 82.7493L131.558 84.7017C131.406 84.9175 131.085 84.9207 130.923 84.708L130.635 84.3291C130.186 83.7385 129.929 83.0271 129.899 82.2915L129.826 80.4778C129.778 79.2991 129.904 78.1219 130.198 76.9834V76.9834V76.9834C130.345 76.4152 130.588 75.877 130.916 75.3915L130.967 75.3172Z" fill="#2A2A2A"/>
<path d="M139.469 75.3171C139.454 75.2946 139.421 75.295 139.405 75.3179L137.574 78.0564L137.307 78.5186C136.54 79.8461 136.594 81.4825 137.447 82.7362L138.635 84.4812C138.849 84.7954 139.317 84.7906 139.532 84.472L140.153 83.554C140.588 82.9102 140.807 82.1479 140.779 81.3776L140.746 80.4763C140.704 79.2956 140.533 78.1246 140.238 76.9833V76.9833V76.9833C140.091 76.4151 139.848 75.8769 139.52 75.3915L139.469 75.3171Z" fill="#2A2A2A"/>
<path d="M139.082 81.3635L136.036 83.0804C136.471 83.295 137.425 83.8398 138.429 83.5096C139.082 83.295 139.299 82.0073 139.082 81.3635Z" fill="white"/>
<path d="M138.121 83.2169L137.401 81.9317L138.106 81.7486L138.121 83.2169Z" fill="#2A2A2A"/>
<path d="M131.767 81.3635L134.813 83.0804C134.377 83.295 133.424 83.8398 132.42 83.5096C131.767 83.295 131.549 82.0073 131.767 81.3635Z" fill="white"/>
<path d="M132.728 83.2169L133.448 81.9317L132.743 81.7486L132.728 83.2169Z" fill="#2A2A2A"/>
<rect x="122.409" y="108.784" width="26.9235" height="47.9941" rx="4" fill="#D9D9D9"/>
<ellipse cx="135.384" cy="134.069" rx="5.43871" ry="5.15054" fill="#2A2A2A"/>
<path d="M130.967 126.823C130.982 126.801 131.015 126.801 131.031 126.824L132.862 129.562L133.108 129.987C133.886 131.334 133.817 132.997 132.932 134.255L131.558 136.208C131.406 136.423 131.085 136.427 130.923 136.214L130.635 135.835C130.186 135.244 129.929 134.533 129.899 133.797L129.826 131.984C129.778 130.805 129.904 129.628 130.198 128.489V128.489V128.489C130.345 127.921 130.588 127.383 130.916 126.897L130.967 126.823Z" fill="#2A2A2A"/>
<path d="M139.469 126.823C139.454 126.8 139.421 126.801 139.405 126.824L137.574 129.562L137.307 130.024C136.54 131.352 136.594 132.988 137.447 134.242L138.635 135.987C138.849 136.301 139.317 136.296 139.532 135.978L140.153 135.06C140.588 134.416 140.807 133.654 140.779 132.883L140.746 131.982C140.704 130.802 140.533 129.63 140.238 128.489V128.489V128.489C140.091 127.921 139.848 127.383 139.52 126.897L139.469 126.823Z" fill="#2A2A2A"/>
<path d="M139.082 132.869L136.036 134.586C136.471 134.801 137.425 135.346 138.429 135.015C139.082 134.801 139.299 133.513 139.082 132.869Z" fill="white"/>
<path d="M138.121 134.723L137.401 133.438L138.106 133.255L138.121 134.723Z" fill="#2A2A2A"/>
<path d="M131.767 132.869L134.813 134.586C134.377 134.801 133.424 135.346 132.42 135.015C131.767 134.801 131.549 133.513 131.767 132.869Z" fill="white"/>
<path d="M132.728 134.723L133.448 133.438L132.743 133.255L132.728 134.723Z" fill="#2A2A2A"/>
<rect x="91.9735" y="108.784" width="26.9235" height="47.9941" rx="4" fill="#D9D9D9"/>
<ellipse cx="104.948" cy="134.069" rx="5.43871" ry="5.15054" fill="#2A2A2A"/>
<path d="M100.531 126.823C100.547 126.801 100.58 126.801 100.595 126.824L102.427 129.562L102.672 129.987C103.451 131.334 103.382 132.997 102.497 134.255L101.122 136.208C100.971 136.423 100.649 136.427 100.488 136.214L100.2 135.835C99.7506 135.244 99.4937 134.533 99.464 133.797L99.3907 131.984C99.3431 130.805 99.4685 129.628 99.763 128.489V128.489V128.489C99.9099 127.921 100.153 127.383 100.481 126.897L100.531 126.823Z" fill="#2A2A2A"/>
<path d="M109.034 126.823C109.019 126.8 108.985 126.801 108.97 126.824L107.138 129.562L106.871 130.024C106.104 131.352 106.159 132.988 107.012 134.242L108.199 135.987C108.413 136.301 108.882 136.296 109.097 135.978L109.717 135.06C110.153 134.416 110.372 133.654 110.344 132.883L110.311 131.982C110.268 130.802 110.098 129.63 109.803 128.489V128.489V128.489C109.656 127.921 109.413 127.383 109.084 126.897L109.034 126.823Z" fill="#2A2A2A"/>
<path d="M108.647 132.869L105.601 134.586C106.036 134.801 106.99 135.346 107.994 135.015C108.647 134.801 108.864 133.513 108.647 132.869Z" fill="white"/>
<path d="M107.685 134.723L106.966 133.438L107.671 133.255L107.685 134.723Z" fill="#2A2A2A"/>
<path d="M101.332 132.869L104.377 134.586C103.942 134.801 102.989 135.346 101.984 135.015C101.332 134.801 101.114 133.513 101.332 132.869Z" fill="white"/>
<path d="M102.293 134.723L103.013 133.438L102.308 133.255L102.293 134.723Z" fill="#2A2A2A"/>
<rect x="0.667603" y="108.784" width="26.9235" height="47.9941" rx="4" fill="#D9D9D9"/>
<ellipse cx="13.6423" cy="134.069" rx="5.43871" ry="5.15054" fill="#2A2A2A"/>
<path d="M9.22534 126.823C9.24058 126.801 9.27417 126.801 9.28947 126.824L11.1212 129.562L11.3664 129.987C12.1448 131.334 12.0763 132.997 11.1906 134.255L9.81646 136.208C9.66458 136.423 9.34336 136.427 9.18168 136.214L8.89359 135.835C8.44459 135.244 8.18775 134.533 8.15803 133.797L8.08476 131.984C8.03714 130.805 8.16253 129.628 8.45698 128.489V128.489V128.489C8.60394 127.921 8.84672 127.383 9.17508 126.897L9.22534 126.823Z" fill="#2A2A2A"/>
<path d="M17.7283 126.823C17.713 126.8 17.6794 126.801 17.6641 126.824L15.8324 129.562L15.5653 130.024C14.7983 131.352 14.8529 132.988 15.706 134.242L16.8935 135.987C17.1073 136.301 17.5758 136.296 17.7911 135.978L18.4114 135.06C18.8466 134.416 19.066 133.654 19.038 132.883L19.0052 131.982C18.9623 130.802 18.7918 129.63 18.4966 128.489V128.489V128.489C18.3497 127.921 18.1069 127.383 17.7785 126.897L17.7283 126.823Z" fill="#2A2A2A"/>
<path d="M17.3407 132.869L14.295 134.586C14.7301 134.801 15.6838 135.346 16.6881 135.015C17.3407 134.801 17.5583 133.513 17.3407 132.869Z" fill="white"/>
<path d="M16.3795 134.723L15.6596 133.438L16.3645 133.255L16.3795 134.723Z" fill="#2A2A2A"/>
<path d="M10.0256 132.869L13.0713 134.586C12.6362 134.801 11.6826 135.346 10.6783 135.015C10.0256 134.801 9.80806 133.513 10.0256 132.869Z" fill="white"/>
<path d="M10.9868 134.723L11.7067 133.438L11.0018 133.255L10.9868 134.723Z" fill="#2A2A2A"/>
<rect x="31.1029" y="108.784" width="26.9235" height="47.9941" rx="4" fill="#D9D9D9"/>
<ellipse cx="44.0777" cy="134.069" rx="5.43871" ry="5.15054" fill="#2A2A2A"/>
<path d="M39.6606 126.823C39.6759 126.801 39.7095 126.801 39.7248 126.824L41.5565 129.562L41.8017 129.987C42.5801 131.334 42.5116 132.997 41.6259 134.255L40.2518 136.208C40.0999 136.423 39.7787 136.427 39.617 136.214L39.3289 135.835C38.8799 135.244 38.6231 134.533 38.5933 133.797L38.5201 131.984C38.4724 130.805 38.5978 129.628 38.8923 128.489V128.489V128.489C39.0392 127.921 39.282 127.383 39.6104 126.897L39.6606 126.823Z" fill="#2A2A2A"/>
<path d="M48.1636 126.823C48.1483 126.8 48.1147 126.801 48.0994 126.824L46.2677 129.562L46.0006 130.024C45.2336 131.352 45.2882 132.988 46.1413 134.242L47.3288 135.987C47.5426 136.301 48.0111 136.296 48.2264 135.978L48.8467 135.06C49.2819 134.416 49.5013 133.654 49.4733 132.883L49.4405 131.982C49.3976 130.802 49.2271 129.63 48.9319 128.489V128.489V128.489C48.785 127.921 48.5422 127.383 48.2138 126.897L48.1636 126.823Z" fill="#2A2A2A"/>
<path d="M47.776 132.869L44.7303 134.586C45.1654 134.801 46.1191 135.346 47.1234 135.015C47.776 134.801 47.9936 133.513 47.776 132.869Z" fill="white"/>
<path d="M46.8148 134.723L46.0949 133.438L46.7998 133.255L46.8148 134.723Z" fill="#2A2A2A"/>
<path d="M40.461 132.869L43.5067 134.586C43.0716 134.801 42.1179 135.346 41.1136 135.015C40.461 134.801 40.2434 133.513 40.461 132.869Z" fill="white"/>
<path d="M41.4222 134.723L42.1421 133.438L41.4372 133.255L41.4222 134.723Z" fill="#2A2A2A"/>
<rect x="61.5382" y="108.784" width="26.9235" height="47.9941" rx="4" fill="#D9D9D9"/>
<ellipse cx="74.513" cy="134.069" rx="5.43871" ry="5.15054" fill="#2A2A2A"/>
<path d="M70.096 126.823C70.1112 126.801 70.1448 126.801 70.1601 126.824L71.9918 129.562L72.2371 129.987C73.0154 131.334 72.9469 132.997 72.0613 134.255L70.6871 136.208C70.5352 136.423 70.214 136.427 70.0523 136.214L69.7643 135.835C69.3153 135.244 69.0584 134.533 69.0287 133.797L68.9554 131.984C68.9078 130.805 69.0332 129.628 69.3276 128.489V128.489V128.489C69.4746 127.921 69.7174 127.383 70.0457 126.897L70.096 126.823Z" fill="#2A2A2A"/>
<path d="M78.5989 126.823C78.5837 126.8 78.5501 126.801 78.5348 126.824L76.7031 129.562L76.436 130.024C75.669 131.352 75.7235 132.988 76.5767 134.242L77.7642 135.987C77.978 136.301 78.4464 136.296 78.6618 135.978L79.2821 135.06C79.7172 134.416 79.9367 133.654 79.9087 132.883L79.8759 131.982C79.833 130.802 79.6625 129.63 79.3673 128.489V128.489V128.489C79.2203 127.921 78.9776 127.383 78.6492 126.897L78.5989 126.823Z" fill="#2A2A2A"/>
<path d="M78.2114 132.869L75.1657 134.586C75.6008 134.801 76.5544 135.346 77.5587 135.015C78.2114 134.801 78.4289 133.513 78.2114 132.869Z" fill="white"/>
<path d="M77.2502 134.723L76.5303 133.438L77.2352 133.255L77.2502 134.723Z" fill="#2A2A2A"/>
<path d="M70.8963 132.869L73.942 134.586C73.5069 134.801 72.5533 135.346 71.549 135.015C70.8963 134.801 70.6788 133.513 70.8963 132.869Z" fill="white"/>
<path d="M71.8576 134.723L72.5775 133.438L71.8726 133.255L71.8576 134.723Z" fill="#2A2A2A"/>
<path d="M108.093 166.786C107.475 169.167 105.897 174.936 103.957 179.967C102.986 182.488 101.934 184.794 100.88 186.395C100.352 187.198 99.8424 187.792 99.367 188.151C98.8948 188.507 98.5147 188.591 98.1945 188.508C97.4079 188.304 96.829 187.96 96.4047 187.508C95.9788 187.055 95.6839 186.468 95.5089 185.739C95.1543 184.263 95.3072 182.278 95.7922 179.893C96.2747 177.519 97.0707 174.816 97.95 171.927C98.0718 171.527 98.1951 171.124 98.3194 170.717C99.0899 168.197 99.8957 165.561 100.58 162.926C101.37 159.88 101.993 157.636 102.546 155.997C103.104 154.345 103.574 153.363 104.037 152.796C104.262 152.521 104.476 152.355 104.686 152.256C104.896 152.157 105.131 152.11 105.417 152.111C105.978 152.111 106.653 152.287 107.608 152.536C107.683 152.555 107.759 152.575 107.837 152.595C108.621 152.799 109.142 153.479 109.428 154.64C109.714 155.798 109.728 157.309 109.587 158.912C109.306 162.109 108.426 165.501 108.093 166.786Z" fill="#444243" stroke="#101010"/>
<line x1="95.9256" y1="181.387" x2="106.316" y2="173.801" stroke="black"/>
<line x1="94.6933" y1="177.69" x2="105.084" y2="170.104" stroke="black"/>
<line x1="42.2673" y1="173.782" x2="53.1397" y2="180.66" stroke="black"/>
<line x1="42.2673" y1="177.479" x2="53.1397" y2="184.357" stroke="black"/>
<path d="M48.3854 129.153C48.3854 129.153 46.8878 153.905 46.8878 160.836C46.8878 167.767 49.8766 182.684 58.8684 189.053C65.8571 194.004 89.319 192.518 95.8085 186.083C99.8021 182.123 100.967 166.611 98.8037 159.846L88.3207 129.153L83.3288 153.41H62.3627L48.3854 129.153Z" fill="#444243" stroke="#101010" stroke-width="2"/>
</svg>
