<svg width="150" height="186" viewBox="0 0 150 186" fill="none" xmlns="http://www.w3.org/2000/svg">
<rect x="45.3645" y="0.153442" width="27.3476" height="48.75" rx="4" fill="#D81A14"/>
<rect x="77.712" y="0.531372" width="26.9235" height="47.9941" rx="4" fill="#D9D9D9"/>
<ellipse cx="90.6869" cy="25.8162" rx="5.43871" ry="5.15054" fill="#2A2A2A"/>
<path d="M86.2698 18.5701C86.285 18.5476 86.3186 18.548 86.3339 18.5708L88.1656 21.3093L88.4109 21.7338C89.1892 23.0809 89.1207 24.7439 88.2351 26.0022L86.8609 27.9546C86.709 28.1704 86.3878 28.1736 86.2261 27.9609L85.9381 27.582C85.4891 26.9915 85.2322 26.28 85.2025 25.5444L85.1292 23.7308C85.0816 22.552 85.207 21.3748 85.5014 20.2363C85.6484 19.6681 85.8912 19.1299 86.2195 18.6444L86.2698 18.5701Z" fill="#2A2A2A"/>
<path d="M94.7727 18.5701C94.7575 18.5475 94.7239 18.5479 94.7086 18.5708L92.8769 21.3093L92.6098 21.7715C91.8428 23.0991 91.8973 24.7354 92.7505 25.9891L93.938 27.7341C94.1518 28.0483 94.6202 28.0435 94.8356 27.7249L95.4559 26.807C95.891 26.1631 96.1105 25.4008 96.0825 24.6306L96.0497 23.7293C96.0068 22.5486 95.8363 21.3775 95.5411 20.2363C95.3941 19.6681 95.1513 19.1299 94.823 18.6444L94.7727 18.5701Z" fill="#2A2A2A"/>
<path d="M94.3852 24.6165L91.3395 26.3333C91.7746 26.5479 92.7283 27.0928 93.7326 26.7625C94.3852 26.5479 94.6028 25.2603 94.3852 24.6165Z" fill="white"/>
<path d="M93.424 26.47L92.7041 25.1847L93.409 25.0016L93.424 26.47Z" fill="#2A2A2A"/>
<path d="M87.0701 24.6165L90.1158 26.3333C89.6807 26.5479 88.7271 27.0928 87.7228 26.7625C87.0701 26.5479 86.8526 25.2603 87.0701 24.6165Z" fill="white"/>
<path d="M88.0314 26.47L88.7512 25.1847L88.0463 25.0016L88.0314 26.47Z" fill="#2A2A2A"/>
<rect x="0.667664" y="56.9034" width="26.9235" height="47.9941" rx="4" fill="#D9D9D9"/>
<ellipse cx="13.6424" cy="82.1881" rx="5.43871" ry="5.15054" fill="#2A2A2A"/>
<path d="M9.2254 74.9422C9.24064 74.9197 9.27423 74.92 9.28953 74.9429L11.1212 77.6814L11.3665 78.1059C12.1448 79.453 12.0763 81.116 11.1907 82.3743L9.81652 84.3267C9.66464 84.5425 9.34342 84.5457 9.18174 84.333L8.89365 83.9541C8.44465 83.3635 8.18781 82.6521 8.1581 81.9165L8.08482 80.1028C8.0372 78.9241 8.1626 77.7469 8.45704 76.6084C8.604 76.0402 8.84678 75.502 9.17514 75.0165L9.2254 74.9422Z" fill="#2A2A2A"/>
<path d="M17.7283 74.9421C17.7131 74.9196 17.6795 74.92 17.6642 74.9429L15.8325 77.6814L15.5654 78.1436C14.7984 79.4711 14.8529 81.1075 15.7061 82.3612L16.8936 84.1062C17.1074 84.4204 17.5758 84.4156 17.7911 84.097L18.4115 83.179C18.8466 82.5352 19.0661 81.7729 19.0381 81.0026L19.0053 80.1013C18.9624 78.9206 18.7918 77.7496 18.4967 76.6083C18.3497 76.0401 18.1069 75.5019 17.7786 75.0165L17.7283 74.9421Z" fill="#2A2A2A"/>
<path d="M17.3408 80.9885L14.2951 82.7054C14.7302 82.92 15.6838 83.4648 16.6881 83.1346C17.3408 82.92 17.5583 81.6323 17.3408 80.9885Z" fill="white"/>
<path d="M16.3795 82.8419L15.6596 81.5567L16.3645 81.3736L16.3795 82.8419Z" fill="#2A2A2A"/>
<path d="M10.0258 80.9885L13.0714 82.7054C12.6363 82.92 11.6827 83.4648 10.6784 83.1346C10.0258 82.92 9.80822 81.6323 10.0258 80.9885Z" fill="white"/>
<path d="M10.987 82.8419L11.7069 81.5567L11.002 81.3736L10.987 82.8419Z" fill="#2A2A2A"/>
<rect x="31.103" y="56.9034" width="26.9235" height="47.9941" rx="4" fill="#D9D9D9"/>
<ellipse cx="44.0778" cy="82.1881" rx="5.43871" ry="5.15054" fill="#2A2A2A"/>
<path d="M39.6607 74.9422C39.676 74.9197 39.7096 74.92 39.7249 74.9429L41.5566 77.6814L41.8018 78.1059C42.5802 79.453 42.5117 81.116 41.626 82.3743L40.2519 84.3267C40.1 84.5425 39.7788 84.5457 39.6171 84.333L39.329 83.9541C38.88 83.3635 38.6231 82.6521 38.5934 81.9165L38.5202 80.1028C38.4725 78.9241 38.5979 77.7469 38.8924 76.6084C39.0393 76.0402 39.2821 75.502 39.6105 75.0165L39.6607 74.9422Z" fill="#2A2A2A"/>
<path d="M48.1637 74.9421C48.1484 74.9196 48.1148 74.92 48.0995 74.9429L46.2678 77.6814L46.0007 78.1436C45.2337 79.4711 45.2883 81.1075 46.1414 82.3612L47.3289 84.1062C47.5427 84.4204 48.0112 84.4156 48.2265 84.097L48.8468 83.179C49.2819 82.5352 49.5014 81.7729 49.4734 81.0026L49.4406 80.1013C49.3977 78.9206 49.2272 77.7496 48.932 76.6083C48.7851 76.0401 48.5423 75.5019 48.2139 75.0165L48.1637 74.9421Z" fill="#2A2A2A"/>
<path d="M47.7761 80.9885L44.7304 82.7054C45.1655 82.92 46.1192 83.4648 47.1235 83.1346C47.7761 82.92 47.9937 81.6323 47.7761 80.9885Z" fill="white"/>
<path d="M46.8149 82.8419L46.0951 81.5567L46.8 81.3736L46.8149 82.8419Z" fill="#2A2A2A"/>
<path d="M40.4611 80.9885L43.5067 82.7054C43.0716 82.92 42.118 83.4648 41.1137 83.1346C40.4611 82.92 40.2435 81.6323 40.4611 80.9885Z" fill="white"/>
<path d="M41.4223 82.8419L42.1422 81.5567L41.4373 81.3736L41.4223 82.8419Z" fill="#2A2A2A"/>
<rect x="61.5382" y="56.9034" width="26.9235" height="47.9941" rx="4" fill="#D9D9D9"/>
<ellipse cx="74.5131" cy="82.1881" rx="5.43871" ry="5.15054" fill="#2A2A2A"/>
<path d="M70.096 74.9422C70.1113 74.9197 70.1449 74.92 70.1602 74.9429L71.9919 77.6814L72.2371 78.1059C73.0155 79.453 72.947 81.116 72.0613 82.3743L70.6872 84.3267C70.5353 84.5425 70.2141 84.5457 70.0524 84.333L69.7643 83.9541C69.3153 83.3635 69.0584 82.6521 69.0287 81.9165L68.9555 80.1028C68.9078 78.9241 69.0332 77.7469 69.3277 76.6084C69.4746 76.0402 69.7174 75.502 70.0458 75.0165L70.096 74.9422Z" fill="#2A2A2A"/>
<path d="M78.599 74.9421C78.5837 74.9196 78.5501 74.92 78.5348 74.9429L76.7031 77.6814L76.436 78.1436C75.669 79.4711 75.7236 81.1075 76.5767 82.3612L77.7642 84.1062C77.978 84.4204 78.4465 84.4156 78.6618 84.097L79.2821 83.179C79.7173 82.5352 79.9367 81.7729 79.9087 81.0026L79.8759 80.1013C79.833 78.9206 79.6625 77.7496 79.3673 76.6083C79.2204 76.0401 78.9776 75.5019 78.6492 75.0165L78.599 74.9421Z" fill="#2A2A2A"/>
<path d="M78.2114 80.9885L75.1657 82.7054C75.6008 82.92 76.5545 83.4648 77.5588 83.1346C78.2114 82.92 78.429 81.6323 78.2114 80.9885Z" fill="white"/>
<path d="M77.2502 82.8419L76.5303 81.5567L77.2352 81.3736L77.2502 82.8419Z" fill="#2A2A2A"/>
<path d="M70.8963 80.9885L73.942 82.7054C73.5069 82.92 72.5533 83.4648 71.549 83.1346C70.8963 82.92 70.6788 81.6323 70.8963 80.9885Z" fill="white"/>
<path d="M71.8576 82.8419L72.5775 81.5567L71.8725 81.3736L71.8576 82.8419Z" fill="#2A2A2A"/>
<rect x="91.9735" y="56.9034" width="26.9235" height="47.9941" rx="4" fill="#D9D9D9"/>
<ellipse cx="104.948" cy="82.1881" rx="5.43871" ry="5.15054" fill="#2A2A2A"/>
<path d="M100.531 74.9422C100.547 74.9197 100.58 74.92 100.595 74.9429L102.427 77.6814L102.672 78.1059C103.451 79.453 103.382 81.116 102.497 82.3743L101.122 84.3267C100.971 84.5425 100.649 84.5457 100.488 84.333L100.2 83.9541C99.7506 83.3635 99.4937 82.6521 99.464 81.9165L99.3907 80.1028C99.3431 78.9241 99.4685 77.7469 99.763 76.6084C99.9099 76.0402 100.153 75.502 100.481 75.0165L100.531 74.9422Z" fill="#2A2A2A"/>
<path d="M109.034 74.9421C109.019 74.9196 108.985 74.92 108.97 74.9429L107.138 77.6814L106.871 78.1436C106.104 79.4711 106.159 81.1075 107.012 82.3612L108.199 84.1062C108.413 84.4204 108.882 84.4156 109.097 84.097L109.717 83.179C110.153 82.5352 110.372 81.7729 110.344 81.0026L110.311 80.1013C110.268 78.9206 110.098 77.7496 109.803 76.6083C109.656 76.0401 109.413 75.5019 109.085 75.0165L109.034 74.9421Z" fill="#2A2A2A"/>
<path d="M108.647 80.9885L105.601 82.7054C106.036 82.92 106.99 83.4648 107.994 83.1346C108.647 82.92 108.864 81.6323 108.647 80.9885Z" fill="white"/>
<path d="M107.686 82.8419L106.966 81.5567L107.671 81.3736L107.686 82.8419Z" fill="#2A2A2A"/>
<path d="M101.332 80.9885L104.377 82.7054C103.942 82.92 102.989 83.4648 101.984 83.1346C101.332 82.92 101.114 81.6323 101.332 80.9885Z" fill="white"/>
<path d="M102.293 82.8419L103.013 81.5567L102.308 81.3736L102.293 82.8419Z" fill="#2A2A2A"/>
<rect x="122.409" y="56.9034" width="26.9235" height="47.9941" rx="4" fill="#D9D9D9"/>
<ellipse cx="135.384" cy="82.1881" rx="5.43871" ry="5.15054" fill="#2A2A2A"/>
<path d="M130.967 74.9422C130.982 74.9197 131.015 74.92 131.031 74.9429L132.862 77.6814L133.108 78.1059C133.886 79.453 133.818 81.116 132.932 82.3743L131.558 84.3267C131.406 84.5425 131.085 84.5457 130.923 84.333L130.635 83.9541C130.186 83.3635 129.929 82.6521 129.899 81.9165L129.826 80.1028C129.778 78.9241 129.904 77.7469 130.198 76.6084C130.345 76.0402 130.588 75.502 130.916 75.0165L130.967 74.9422Z" fill="#2A2A2A"/>
<path d="M139.47 74.9421C139.454 74.9196 139.421 74.92 139.405 74.9429L137.574 77.6814L137.307 78.1436C136.54 79.4711 136.594 81.1075 137.447 82.3612L138.635 84.1062C138.849 84.4204 139.317 84.4156 139.532 84.097L140.153 83.179C140.588 82.5352 140.807 81.7729 140.779 81.0026L140.747 80.1013C140.704 78.9206 140.533 77.7496 140.238 76.6083C140.091 76.0401 139.848 75.5019 139.52 75.0165L139.47 74.9421Z" fill="#2A2A2A"/>
<path d="M139.082 80.9885L136.036 82.7054C136.471 82.92 137.425 83.4648 138.429 83.1346C139.082 82.92 139.3 81.6323 139.082 80.9885Z" fill="white"/>
<path d="M138.121 82.8419L137.401 81.5567L138.106 81.3736L138.121 82.8419Z" fill="#2A2A2A"/>
<path d="M131.767 80.9885L134.813 82.7054C134.378 82.92 133.424 83.4648 132.42 83.1346C131.767 82.92 131.549 81.6323 131.767 80.9885Z" fill="white"/>
<path d="M132.728 82.8419L133.448 81.5567L132.743 81.3736L132.728 82.8419Z" fill="#2A2A2A"/>
<rect x="122.409" y="108.409" width="26.9235" height="47.9941" rx="4" fill="#D9D9D9"/>
<ellipse cx="135.384" cy="133.694" rx="5.43871" ry="5.15054" fill="#2A2A2A"/>
<path d="M130.967 126.448C130.982 126.426 131.015 126.426 131.031 126.449L132.862 129.187L133.108 129.612C133.886 130.959 133.818 132.622 132.932 133.88L131.558 135.833C131.406 136.048 131.085 136.052 130.923 135.839L130.635 135.46C130.186 134.869 129.929 134.158 129.899 133.422L129.826 131.609C129.778 130.43 129.904 129.253 130.198 128.114C130.345 127.546 130.588 127.008 130.916 126.522L130.967 126.448Z" fill="#2A2A2A"/>
<path d="M139.47 126.448C139.454 126.425 139.421 126.426 139.405 126.449L137.574 129.187L137.307 129.649C136.54 130.977 136.594 132.613 137.447 133.867L138.635 135.612C138.849 135.926 139.317 135.921 139.532 135.603L140.153 134.685C140.588 134.041 140.807 133.279 140.779 132.508L140.747 131.607C140.704 130.427 140.533 129.255 140.238 128.114C140.091 127.546 139.848 127.008 139.52 126.522L139.47 126.448Z" fill="#2A2A2A"/>
<path d="M139.082 132.494L136.036 134.211C136.471 134.426 137.425 134.971 138.429 134.64C139.082 134.426 139.3 133.138 139.082 132.494Z" fill="white"/>
<path d="M138.121 134.348L137.401 133.063L138.106 132.88L138.121 134.348Z" fill="#2A2A2A"/>
<path d="M131.767 132.494L134.813 134.211C134.378 134.426 133.424 134.971 132.42 134.64C131.767 134.426 131.549 133.138 131.767 132.494Z" fill="white"/>
<path d="M132.728 134.348L133.448 133.063L132.743 132.88L132.728 134.348Z" fill="#2A2A2A"/>
<rect x="91.9736" y="108.409" width="26.9235" height="47.9941" rx="4" fill="#2A2A2A"/>
<rect x="0.667664" y="108.409" width="26.9235" height="47.9941" rx="4" fill="#D9D9D9"/>
<ellipse cx="13.6424" cy="133.694" rx="5.43871" ry="5.15054" fill="#2A2A2A"/>
<path d="M9.2254 126.448C9.24064 126.426 9.27423 126.426 9.28953 126.449L11.1212 129.187L11.3665 129.612C12.1448 130.959 12.0763 132.622 11.1907 133.88L9.81652 135.833C9.66464 136.048 9.34342 136.052 9.18174 135.839L8.89365 135.46C8.44465 134.869 8.18781 134.158 8.1581 133.422L8.08482 131.609C8.0372 130.43 8.1626 129.253 8.45704 128.114C8.604 127.546 8.84678 127.008 9.17514 126.522L9.2254 126.448Z" fill="#2A2A2A"/>
<path d="M17.7283 126.448C17.7131 126.425 17.6795 126.426 17.6642 126.449L15.8325 129.187L15.5654 129.649C14.7984 130.977 14.8529 132.613 15.7061 133.867L16.8936 135.612C17.1074 135.926 17.5758 135.921 17.7911 135.603L18.4115 134.685C18.8466 134.041 19.0661 133.279 19.0381 132.508L19.0053 131.607C18.9624 130.427 18.7918 129.255 18.4967 128.114C18.3497 127.546 18.1069 127.008 17.7786 126.522L17.7283 126.448Z" fill="#2A2A2A"/>
<path d="M17.3408 132.494L14.2951 134.211C14.7302 134.426 15.6838 134.971 16.6881 134.64C17.3408 134.426 17.5583 133.138 17.3408 132.494Z" fill="white"/>
<path d="M16.3795 134.348L15.6596 133.063L16.3645 132.88L16.3795 134.348Z" fill="#2A2A2A"/>
<path d="M10.0258 132.494L13.0714 134.211C12.6363 134.426 11.6827 134.971 10.6784 134.64C10.0258 134.426 9.80822 133.138 10.0258 132.494Z" fill="white"/>
<path d="M10.987 134.348L11.7069 133.063L11.002 132.88L10.987 134.348Z" fill="#2A2A2A"/>
<rect x="31.103" y="108.409" width="26.9235" height="47.9941" rx="4" fill="#D9D9D9"/>
<ellipse cx="44.0778" cy="133.694" rx="5.43871" ry="5.15054" fill="#2A2A2A"/>
<path d="M39.6607 126.448C39.676 126.426 39.7096 126.426 39.7249 126.449L41.5566 129.187L41.8018 129.612C42.5802 130.959 42.5117 132.622 41.626 133.88L40.2519 135.833C40.1 136.048 39.7788 136.052 39.6171 135.839L39.329 135.46C38.88 134.869 38.6231 134.158 38.5934 133.422L38.5202 131.609C38.4725 130.43 38.5979 129.253 38.8924 128.114C39.0393 127.546 39.2821 127.008 39.6105 126.522L39.6607 126.448Z" fill="#2A2A2A"/>
<path d="M48.1637 126.448C48.1484 126.425 48.1148 126.426 48.0995 126.449L46.2678 129.187L46.0007 129.649C45.2337 130.977 45.2883 132.613 46.1414 133.867L47.3289 135.612C47.5427 135.926 48.0112 135.921 48.2265 135.603L48.8468 134.685C49.2819 134.041 49.5014 133.279 49.4734 132.508L49.4406 131.607C49.3977 130.427 49.2272 129.255 48.932 128.114C48.7851 127.546 48.5423 127.008 48.2139 126.522L48.1637 126.448Z" fill="#2A2A2A"/>
<path d="M47.7761 132.494L44.7304 134.211C45.1655 134.426 46.1192 134.971 47.1235 134.64C47.7761 134.426 47.9937 133.138 47.7761 132.494Z" fill="white"/>
<path d="M46.8149 134.348L46.0951 133.063L46.8 132.88L46.8149 134.348Z" fill="#2A2A2A"/>
<path d="M40.4611 132.494L43.5067 134.211C43.0716 134.426 42.118 134.971 41.1137 134.64C40.4611 134.426 40.2435 133.138 40.4611 132.494Z" fill="white"/>
<path d="M41.4223 134.348L42.1422 133.063L41.4373 132.88L41.4223 134.348Z" fill="#2A2A2A"/>
<rect x="61.5382" y="108.409" width="26.9235" height="47.9941" rx="4" fill="#D9D9D9"/>
<ellipse cx="74.5131" cy="133.694" rx="5.43871" ry="5.15054" fill="#2A2A2A"/>
<path d="M70.096 126.448C70.1113 126.426 70.1449 126.426 70.1602 126.449L71.9919 129.187L72.2371 129.612C73.0155 130.959 72.947 132.622 72.0613 133.88L70.6872 135.833C70.5353 136.048 70.2141 136.052 70.0524 135.839L69.7643 135.46C69.3153 134.869 69.0584 134.158 69.0287 133.422L68.9555 131.609C68.9078 130.43 69.0332 129.253 69.3277 128.114C69.4746 127.546 69.7174 127.008 70.0458 126.522L70.096 126.448Z" fill="#2A2A2A"/>
<path d="M78.599 126.448C78.5837 126.425 78.5501 126.426 78.5348 126.449L76.7031 129.187L76.436 129.649C75.669 130.977 75.7236 132.613 76.5767 133.867L77.7642 135.612C77.978 135.926 78.4465 135.921 78.6618 135.603L79.2821 134.685C79.7173 134.041 79.9367 133.279 79.9087 132.508L79.8759 131.607C79.833 130.427 79.6625 129.255 79.3673 128.114C79.2204 127.546 78.9776 127.008 78.6492 126.522L78.599 126.448Z" fill="#2A2A2A"/>
<path d="M78.2114 132.494L75.1657 134.211C75.6008 134.426 76.5545 134.971 77.5588 134.64C78.2114 134.426 78.429 133.138 78.2114 132.494Z" fill="white"/>
<path d="M77.2502 134.348L76.5303 133.063L77.2352 132.88L77.2502 134.348Z" fill="#2A2A2A"/>
<path d="M70.8963 132.494L73.942 134.211C73.5069 134.426 72.5533 134.971 71.549 134.64C70.8963 134.426 70.6788 133.138 70.8963 132.494Z" fill="white"/>
<path d="M71.8576 134.348L72.5775 133.063L71.8725 132.88L71.8576 134.348Z" fill="#2A2A2A"/>
<path d="M95.553 172.033C94.8018 169.696 93.8465 166.266 93.5837 163.272C93.452 161.772 93.4988 160.424 93.8044 159.391C94.1063 158.37 94.6386 157.715 95.4579 157.451C97.1503 156.908 98.3032 156.71 99.1569 156.839C99.9574 156.959 100.548 157.376 101.103 158.254C101.676 159.161 102.18 160.513 102.789 162.437C103.032 163.204 103.295 164.073 103.587 165.035C104.009 166.43 104.491 168.02 105.056 169.78C106.012 172.753 106.419 174.951 106.465 176.554C106.511 178.161 106.192 179.115 105.758 179.667C105.336 180.204 104.748 180.432 104.07 180.46C103.381 180.489 102.63 180.306 101.969 180.046C100.708 179.55 99.3026 178.194 98.0882 176.582C96.8834 174.983 95.9364 173.226 95.553 172.033Z" fill="#444243" stroke="#101010"/>
<line x1="97.5933" y1="174.387" x2="107.984" y2="166.801" stroke="black"/>
<line x1="96.361" y1="170.69" x2="106.752" y2="163.104" stroke="black"/>
<line x1="43.935" y1="166.782" x2="54.8074" y2="173.66" stroke="black"/>
<line x1="43.935" y1="170.479" x2="54.8074" y2="177.357" stroke="black"/>
<path d="M46.6676 151.153C45.6677 155.654 46.6677 158.654 52.1677 165.154L53.1677 170.654C53.1677 170.654 44.1677 167.154 42.1677 161.654C40.1677 156.154 39.6677 151.654 39.6677 149.654C39.6677 147.654 41.3343 141.32 44.6677 141.653C44.6677 141.653 47.501 142.153 48.1677 144.153C48.6677 145.653 48.1677 148.153 46.6676 151.153Z" fill="#444243" stroke="#101010" stroke-width="2"/>
<path d="M50.0531 122.153C50.0531 122.153 48.5555 146.905 48.5555 153.836C48.5555 160.767 51.5443 175.684 60.5361 182.053C67.5247 187.004 90.9867 185.518 97.4762 179.083C101.47 175.123 102.634 159.611 100.471 152.846L89.9883 122.153L84.9964 146.41H64.0304L50.0531 122.153Z" fill="#444243" stroke="#101010" stroke-width="2"/>
</svg>
