<svg width="180" height="96" viewBox="0 0 180 96" fill="none" xmlns="http://www.w3.org/2000/svg">
<path d="M114.304 40.8518L114.271 40.8285L114.241 40.8002C113.952 40.5205 113.671 40.2471 113.398 39.9811C111.889 38.5124 110.613 37.2706 109.37 36.4422C107.953 35.4979 106.657 35.1445 105.181 35.6154C104.756 35.9053 104.59 36.274 104.602 36.7584C104.616 37.3074 104.862 38.0153 105.338 38.8797C106.286 40.6023 108.008 42.709 109.912 45.0002C111.788 47.2577 113.892 49.3249 115.671 50.6911C116.563 51.3767 117.352 51.8683 117.974 52.1255C118.285 52.2543 118.53 52.3136 118.709 52.3224C118.884 52.331 118.96 52.2909 118.993 52.263C119.026 52.2358 119.11 52.1258 119.176 51.8397C119.239 51.5692 119.271 51.2044 119.261 50.7583C119.24 49.8685 119.054 48.7211 118.684 47.4954C117.941 45.032 116.491 42.3642 114.304 40.8518Z" fill="#444243" stroke="#101010"/>
<path d="M168.524 39.2322L168.554 39.2053L168.58 39.1738C168.836 38.8628 169.084 38.5592 169.325 38.2638C170.657 36.6325 171.782 35.2533 172.923 34.2885C174.222 33.1887 175.47 32.6897 176.99 32.9891C177.446 33.2286 177.652 33.5761 177.695 34.0588C177.744 34.6056 177.581 35.3371 177.207 36.2501C176.461 38.0696 174.99 40.3591 173.36 42.8525C171.754 45.3093 169.9 47.603 168.289 49.1632C167.48 49.9462 166.753 50.5244 166.164 50.8509C165.87 51.0145 165.634 51.1012 165.456 51.1304C165.283 51.159 165.204 51.1278 165.167 51.1039C165.131 51.0806 165.035 50.9809 164.937 50.7042C164.844 50.4426 164.771 50.0839 164.73 49.6395C164.649 48.7531 164.703 47.592 164.93 46.3322C165.387 43.8001 166.524 40.9842 168.524 39.2322Z" fill="#444243" stroke="#101010"/>
<path d="M149.539 9.59269C149.539 9.59269 163.115 21.0772 166.005 29.5319C168.895 37.9867 168.529 53.3144 156.848 61.8761C152.6 64.9894 133.929 66.1976 125.887 61.0833C117.845 55.969 115.723 42.4746 115.691 37.9948L113.81 13.8186L127.803 30.2096C127.803 30.2096 133.655 27.5499 138.454 26.9195C143.253 26.2891 150.135 26.3405 150.135 26.3405L149.539 9.59269Z" fill="#444243" stroke="#101010" stroke-width="2"/>
<path d="M141.94 51.889L144.743 46.3637L138.556 46.6984L141.94 51.889Z" fill="#101010"/>
<path d="M141.935 50.5139C143.127 53.4949 146.968 52.1369 148.757 50.3483" stroke="#101010" stroke-linecap="round"/>
<path d="M141.935 50.5139C141.338 53.4949 137.053 51.5407 135.264 50.3483" stroke="#101010" stroke-linecap="round"/>
<path d="M130.74 47.2666L123.408 45.7442" stroke="black" stroke-linecap="round"/>
<path d="M153.407 45.9127L160.447 43.3595" stroke="black" stroke-linecap="round"/>
<path d="M130.796 48.7504L123.314 49.0576" stroke="black" stroke-linecap="round"/>
<path d="M153.564 47.389L161.013 46.6253" stroke="black" stroke-linecap="round"/>
<path d="M131.029 50.2472L123.971 52.7491" stroke="black" stroke-linecap="round"/>
<path d="M153.546 48.904L160.889 50.3731" stroke="black" stroke-linecap="round"/>
<path d="M137.738 42.2403C137.058 40.8784 134.207 40.3047 128.818 42.1669C128.818 42.1669 133.565 42.8368 134.161 43.433C134.758 44.0292 135.089 45.2608 136.555 44.9055C138.021 44.5501 138.334 43.4332 137.738 42.2403Z" fill="#101010"/>
<path d="M145.512 42.1671C145.791 40.8635 149.089 39.186 155.051 40.9747C155.051 40.9747 149.517 42.037 149.089 42.7633C148.66 43.4895 148.808 44.5298 147.3 44.5519C145.792 44.5739 145.232 43.4709 145.512 42.1671Z" fill="#101010"/>
<path d="M143.941 40.6567C144.221 40.8362 145.231 40.9768 146.271 40.1493C147.045 39.5343 148.504 37.8269 148.094 37.3116C147.684 36.7962 146.019 37.6263 144.726 38.6553C144.048 39.1946 143.357 40.2812 143.941 40.6567Z" fill="#393839"/>
<path d="M139.18 40.6757C138.918 40.8804 137.925 41.1142 136.812 40.3869C135.986 39.8464 134.374 38.282 134.734 37.7308C135.094 37.1796 136.829 37.8514 138.213 38.7559C138.938 39.2299 139.727 40.2475 139.18 40.6757Z" fill="#393839"/>
<path d="M149.881 25.6119L150.443 29.5472" stroke="#101010" stroke-width="2"/>
<path fill-rule="evenodd" clip-rule="evenodd" d="M141.771 56.963L138.924 55.4657C138.747 55.3729 138.539 55.5125 138.559 55.7104L139.057 60.5868C139.078 60.7972 139.335 60.8891 139.484 60.7394L141.88 58.3246C142.129 58.6388 142.524 58.8127 142.932 58.746C143.303 58.6854 143.6 58.4405 143.754 58.1136L146.51 59.8721C146.683 59.9825 146.907 59.8516 146.893 59.6478L146.563 54.7314C146.549 54.5257 146.306 54.4218 146.15 54.5548L143.55 56.7688C143.3 56.4947 142.931 56.3483 142.551 56.4104C142.211 56.4659 141.933 56.6765 141.771 56.963Z" fill="#D81A14"/>
<path d="M80.2417 52.695L80.244 52.7066L80.2469 52.7182C80.2848 52.8699 80.26 52.9696 80.1992 53.0604C80.1254 53.1707 79.9712 53.3045 79.6854 53.4397C79.1102 53.7119 78.1846 53.9062 76.9734 54.0243C74.576 54.258 71.277 54.1761 67.9706 54.0065C67.5827 53.9435 67.2046 53.8836 66.8366 53.8253C64.7569 53.4958 62.9985 53.2172 61.591 52.7174C59.9864 52.1477 58.9273 51.3207 58.4208 49.8563C58.3988 49.3424 58.5951 48.9892 58.9904 48.7088C59.4382 48.3911 60.1527 48.1645 61.1299 48.0283C63.0774 47.7568 65.796 47.8754 68.7711 48.0292C71.69 48.18 74.4761 48.7361 76.5861 49.5876C77.6414 50.0135 78.5087 50.5057 79.1376 51.0426C79.7673 51.5801 80.1302 52.1375 80.2417 52.695Z" fill="#444243" stroke="#101010"/>
<path d="M10.4772 52.1468L10.4795 52.106L10.4884 52.0662C10.5758 51.6731 10.6624 51.2908 10.7467 50.919C11.2121 48.8654 11.6056 47.1291 11.6636 45.6366C11.7297 43.9352 11.3546 42.6448 10.1825 41.6314C9.71349 41.4203 9.31262 41.4716 8.90562 41.7346C8.44448 42.0327 7.96901 42.6121 7.48001 43.4691C6.50549 45.177 5.60727 47.7457 4.64653 50.5655C3.69991 53.3439 3.03434 56.2171 2.79721 58.4474C2.67821 59.5666 2.67035 60.4956 2.77553 61.1604C2.82821 61.4934 2.90519 61.7327 2.99131 61.8904C3.0755 62.0445 3.14907 62.088 3.19041 62.102C3.23075 62.1158 3.36841 62.1301 3.64702 62.0372C3.91044 61.9494 4.23824 61.7862 4.61342 61.5447C5.36187 61.063 6.2435 60.3054 7.09599 59.3504C8.80945 57.4308 10.3285 54.8016 10.4772 52.1468Z" fill="#444243" stroke="#101010"/>
<path d="M27.6429 3.87392C27.6429 3.87392 13.9302 22.9523 10.9493 31.3943C7.96837 39.8363 5.87643 55.2925 19.2962 64.6865C25.2581 68.8599 41.952 71.8615 52.6835 66.4751C58.6773 63.4668 64.0113 49.1852 64.0113 40.2422L65.2037 11.0283L50.2319 31.3942L27.6429 28.3182L27.6429 3.87392Z" fill="#444243" stroke="#101010" stroke-width="2"/>
<path d="M37.7735 54.1379L34.9699 48.6126L41.1568 48.9473L37.7735 54.1379Z" fill="#101010"/>
<path d="M37.7787 52.7627C36.5863 55.7437 34.2886 55.7886 32.5 54" stroke="#101010" stroke-linecap="round"/>
<path d="M37.7787 52.7627C38.5 56 40.8756 55.5 42 55.5" stroke="#101010" stroke-linecap="round"/>
<path d="M48.9729 49.5155L56.3049 47.9931" stroke="black" stroke-linecap="round"/>
<path d="M26.3064 48.1614L19.2667 45.6082" stroke="black" stroke-linecap="round"/>
<path d="M48.9175 50.9993L56.3996 51.3065" stroke="black" stroke-linecap="round"/>
<path d="M26.1495 49.6379L18.7002 48.8742" stroke="black" stroke-linecap="round"/>
<path d="M48.6838 52.4961L55.7419 54.998" stroke="black" stroke-linecap="round"/>
<path d="M26.1672 51.1529L18.8243 52.622" stroke="black" stroke-linecap="round"/>
<path d="M41.8036 44.6219C42.7044 43.3947 45.612 43.3118 50.6077 46.0589C50.6077 46.0589 45.8158 45.9159 45.1273 46.4026C44.4388 46.8893 43.9036 48.0471 42.519 47.4488C41.1344 46.8506 41.0146 45.6968 41.8036 44.6219Z" fill="#101010"/>
<path d="M33.6942 44.3582C33.144 43.1438 29.565 42.2057 24.1194 45.2209C24.1194 45.2209 29.7525 45.0826 30.3255 45.7012C30.8984 46.3197 30.975 47.3677 32.4534 47.0687C33.9317 46.7697 34.2445 45.5727 33.6942 44.3582Z" fill="#101010"/>
<path d="M36.1061 40.1402C36.0992 40.4723 35.652 41.3894 34.3849 41.7909C33.4432 42.0893 31.2119 42.348 31.013 41.7202C30.814 41.0925 32.4318 40.1739 34.0075 39.6746C34.8333 39.4129 36.1207 39.4455 36.1061 40.1402Z" fill="#393839"/>
<path d="M41.3372 40.0676C41.2832 40.3953 41.5549 41.3788 42.727 42.0056C43.5981 42.4714 45.7443 43.1344 46.0549 42.5536C46.3654 41.9729 44.9432 40.7736 43.4856 39.9942C42.7216 39.5857 41.4501 39.382 41.3372 40.0676Z" fill="#393839"/>
<path d="M27.6431 28.3186L27.6432 31.8955" stroke="#101010" stroke-width="2"/>
<path d="M87.3201 56.5628C82.2024 56.3742 72.1302 52.83 69.6032 49.1905L72.6287 37.8744C72.6817 37.6764 72.8501 37.5307 73.0537 37.5069L73.575 37.446C73.7874 37.4211 73.9921 37.5341 74.0843 37.7271L76.88 43.5801C76.9493 43.7253 77.1359 43.7681 77.2616 43.6676L83.8205 38.4255C83.8917 38.3685 83.9884 38.3549 84.0726 38.3899L84.7837 38.6858C84.868 38.7209 84.9264 38.799 84.9362 38.8897L85.8402 47.2373C85.8575 47.3973 86.0194 47.4995 86.1713 47.4463L92.6313 45.1862C92.9594 45.3228 93.5697 45.7061 93.3861 46.1473C89.6812 53.6634 89.2656 53.2748 87.3201 56.5628Z" fill="#F8C034"/>
<ellipse cx="84.8872" cy="37.435" rx="2.13217" ry="2.38932" transform="rotate(22.5928 84.8872 37.435)" fill="#F8C034"/>
<ellipse cx="73.0377" cy="36.7745" rx="2.13217" ry="2.38932" transform="rotate(22.5928 73.0377 36.7745)" fill="#F8C034"/>
<ellipse cx="93.7073" cy="45.3753" rx="2.13217" ry="2.38932" transform="rotate(22.5928 93.7073 45.3753)" fill="#F8C034"/>
<rect x="125.502" y="75.0845" width="5.62189" height="7.87064" rx="1" transform="rotate(38.0846 125.502 75.0845)" fill="#D9D9D9"/>
<rect x="131.187" y="78.4575" width="5.62189" height="7.87064" rx="1" transform="rotate(3.0616 131.187 78.4575)" fill="#D9D9D9"/>
<rect x="138.637" y="79.7683" width="5.62189" height="7.87064" rx="1" transform="rotate(-25.6669 138.637 79.7683)" fill="#D9D9D9"/>
<rect x="146.508" y="77.9047" width="5.62189" height="7.87064" rx="1" transform="rotate(-17.5572 146.508 77.9047)" fill="#D9D9D9"/>
<rect x="154.379" y="79.2657" width="5.62189" height="7.87064" rx="1" transform="rotate(-48.0519 154.379 79.2657)" fill="#D9D9D9"/>
<rect x="120.235" y="93.7423" width="5.62189" height="7.87064" rx="1" transform="rotate(-106.586 120.235 93.7423)" fill="#D9D9D9"/>
<rect x="66.0331" y="79.3462" width="5.62189" height="7.87064" rx="1" transform="rotate(-106.586 66.0331 79.3462)" fill="#E80E0E"/>
<rect x="137.553" y="95.9999" width="5.62189" height="7.87064" rx="1" transform="rotate(-143.817 137.553 95.9999)" fill="#D9D9D9"/>
<rect x="148.286" y="95.9678" width="5.62189" height="7.87064" rx="1" transform="rotate(-151.105 148.286 95.9678)" fill="#D9D9D9"/>
<rect x="159.653" y="94.5341" width="5.62189" height="7.87064" rx="1" transform="rotate(-159.744 159.653 94.5341)" fill="#D9D9D9"/>
<rect x="171.18" y="89.3044" width="5.62189" height="7.87064" rx="1" transform="rotate(161.727 171.18 89.3044)" fill="#D9D9D9"/>
</svg>
