<svg width="216" height="210" viewBox="0 0 216 210" fill="none" xmlns="http://www.w3.org/2000/svg">
<path d="M139.998 57.1739L140.034 57.1562L140.068 57.1327C140.361 56.9264 140.646 56.7247 140.923 56.5285C142.451 55.4457 143.738 54.534 144.94 53.9797C146.302 53.3509 147.47 53.2229 148.679 53.826C148.994 54.1243 149.081 54.4504 149.008 54.8543C148.922 55.3215 148.615 55.9012 148.08 56.5929C147.013 57.9707 145.214 59.5807 143.224 61.3327C141.267 63.0557 139.138 64.5796 137.391 65.5326C136.514 66.011 135.758 66.3317 135.183 66.4704C134.895 66.5398 134.679 66.5569 134.529 66.5408C134.383 66.5252 134.337 66.4836 134.323 66.4679C134.31 66.453 134.252 66.3595 134.234 66.1033C134.217 65.8631 134.238 65.5431 134.308 65.1554C134.448 64.3821 134.767 63.4044 135.259 62.382C136.249 60.3258 137.883 58.1939 139.998 57.1739Z" fill="#444243" stroke="#101010"/>
<path d="M84.233 52.8054L84.1962 52.7876L84.1628 52.7642C83.8692 52.5579 83.5844 52.3561 83.3075 52.16C81.7791 51.0772 80.4921 50.1654 79.291 49.6112C77.9283 48.9823 76.761 48.8544 75.5512 49.4575C75.2369 49.7558 75.1494 50.0819 75.223 50.4858C75.3081 50.953 75.6154 51.5326 76.1508 52.2243C77.2174 53.6022 79.0164 55.2122 81.0063 56.9641C82.9634 58.6871 85.0931 60.2111 86.8398 61.164C87.7168 61.6425 88.4722 61.9632 89.0474 62.1018C89.3355 62.1713 89.5515 62.1883 89.7017 62.1723C89.848 62.1567 89.894 62.1151 89.9078 62.0994C89.921 62.0845 89.9782 61.991 89.9967 61.7348C90.0139 61.4946 89.9924 61.1746 89.9224 60.7868C89.783 60.0136 89.4632 59.0359 88.9712 58.0135C87.9816 55.9573 86.3472 53.8253 84.233 52.8054Z" fill="#444243" stroke="#101010"/>
<path d="M104.784 20.6666C104.784 20.6666 92.5879 37.6346 89.9367 45.1427C87.2855 52.6509 85.425 66.3973 97.3603 74.7522C102.663 78.4639 117.51 81.1335 127.054 76.3429C132.385 73.6674 137.129 60.9656 137.129 53.0119L138.19 27.0296L124.874 45.1427L104.784 42.4069L104.784 20.6666Z" fill="#444243" stroke="#101010" stroke-width="2"/>
<path d="M125.464 47.7095C125.152 49.4386 122.603 49.6895 117.51 48.77C112.611 47.8855 106.593 46.2571 106.905 44.528C107.217 42.7988 110.416 42.5937 115.315 43.4782C120.215 44.3627 125.776 45.9803 125.464 47.7095Z" fill="#3E3D3D"/>
<path d="M113.794 65.3702L111.3 60.4561L116.803 60.7538L113.794 65.3702Z" fill="#101010"/>
<path d="M113.798 64.1472C112.738 66.7985 110.086 65.738 108.496 64.1472" stroke="#101010" stroke-linecap="round"/>
<path d="M113.798 64.1472C114.328 66.7985 116.98 65.2077 118.57 64.1472" stroke="#101010" stroke-linecap="round"/>
<path d="M123.754 61.2593L130.275 59.9053" stroke="black" stroke-linecap="round"/>
<path d="M103.595 60.055L97.3339 57.7843" stroke="black" stroke-linecap="round"/>
<path d="M123.705 62.5787L130.359 62.852" stroke="black" stroke-linecap="round"/>
<path d="M103.455 61.368L96.8301 60.6888" stroke="black" stroke-linecap="round"/>
<path d="M123.497 63.91L129.774 66.1352" stroke="black" stroke-linecap="round"/>
<path d="M103.471 62.7154L96.9405 64.022" stroke="black" stroke-linecap="round"/>
<path d="M117.53 56.789C118.135 55.5777 120.671 55.0675 125.464 56.7237C125.464 56.7237 121.242 57.3195 120.711 57.8497C120.181 58.38 119.886 59.4753 118.583 59.1593C117.279 58.8433 117 57.85 117.53 56.789Z" fill="#101010"/>
<path d="M110.617 56.7238C110.368 55.5645 107.435 54.0725 102.133 55.6634C102.133 55.6634 107.054 56.6082 107.435 57.2541C107.816 57.9 107.685 58.8252 109.026 58.8449C110.367 58.8645 110.865 57.8834 110.617 56.7238Z" fill="#101010"/>
<path d="M110.617 54.6028C110.408 54.8116 109.556 55.125 108.496 54.6028C107.708 54.2147 106.116 53.0072 106.375 52.4817C106.633 51.9563 108.237 52.3626 109.556 53.012C110.247 53.3524 111.054 54.1658 110.617 54.6028Z" fill="#393839"/>
<path d="M116.603 54.9012C116.787 55.132 117.599 55.5383 118.711 55.1374C119.537 54.8394 121.254 53.8167 121.055 53.2657C120.856 52.7147 119.217 52.9398 117.834 53.4384C117.109 53.6997 116.218 54.4183 116.603 54.9012Z" fill="#393839"/>
<path d="M104.784 42.4073L104.784 45.5885" stroke="#101010" stroke-width="2"/>
<path d="M123.509 47.3389C119.029 48.1603 109.601 47.022 106.706 44.3484L107.153 33.9777C107.162 33.7729 107.295 33.5943 107.488 33.527L107.856 33.399C108.058 33.3288 108.283 33.3948 108.414 33.5632L111.923 38.0485C112.022 38.1753 112.213 38.1767 112.314 38.0514L116.968 32.2768C117.025 32.2058 117.117 32.1716 117.206 32.1876L117.849 32.3018C117.938 32.3178 118.012 32.3815 118.042 32.4679L120.417 39.4935C120.469 39.646 120.649 39.7107 120.786 39.6259L125.93 36.4382C126.241 36.4936 126.845 36.7089 126.771 37.1274C125.001 44.3668 124.565 44.1094 123.509 47.3389Z" fill="#F8C034"/>
<ellipse cx="117.714" cy="31.1986" rx="1.89631" ry="2.12502" transform="rotate(10.0916 117.714 31.1986)" fill="#F8C034"/>
<ellipse cx="107.298" cy="32.9062" rx="1.89631" ry="2.12502" transform="rotate(10.0916 107.298 32.9062)" fill="#F8C034"/>
<ellipse cx="126.901" cy="36.3952" rx="1.89631" ry="2.12502" transform="rotate(10.0916 126.901 36.3952)" fill="#F8C034"/>
<path d="M56.5581 101.378L56.559 101.337L56.5532 101.297C56.5021 100.941 56.4511 100.596 56.4015 100.26C56.1278 98.4074 55.8973 96.8471 55.9468 95.5252C56.0028 94.0255 56.4171 92.9266 57.5025 92.1208C57.9107 91.9756 58.2412 92.0451 58.568 92.2936C58.9461 92.581 59.3239 93.1173 59.6983 93.9079C60.4441 95.4826 61.0655 97.8156 61.727 100.383C61.7913 100.633 61.8558 100.882 61.9201 101.13C62.5181 103.439 63.0933 105.659 63.2767 107.424C63.3785 108.403 63.3517 109.181 63.1766 109.731C63.0153 110.238 62.7433 110.522 62.3144 110.635C60.9088 110.771 59.4652 109.784 58.3393 107.999C57.2192 106.223 56.5094 103.786 56.5581 101.378Z" fill="#444243" stroke="#101010"/>
<path d="M11.8587 100.246C12.1698 97.6572 12.219 95.0389 12.0146 93.0596C11.9121 92.0659 11.7483 91.2617 11.5367 90.7092C11.4308 90.4325 11.3224 90.2448 11.2241 90.1301C11.1284 90.0184 11.068 90.004 11.0472 90.0015C11.0293 89.9994 10.9273 90.0034 10.7186 90.1299C10.5217 90.2494 10.2829 90.446 10.0143 90.7231C9.47873 91.2756 8.87442 92.096 8.30154 93.0933C7.15319 95.0926 6.17844 97.7196 6.10645 100.177C6.03115 102.748 6.07985 104.628 6.47021 106.043C6.84336 107.396 7.52641 108.316 8.76304 108.994C9.18714 109.084 9.50561 108.972 9.79682 108.682C10.1336 108.347 10.4372 107.766 10.7038 106.932C11.2349 105.273 11.5424 102.878 11.8587 100.246Z" fill="#444243" stroke="#101010"/>
<path d="M26.7838 61.4999C26.7838 61.4999 14.588 75.6345 11.9368 83.1427C9.28562 90.6508 7.42509 104.397 19.3604 112.752C24.6628 116.464 39.51 119.133 49.0544 114.343C54.3852 111.667 59.1291 98.9655 59.1291 91.0118L61.5 70.4999L46.874 83.1426L26.7838 80.4068L26.7838 61.4999Z" fill="#444243" stroke="#101010" stroke-width="2"/>
<path d="M35.7936 103.37L33.3002 98.4561L38.8026 98.7538L35.7936 103.37Z" fill="#101010"/>
<path d="M35.7983 102.147C34.7378 104.798 33 104 31 103.5" stroke="#101010" stroke-linecap="round"/>
<path d="M35.7983 102.147C36.3285 104.798 39 104 40.5 103.5" stroke="#101010" stroke-linecap="round"/>
<path d="M45.7542 99.2593L52.2751 97.9053" stroke="black" stroke-linecap="round"/>
<path d="M25.595 98.055L19.334 95.7843" stroke="black" stroke-linecap="round"/>
<path d="M45.7049 100.579L52.3593 100.852" stroke="black" stroke-linecap="round"/>
<path d="M25.4556 99.368L18.8302 98.6888" stroke="black" stroke-linecap="round"/>
<path d="M45.4971 101.91L51.7744 104.135" stroke="black" stroke-linecap="round"/>
<path d="M25.4712 100.715L18.9406 102.022" stroke="black" stroke-linecap="round"/>
<path d="M39.5203 94.8425C40.4043 93.8169 42.9881 93.9452 47.2269 96.7277C47.2269 96.7277 42.988 96.2683 42.3437 96.6521C41.6995 97.0358 41.1445 98.0252 39.9584 97.3987C38.7723 96.7721 38.7461 95.7408 39.5203 94.8425Z" fill="#101010"/>
<path d="M33.0739 94.6174C32.4362 93.6178 29.1668 93.2439 24.7536 96.5862C24.7536 96.5862 29.6953 95.753 30.2778 96.2252C30.8604 96.6974 31.0602 97.6104 32.3239 97.1604C33.5876 96.7104 33.7118 95.6172 33.0739 94.6174Z" fill="#101010"/>
<path d="M33.2299 89.8879C33.2546 90.1823 32.9445 91.0351 31.8612 91.5082C31.0561 91.8599 29.1066 92.2965 28.8722 91.7598C28.6377 91.2231 29.9831 90.26 31.3303 89.6716C32.0364 89.3632 33.1781 89.2721 33.2299 89.8879Z" fill="#393839"/>
<path d="M39.0764 89.7849C38.9866 90.0663 39.0987 90.9668 40.0492 91.6697C40.7556 92.192 42.5586 93.0525 42.9068 92.5815C43.2551 92.1106 42.1584 90.8717 40.9764 89.9977C40.3569 89.5396 39.2642 89.1962 39.0764 89.7849Z" fill="#393839"/>
<path d="M26.7839 80.4073L26.784 83.5885" stroke="#101010" stroke-width="2"/>
<path fill-rule="evenodd" clip-rule="evenodd" d="M35.3987 108.742L33.1554 107.051C32.9961 106.931 32.7684 107.035 32.7564 107.234L32.5005 111.475C32.4877 111.687 32.7267 111.819 32.8974 111.695L35.2995 109.953C35.4732 110.265 35.7947 110.474 36.1627 110.474C36.4968 110.474 36.7926 110.301 36.9742 110.037L39.1011 111.939C39.254 112.076 39.4956 111.983 39.515 111.779L39.9197 107.526C39.9393 107.321 39.7162 107.179 39.5406 107.285L36.9879 108.827C36.8077 108.55 36.5053 108.369 36.1627 108.369C35.8563 108.369 35.5821 108.514 35.3987 108.742Z" fill="#D81A14"/>
<path d="M163.202 114.599L163.195 114.559L163.195 114.518C163.192 114.159 163.191 113.81 163.19 113.471C163.184 111.598 163.179 110.02 162.933 108.721C162.653 107.246 162.08 106.222 160.886 105.587C160.461 105.504 160.144 105.622 159.858 105.917C159.527 106.258 159.234 106.844 158.982 107.682C158.479 109.35 158.213 111.75 157.943 114.387C157.916 114.644 157.89 114.9 157.863 115.154C157.617 117.527 157.38 119.808 157.462 121.58C157.508 122.564 157.65 123.329 157.906 123.847C158.141 124.324 158.452 124.564 158.893 124.612C160.303 124.536 161.583 123.346 162.43 121.412C163.272 119.489 163.61 116.973 163.202 114.599Z" fill="#444243" stroke="#101010"/>
<path d="M205.565 116.223C205.372 113.623 205.442 111.005 205.736 109.037C205.883 108.049 206.083 107.253 206.32 106.711C206.438 106.439 206.555 106.257 206.658 106.147C206.759 106.04 206.82 106.028 206.841 106.026C206.859 106.025 206.96 106.034 207.163 106.17C207.355 106.298 207.584 106.505 207.84 106.794C208.35 107.37 208.916 108.217 209.443 109.24C210.5 111.289 211.354 113.958 211.314 116.416C211.273 118.987 211.139 120.863 210.685 122.259C210.251 123.594 209.526 124.482 208.26 125.103C207.833 125.174 207.52 125.047 207.242 124.744C206.921 124.394 206.644 123.8 206.415 122.955C205.96 121.273 205.762 118.867 205.565 116.223Z" fill="#444243" stroke="#101010"/>
<path d="M187.821 79.6758C190.159 80.9693 204.515 89.1514 206.634 96.148C208.941 103.769 210.176 117.585 197.874 125.39C192.408 128.857 177.455 130.85 168.138 125.631C162.934 122.716 158.772 109.812 159.133 101.866C159.133 101.866 158.5 88.4999 155.5 84.4999C152.5 80.4999 171.733 94.5618 171.733 94.5618L191.926 92.7409L187.62 79.8582C187.577 79.7294 187.703 79.61 187.821 79.6758Z" fill="#444243" stroke="#101010" stroke-width="2"/>
<path d="M181.883 115.272L184.597 110.476L179.087 110.523L181.883 115.272Z" fill="#101010"/>
<path d="M181.934 114.05C183.5 116 183 115.5 184.5 117" stroke="#101010" stroke-linecap="round"/>
<path d="M181.934 114.05C181 116 181 115.5 180 117" stroke="#101010" stroke-linecap="round"/>
<path d="M172.12 110.713L165.667 109.064" stroke="black" stroke-linecap="round"/>
<path d="M192.313 110.425L198.67 108.441" stroke="black" stroke-linecap="round"/>
<path d="M172.109 112.033L165.449 112.004" stroke="black" stroke-linecap="round"/>
<path d="M192.392 111.743L199.042 111.365" stroke="black" stroke-linecap="round"/>
<path d="M172.256 113.372L165.884 115.31" stroke="black" stroke-linecap="round"/>
<path d="M192.316 113.088L198.78 114.69" stroke="black" stroke-linecap="round"/>
<path d="M178.576 106.225C177.32 105.72 175.083 107.02 172.595 111.438C172.595 111.438 176.15 109.084 176.898 109.129C177.647 109.174 178.594 109.799 179.36 108.698C180.126 107.596 179.676 106.668 178.576 106.225Z" fill="#101010"/>
<path d="M184.987 106.304C185.957 105.623 189.122 106.523 191.929 111.295C191.929 111.295 187.678 108.642 186.959 108.856C186.241 109.071 185.708 109.839 184.711 108.941C183.714 108.044 184.016 106.986 184.987 106.304Z" fill="#101010"/>
<path d="M185.056 101.92C185.018 102.213 185.289 103.079 186.35 103.6C187.138 103.988 189.066 104.513 189.325 103.987C189.583 103.462 188.283 102.439 186.964 101.79C186.273 101.45 185.136 101.307 185.056 101.92Z" fill="#393839"/>
<path d="M179.221 101.551C179.298 101.836 179.145 102.731 178.163 103.39C177.434 103.88 175.594 104.657 175.267 104.171C174.941 103.685 176.092 102.497 177.313 101.677C177.953 101.248 179.06 100.955 179.221 101.551Z" fill="#393839"/>
<path d="M191.926 92.7413L191.782 95.9193" stroke="#101010" stroke-width="2"/>
<path d="M181.806 97.8673L178.49 99.3552L179.783 94.6516L181.806 97.8673Z" fill="#EA9CD4"/>
<path d="M182.212 97.6592L185.448 95.7972L184.476 100.583L182.212 97.6592Z" fill="#EA9CD4"/>
<circle cx="181.963" cy="97.7085" r="1" transform="rotate(12.1562 181.963 97.7085)" fill="#EA9CD4"/>
<rect x="0.5" y="118" width="73" height="92" fill="#D69A06"/>
<rect x="73.5" y="81.9999" width="77" height="128" fill="#F8C034"/>
<rect x="150.5" y="130" width="65" height="80" fill="#B07F03"/>
<path d="M150.5 28.9999L160.5 20.9999" stroke="#F8C034" stroke-linecap="round"/>
<path d="M137.825 19.5611L145.068 8.99995" stroke="#F8C034" stroke-linecap="round"/>
<path d="M125.399 15.7775L126.255 2.99988" stroke="#F8C034" stroke-linecap="round"/>
<path d="M108.866 13.6883L107.132 1.00008" stroke="#F8C034" stroke-linecap="round"/>
<path d="M93.9921 17.3452L86.4436 7.00008" stroke="#F8C034" stroke-linecap="round"/>
<path d="M80.8671 27.1414L69.5 21.2431" stroke="#F8C034" stroke-linecap="round"/>
<path d="M70.8671 45.1414L59.5 39.2431" stroke="#F8C034" stroke-linecap="round"/>
<path d="M79 71.3699L67.9983 77.9244" stroke="#F8C034" stroke-linecap="round"/>
<path d="M164.394 73.0011L151.608 72.2932" stroke="#F8C034" stroke-linecap="round"/>
<path d="M168.517 37.1634L156.5 41.5891" stroke="#F8C034" stroke-linecap="round"/>
<path d="M70.3127 61.1532L58 57.6323" stroke="#F8C034" stroke-linecap="round"/>
<path d="M156.5 53.877L169.184 52.109" stroke="#F8C034" stroke-linecap="round"/>
</svg>
