<svg xmlns="http://www.w3.org/2000/svg" width="48" height="48" viewBox="0 0 48 48" fill="none">
  <defs>
    <clipPath id="mask">
      <circle cx="24" cy="24" r="24"></circle>
    </clipPath>
  </defs>
  <g clip-path="url(#mask)">
    <circle cx="24" cy="24" r="24" fill="#D4D4D4" />
    <path
      d="M6.23175 29.3779C5.36199 31.1242 4.79634 32.6175 4.37271 33.7358C4.2152 34.1516 4.07732 34.5156 3.95074 34.8215C3.70309 35.42 3.52416 35.73 3.373 35.8661C3.31461 35.9187 3.28249 35.9243 3.26449 35.9258C3.23758 35.9281 3.16837 35.9245 3.03448 35.8579C2.97495 35.8282 2.91639 35.7994 2.85888 35.771C2.14893 35.4214 1.59785 35.1499 1.34323 34.4059C1.05205 33.5551 1.12368 31.9742 2.34085 28.8235C3.34141 26.8274 4.9944 25.3936 6.58044 24.5472C7.37548 24.1229 8.14027 23.8535 8.77993 23.7328C9.44143 23.6078 9.89025 23.6561 10.1133 23.7672C10.1649 23.7929 10.2012 23.8145 10.2263 23.8312C10.1988 23.8821 10.149 23.958 10.0627 24.0667C9.94335 24.2171 9.78428 24.3941 9.58116 24.6176C9.56167 24.639 9.54188 24.6607 9.52181 24.6828C8.70804 25.5774 7.41874 26.9947 6.23175 29.3779Z"
      fill="#444243" stroke="#101010" />
    <path
      d="M34.4203 40.3919C35.1647 39.0042 35.48 38.3735 36.1107 37.5852C36.09 28.7844 36.8991 21.6606 40.3677 21.6606C42.4174 21.3454 47.8748 23.3109 46.8321 27.3367C45.4131 30.1748 42.8904 29.3864 40.683 26.233C40.4826 26.3132 40.4045 26.3118 40.3994 26.2652C39.4112 26.777 39.5138 31.5845 39.1064 34.7471C38.7521 37.4973 35.7278 42.4285 34.4241 41.9845L34.4203 40.3919Z"
      fill="#444243" />
    <path
      d="M40.683 26.233C42.8904 29.3864 45.4131 30.1748 46.8321 27.3367C47.8748 23.3109 42.4174 21.3454 40.3677 21.6606C36.8991 21.6606 36.09 28.7844 36.1107 37.5852C35.48 38.3735 35.1647 39.0042 34.4203 40.3919L34.4241 41.9845C35.7278 42.4285 38.7521 37.4973 39.1064 34.7471C39.5492 31.3095 39.3895 25.9284 40.683 26.233ZM40.683 26.233C39.8947 26.5484 40.9984 25.6023 40.9984 25.6023"
      stroke="#101010" stroke-width="1.5" stroke-linecap="round" />
    <path
      d="M6.66266 27.6752C5.89138 28.7644 5.43312 29.7903 2.21539 41.4854C1.395 44.4672 3.0551 48.5299 4.88377 49.1752C7.5521 50.1168 11.7945 51.9201 25.7861 52C32.4571 52 34.9022 46.9642 35.7185 45.4088C36.4597 43.9963 35.5429 27.3382 35.1894 25.635C34.5707 22.6533 34.6426 20.5034 34.6807 21.3978C34.7908 19.0909 35.602 14.2809 35.1894 14.1611C34.8766 14.0702 31.8355 16.1845 30.5189 17.9955C27.6016 15.2395 25.0449 15.2774 24.2574 15.1197C23.6303 14.9941 20.7994 15.0006 19.4116 15.1204C19.5599 14.3358 19.8564 12.4526 19.8564 12.4526L20.386 9.36875C20.4033 9.26785 20.2762 9.209 20.211 9.2879C19.1387 10.5846 14.6842 15.9864 11.7029 19.8285L9.47929 22.9672L7.55212 25.9489L6.66266 27.6752Z"
      fill="#444243" />
    <path
      d="M19.4102 17.0369C19.3967 16.5358 19.4206 15.8244 19.4116 15.1204M29.9297 19.5533C29.8549 19.1189 30.0994 18.5726 30.5189 17.9955M19.4116 15.1204C19.5599 14.3358 19.8564 12.4526 19.8564 12.4526L20.386 9.36875C20.4033 9.26785 20.2762 9.209 20.211 9.2879C19.1387 10.5846 14.6842 15.9864 11.7029 19.8285L9.47929 22.9672L7.55212 25.9489L6.66266 27.6752C5.89138 28.7644 5.43312 29.7903 2.21539 41.4854C1.395 44.4672 3.0551 48.5299 4.88377 49.1752C7.5521 50.1168 11.7945 51.9201 25.7861 52C32.4571 52 34.9022 46.9642 35.7185 45.4088C36.4597 43.9963 35.5429 27.3382 35.1894 25.635C34.5707 22.6533 34.6426 20.5034 34.6807 21.3978C34.7908 19.0909 35.602 14.2809 35.1894 14.1611C34.8766 14.0702 31.8355 16.1845 30.5189 17.9955M19.4116 15.1204C20.7994 15.0006 23.6303 14.9941 24.2574 15.1197C25.0449 15.2774 27.6016 15.2395 30.5189 17.9955"
      stroke="#101010" stroke-width="1.5" stroke-linecap="round" />
    <ellipse cx="14.9957" cy="23.0926" rx="2.51858" ry="2.64282"
      transform="rotate(11.5217 14.9957 23.0926)" fill="#101010" />
    <path d="M16.7713 25.4646C15.2847 25.1629 14.6089 25.3138 13.9332 25.6155" stroke="#101010"
      stroke-linecap="round" />
    <circle cx="14.4062" cy="21.9892" r="1.10368" fill="white" />
    <circle cx="13.9332" cy="23.4081" r="0.630672" fill="white" />
    <circle cx="15.1947" cy="23.0928" r="0.315336" fill="white" />
    <ellipse cx="23.9957" cy="23.0926" rx="2.51858" ry="2.64282"
      transform="rotate(11.5217 23.9957 23.0926)" fill="#101010" />
    <path d="M26.203 25.6756C24.784 25.1295 23.2073 25.518 22.5767 25.6756" stroke="#101010"
      stroke-linecap="round" />
    <circle cx="23.365" cy="22.1095" r="1.10368" fill="white" />
    <circle cx="22.892" cy="23.529" r="0.630672" fill="white" />
    <circle cx="24.1533" cy="23.2137" r="0.315336" fill="white" />
    <path
      d="M20 24.5C19.1624 24.2118 18.6168 24.2117 17.5 24.5001C17.5 24.6923 18.7077 26.027 19 26.5C19.5584 25.6352 20.0985 24.5339 20 24.5Z"
      fill="#101010" />
    <path d="M18.9248 26.561V26.8764V27.1917V27.6647" stroke="#101010" stroke-linecap="round" />
    <path d="M18.9247 27.6652L17.0327 28.1382" stroke="#101010" stroke-linecap="round" />
    <path d="M20.9744 28.1378L18.9248 27.6648" stroke="#101010" stroke-linecap="round" />
    <path
      d="M34.5 21C34.5 21 34.9296 20.6731 35.3836 21.2591C35.3736 21.8982 34.7187 22.4204 34.463 22.4164C34.2073 22.4124 33.99 22.6392 34 22C34 21 34.0189 20.741 34.5 21Z"
      fill="#101010" />
    <path
      d="M6.20264 27.1977C6.14031 27.2953 6.07284 27.396 6 27.5L6.20264 27.1977C8.60499 23.4358 3.36513 24.2952 3.13583 21.605L3.87729 18.6416L3.64217 15.8815L6.18073 18.6416C8.0926 20.8644 8.286 24.0899 6.65342 26.5253L6.20264 27.1977Z"
      fill="#777777" />
    <path
      d="M22.5 26.5C22.2778 26.2957 21.5 25.0411 19.9444 25.0411L19.2778 25.2453L18.6111 25.4495C18.6111 25.4495 17.6026 24.8388 16.8333 25.0411C15.882 25.2912 15 26.5 15 26.5L11 27.5C11 27.5 15.0213 28.8855 16.1667 28.513C17.3294 28.1348 18.6111 26.8791 18.6111 26.8791C18.6111 26.8791 19.8973 28.195 21.0556 28.7172C22.4666 29.3535 26 28 26 28C25.7778 27.7958 22.7222 26.7043 22.5 26.5Z"
      fill="#F6F5F5" stroke="black" stroke-width="0.2" />
    <path
      d="M8.29395 26.6954L18.7429 27.73L19.0926 29.2719L18.4965 30.2178L7.99836 29.6808L8.29395 26.6954Z"
      fill="#5E3A0F" />
    <path
      d="M6.30376 26.4984L8.84086 26.2472L9.19064 27.7891L8.49601 29.7301L6.10671 28.4887L6.30376 26.4984Z"
      fill="#4F3B35" />
    <path d="M16.2551 27.4836C16.5349 28.7172 16.1582 30.1538 15.9595 30.469" stroke="#E3A70C" />
    <path
      d="M7.99845 29.6808C7.99845 29.6808 5.94205 28.5663 6.20523 27.4935C6.43786 26.5453 8.3433 26.1979 8.3433 26.1979M7.99845 29.6808C7.99845 29.6808 9.23277 28.7645 9.1906 27.7891C9.15481 26.9614 8.3433 26.1979 8.3433 26.1979M7.99845 29.6808L15.7594 30.4492L16.7445 30.5468C17.5304 30.6246 18.4145 30.5327 18.8498 29.8739C19.0672 29.545 19.2004 29.1212 19.0972 28.5972C18.9821 28.0124 18.4015 27.6797 17.8117 27.5928L16.0677 27.3358L8.3433 26.1979"
      stroke="black" />
    <path
      d="M31.9738 33.8742C31.7367 34.3971 31.5479 34.7211 31.3354 34.9242C31.1489 35.1024 30.9175 35.2121 30.5167 35.2244C30.0901 35.2374 29.4938 35.1383 28.6151 34.8885C27.7431 34.6406 26.632 34.2563 25.1884 33.7258C22.3515 32.6833 20.6077 31.4386 19.6535 30.3312C18.6768 29.1978 18.5989 28.3131 18.788 27.896C18.8726 27.7095 18.9997 27.5983 19.2525 27.5465C19.5434 27.4869 19.9918 27.5119 20.6634 27.6758C22.0004 28.0022 23.9881 28.8167 26.8634 30.1202C27.8819 30.582 28.742 30.9545 29.455 31.2633C29.7482 31.3903 30.0165 31.5065 30.2607 31.6137C31.1167 31.9895 31.6497 32.244 31.9736 32.4689C32.2767 32.6795 32.2988 32.7949 32.3015 32.8832C32.3069 33.057 32.2218 33.3271 31.9738 33.8742Z"
      fill="#444243" stroke="#101010" />
    <path
      d="M17.7407 21.2613C17.9059 21.2834 18.3026 20.8321 17.8735 20.2701C17.8735 20.2701 14.5375 18.8137 13.48 19.1764C11.7277 19.7774 17.7407 21.2613 17.7407 21.2613Z"
      fill="#F9F9F9" stroke="black" stroke-width="0.2" />
    <path
      d="M21.4797 21.2613C21.3145 21.2834 20.9179 20.8321 21.347 20.2701C21.347 20.2701 24.683 18.8137 25.7405 19.1764C27.4927 19.7774 21.4797 21.2613 21.4797 21.2613Z"
      fill="#F9F9F9" stroke="black" stroke-width="0.2" />
    <path
      d="M41.2149 15.5525C40.5373 19.3763 32.3005 19.1663 23.9577 17.6879C15.6148 16.2095 8.77228 13.7474 9.44987 9.92361C10.1275 6.09981 14.587 3.69291 22.9298 5.17129C31.2727 6.64966 41.8924 11.7287 41.2149 15.5525Z"
      fill="#042507" />
    <path
      d="M35.6691 17.5409L35.9565 15.919C35.9565 15.919 27.8684 12.5383 22.4438 11.577C18.6673 10.9078 13.4089 11.2743 13.4089 11.2743L13.0173 13.4843C12.9918 13.628 13.121 13.7514 13.2628 13.7169C14.4939 13.4172 19.2331 12.3459 22.2208 12.8358C27.0913 13.6345 34.0211 17.0078 35.3841 17.6876C35.5044 17.7476 35.6456 17.6733 35.6691 17.5409Z"
      fill="#7C0606" />
    <path
      d="M13.7753 16.5325L22.0693 17.3531L33.2873 19.9901L28.4325 21.0002C27.1869 21.2593 25.9034 21.2784 24.6507 21.0564L9.71528 18.4098C9.66657 18.4012 9.65864 18.3346 9.70396 18.3148L13.7753 16.5325Z"
      fill="black" />
    <path
      d="M35.1032 20.7337L35.8951 16.2649C35.8951 16.2649 27.8089 12.8637 22.3249 12.2481C18.8141 11.8539 13.236 12.2497 13.236 12.2497L12.4446 16.7159C12.4236 16.8343 12.5094 16.9444 12.6295 16.951C13.6934 17.0094 18.3037 17.2788 21.3554 17.7189C26.2809 18.4293 33.5197 20.5039 34.85 20.8915C34.9646 20.9249 35.0824 20.8513 35.1032 20.7337Z"
      fill="#A80909" />
    <path
      d="M12.7395 15.0508C12.7395 15.0508 18.4905 15.4207 22.9218 16.2059C27.3531 16.9912 35.3986 19.0661 35.3986 19.0661L35.1756 20.3249C35.1756 20.3249 27.13 18.25 22.6987 17.4648C18.2674 16.6796 12.5165 16.3097 12.5165 16.3097L12.7395 15.0508Z"
      fill="#F8DF85" />
    <path
      d="M23.886 14.4291C23.7628 15.1243 23.0994 15.5881 22.4041 15.4649C21.7089 15.3417 21.2452 14.6782 21.3684 13.983C21.4916 13.2877 22.155 12.824 22.8503 12.9472C23.5455 13.0704 24.0092 13.7339 23.886 14.4291Z"
      fill="#F4CC3F" />
    <path
      d="M23.2563 14.3177C23.1947 14.6653 22.863 14.8972 22.5154 14.8356C22.1677 14.774 21.9359 14.4422 21.9975 14.0946C22.0591 13.747 22.3908 13.5151 22.7384 13.5767C23.086 13.6383 23.3179 13.9701 23.2563 14.3177Z"
      fill="#A80909" />
    <path
      d="M22.4422 14.0436L22.7383 13.5767L22.8337 14.113L23.2785 14.1918L22.8738 14.3378L22.9531 14.7833L22.5688 14.4479L22.072 14.6272L22.3222 14.2327L22.0198 13.9687L22.4422 14.0436Z"
      fill="#F8C034" />
    <path d="M25.1787 36.3943L25.1787 37.3943" stroke="black" stroke-width="0.2" />
    <path
      d="M23.7787 35.6154L26.5787 35.6154L26.5787 36.4154L25.1787 36.4154L23.7787 36.4154L23.7787 35.6154Z"
      fill="#BC1313" stroke="#F8C034" stroke-width="0.2" />
    <path
      d="M24.7427 37.9823L25.2025 36.9365L25.5851 38.0073L26.6762 38.0397L25.7756 38.5406L26.1336 39.5426L25.151 38.888L24.0834 39.4818L24.5272 38.4724L23.7473 37.9528L24.7427 37.9823Z"
      fill="#F8C034" />
  </g>
</svg>