<svg xmlns="http://www.w3.org/2000/svg" width="48" height="48" viewBox="0 0 48 48" fill="none">
  <defs>
    <clipPath id="mask">
      <circle cx="24" cy="24" r="24"></circle>
    </clipPath>
  </defs>
  <g clip-path="url(#mask)">
    <circle cx="24" cy="24" r="24" fill="#D4D4D4" />
    <path
      d="M6.23175 29.3779C5.36199 31.1242 4.79634 32.6175 4.37271 33.7358C4.2152 34.1516 4.07732 34.5156 3.95074 34.8215C3.70309 35.42 3.52416 35.73 3.373 35.8661C3.31461 35.9187 3.28249 35.9243 3.26449 35.9258C3.23758 35.9281 3.16837 35.9245 3.03448 35.8579C2.97495 35.8282 2.91639 35.7994 2.85888 35.771C2.14893 35.4214 1.59785 35.1499 1.34323 34.4059C1.05205 33.5551 1.12368 31.9742 2.34085 28.8235C3.34141 26.8274 4.9944 25.3936 6.58044 24.5472C7.37548 24.1229 8.14027 23.8535 8.77993 23.7328C9.44143 23.6078 9.89025 23.6561 10.1133 23.7672C10.1649 23.7929 10.2012 23.8145 10.2263 23.8312C10.1988 23.8821 10.149 23.958 10.0627 24.0667C9.94335 24.2171 9.78428 24.3941 9.58116 24.6176C9.56167 24.639 9.54188 24.6607 9.52181 24.6828C8.70804 25.5774 7.41874 26.9947 6.23175 29.3779Z"
      fill="#444243" stroke="#101010" />
    <path
      d="M34.4203 40.3919C35.1647 39.0042 35.48 38.3735 36.1107 37.5852C36.09 28.7844 36.8991 21.6606 40.3677 21.6606C42.4174 21.3454 47.8748 23.3109 46.8321 27.3367C45.4131 30.1748 42.8904 29.3864 40.683 26.233C40.4826 26.3132 40.4045 26.3118 40.3994 26.2652C39.4112 26.777 39.5138 31.5845 39.1064 34.7471C38.7521 37.4973 35.7278 42.4285 34.4241 41.9845L34.4203 40.3919Z"
      fill="#444243" />
    <path
      d="M40.683 26.233C42.8904 29.3864 45.4131 30.1748 46.8321 27.3367C47.8748 23.3109 42.4174 21.3454 40.3677 21.6606C36.8991 21.6606 36.09 28.7844 36.1107 37.5852C35.48 38.3735 35.1647 39.0042 34.4203 40.3919L34.4241 41.9845C35.7278 42.4285 38.7521 37.4973 39.1064 34.7471C39.5492 31.3095 39.3895 25.9284 40.683 26.233ZM40.683 26.233C39.8947 26.5484 40.9984 25.6023 40.9984 25.6023"
      stroke="#101010" stroke-width="1.5" stroke-linecap="round" />
    <path
      d="M6.66266 27.6752C5.89138 28.7644 5.43312 29.7903 2.21539 41.4854C1.395 44.4672 3.0551 48.5299 4.88377 49.1752C7.5521 50.1168 11.7945 51.9201 25.7861 52C32.4571 52 34.9022 46.9642 35.7185 45.4088C36.4597 43.9963 35.5429 27.3382 35.1894 25.635C34.5707 22.6533 34.6426 20.5034 34.6807 21.3978C34.7908 19.0909 35.602 14.2809 35.1894 14.1611C34.8766 14.0702 31.8355 16.1845 30.5189 17.9955C27.6016 15.2395 25.0449 15.2774 24.2574 15.1197C23.6303 14.9941 20.7994 15.0006 19.4116 15.1204C19.5599 14.3358 19.8564 12.4526 19.8564 12.4526L20.386 9.36875C20.4033 9.26785 20.2762 9.209 20.211 9.2879C19.1387 10.5846 14.6842 15.9864 11.7029 19.8285L9.47929 22.9672L7.55212 25.9489L6.66266 27.6752Z"
      fill="#444243" />
    <path
      d="M19.4102 17.0369C19.3967 16.5358 19.4206 15.8244 19.4116 15.1204M29.9297 19.5533C29.8549 19.1189 30.0994 18.5726 30.5189 17.9955M19.4116 15.1204C19.5599 14.3358 19.8564 12.4526 19.8564 12.4526L20.386 9.36875C20.4033 9.26785 20.2762 9.209 20.211 9.2879C19.1387 10.5846 14.6842 15.9864 11.7029 19.8285L9.47929 22.9672L7.55212 25.9489L6.66266 27.6752C5.89138 28.7644 5.43312 29.7903 2.21539 41.4854C1.395 44.4672 3.0551 48.5299 4.88377 49.1752C7.5521 50.1168 11.7945 51.9201 25.7861 52C32.4571 52 34.9022 46.9642 35.7185 45.4088C36.4597 43.9963 35.5429 27.3382 35.1894 25.635C34.5707 22.6533 34.6426 20.5034 34.6807 21.3978C34.7908 19.0909 35.602 14.2809 35.1894 14.1611C34.8766 14.0702 31.8355 16.1845 30.5189 17.9955M19.4116 15.1204C20.7994 15.0006 23.6303 14.9941 24.2574 15.1197C25.0449 15.2774 27.6016 15.2395 30.5189 17.9955"
      stroke="#101010" stroke-width="1.5" stroke-linecap="round" />
    <ellipse cx="14.9957" cy="23.0926" rx="2.51858" ry="2.64282"
      transform="rotate(11.5217 14.9957 23.0926)" fill="#101010" />
    <path d="M16.7713 25.4646C15.2847 25.1629 14.6089 25.3138 13.9332 25.6155" stroke="#101010"
      stroke-linecap="round" />
    <path
      d="M15.4999 23C15.4999 23.6947 15.5 24 15 25C14.5 24 14.5 23.5 14.5 23C14.5 21.8954 14.5 22 15 21C15.5 22 15.4999 22 15.4999 23Z"
      fill="white" />
    <ellipse cx="23.9957" cy="23.0926" rx="2.51858" ry="2.64282"
      transform="rotate(11.5217 23.9957 23.0926)" fill="#101010" />
    <path d="M26.203 25.6756C24.784 25.1295 23.2073 25.518 22.5767 25.6756" stroke="#101010"
      stroke-linecap="round" />
    <path
      d="M24.5 23C24.5 23.6947 24.5001 24 24.0001 25C23.5001 24 23.5001 23.5 23.5001 23C23.5001 21.8954 23.5 22 24 21C24.5 22 24.5 22 24.5 23Z"
      fill="white" />
    <path
      d="M20.0188 24.8853C19.1812 24.5971 18.6228 24.5971 17.506 24.8855C17.506 25.0777 18.6097 26.7189 18.902 27.1919C19.4604 26.327 20.1173 24.9192 20.0188 24.8853Z"
      fill="#101010" />
    <path d="M18.9248 26.561V26.8764V27.1917V27.6647" stroke="#101010" stroke-linecap="round" />
    <path d="M18.9247 27.6652H17.5" stroke="#101010" stroke-linecap="round" />
    <path d="M20 27.6648L18.9248 27.6649" stroke="#101010" stroke-linecap="round" />
    <path
      d="M34.5 21C34.5 21 34.9296 20.6731 35.3836 21.2591C35.3736 21.8982 34.7187 22.4204 34.463 22.4164C34.2073 22.4124 33.99 22.6392 34 22C34 21 34.0189 20.741 34.5 21Z"
      fill="#101010" />
    <path
      d="M18.8448 28.4828L28.066 38.2791C25.226 38.0092 20.6941 35.1431 19.4675 33.9702C18.241 32.7973 18.0564 30.5009 18.8448 28.4828Z"
      fill="#D9D9D9" />
    <mask id="path-20-inside-1_100_590" fill="white">
      <path
        d="M27.1404 37.2998L29.9668 39.0747C30.1779 39.2073 30.2416 39.4859 30.109 39.697C29.9764 39.9081 29.6978 39.9718 29.4867 39.8392L27.4248 38.5444C27.0026 38.2793 26.8752 37.722 27.1404 37.2998Z" />
    </mask>
    <path
      d="M26.6086 38.1467L29.435 39.9216L30.4986 38.2279L27.6722 36.4529L26.6086 38.1467ZM30.0185 38.9924L27.9566 37.6975L26.893 39.3913L28.9549 40.6861L30.0185 38.9924ZM27.9566 37.6975C28.0021 37.7261 28.0158 37.7861 27.9872 37.8316L26.2935 36.768C25.7347 37.6579 26.0031 38.8324 26.893 39.3913L27.9566 37.6975ZM29.2621 39.1652C29.4233 38.9086 29.7619 38.8312 30.0185 38.9924L28.9549 40.6861C29.6337 41.1124 30.5296 40.9077 30.9559 40.2288L29.2621 39.1652ZM29.435 39.9216C29.1784 39.7604 29.101 39.4218 29.2621 39.1652L30.9559 40.2288C31.3821 39.55 31.1774 38.6541 30.4986 38.2279L29.435 39.9216Z"
      fill="black" mask="url(#path-20-inside-1_100_590)" />
    <path
      d="M17.6 31.5867C17.8349 30.6005 18.2703 29.1269 18.8035 28.6624C18.7006 30.1589 18.9936 33.1861 19.9569 33.7535C20.3016 33.9565 20.8859 34.8198 20.8516 35.3186C20.6739 35.4734 19.6613 35.1365 18.8906 34.6826C18.12 34.2286 18.529 32.653 18.5633 32.1541C18.0645 32.1198 18.2471 33.8364 17.3941 34.5796C16.5411 35.3229 17.1988 32.5615 17.6 31.5867Z"
      fill="#B41313" fill-opacity="0.8" />
    <path
      d="M35.5 36C35.5 36.5724 35.4719 36.9621 35.3845 37.2523C35.3057 37.5141 35.1794 37.6929 34.9462 37.8458C34.6893 38.0142 34.2844 38.1625 33.6237 38.2948C32.9689 38.4259 32.1083 38.533 30.9696 38.645C28.7679 38.8617 27.255 38.4567 26.3114 37.8724C25.3588 37.2827 25 36.5279 25 36C25 35.7447 25.0727 35.5824 25.2085 35.4507C25.3635 35.3004 25.642 35.151 26.1263 35.0291C27.1012 34.7837 28.669 34.7042 31.0185 34.7042C31.8521 34.7042 32.553 34.6883 33.1309 34.6753C33.3674 34.6699 33.5833 34.665 33.7793 34.6619C34.48 34.6507 34.8891 34.664 35.1452 34.7268C35.262 34.7554 35.3141 34.7875 35.3388 34.8079C35.3593 34.8249 35.3847 34.8531 35.4105 34.9233C35.4757 35.1008 35.5 35.4067 35.5 36Z"
      fill="#444243" stroke="#101010" />
    <line x1="0.5" y1="-0.5" x2="3.97214" y2="-0.5"
      transform="matrix(0.894427 0.447214 0.447214 -0.894427 14 18)" stroke="black"
      stroke-linecap="round" />
    <line x1="24.7764" y1="18.6708" x2="21.6708" y2="20.2236" stroke="black" stroke-linecap="round" />
  </g>
</svg>