<svg width="422" height="169" viewBox="0 0 422 169" fill="none" xmlns="http://www.w3.org/2000/svg">
  <rect width="422" height="169" fill="#2A2A2A"/>
  <path d="M231.542 54.2447L214.625 63.9113C217.042 65.1197 222.338 68.1874 227.917 66.328C231.542 65.1197 232.75 57.8697 231.542 54.2447Z" fill="white"/>
  <path d="M226.202 64.6808L222.204 57.4443L226.119 56.4135L226.202 64.6808Z" fill="#2A2A2A"/>
  <path d="M190.912 54.2447L207.828 63.9113C205.411 65.1197 200.115 68.1874 194.536 66.328C190.912 65.1197 189.703 57.8697 190.912 54.2447Z" fill="white"/>
  <path d="M196.25 64.6808L200.249 57.4443L196.334 56.4135L196.25 64.6808Z" fill="#2A2A2A"/>
  <path d="M40.156 113C39.004 113 37.964 112.736 37.036 112.208C36.124 111.664 35.396 110.928 34.852 110C34.324 109.072 34.06 108.032 34.06 106.88C34.06 106.528 34.172 106.24 34.396 106.016C34.62 105.776 34.908 105.656 35.26 105.656C35.612 105.656 35.908 105.776 36.148 106.016C36.388 106.24 36.508 106.528 36.508 106.88C36.508 107.568 36.668 108.192 36.988 108.752C37.308 109.312 37.74 109.752 38.284 110.072C38.844 110.392 39.468 110.552 40.156 110.552C40.86 110.552 41.484 110.392 42.028 110.072C42.588 109.752 43.028 109.312 43.348 108.752C43.668 108.192 43.828 107.568 43.828 106.88C43.828 106.176 43.668 105.552 43.348 105.008C43.028 104.448 42.588 104.008 42.028 103.688C41.484 103.368 40.86 103.208 40.156 103.208H36.148C35.796 103.208 35.508 103.096 35.284 102.872C35.06 102.632 34.948 102.336 34.948 101.984V95.504C34.948 95.152 35.06 94.856 35.284 94.616C35.508 94.376 35.796 94.256 36.148 94.256H44.164C44.5 94.256 44.788 94.384 45.028 94.64C45.268 94.88 45.388 95.168 45.388 95.504C45.388 95.824 45.268 96.104 45.028 96.344C44.804 96.584 44.516 96.704 44.164 96.704H37.372V100.76H40.156C41.324 100.76 42.364 101.032 43.276 101.576C44.204 102.104 44.932 102.832 45.46 103.76C46.004 104.672 46.276 105.712 46.276 106.88C46.276 108.032 46.004 109.072 45.46 110C44.932 110.928 44.204 111.664 43.276 112.208C42.364 112.736 41.324 113 40.156 113ZM54.5298 113C53.3138 113 52.2738 112.632 51.4098 111.896C50.5618 111.144 49.9138 110.072 49.4658 108.68C49.0178 107.272 48.7938 105.584 48.7938 103.616C48.7938 101.648 49.0178 99.968 49.4658 98.576C49.9138 97.168 50.5618 96.096 51.4098 95.36C52.2738 94.608 53.3138 94.232 54.5298 94.232C55.7458 94.232 56.7778 94.616 57.6258 95.384C58.4898 96.136 59.1458 97.216 59.5938 98.624C60.0417 100.016 60.2657 101.68 60.2657 103.616C60.2657 105.552 60.0417 107.224 59.5938 108.632C59.1458 110.024 58.4898 111.104 57.6258 111.872C56.7778 112.624 55.7458 113 54.5298 113ZM54.5298 110.504C55.2658 110.504 55.8738 110.208 56.3538 109.616C56.8338 109.008 57.1938 108.184 57.4338 107.144C57.6738 106.104 57.7938 104.928 57.7938 103.616C57.7938 102.304 57.6738 101.128 57.4338 100.088C57.1938 99.048 56.8338 98.224 56.3538 97.616C55.8738 97.008 55.2658 96.704 54.5298 96.704C53.7938 96.704 53.1858 97.008 52.7058 97.616C52.2258 98.208 51.8658 99.024 51.6258 100.064C51.3858 101.104 51.2658 102.288 51.2658 103.616C51.2658 104.944 51.3858 106.128 51.6258 107.168C51.8658 108.208 52.2258 109.024 52.7058 109.616C53.2018 110.208 53.8098 110.504 54.5298 110.504ZM68.4048 113C67.1888 113 66.1488 112.632 65.2848 111.896C64.4368 111.144 63.7888 110.072 63.3408 108.68C62.8928 107.272 62.6688 105.584 62.6688 103.616C62.6688 101.648 62.8928 99.968 63.3408 98.576C63.7888 97.168 64.4368 96.096 65.2848 95.36C66.1488 94.608 67.1888 94.232 68.4048 94.232C69.6208 94.232 70.6528 94.616 71.5008 95.384C72.3648 96.136 73.0208 97.216 73.4688 98.624C73.9167 100.016 74.1407 101.68 74.1407 103.616C74.1407 105.552 73.9167 107.224 73.4688 108.632C73.0208 110.024 72.3648 111.104 71.5008 111.872C70.6528 112.624 69.6208 113 68.4048 113ZM68.4048 110.504C69.1408 110.504 69.7488 110.208 70.2288 109.616C70.7088 109.008 71.0688 108.184 71.3088 107.144C71.5488 106.104 71.6688 104.928 71.6688 103.616C71.6688 102.304 71.5488 101.128 71.3088 100.088C71.0688 99.048 70.7088 98.224 70.2288 97.616C69.7488 97.008 69.1408 96.704 68.4048 96.704C67.6688 96.704 67.0608 97.008 66.5808 97.616C66.1008 98.208 65.7408 99.024 65.5008 100.064C65.2608 101.104 65.1408 102.288 65.1408 103.616C65.1408 104.944 65.2608 106.128 65.5008 107.168C65.7408 108.208 66.1008 109.024 66.5808 109.616C67.0768 110.208 67.6848 110.504 68.4048 110.504Z" fill="white"/>
  <path d="M97.318 112.42C95.778 112.42 94.224 112.224 92.656 111.832C91.088 111.44 89.688 110.88 88.456 110.152C87.252 109.396 86.398 108.514 85.894 107.506C85.866 106.974 85.838 106.442 85.81 105.91C85.81 105.378 86.034 104.972 86.482 104.692C86.958 104.384 87.434 104.3 87.91 104.44C88.414 104.552 88.848 104.846 89.212 105.322C89.94 106.218 91.018 106.988 92.446 107.632C93.902 108.276 95.498 108.598 97.234 108.598C98.718 108.598 100.02 108.332 101.14 107.8C102.288 107.268 103.184 106.526 103.828 105.574C104.5 104.594 104.836 103.488 104.836 102.256C104.836 100.548 104.248 99.176 103.072 98.14C101.896 97.104 100.37 96.586 98.494 96.586H95.722C95.19 96.586 94.756 96.404 94.42 96.04C94.084 95.676 93.916 95.228 93.916 94.696C93.916 94.108 94.084 93.632 94.42 93.268C94.756 92.904 95.19 92.722 95.722 92.722H97.864C99.348 92.722 100.594 92.246 101.602 91.294C102.61 90.342 103.114 89.082 103.114 87.514C103.114 85.834 102.526 84.602 101.35 83.818C100.174 83.006 98.662 82.6 96.814 82.6C95.442 82.6 94.154 82.852 92.95 83.356C91.774 83.86 90.738 84.644 89.842 85.708C89.366 86.324 88.876 86.73 88.372 86.926C87.868 87.122 87.35 87.038 86.818 86.674C86.426 86.394 86.16 86.002 86.02 85.498C85.88 84.966 85.964 84.476 86.272 84.028C87.336 82.516 88.736 81.27 90.472 80.29C92.236 79.282 94.35 78.778 96.814 78.778C98.886 78.778 100.706 79.156 102.274 79.912C103.842 80.64 105.074 81.634 105.97 82.894C106.866 84.126 107.314 85.526 107.314 87.094C107.314 88.354 107.034 89.488 106.474 90.496C105.942 91.476 105.256 92.316 104.416 93.016C103.604 93.688 102.75 94.206 101.854 94.57C100.958 94.906 100.174 95.074 99.502 95.074V93.73C100.258 93.73 101.168 93.884 102.232 94.192C103.296 94.472 104.346 94.948 105.382 95.62C106.446 96.292 107.314 97.202 107.986 98.35C108.686 99.47 109.036 100.856 109.036 102.508C109.036 104.356 108.518 106.036 107.482 107.548C106.474 109.032 105.088 110.222 103.324 111.118C101.56 111.986 99.558 112.42 97.318 112.42ZM113.06 112C112.276 112 111.674 111.664 111.254 110.992C110.834 110.32 110.792 109.606 111.128 108.85L122.93 80.668C123.35 79.688 124.036 79.198 124.988 79.198C125.996 79.198 126.682 79.688 127.046 80.668L138.89 108.934C139.198 109.718 139.156 110.432 138.764 111.076C138.4 111.692 137.812 112 137 112C136.58 112 136.174 111.888 135.782 111.664C135.418 111.412 135.152 111.076 134.984 110.656L124.484 84.784H125.828L115.076 110.656C114.88 111.104 114.586 111.44 114.194 111.664C113.83 111.888 113.452 112 113.06 112ZM158.479 112.42C156.015 112.42 153.761 112.014 151.717 111.202C149.673 110.362 147.909 109.2 146.425 107.716C144.969 106.204 143.835 104.426 143.023 102.382C142.211 100.31 141.805 98.042 141.805 95.578C141.805 93.114 142.211 90.86 143.023 88.816C143.835 86.772 144.969 85.008 146.425 83.524C147.909 82.012 149.673 80.85 151.717 80.038C153.761 79.198 156.015 78.778 158.479 78.778C160.943 78.778 163.183 79.198 165.199 80.038C167.243 80.85 169.007 82.012 170.491 83.524C171.975 85.008 173.123 86.772 173.935 88.816C174.747 90.86 175.153 93.114 175.153 95.578C175.153 98.042 174.747 100.31 173.935 102.382C173.123 104.426 171.975 106.204 170.491 107.716C169.007 109.2 167.243 110.362 165.199 111.202C163.183 112.014 160.943 112.42 158.479 112.42ZM158.479 108.472C160.299 108.472 161.965 108.15 163.477 107.506C165.017 106.834 166.347 105.924 167.467 104.776C168.587 103.6 169.441 102.228 170.029 100.66C170.645 99.092 170.953 97.398 170.953 95.578C170.953 93.758 170.645 92.064 170.029 90.496C169.441 88.928 168.587 87.57 167.467 86.422C166.347 85.246 165.017 84.336 163.477 83.692C161.965 83.048 160.299 82.726 158.479 82.726C156.659 82.726 154.979 83.048 153.439 83.692C151.927 84.336 150.611 85.246 149.491 86.422C148.399 87.57 147.545 88.928 146.929 90.496C146.313 92.064 146.005 93.758 146.005 95.578C146.005 97.398 146.313 99.092 146.929 100.66C147.545 102.228 148.399 103.6 149.491 104.776C150.611 105.924 151.927 106.834 153.439 107.506C154.979 108.15 156.659 108.472 158.479 108.472ZM184.179 112C183.563 112 183.045 111.79 182.625 111.37C182.205 110.95 181.995 110.432 181.995 109.816V81.382C181.995 80.738 182.205 80.22 182.625 79.828C183.045 79.408 183.563 79.198 184.179 79.198H201.987C202.547 79.198 203.009 79.394 203.373 79.786C203.765 80.15 203.961 80.64 203.961 81.256C203.961 81.816 203.765 82.292 203.373 82.684C203.009 83.048 202.547 83.23 201.987 83.23H186.363V92.68H195.939C198.039 92.68 199.901 93.086 201.525 93.898C203.149 94.682 204.409 95.788 205.305 97.216C206.229 98.616 206.691 100.24 206.691 102.088C206.691 104.02 206.229 105.728 205.305 107.212C204.409 108.696 203.149 109.872 201.525 110.74C199.901 111.58 198.039 112 195.939 112H184.179ZM186.363 107.968H195.939C197.227 107.968 198.361 107.744 199.341 107.296C200.321 106.848 201.091 106.19 201.651 105.322C202.211 104.454 202.491 103.376 202.491 102.088C202.491 100.8 202.211 99.75 201.651 98.938C201.091 98.098 200.321 97.482 199.341 97.09C198.361 96.67 197.227 96.46 195.939 96.46H186.363V107.968ZM215.392 112C214.776 112 214.258 111.79 213.838 111.37C213.418 110.95 213.208 110.432 213.208 109.816V81.382C213.208 80.738 213.418 80.22 213.838 79.828C214.258 79.408 214.776 79.198 215.392 79.198C216.036 79.198 216.554 79.408 216.946 79.828C217.366 80.22 217.576 80.738 217.576 81.382V93.436H237.064V81.382C237.064 80.738 237.274 80.22 237.694 79.828C238.114 79.408 238.632 79.198 239.248 79.198C239.892 79.198 240.41 79.408 240.802 79.828C241.194 80.22 241.39 80.738 241.39 81.382V109.816C241.39 110.432 241.194 110.95 240.802 111.37C240.41 111.79 239.892 112 239.248 112C238.632 112 238.114 111.79 237.694 111.37C237.274 110.95 237.064 110.432 237.064 109.816V97.3H217.576V109.816C217.576 110.432 217.366 110.95 216.946 111.37C216.554 111.79 216.036 112 215.392 112ZM251.978 112C251.362 112 250.844 111.79 250.424 111.37C250.004 110.95 249.794 110.432 249.794 109.816V81.172C249.794 80.584 250.004 80.108 250.424 79.744C250.844 79.38 251.362 79.198 251.978 79.198C252.622 79.198 253.14 79.38 253.532 79.744C253.952 80.108 254.162 80.584 254.162 81.172V91.84H261.218C263.318 91.84 265.18 92.26 266.804 93.1C268.428 93.94 269.688 95.102 270.584 96.586C271.508 98.042 271.97 99.736 271.97 101.668C271.97 103.684 271.508 105.476 270.584 107.044C269.688 108.584 268.428 109.802 266.804 110.698C265.18 111.566 263.318 112 261.218 112H251.978ZM254.162 107.968H261.218C262.506 107.968 263.64 107.73 264.62 107.254C265.6 106.778 266.37 106.078 266.93 105.154C267.49 104.202 267.77 103.04 267.77 101.668C267.77 100.268 267.49 99.134 266.93 98.266C266.37 97.37 265.6 96.712 264.62 96.292C263.64 95.844 262.506 95.62 261.218 95.62H254.162V107.968ZM279.068 112C278.452 112 277.934 111.79 277.514 111.37C277.094 110.95 276.884 110.432 276.884 109.816V81.382C276.884 80.738 277.094 80.22 277.514 79.828C277.934 79.408 278.452 79.198 279.068 79.198C279.684 79.198 280.188 79.408 280.58 79.828C281 80.22 281.21 80.738 281.21 81.382V109.816C281.21 110.432 281 110.95 280.58 111.37C280.188 111.79 279.684 112 279.068 112ZM289.494 112C288.85 112 288.36 111.804 288.024 111.412C287.688 110.992 287.52 110.516 287.52 109.984C287.52 109.424 287.688 108.92 288.024 108.472L298.608 94.36L300.498 92.68L310.158 79.828C310.55 79.408 311.068 79.198 311.712 79.198C312.3 79.198 312.762 79.38 313.098 79.744C313.434 80.108 313.616 80.556 313.644 81.088C313.672 81.62 313.518 82.138 313.182 82.642L302.976 96.25L301.17 97.846L291.006 111.37C290.586 111.79 290.082 112 289.494 112ZM311.46 112C311.096 112 310.774 111.944 310.494 111.832C310.242 111.692 310.004 111.482 309.78 111.202L299.994 97.636L298.44 96.334L288.57 82.642C288.234 82.194 288.094 81.704 288.15 81.172C288.206 80.64 288.402 80.178 288.738 79.786C289.102 79.394 289.578 79.198 290.166 79.198C290.894 79.198 291.412 79.408 291.72 79.828L301.044 92.764L302.64 94.066L313.014 108.472C313.35 108.92 313.504 109.424 313.476 109.984C313.448 110.544 313.252 111.02 312.888 111.412C312.552 111.804 312.076 112 311.46 112Z" fill="#D71E1E"/>
  <path d="M339.676 112.688C339.452 112.912 339.148 113.016 338.764 113C338.38 113 338.076 112.872 337.852 112.616L329.98 103.448L337.324 94.664C337.548 94.392 337.836 94.256 338.188 94.256C338.556 94.24 338.852 94.36 339.076 94.616C339.3 94.872 339.404 95.144 339.388 95.432C339.388 95.704 339.276 95.968 339.052 96.224L332.98 103.28L339.676 111.056C339.9 111.312 340.02 111.584 340.036 111.872C340.068 112.144 339.948 112.416 339.676 112.688ZM327.148 113C326.796 113 326.5 112.88 326.26 112.64C326.02 112.4 325.9 112.104 325.9 111.752V95.504C325.9 95.136 326.02 94.84 326.26 94.616C326.5 94.376 326.796 94.256 327.148 94.256C327.516 94.256 327.812 94.376 328.036 94.616C328.276 94.84 328.396 95.136 328.396 95.504V102.392H332.332V104.6H328.396V111.752C328.396 112.104 328.276 112.4 328.036 112.64C327.812 112.88 327.516 113 327.148 113ZM342.711 113C342.263 113 341.919 112.808 341.679 112.424C341.439 112.04 341.415 111.632 341.607 111.2L348.351 95.096C348.591 94.536 348.983 94.256 349.527 94.256C350.103 94.256 350.495 94.536 350.703 95.096L357.471 111.248C357.647 111.696 357.615 112.104 357.375 112.472C357.151 112.824 356.807 113 356.343 113C356.103 113 355.871 112.936 355.647 112.808C355.439 112.664 355.287 112.472 355.191 112.232L349.239 97.448H349.911L343.863 112.232C343.751 112.488 343.583 112.68 343.359 112.808C343.151 112.936 342.935 113 342.711 113ZM343.983 108.872L344.943 106.808H354.351L355.311 108.872H343.983ZM361.578 113C361.226 113 360.93 112.88 360.69 112.64C360.45 112.4 360.33 112.104 360.33 111.752V95.504C360.33 95.136 360.45 94.84 360.69 94.616C360.93 94.376 361.226 94.256 361.578 94.256H366.378C367.578 94.256 368.642 94.52 369.57 95.048C370.498 95.576 371.218 96.312 371.73 97.256C372.258 98.184 372.522 99.256 372.522 100.472C372.522 101.64 372.258 102.68 371.73 103.592C371.218 104.504 370.498 105.216 369.57 105.728C368.642 106.24 367.578 106.496 366.378 106.496H362.826V111.752C362.826 112.104 362.706 112.4 362.466 112.64C362.242 112.88 361.946 113 361.578 113ZM362.826 104.192H366.378C367.114 104.192 367.762 104.032 368.322 103.712C368.882 103.392 369.322 102.952 369.642 102.392C369.962 101.832 370.122 101.192 370.122 100.472C370.122 99.704 369.962 99.032 369.642 98.456C369.322 97.864 368.882 97.4 368.322 97.064C367.762 96.728 367.114 96.56 366.378 96.56H362.826V104.192ZM381.061 113C380.709 113 380.413 112.88 380.173 112.64C379.933 112.4 379.813 112.104 379.813 111.752V94.256H382.309V111.752C382.309 112.104 382.189 112.4 381.949 112.64C381.709 112.88 381.413 113 381.061 113ZM374.629 96.56C374.293 96.56 374.013 96.456 373.789 96.248C373.581 96.024 373.477 95.744 373.477 95.408C373.477 95.072 373.581 94.8 373.789 94.592C374.013 94.368 374.293 94.256 374.629 94.256H387.469C387.805 94.256 388.077 94.368 388.285 94.592C388.509 94.8 388.621 95.072 388.621 95.408C388.621 95.744 388.509 96.024 388.285 96.248C388.077 96.456 387.805 96.56 387.469 96.56H374.629Z" fill="white"/>
  <path d="M176.584 134.072C175.612 134.072 174.754 133.862 174.01 133.442C173.266 133.01 172.678 132.422 172.246 131.678C171.826 130.922 171.616 130.058 171.616 129.086C171.616 128.102 171.826 127.238 172.246 126.494C172.678 125.738 173.266 125.15 174.01 124.73C174.754 124.298 175.612 124.082 176.584 124.082C177.544 124.082 178.396 124.298 179.14 124.73C179.884 125.15 180.466 125.738 180.886 126.494C181.318 127.238 181.534 128.102 181.534 129.086C181.534 130.058 181.324 130.922 180.904 131.678C180.484 132.422 179.902 133.01 179.158 133.442C178.414 133.862 177.556 134.072 176.584 134.072ZM176.584 132.452C177.208 132.452 177.76 132.308 178.24 132.02C178.72 131.732 179.092 131.336 179.356 130.832C179.632 130.328 179.77 129.746 179.77 129.086C179.77 128.426 179.632 127.844 179.356 127.34C179.092 126.824 178.72 126.422 178.24 126.134C177.76 125.846 177.208 125.702 176.584 125.702C175.96 125.702 175.408 125.846 174.928 126.134C174.448 126.422 174.07 126.824 173.794 127.34C173.518 127.844 173.38 128.426 173.38 129.086C173.38 129.746 173.518 130.328 173.794 130.832C174.07 131.336 174.448 131.732 174.928 132.02C175.408 132.308 175.96 132.452 176.584 132.452ZM194.346 134C194.082 134 193.86 133.916 193.68 133.748C193.512 133.568 193.428 133.346 193.428 133.082V125.072C193.428 124.796 193.512 124.574 193.68 124.406C193.86 124.238 194.082 124.154 194.346 124.154C194.622 124.154 194.838 124.238 194.994 124.406C195.15 124.574 195.228 124.796 195.228 125.072V133.082C195.228 133.346 195.15 133.568 194.994 133.748C194.838 133.916 194.622 134 194.346 134ZM186.948 134C186.684 134 186.468 133.916 186.3 133.748C186.144 133.568 186.066 133.346 186.066 133.082V125.072C186.066 124.796 186.144 124.574 186.3 124.406C186.468 124.238 186.684 124.154 186.948 124.154C187.224 124.154 187.446 124.238 187.614 124.406C187.782 124.574 187.866 124.796 187.866 125.072V133.082C187.866 133.346 187.782 133.568 187.614 133.748C187.446 133.916 187.224 134 186.948 134ZM187.632 129.698V128.078H193.95V129.698H187.632ZM203.967 124.172C204.147 124.172 204.309 124.22 204.453 124.316C204.597 124.412 204.711 124.562 204.795 124.766L208.503 132.812C208.611 133.052 208.623 133.268 208.539 133.46C208.455 133.64 208.311 133.778 208.107 133.874C207.843 133.994 207.615 134.024 207.423 133.964C207.231 133.904 207.069 133.754 206.937 133.514L203.553 125.828H204.471L200.979 133.514C200.871 133.742 200.709 133.892 200.493 133.964C200.289 134.024 200.061 133.994 199.809 133.874C199.581 133.766 199.419 133.622 199.323 133.442C199.239 133.262 199.257 133.052 199.377 132.812L203.103 124.766C203.283 124.37 203.571 124.172 203.967 124.172ZM216.745 134.072C215.869 134.072 215.083 133.856 214.387 133.424C213.691 132.98 213.139 132.386 212.731 131.642C212.335 130.886 212.137 130.034 212.137 129.086C212.137 128.138 212.353 127.286 212.785 126.53C213.229 125.774 213.823 125.18 214.567 124.748C215.323 124.304 216.169 124.082 217.105 124.082C218.041 124.082 218.881 124.304 219.625 124.748C220.369 125.18 220.957 125.774 221.389 126.53C221.833 127.286 222.055 128.138 222.055 129.086H221.353C221.353 130.034 221.149 130.886 220.741 131.642C220.345 132.386 219.799 132.98 219.103 133.424C218.407 133.856 217.621 134.072 216.745 134.072ZM217.105 132.452C217.717 132.452 218.263 132.308 218.743 132.02C219.223 131.72 219.601 131.318 219.877 130.814C220.153 130.298 220.291 129.722 220.291 129.086C220.291 128.438 220.153 127.862 219.877 127.358C219.601 126.842 219.223 126.44 218.743 126.152C218.263 125.852 217.717 125.702 217.105 125.702C216.505 125.702 215.959 125.852 215.467 126.152C214.987 126.44 214.603 126.842 214.315 127.358C214.039 127.862 213.901 128.438 213.901 129.086C213.901 129.722 214.039 130.298 214.315 130.814C214.603 131.318 214.987 131.72 215.467 132.02C215.959 132.308 216.505 132.452 217.105 132.452ZM221.137 134.018C220.873 134.018 220.651 133.934 220.471 133.766C220.303 133.586 220.219 133.364 220.219 133.1V130.346L220.561 128.438L222.055 129.086V133.1C222.055 133.364 221.965 133.586 221.785 133.766C221.617 133.934 221.401 134.018 221.137 134.018ZM230.728 134.09C229.9 134.09 229.156 133.916 228.496 133.568C227.848 133.208 227.332 132.686 226.948 132.002C226.576 131.318 226.39 130.478 226.39 129.482V125.054C226.39 124.79 226.474 124.574 226.642 124.406C226.822 124.226 227.044 124.136 227.308 124.136C227.572 124.136 227.788 124.226 227.956 124.406C228.136 124.574 228.226 124.79 228.226 125.054V129.482C228.226 130.154 228.352 130.712 228.604 131.156C228.856 131.588 229.198 131.912 229.63 132.128C230.062 132.332 230.548 132.434 231.088 132.434C231.604 132.434 232.06 132.332 232.456 132.128C232.864 131.924 233.188 131.648 233.428 131.3C233.668 130.952 233.788 130.562 233.788 130.13H234.922C234.922 130.874 234.736 131.546 234.364 132.146C234.004 132.746 233.506 133.22 232.87 133.568C232.246 133.916 231.532 134.09 230.728 134.09ZM234.706 134C234.442 134 234.22 133.916 234.04 133.748C233.872 133.568 233.788 133.346 233.788 133.082V125.054C233.788 124.778 233.872 124.556 234.04 124.388C234.22 124.22 234.442 124.136 234.706 124.136C234.982 124.136 235.204 124.22 235.372 124.388C235.54 124.556 235.624 124.778 235.624 125.054V133.082C235.624 133.346 235.54 133.568 235.372 133.748C235.204 133.916 234.982 134 234.706 134ZM231.106 122.858C230.494 122.858 229.942 122.756 229.45 122.552C228.958 122.336 228.568 122.048 228.28 121.688C227.992 121.316 227.848 120.902 227.848 120.446C227.848 120.194 227.926 119.984 228.082 119.816C228.238 119.648 228.43 119.564 228.658 119.564C228.898 119.564 229.09 119.648 229.234 119.816C229.39 119.984 229.468 120.194 229.468 120.446C229.468 120.746 229.624 121.004 229.936 121.22C230.248 121.424 230.638 121.526 231.106 121.526C231.574 121.526 231.964 121.424 232.276 121.22C232.588 121.004 232.744 120.746 232.744 120.446C232.744 120.194 232.822 119.984 232.978 119.816C233.134 119.648 233.326 119.564 233.554 119.564C233.794 119.564 233.986 119.648 234.13 119.816C234.286 119.984 234.364 120.194 234.364 120.446C234.364 120.902 234.22 121.316 233.932 121.688C233.644 122.048 233.254 122.336 232.762 122.552C232.282 122.756 231.73 122.858 231.106 122.858ZM248.937 134C248.673 134 248.451 133.916 248.271 133.748C248.103 133.568 248.019 133.346 248.019 133.082V125.072C248.019 124.796 248.103 124.574 248.271 124.406C248.451 124.238 248.673 124.154 248.937 124.154C249.213 124.154 249.429 124.238 249.585 124.406C249.741 124.574 249.819 124.796 249.819 125.072V133.082C249.819 133.346 249.741 133.568 249.585 133.748C249.429 133.916 249.213 134 248.937 134ZM241.539 134C241.275 134 241.059 133.916 240.891 133.748C240.735 133.568 240.657 133.346 240.657 133.082V125.072C240.657 124.796 240.735 124.574 240.891 124.406C241.059 124.238 241.275 124.154 241.539 124.154C241.815 124.154 242.037 124.238 242.205 124.406C242.373 124.574 242.457 124.796 242.457 125.072V133.082C242.457 133.346 242.373 133.568 242.205 133.748C242.037 133.916 241.815 134 241.539 134ZM242.223 129.698V128.078H248.541V129.698H242.223Z" fill="white"/>
  </svg>
  