<svg xmlns="http://www.w3.org/2000/svg" width="48" height="48" viewBox="0 0 48 48" fill="none">
  <defs>
    <clipPath id="mask">
      <circle cx="24" cy="24" r="24"></circle>
    </clipPath>
  </defs>
  <g clip-path="url(#mask)">
    <circle cx="24" cy="24" r="24" fill="#D4D4D4" />
    <path
      d="M3.96157 26.3609C3.61204 24.4416 3.17053 22.907 2.83988 21.7577C2.71693 21.3304 2.60931 20.9564 2.52744 20.6356C2.36727 20.008 2.3249 19.6527 2.36437 19.4531C2.37962 19.376 2.40199 19.3523 2.41551 19.3403C2.43573 19.3224 2.49325 19.2837 2.64041 19.2569C2.70584 19.245 2.77001 19.233 2.83303 19.2213C3.61098 19.076 4.21484 18.9633 4.86438 19.4065C5.60715 19.9134 6.49678 21.2223 7.40935 24.4743C7.80375 26.6719 7.33897 28.8103 6.57592 30.438C6.19343 31.254 5.74235 31.9278 5.3025 32.4077C4.84762 32.9039 4.45928 33.1341 4.21417 33.1787C4.15744 33.189 4.1154 33.1935 4.08532 33.1952C4.07686 33.1379 4.0713 33.0474 4.07527 32.9086C4.08076 32.7167 4.10212 32.4797 4.13092 32.1791C4.13368 32.1502 4.1365 32.121 4.13935 32.0913C4.25514 30.8875 4.43859 28.9803 3.96157 26.3609Z"
      fill="#444243" stroke="#101010" />
    <path
      d="M34.4202 40.3919C35.1646 39.0042 35.4799 38.3735 36.1106 37.5852C36.0899 28.7844 36.8989 21.6606 40.3676 21.6606C42.4173 21.3454 47.8747 23.3109 46.832 27.3367C45.413 30.1748 42.8903 29.3864 40.6829 26.233C40.4825 26.3132 40.4043 26.3118 40.3993 26.2652C39.4111 26.777 39.5137 31.5845 39.1063 34.7471C38.752 37.4973 35.7277 42.4285 34.424 41.9845L34.4202 40.3919Z"
      fill="#444243" />
    <path
      d="M40.6829 26.233C42.8903 29.3864 45.413 30.1748 46.832 27.3367C47.8747 23.3109 42.4173 21.3454 40.3676 21.6606C36.8989 21.6606 36.0899 28.7844 36.1106 37.5852C35.4799 38.3735 35.1646 39.0042 34.4202 40.3919L34.424 41.9845C35.7277 42.4285 38.752 37.4973 39.1063 34.7471C39.5491 31.3095 39.3894 25.9284 40.6829 26.233ZM40.6829 26.233C39.8946 26.5484 40.9983 25.6023 40.9983 25.6023"
      stroke="#101010" stroke-width="1.5" stroke-linecap="round" />
    <path
      d="M6.66266 27.6752C5.89138 28.7644 5.43312 29.7903 2.21539 41.4854C1.395 44.4672 3.0551 48.5299 4.88377 49.1752C7.5521 50.1168 11.7945 51.9201 25.7861 52C32.4571 52 34.9022 46.9642 35.7185 45.4088C36.4597 43.9963 35.5429 27.3382 35.1894 25.635C34.5707 22.6533 34.6426 20.5034 34.6807 21.3978C34.7908 19.0909 35.602 14.2809 35.1894 14.1611C34.8766 14.0702 31.8355 16.1845 30.5189 17.9955C27.6016 15.2395 25.0449 15.2774 24.2574 15.1197C23.6303 14.9941 20.7994 15.0006 19.4116 15.1204C19.5599 14.3358 19.8564 12.4526 19.8564 12.4526L20.386 9.36875C20.4033 9.26785 20.2762 9.209 20.211 9.2879C19.1387 10.5846 14.6842 15.9864 11.7029 19.8285L9.47929 22.9672L7.55212 25.9489L6.66266 27.6752Z"
      fill="#444243" />
    <path
      d="M19.4102 17.0369C19.3967 16.5358 19.4206 15.8244 19.4116 15.1204M29.9297 19.5533C29.8549 19.1189 30.0994 18.5726 30.5189 17.9955M19.4116 15.1204C19.5599 14.3358 19.8564 12.4526 19.8564 12.4526L20.386 9.36875C20.4033 9.26785 20.2762 9.209 20.211 9.2879C19.1387 10.5846 14.6842 15.9864 11.7029 19.8285L9.47929 22.9672L7.55212 25.9489L6.66266 27.6752C5.89138 28.7644 5.43312 29.7903 2.21539 41.4854C1.395 44.4672 3.0551 48.5299 4.88377 49.1752C7.5521 50.1168 11.7945 51.9201 25.7861 52C32.4571 52 34.9022 46.9642 35.7185 45.4088C36.4597 43.9963 35.5429 27.3382 35.1894 25.635C34.5707 22.6533 34.6426 20.5034 34.6807 21.3978C34.7908 19.0909 35.602 14.2809 35.1894 14.1611C34.8766 14.0702 31.8355 16.1845 30.5189 17.9955M19.4116 15.1204C20.7994 15.0006 23.6303 14.9941 24.2574 15.1197C25.0449 15.2774 27.6016 15.2395 30.5189 17.9955"
      stroke="#101010" stroke-width="1.5" stroke-linecap="round" />
    <ellipse cx="14.9957" cy="23.0926" rx="2.51858" ry="2.64282"
      transform="rotate(11.5217 14.9957 23.0926)" fill="#101010" />
    <path d="M16.7713 25.4646C15.2847 25.1629 14.6089 25.3138 13.9332 25.6155" stroke="#101010"
      stroke-linecap="round" />
    <circle cx="14.4062" cy="21.9892" r="1.10368" fill="white" />
    <circle cx="13.9332" cy="23.4081" r="0.630672" fill="white" />
    <circle cx="15.1947" cy="23.0928" r="0.315336" fill="white" />
    <ellipse cx="23.9957" cy="23.0926" rx="2.51858" ry="2.64282"
      transform="rotate(11.5217 23.9957 23.0926)" fill="#101010" />
    <path d="M26.203 25.6756C24.784 25.1295 23.2073 25.518 22.5767 25.6756" stroke="#101010"
      stroke-linecap="round" />
    <path d="M17.1861 21.9794C16.2002 20.8218 14.6294 20.4102 14 20.2475" stroke="#101010"
      stroke-linecap="round" />
    <circle cx="23.3649" cy="22.1097" r="1.10368" fill="white" />
    <circle cx="22.8919" cy="23.5291" r="0.630672" fill="white" />
    <circle cx="24.1532" cy="23.2138" r="0.315336" fill="white" />
    <path d="M24.6832 20.0001C23.176 20.2005 21.9781 21.2969 21.5001 21.7374" stroke="#101010"
      stroke-linecap="round" />
    <path
      d="M20.0187 24.8853C19.1811 24.5971 18.6227 24.5971 17.5059 24.8855C17.5059 25.0777 18.6095 26.7189 18.9019 27.1919C19.4603 26.327 20.1171 24.9192 20.0187 24.8853Z"
      fill="#101010" />
    <path d="M18.9248 26.561V26.8764V27.1917V27.6647" stroke="#101010" stroke-linecap="round" />
    <path d="M18.9247 27.6652L17.0327 28.1382" stroke="#101010" stroke-linecap="round" />
    <path d="M20.9744 28.1378L18.9248 27.6648" stroke="#101010" stroke-linecap="round" />
    <path
      d="M34.5 21C34.5 21 34.9296 20.6731 35.3836 21.2591C35.3736 21.8982 34.7187 22.4204 34.463 22.4164C34.2073 22.4124 33.99 22.6392 34 22C34 21 34.0189 20.741 34.5 21Z"
      fill="#101010" />
    <path
      d="M27.5 21C27.1 18.6 16.6667 19 11.5 19.5C11.8333 17.8334 12.5 16.5 14 16.5C15.5 16.5001 18 17.0001 20 14.5001C20.5 13.875 23.5 14.0001 26 14.5001C28.6403 15.0281 30.1667 15.6667 30.5 17.0001C30.5 17.6667 28.9201 19.7101 31.5 21C33.5 22 34.5 23.5001 35.5 21.5C35.7236 21.0528 35.5 29 36 30.5C36.5 32 35.5 38 37 41C37.4135 41.8271 37.3333 47.3334 37 47.5L22.5 50L8 45.5C6.5 42.5 3 35.9 3 35.5C3 35.1 7 24 10.5 20.5C10.3333 21.3334 9.65149 24.6515 10.5 25.5C11.5 26.5001 12.4384 27 14.5 27C15.5 27 25.5 27.5 26.5 26.5C28.0811 24.9189 28 24 27.5 21Z"
      fill="white" />
    <path
      d="M7.5 25C8 24 11 18 13 17L13.5 18C13.6667 18.1667 14 18.5 11.5 21.5C9.65343 23.7159 9.66667 25.1667 9.5 25H7.5Z"
      fill="white" />
    <path
      d="M11.5 27C13.9 27.8 15.5001 26.5 18 24C18 23 17 20 15 18C17.3333 17.8333 23.9 18 23.5 18C23 18 20.3292 23.6583 21 25C21.5 26 23 27.6667 24 28.5L21.4999 30.5C18.8332 29.5 9.10002 26.2 11.5 27Z"
      fill="white" />
    <ellipse cx="24.5221" cy="16.2812" rx="3.5" ry="0.5" transform="rotate(13.1168 24.5221 16.2812)"
      fill="#D9D9D9" />
    <path
      d="M31.8461 30.6763C31.3921 30.3278 31.1001 30.0681 30.9231 29.8221C30.7635 29.6002 30.6986 29.3911 30.7193 29.1131C30.7422 28.8068 30.8711 28.3952 31.1685 27.7907C31.4633 27.1914 31.9024 26.4435 32.507 25.4721C33.676 23.5938 34.9185 22.6404 35.9566 22.2477C37.0044 21.8513 37.8217 22.0264 38.2404 22.3479C38.4429 22.5033 38.5273 22.6599 38.5491 22.8477C38.5739 23.0622 38.5228 23.3741 38.3246 23.8325C37.9256 24.7552 37.0339 26.0472 35.603 27.9108C35.0954 28.5719 34.6812 29.1376 34.3396 29.6039C34.1998 29.7948 34.0722 29.969 33.9553 30.1264C33.5376 30.689 33.2779 31.0054 33.0721 31.1703C32.9782 31.2455 32.9211 31.2673 32.8898 31.2745C32.8639 31.2804 32.8261 31.2833 32.7547 31.261C32.5742 31.2046 32.3167 31.0376 31.8461 30.6763Z"
      fill="#444243" stroke="#101010" />
    <path
      d="M31.0001 32.4999C30.3334 31.6666 29.7 29 30.5 27C30.6667 26.6667 31.6001 29.1 32.0001 29.5C32.5001 30 33.5001 29.8332 35.5001 30.9999V31.4999L34.5001 32.9999L31.0001 32.4999Z"
      fill="white" />
    <path
      d="M32 30C31.3333 29.1666 30.2 29 31 27C31.1667 26.6667 31.6 28.6 32 29C32.5 29.5 32 28.8333 34 30L34.5 30.5L33.9999 30.5L32 30Z"
      fill="#4E4C4C" />
    <path
      d="M28.9796 13.4984C29.4606 14.618 27.7283 17.2808 24.6659 16.6098C21.6034 15.9387 21.0722 13.1182 22.0482 11.9796C23.8586 10.3477 23.7172 10.993 25.7966 11.4486C27.6047 11.8447 28.0174 11.2589 28.9796 13.4984Z"
      fill="#D27910" />
    <path
      d="M23.1332 13.4851C22.899 14.5541 23.1531 15.9708 23.1815 15.9795C22.7987 15.8957 22.4583 14.4576 22.6926 13.3885C22.9268 12.3194 24.0274 11.0609 24.4102 11.1447C24.4102 11.1447 23.3675 12.416 23.1332 13.4851Z"
      fill="#DF8821" />
    <path
      d="M27.3641 14.4121C27.1299 15.4812 26.3067 16.6618 26.2772 16.6578C26.66 16.7417 27.5705 15.5777 27.8048 14.5086C28.039 13.4396 27.5655 11.8361 27.1827 11.7522C27.1827 11.7522 27.5983 13.343 27.3641 14.4121Z"
      fill="#DF8821" />
    <path
      d="M25.3698 16.7105C26.3457 15.5719 26.7699 13.6362 26.5009 11.5486L25.9353 14.1296L25.6526 15.42L25.3698 16.7105Z"
      fill="#DF8821" />
    <path
      d="M23.8103 16.3689C23.3999 14.9265 23.824 12.9908 24.9413 11.2069L24.3758 13.7879L24.093 15.0784L23.8103 16.3689Z"
      fill="#DF8821" />
    <path
      d="M25.7681 11.3927C25.7095 10.997 25.2918 10.4523 25.1269 10.4768C25.1269 10.4768 24.647 10.6489 24.7056 11.0446C24.73 11.2095 26.1894 10.8248 26.1161 10.3302"
      stroke="#117109" stroke-width="0.2" />
    <path
      d="M26.2124 11.5395L25.5193 11.3876C25.5664 11.1726 25.7993 10.7728 26.3538 10.8943C26.9083 11.0158 26.2595 11.3245 26.2124 11.5395Z"
      fill="#117109" />
    <path d="M24.0281 12.1549L24.0093 13.5567L23.2031 13.2883L24.0281 12.1549Z" fill="#101010" />
    <path d="M25.5188 12.5982L25.5 14L24.6937 13.7316L25.5188 12.5982Z" fill="#101010" />
    <path d="M24.11 14.5339L24.0224 13.7809L24.5931 13.9497L24.11 14.5339Z" fill="#101010" />
    <path
      d="M25.5 14.5C25.449 14.5492 24.551 14.9508 24.051 14.9508C23.4987 14.9508 22.7897 14.1141 22.7897 14.3054C22.7897 14.5816 23.4987 15.4508 24.051 15.4508C24.6033 15.4508 25.5 14.7761 25.5 14.5Z"
      fill="#101010" />
  </g>
</svg>