<svg width="48" height="48" viewBox="0 0 48 48" fill="none" xmlns="http://www.w3.org/2000/svg">
  <mask id="mask0_55_44" style="mask-type:alpha" maskUnits="userSpaceOnUse" x="0" y="0" width="48"
    height="48">
    <rect width="48" height="48" rx="24" fill="#E9E9E9" />
  </mask>
  <g mask="url(#mask0_55_44)">
    <path
      d="M6.23175 29.3779C5.36199 31.1242 4.79635 32.6175 4.37272 33.7358C4.21521 34.1516 4.07733 34.5156 3.95074 34.8215C3.70309 35.42 3.52416 35.73 3.37301 35.8661C3.31461 35.9187 3.28249 35.9243 3.26449 35.9258C3.23758 35.9281 3.16837 35.9245 3.03448 35.8579C2.97495 35.8282 2.91639 35.7994 2.85888 35.771C2.14893 35.4214 1.59785 35.1499 1.34323 34.4059C1.05205 33.5551 1.12368 31.9742 2.34085 28.8235C3.34141 26.8274 4.99441 25.3936 6.58044 24.5472C7.37548 24.1229 8.14027 23.8535 8.77993 23.7328C9.44143 23.6078 9.89025 23.6561 10.1133 23.7672C10.1649 23.7929 10.2012 23.8145 10.2263 23.8312C10.1988 23.8821 10.149 23.958 10.0627 24.0667C9.94335 24.2171 9.78428 24.3941 9.58116 24.6176C9.56167 24.639 9.54188 24.6607 9.52181 24.6828C8.70804 25.5774 7.41874 26.9947 6.23175 29.3779Z"
      fill="#444243" stroke="#101010" />
    <path
      d="M34.4203 40.3919C35.1647 39.0042 35.48 38.3735 36.1107 37.5852C36.09 28.7844 36.8991 21.6606 40.3677 21.6606C42.4174 21.3454 47.8748 23.3109 46.8321 27.3367C45.4131 30.1748 42.8904 29.3864 40.683 26.233C40.4826 26.3132 40.4045 26.3118 40.3994 26.2652C39.4112 26.777 39.5138 31.5845 39.1064 34.7471C38.7521 37.4973 35.7278 42.4285 34.4241 41.9845L34.4203 40.3919Z"
      fill="#444243" />
    <path
      d="M40.683 26.233C42.8904 29.3864 45.4131 30.1748 46.8321 27.3367C47.8748 23.3109 42.4174 21.3454 40.3677 21.6606C36.8991 21.6606 36.09 28.7844 36.1107 37.5852C35.48 38.3735 35.1647 39.0042 34.4203 40.3919L34.4241 41.9845C35.7278 42.4285 38.7521 37.4973 39.1064 34.7471C39.5492 31.3095 39.3895 25.9284 40.683 26.233ZM40.683 26.233C39.8947 26.5484 40.9984 25.6023 40.9984 25.6023"
      stroke="#101010" stroke-width="1.5" stroke-linecap="round" />
    <path
      d="M6.66266 27.6752C5.89138 28.7644 5.43312 29.7903 2.21539 41.4854C1.395 44.4672 3.0551 48.5299 4.88377 49.1752C7.5521 50.1168 11.7945 51.9201 25.7861 52C32.4571 52 34.9022 46.9642 35.7185 45.4088C36.4597 43.9963 35.5429 27.3382 35.1894 25.635C34.5707 22.6533 34.6426 20.5034 34.6807 21.3978C34.7908 19.0909 35.602 14.2809 35.1894 14.1611C34.8766 14.0702 31.8355 16.1845 30.5189 17.9955C27.6016 15.2395 25.0449 15.2774 24.2574 15.1197C23.6303 14.9941 20.7994 15.0006 19.4116 15.1204C19.5599 14.3358 19.8564 12.4526 19.8564 12.4526L20.386 9.36875C20.4033 9.26785 20.2762 9.209 20.211 9.2879C19.1387 10.5846 14.6842 15.9864 11.7029 19.8285L9.47929 22.9672L7.55212 25.9489L6.66266 27.6752Z"
      fill="#444243" />
    <path
      d="M19.4102 17.0369C19.3967 16.5358 19.4206 15.8244 19.4116 15.1204M29.9297 19.5533C29.8549 19.1189 30.0994 18.5726 30.5189 17.9955M19.4116 15.1204C19.5599 14.3358 19.8564 12.4526 19.8564 12.4526L20.386 9.36875C20.4033 9.26785 20.2762 9.209 20.211 9.2879C19.1387 10.5846 14.6842 15.9864 11.7029 19.8285L9.47929 22.9672L7.55212 25.9489L6.66266 27.6752C5.89138 28.7644 5.43312 29.7903 2.21539 41.4854C1.395 44.4672 3.0551 48.5299 4.88377 49.1752C7.5521 50.1168 11.7945 51.9201 25.7861 52C32.4571 52 34.9022 46.9642 35.7185 45.4088C36.4597 43.9963 35.5429 27.3382 35.1894 25.635C34.5707 22.6533 34.6426 20.5034 34.6807 21.3978C34.7908 19.0909 35.602 14.2809 35.1894 14.1611C34.8766 14.0702 31.8355 16.1845 30.5189 17.9955M19.4116 15.1204C20.7994 15.0006 23.6303 14.9941 24.2574 15.1197C25.0449 15.2774 27.6016 15.2395 30.5189 17.9955"
      stroke="#101010" stroke-width="1.5" stroke-linecap="round" />
    <ellipse cx="14.9957" cy="23.0926" rx="2.51858" ry="2.64282"
      transform="rotate(11.5217 14.9957 23.0926)" fill="#101010" />
    <path d="M16.7713 25.4646C15.2847 25.1629 14.6089 25.3138 13.9332 25.6155" stroke="#101010"
      stroke-linecap="round" />
    <circle cx="14.4062" cy="21.9892" r="1.10368" fill="white" />
    <circle cx="13.9332" cy="23.4081" r="0.630672" fill="white" />
    <circle cx="15.1947" cy="23.0928" r="0.315336" fill="white" />
    <ellipse cx="23.9957" cy="23.0926" rx="2.51858" ry="2.64282"
      transform="rotate(11.5217 23.9957 23.0926)" fill="#101010" />
    <path d="M26.203 25.6756C24.784 25.1295 23.2073 25.518 22.5767 25.6756" stroke="#101010"
      stroke-linecap="round" />
    <circle cx="23.365" cy="22.1095" r="1.10368" fill="white" />
    <circle cx="22.892" cy="23.529" r="0.630672" fill="white" />
    <circle cx="24.1533" cy="23.2137" r="0.315336" fill="white" />
    <path
      d="M20.0188 24.8853C19.1812 24.5971 18.6228 24.5971 17.506 24.8855C17.506 25.0777 18.6097 26.7189 18.902 27.1919C19.4604 26.327 20.1173 24.9192 20.0188 24.8853Z"
      fill="#101010" />
    <path d="M18.9248 26.561V26.8764V27.1917V27.6647" stroke="#101010" stroke-linecap="round" />
    <path d="M18.9248 27.6652C18.9248 27.6652 17.7058 28.2897 17 28C16.4891 27.7903 16.5 27 16.5 27"
      stroke="#101010" stroke-linecap="round" />
    <path d="M21 27C21 27 20.9569 27.832 20.4999 28C20.043 28.168 18.9248 27.6648 18.9248 27.6648"
      stroke="#101010" stroke-linecap="round" />
    <path
      d="M34.5 21C34.5 21 34.9296 20.6731 35.3836 21.2591C35.3736 21.8982 34.7187 22.4204 34.463 22.4164C34.2073 22.4124 33.99 22.6392 34 22C34 21 34.0189 20.741 34.5 21Z"
      fill="#101010" />
    <path
      d="M26.1204 29.923C25.7313 30.8461 25.7313 31.3075 25.7313 34.9998L25.9259 35C25.9259 33.6154 25.7313 31.3077 26.1204 30.3845C26.3955 29.7318 26.315 29.9231 26.704 29.4616C26.824 29.3193 26.5095 29 26.5095 29L26.1204 29.923Z"
      fill="#F4ABAB" />
    <path
      d="M24.2313 33.5C24.2313 33.5 24.2313 33.5 25.2313 33C26.2313 32.5 27.2313 33.5 27.2313 33.5L26.7313 35.9999H24.7313L24.2313 33.5Z"
      fill="#CBA237" />
    <path
      d="M24.7113 30.6791C23.8345 31.1657 24.5515 30.7677 23.8344 31.1657C23.2322 31.5 23.8344 31.1657 23.2322 31.5C23.1026 31.3763 23.4412 30.8401 23.7313 30.6791C24.0544 30.4998 24.6074 30.492 24.7113 30.6791Z"
      fill="#F3E07D" />
    <path d="M23.7313 31H27.7313L26.7313 36H24.7313L23.7313 31Z" fill="#B8F0E6" fill-opacity="0.5" />
    <path
      d="M35.5 36C35.5 36.5724 35.4719 36.9621 35.3845 37.2523C35.3057 37.5141 35.1794 37.6929 34.9462 37.8458C34.6893 38.0142 34.2844 38.1625 33.6237 38.2948C32.9689 38.4259 32.1083 38.533 30.9696 38.645C28.7679 38.8617 27.255 38.4567 26.3114 37.8724C25.3588 37.2827 25 36.5279 25 36C25 35.7447 25.0727 35.5824 25.2085 35.4507C25.3635 35.3004 25.642 35.151 26.1263 35.0291C27.1012 34.7837 28.669 34.7042 31.0185 34.7042C31.8521 34.7042 32.553 34.6883 33.1309 34.6753C33.3674 34.6699 33.5833 34.665 33.7793 34.6619C34.48 34.6507 34.8891 34.664 35.1452 34.7268C35.262 34.7554 35.3141 34.7875 35.3388 34.8079C35.3593 34.8249 35.3847 34.8531 35.4105 34.9233C35.4757 35.1008 35.5 35.4067 35.5 36Z"
      fill="#444243" stroke="#101010" />
    <path
      d="M6.99993 16.5001C5.99992 16.5001 8.5 16 14.5 15.5C16.5 16 20.4999 14.5001 20.4999 14.0001C21.6666 13.3334 24.7897 13.9301 26.4999 14.5001C28.9999 15.3333 30.4999 16.5001 30.4999 17.0001C30.4999 19.5001 32.4999 20.0001 35.4999 20.0001C40.9999 20.5 33.8544 21.0001 31.4999 21.0001C28.9999 21.0001 18.4028 19.9008 13.4999 18.5C9.99992 17.5 10.9999 18 6.99993 16.5001Z"
      fill="#630707" stroke="black" stroke-width="0.5" stroke-linecap="round" />
    <path d="M30.5 18C24.5 17.6 20.8333 15.8333 19.5 15" stroke="#CCA20D" stroke-width="0.5"
      stroke-linecap="round" />
    <path d="M18.5 15C19.7 15 20.5 14 20.5 14" stroke="black" stroke-width="0.3" />
    <path d="M30.5 17C30 18.5 32 19.5 32 19.5" stroke="black" stroke-width="0.5" />
    <path
      d="M20 24.5C20 24.7761 19.5523 24.5 19 24.5C18.4477 24.5 18 24.7761 18 24.5C18 24.2239 18.4477 24 19 24C19.5523 24 20 24.2239 20 24.5Z"
      fill="#F3F3F3" fill-opacity="0.7" />
  </g>
</svg>