<svg width="48" height="48" viewBox="0 0 48 48" fill="none" xmlns="http://www.w3.org/2000/svg">
  <mask id="mask0_56_14" style="mask-type:alpha" maskUnits="userSpaceOnUse" x="0" y="0" width="48"
    height="48">
    <rect width="48" height="48" rx="24" fill="#E9E9E9" />
  </mask>
  <g mask="url(#mask0_56_14)">
    <path
      d="M9.95428 50.0108L9.87949 49.995L9.8034 50.0023C7.19331 50.2508 5.44875 50.0784 4.33062 49.4742C3.27027 48.9012 2.68398 47.8855 2.53656 46.1453C2.38704 44.3803 2.70053 41.9581 3.3795 38.7198C4.03331 35.6015 5.0145 31.7757 6.20811 27.1217C6.25037 26.9569 6.2929 26.7911 6.3357 26.6242C6.95919 24.1928 8.67524 20.3816 11.2201 17.1865C13.7728 13.9817 17.0738 11.5 20.8512 11.5C25.6557 11.5 29.263 13.9833 31.6892 17.6107C34.1238 21.2506 35.3512 26.0247 35.3512 30.5C35.3512 36.0125 35.3503 40.3205 34.9486 43.6192C34.5461 46.9244 33.7522 49.0981 32.2659 50.4416C30.7845 51.7804 28.5083 52.3896 24.8961 52.2893C21.2894 52.1891 16.4536 51.3857 9.95428 50.0108Z"
      fill="#A61F1F" stroke="black" />
    <path
      d="M33.7713 24C35.8576 35.3298 19.9501 38.4763 14.2713 37C10.9501 36.6679 5.77121 31.0003 8.7713 22.0001C9.77129 19 15.3506 11.5 21.2711 12.0002C28.2711 12.0002 32.8506 19 33.7713 24Z"
      fill="#CE2929" />
    <path
      d="M22.3506 22C22.3506 23.2787 21.5005 24.5173 19.9538 25.4624C18.4158 26.4024 16.2592 27 13.8506 27C11.442 27 9.2854 26.4024 7.74735 25.4624C6.20072 24.5173 5.35059 23.2787 5.35059 22C5.35059 20.7213 6.20072 19.4827 7.74735 18.5376C9.2854 17.5976 11.442 17 13.8506 17C16.2592 17 18.4158 17.5976 19.9538 18.5376C21.5005 19.4827 22.3506 20.7213 22.3506 22Z"
      fill="#2B85AC" stroke="black" />
    <path
      d="M19.8506 20.5C19.3506 23 15.6643 24 12.3506 24C9.03688 24 6.35059 22.7091 6.35059 20.5C7.35059 19 9.85059 17.5 13.8506 17.5C17.575 17.5 19.8506 18.5 19.8506 20.5Z"
      fill="#90DBF2" />
    <path
      d="M15.8506 19.5C15.8506 20.5 14.8506 20.5 12.3506 20.5C9.92308 20.8637 8.60238 21.6806 8.35059 20C8.21485 19.094 9.37065 18.4577 12.3009 18.0186C15.0293 17.6099 15.8506 18 15.8506 19.5Z"
      fill="#E2F5FB" />
    <path
      d="M40.9463 41.1077L35.8506 42.8063V31H35.8507L35.8505 30.9884L35.3506 31L35.8504 30.9883L35.8504 30.9881L35.8504 30.9875L35.8504 30.9853L35.8502 30.977L35.8493 30.9448L35.8459 30.8222C35.8427 30.7157 35.8377 30.5613 35.8304 30.369C35.8158 29.9845 35.792 29.4476 35.7551 28.8377C35.6817 27.6235 35.5554 26.0993 35.3428 24.9119C35.1414 23.7875 34.7598 22.3906 34.4329 21.2863C34.3218 20.9113 34.2165 20.5678 34.1257 20.2775C34.584 20.4359 35.1782 20.6538 35.8266 20.9234C37.2907 21.5321 38.9678 22.3787 40.0067 23.363C41.2123 24.5052 41.9 26.1657 42.2299 28.0751C42.5593 29.9813 42.5235 32.0887 42.3227 34.0656C42.1223 36.0392 41.7595 37.8629 41.4462 39.1946C41.2897 39.8599 41.1459 40.4009 41.0415 40.7747C41.0044 40.9075 40.9723 41.0191 40.9463 41.1077Z"
      fill="#A61F1F" stroke="black" />
  </g>
</svg>