<svg width="48" height="48" viewBox="0 0 48 48" fill="none" xmlns="http://www.w3.org/2000/svg">
  <mask id="mask0_56_54" style="mask-type:alpha" maskUnits="userSpaceOnUse" x="0" y="0" width="48"
    height="48">
    <rect width="48" height="48" rx="24" fill="#E9E9E9" />
  </mask>
  <g mask="url(#mask0_56_54)">
    <path
      d="M6.23175 28.9254C5.36199 30.6717 4.79635 32.165 4.37272 33.2833C4.21521 33.6991 4.07733 34.0631 3.95074 34.369C3.70309 34.9675 3.52416 35.2774 3.37301 35.4136C3.31461 35.4662 3.28249 35.4718 3.26449 35.4733C3.23758 35.4755 3.16837 35.472 3.03448 35.4053C2.97495 35.3757 2.91639 35.3468 2.85888 35.3185C2.14893 34.9688 1.59785 34.6974 1.34323 33.9534C1.05205 33.1026 1.12368 31.5217 2.34085 28.371C3.34141 26.3749 4.99441 24.9411 6.58044 24.0947C7.37548 23.6704 8.14027 23.401 8.77993 23.2802C9.44143 23.1553 9.89025 23.2036 10.1133 23.3147C10.1649 23.3404 10.2012 23.362 10.2263 23.3787C10.1988 23.4296 10.149 23.5055 10.0627 23.6142C9.94335 23.7646 9.78428 23.9416 9.58116 24.165C9.56167 24.1865 9.54188 24.2082 9.52181 24.2303C8.70804 25.1249 7.41874 26.5422 6.23175 28.9254Z"
      fill="#444243" stroke="#101010" />
    <path d="M3.43636 38.3743C3.55536 37.5832 5.22149 26.5078 6.03967 21.069" stroke="#42322B"
      stroke-linecap="round" />
    <path
      d="M8.7009 18.9634C7.76932 19.781 5.56711 20.8657 4.21091 18.6634L2.76648 12.1564L11.6963 13.5072L8.7009 18.9634Z"
      fill="#ECA15B" stroke="#42322B" stroke-width="0.3" stroke-linecap="round" />
    <path
      d="M4.85691 20.2845L5.63188 19.9083C5.66749 19.891 5.70743 19.8847 5.74665 19.8902L6.30679 19.9678C6.38192 19.9783 6.44471 20.0303 6.46893 20.1022L6.82122 21.148C6.87676 21.3129 6.70988 21.4651 6.55079 21.3947L4.86338 20.6473C4.70769 20.5784 4.70377 20.3588 4.85691 20.2845Z"
      fill="#ECA15B" stroke="#42322B" stroke-width="0.3" stroke-linecap="round" />
    <path d="M4.62728 12.4314L4.90908 19.4642" stroke="#42322B" stroke-width="0.2"
      stroke-linecap="round" />
    <path d="M9.46145 13.2071L7.14623 19.7341" stroke="#42322B" stroke-width="0.2"
      stroke-linecap="round" />
    <path d="M7.81118 12.8972L6.38069 19.9397" stroke="#42322B" stroke-width="0.2"
      stroke-linecap="round" />
    <path d="M6.48292 12.7818L5.63227 19.8897" stroke="#42322B" stroke-width="0.2"
      stroke-linecap="round" />
    <path d="M8.70094 18.9634C6.94507 18.2427 4.98436 18.338 4.21094 18.6634" stroke="#42322B"
      stroke-width="0.2" stroke-linecap="round" />
    <path
      d="M34.4203 39.9394C35.1647 38.5517 35.48 37.921 36.1107 37.1327C36.09 28.3318 36.8991 21.2081 40.3677 21.2081C42.4174 20.8929 47.8748 22.8584 46.8321 26.8842C45.4131 29.7223 42.8904 28.9339 40.683 25.7805C40.4826 25.8607 40.4045 25.8593 40.3994 25.8127C39.4112 26.3245 39.5138 31.132 39.1064 34.2946C38.7521 37.0448 35.7278 41.976 34.4241 41.532L34.4203 39.9394Z"
      fill="#444243" />
    <path
      d="M40.683 25.7805C42.8904 28.9339 45.4131 29.7223 46.8321 26.8842C47.8748 22.8584 42.4174 20.8929 40.3677 21.2081C36.8991 21.2081 36.09 28.3318 36.1107 37.1327C35.48 37.921 35.1647 38.5517 34.4203 39.9394L34.4241 41.532C35.7278 41.976 38.7521 37.0448 39.1064 34.2946C39.5492 30.857 39.3895 25.4759 40.683 25.7805ZM40.683 25.7805C39.8947 26.0958 40.9984 25.1498 40.9984 25.1498"
      stroke="#101010" stroke-width="1.5" stroke-linecap="round" />
    <path
      d="M6.66266 27.2226C5.89138 28.3119 5.43312 29.3378 2.21539 41.0328C1.395 44.0146 3.0551 48.0773 4.88377 48.7226C7.5521 49.6642 11.7945 51.4676 25.7861 51.5474C32.4571 51.5474 34.9022 46.5116 35.7185 44.9562C36.4597 43.5438 35.5429 26.8856 35.1894 25.1825C34.5707 22.2007 34.6426 20.0508 34.6807 20.9453C34.7908 18.6384 33.4125 16.1673 33 16.0475C32.6872 15.9566 31.8355 15.7319 30.5189 17.5429C27.6016 14.7869 25.0449 14.8248 24.2574 14.6671C23.6303 14.5415 20.7994 14.5481 19.4116 14.6679C19.5599 13.8832 19.8564 12 19.8564 12L18.5377 12C18.5134 12 18.4921 12.0069 18.474 12.0231C18.1542 12.3081 14.9386 15.206 11.7029 19.3759L9.47929 22.5146L7.55212 25.4964L6.66266 27.2226Z"
      fill="#444243" />
    <path
      d="M19.4102 16.5843C19.3967 16.0833 19.4206 15.3718 19.4116 14.6679M29.9297 19.1007C29.8549 18.6664 30.0994 18.12 30.5189 17.5429M19.4116 14.6679C19.5599 13.8832 19.8564 12 19.8564 12L18.5377 12C18.5134 12 18.4921 12.0069 18.474 12.0231C18.1542 12.3081 14.9386 15.206 11.7029 19.3759L9.47929 22.5146L7.55212 25.4964L6.66266 27.2226C5.89138 28.3119 5.43312 29.3378 2.21539 41.0328C1.395 44.0146 3.0551 48.0773 4.88377 48.7226C7.5521 49.6642 11.7945 51.4676 25.7861 51.5474C32.4571 51.5474 34.9022 46.5116 35.7185 44.9562C36.4597 43.5438 35.5429 26.8856 35.1894 25.1825C34.5707 22.2007 34.6426 20.0508 34.6807 20.9453C34.7908 18.6384 33.4125 16.1673 33 16.0475C32.6872 15.9566 31.8355 15.7319 30.5189 17.5429M19.4116 14.6679C20.7994 14.5481 23.6303 14.5415 24.2574 14.6671C25.0449 14.8248 27.6016 14.7869 30.5189 17.5429"
      stroke="#101010" stroke-width="1.5" stroke-linecap="round" />
    <ellipse cx="14.9957" cy="22.6401" rx="2.51858" ry="2.64282"
      transform="rotate(11.5217 14.9957 22.6401)" fill="#101010" />
    <path d="M16.7713 25.0121C15.2847 24.7104 14.6089 24.8613 13.9332 25.163" stroke="#101010"
      stroke-linecap="round" />
    <path d="M17.5 21.0001C16.0134 20.6984 14 19.5001 13.5 19.0001" stroke="#101010"
      stroke-linecap="round" />
    <circle cx="14.4062" cy="21.5368" r="1.10368" fill="white" />
    <circle cx="13.9332" cy="22.9557" r="0.630672" fill="white" />
    <circle cx="15.1947" cy="22.6404" r="0.315336" fill="white" />
    <ellipse cx="23.9957" cy="23.2998" rx="2.51858" ry="2.64282"
      transform="rotate(11.5217 23.9957 23.2998)" fill="#101010" />
    <path d="M26.2029 25.8829C24.7839 25.3367 23.2072 25.7253 22.5765 25.8829" stroke="#101010"
      stroke-linecap="round" />
    <circle cx="23.3649" cy="22.3168" r="1.10368" fill="white" />
    <circle cx="22.8919" cy="23.7363" r="0.630672" fill="white" />
    <circle cx="24.1532" cy="23.4209" r="0.315336" fill="white" />
    <path d="M26.357 20C25.0381 20.8721 22.6238 21.5209 21.0454 21.4272" stroke="#101010"
      stroke-linecap="round" />
    <path
      d="M20.0188 24.4328C19.1812 24.1446 18.6228 24.1446 17.506 24.433C17.506 24.6252 18.6097 26.2664 18.902 26.7394C19.4604 25.8745 20.1173 24.4667 20.0188 24.4328Z"
      fill="#101010" />
    <path d="M18.9248 26.1085V26.4239V26.7392V27.2122" stroke="#101010" stroke-linecap="round" />
    <path
      d="M18.9247 27.2126C18.9247 27.2126 18 27.2126 17.5 27.5001C17.0665 27.7493 17 28.5001 17 28.5001"
      stroke="#101010" stroke-linecap="round" />
    <path
      d="M21.0001 28.5C21.0001 28.5 21 28.0001 20.5001 27.5001C20.0002 27.0001 18.9248 27.2123 18.9248 27.2123"
      stroke="#101010" stroke-linecap="round" />
    <path
      d="M34.5 20.5475C34.5 20.5475 34.9296 20.2206 35.3836 20.8065C35.3736 21.4457 34.7187 21.9679 34.463 21.9639C34.2073 21.9599 33.99 22.1867 34 21.5475C34 20.5475 34.0189 20.2885 34.5 20.5475Z"
      fill="#101010" />
    <path
      d="M27.2878 34.996C27.5785 36.348 26.4338 37.9836 24.4423 38.4118C22.4509 38.84 20.7252 37.7742 20.4442 36.4675C20.0081 34.4394 21.7917 34.4096 23.0749 34.1337C24.6404 33.0899 26.8518 32.968 27.2878 34.996Z"
      fill="#04460A" />
    <path
      d="M27.2826 34.9718C27.6037 36.4652 26.3321 38.0053 24.4423 38.4117C22.5525 38.818 20.7602 37.9368 20.439 36.4434C20.2654 35.6357 20.5575 34.8145 21.1614 34.1662C23.1392 32.3517 21.489 29.8775 22.5578 29.6476C23.6265 29.4178 23.1392 32.3517 25.6881 33.1929C26.505 33.5356 27.109 34.1642 27.2826 34.9718Z"
      fill="#ACE1DB" fill-opacity="0.5" />
    <path
      d="M23.4859 29.8017C23.0582 29.8936 23.5754 29.7825 22.6305 29.9856C21.6856 30.1888 22.2028 30.0776 21.775 30.1696C21.7349 29.9829 21.6129 29.8508 22.5578 29.6476C23.5027 29.4444 23.4457 29.615 23.4859 29.8017Z"
      fill="#0D9484" fill-opacity="0.5" />
    <g opacity="0.9">
      <path
        d="M25.0193 35.88C24.3147 37.1062 24.6318 37.0206 23.832 37.2366C23.0323 37.4527 23.3493 37.367 22.1231 36.6624C21.9071 35.8627 22.3803 35.0392 23.18 34.8231C23.9798 34.6071 24.8033 35.0803 25.0193 35.88Z"
        fill="#979797" />
      <path
        d="M25.0193 35.88C24.667 36.4931 24.667 36.4931 23.7016 36.7539C22.7362 37.0147 22.7362 37.0147 22.1231 36.6624C21.9071 35.8627 22.3803 35.0392 23.18 34.8231C23.9798 34.6071 24.8033 35.0803 25.0193 35.88Z"
        fill="#D9D9D9" />
      <path d="M21.9178 34.9641L22.7564 35.1801L22.1501 35.7984L21.9178 34.9641Z" fill="#D9D9D9" />
      <path d="M24.3504 34.3529L24.5811 35.1876L23.7429 34.97L24.3504 34.3529Z" fill="#D9D9D9" />
      <path
        d="M23.1513 35.8668C23.1873 36.0001 23.0652 36.149 22.8786 36.1994C22.692 36.2498 22.5115 36.1826 22.4755 36.0493C22.4395 35.916 22.5616 35.7671 22.7482 35.7167C22.9348 35.6663 23.1152 35.7335 23.1513 35.8668Z"
        fill="#101010" />
      <path
        d="M24.2615 35.5668C24.2975 35.7001 24.1754 35.8491 23.9888 35.8995C23.8022 35.9499 23.6217 35.8827 23.5857 35.7494C23.5497 35.6161 23.6718 35.4672 23.8584 35.4168C24.045 35.3664 24.2254 35.4336 24.2615 35.5668Z"
        fill="#101010" />
      <path d="M23.4947 36.213L23.7758 35.9742L23.5673 36.4808L23.1332 36.1476L23.4947 36.213Z"
        fill="#101010" />
      <path d="M23.2367 37.2242L23.05 36.8876L23.2165 36.8399L23.2367 37.2242Z" fill="#D9D9D9" />
      <path d="M24.3511 36.9254L24.1644 36.5888L24.3309 36.541L24.3511 36.9254Z" fill="#D9D9D9" />
      <path d="M23.7369 36.6925L23.8335 36.6664L23.8596 36.763L23.763 36.789L23.7369 36.6925Z"
        fill="#D9D9D9" />
      <path d="M23.4661 36.7657L23.5626 36.7397L23.5887 36.8362L23.4921 36.8623L23.4661 36.7657Z"
        fill="#D9D9D9" />
      <path d="M23.611 36.7266L23.7075 36.7005L23.7336 36.797L23.637 36.8231L23.611 36.7266Z"
        fill="#D9D9D9" />
    </g>
    <path
      d="M35.5 35.5475C35.5 36.1198 35.4719 36.5096 35.3845 36.7998C35.3057 37.0615 35.1794 37.2404 34.9462 37.3932C34.6893 37.5617 34.2844 37.71 33.6237 37.8423C32.9689 37.9733 32.1083 38.0805 30.9696 38.1925C28.7679 38.4092 27.255 38.0042 26.3114 37.4199C25.3588 36.8302 25 36.0754 25 35.5475C25 35.2922 25.0727 35.1299 25.2085 34.9982C25.3635 34.8479 25.642 34.6985 26.1263 34.5766C27.1012 34.3311 28.669 34.2517 31.0185 34.2517C31.8521 34.2517 32.553 34.2358 33.1309 34.2228C33.3674 34.2174 33.5833 34.2125 33.7793 34.2094C34.48 34.1981 34.8891 34.2114 35.1452 34.2743C35.262 34.3029 35.3141 34.3349 35.3388 34.3554C35.3593 34.3724 35.3847 34.4005 35.4105 34.4708C35.4757 34.6483 35.5 34.9542 35.5 35.5475Z"
      fill="#444243" stroke="#101010" />
    <path
      d="M35.4023 23.028C34.7991 25.0764 30.6309 25.6666 22.639 23.3129C14.6471 20.9593 12.2898 19.1955 12.8931 17.1471C13.4963 15.0987 16.9258 12.7412 24.9177 15.0949C32.9095 17.4485 36.0056 20.9796 35.4023 23.028Z"
      fill="#201E1E" fill-opacity="0.5" />
    <path
      d="M39.139 19.2469C39.0577 19.6894 38.6198 20.0864 37.7952 20.3996C36.9804 20.709 35.8352 20.9175 34.4363 21.0142C31.6407 21.2075 27.8664 20.9526 23.7781 20.2008C19.6899 19.449 16.0718 18.3444 13.5279 17.1691C12.2549 16.581 11.2588 15.9788 10.6074 15.3997C9.94816 14.8136 9.68023 14.2868 9.76161 13.8443C9.84422 13.3951 10.2911 12.9495 11.1175 12.5613C11.9343 12.1777 13.0812 11.8699 14.4799 11.6732C17.2757 11.2799 21.0492 11.334 25.1325 12.0849C29.2159 12.8358 32.829 14.1402 35.3692 15.5151C36.6402 16.203 37.6361 16.9051 38.2882 17.5595C38.9488 18.2225 39.2212 18.8002 39.139 19.2469Z"
      fill="#3B363E" stroke="#241919" stroke-width="0.3" />
    <path
      d="M33.5 16.5C33 17 28 17 26.4545 16.5C24.909 16 22.3293 15.4287 22.5 14.5C22.6708 13.5713 24.3521 13.3072 26.4545 13.6938C28.5569 14.0804 32.5 15.5 33.5 16.5Z"
      fill="#2C292D" />
    <path
      d="M36.4447 17.2516C35.3656 17.5443 32.9869 17.6972 32.9869 17.6972C32.9869 17.6972 32.5409 17.379 32.5955 17.1083C32.65 16.8376 32.633 16.0428 33.1744 16.1519C34.1547 16.3493 35.626 16.8518 36.4447 17.2516Z"
      fill="#2C292D" />
    <path
      d="M33.1526 14.0186C33.1972 13.9398 33.3029 14.0034 33.3075 14.112L33.4628 17.7782C33.4643 17.8133 33.4451 17.8389 33.419 17.8368V17.8368C32.8007 17.7868 32.1733 17.4787 31.6231 16.9551L31.5878 16.9215C31.5606 16.8956 31.5517 16.8476 31.5686 16.8179L33.1526 14.0186Z"
      fill="#322F2F" />
    <path
      d="M33.1296 13.9926C33.1814 13.9223 33.2836 14.0002 33.2792 14.1066L33.1267 17.77C33.1257 17.7949 33.1111 17.8119 33.0922 17.8104V17.8104C32.4743 17.7604 31.8504 17.3844 31.3546 16.7633L31.2539 16.6371C31.2338 16.6118 31.2304 16.5726 31.2465 16.5507L33.1296 13.9926Z"
      fill="#46404A" />
    <path
      d="M33.1474 13.9584C33.1992 13.8933 33.2965 13.967 33.2953 14.0705L33.2551 17.4057C33.2547 17.4347 33.2377 17.4545 33.2157 17.4513V17.4513C32.611 17.3631 32.0092 16.9908 31.5171 16.4004L31.4002 16.2602C31.3766 16.2318 31.3727 16.1864 31.3919 16.1623L33.1474 13.9584Z"
      fill="#2C292D" fill-opacity="0.2" />
    <path
      d="M33.2181 13.9817L32.0044 17.6169C31.9926 17.6523 31.9656 17.6721 31.9344 17.6684L31.6542 17.6349C31.5863 17.6267 31.539 17.5193 31.5724 17.449L33.2181 13.9817Z"
      fill="#3B363E" />
    <path
      d="M27.6653 3.39177C27.6653 3.39177 28.1078 11.6847 28.2435 15.513C28.306 17.2749 21.51 16.5934 22.3279 14.2899C23.4545 11.117 27.6653 3.39177 27.6653 3.39177Z"
      fill="#241C22" />
    <path
      d="M21.3483 12.8325C20.2963 13.2112 17.9377 13.5555 17.9377 13.5555C17.9377 13.5555 17.4675 13.2743 17.5001 13C17.5326 12.7258 17.4516 11.9349 18 12C18.993 12.1178 20.5 12.5 21.3483 12.8325Z"
      fill="#2C292D" />
    <path
      d="M17.8064 9.87546C17.8445 9.79326 17.955 9.84821 17.9683 9.95601L18.4187 13.5978C18.423 13.6327 18.406 13.6597 18.3798 13.6597V13.6597C17.7594 13.6597 17.1092 13.4033 16.5186 12.9257L16.4807 12.895C16.4515 12.8714 16.4388 12.8243 16.4532 12.7933L17.8064 9.87546Z"
      fill="#2E2B30" />
    <path
      d="M17.7813 9.85141C17.8272 9.77712 17.9354 9.84655 17.9395 9.95301L18.0829 13.6167C18.0839 13.6417 18.0708 13.6598 18.0517 13.6598V13.6598C17.4319 13.6598 16.7797 13.3353 16.2354 12.7562L16.1249 12.6386C16.1027 12.615 16.0962 12.5761 16.1105 12.553L17.7813 9.85141Z"
      fill="#46404A" />
    <path
      d="M17.8686 9.83341L16.952 13.5546C16.943 13.5909 16.9178 13.6128 16.8864 13.6116L16.6044 13.6008C16.5361 13.5981 16.4802 13.4949 16.5078 13.4221L17.8686 9.83341Z"
      fill="#3B363E" />
    <path
      d="M26.4082 9.20972C26.1846 9.65693 25.9608 11.2097 25.4085 11.2097C24.8562 11.2097 24.4082 10.2097 24.9085 9.20972C25.4085 8.20972 25.8562 7.70972 26.4085 7.70972C26.9608 7.70972 26.9082 8.20972 26.4082 9.20972Z"
      fill="#2B2329" />
    <path
      d="M26.2102 8.5C26.1043 8.62778 25.9983 9.07143 25.7367 9.07143C25.4752 9.07143 25.2631 8.78571 25.5 8.5C25.7368 8.21429 25.9488 8.07143 26.2103 8.07143C26.4718 8.07143 26.4469 8.21429 26.2102 8.5Z"
      fill="#322B30" />
  </g>
</svg>