<svg width="48" height="48" viewBox="0 0 48 48" fill="none" xmlns="http://www.w3.org/2000/svg">
  <mask id="mask0_66_8" style="mask-type:alpha" maskUnits="userSpaceOnUse" x="0" y="0" width="48"
    height="48">
    <rect width="48" height="48" rx="24" fill="#E9E9E9" />
  </mask>
  <g mask="url(#mask0_66_8)">
    <path
      d="M6.23175 29.3779C5.36199 31.1242 4.79635 32.6175 4.37272 33.7358C4.21521 34.1516 4.07733 34.5156 3.95074 34.8215C3.70309 35.42 3.52416 35.73 3.37301 35.8661C3.31461 35.9187 3.28249 35.9243 3.26449 35.9258C3.23758 35.9281 3.16837 35.9245 3.03448 35.8579C2.97495 35.8282 2.91639 35.7994 2.85888 35.771C2.14893 35.4214 1.59785 35.1499 1.34323 34.4059C1.05205 33.5551 1.12368 31.9742 2.34085 28.8235C3.34141 26.8274 4.99441 25.3936 6.58044 24.5472C7.37548 24.1229 8.14027 23.8535 8.77993 23.7328C9.44143 23.6078 9.89025 23.6561 10.1133 23.7672C10.1649 23.7929 10.2012 23.8145 10.2263 23.8312C10.1988 23.8821 10.149 23.958 10.0627 24.0667C9.94335 24.2171 9.78428 24.3941 9.58116 24.6176C9.56167 24.639 9.54188 24.6607 9.52181 24.6828C8.70804 25.5774 7.41874 26.9947 6.23175 29.3779Z"
      fill="#444243" stroke="#101010" />
    <path
      d="M34.4203 40.3918C35.1647 39.0041 35.48 38.3734 36.1107 37.585C36.09 28.7842 36.8991 21.6605 40.3677 21.6605C42.4174 21.3452 47.8748 23.3108 46.8321 27.3366C45.4131 30.1746 42.8904 29.3863 40.683 26.2329C40.4826 26.3131 40.4045 26.3117 40.3994 26.2651C39.4112 26.7769 39.5138 31.5844 39.1064 34.747C38.7521 37.4972 35.7278 42.4284 34.4241 41.9844L34.4203 40.3918Z"
      fill="#444243" />
    <path
      d="M40.683 26.2329C42.8904 29.3863 45.4131 30.1746 46.8321 27.3366C47.8748 23.3108 42.4174 21.3452 40.3677 21.6605C36.8991 21.6605 36.09 28.7842 36.1107 37.585C35.48 38.3734 35.1647 39.0041 34.4203 40.3918L34.4241 41.9844C35.7278 42.4284 38.7521 37.4972 39.1064 34.747C39.5492 31.3094 39.3895 25.9283 40.683 26.2329ZM40.683 26.2329C39.8947 26.5482 40.9984 25.6022 40.9984 25.6022"
      stroke="#101010" stroke-width="1.5" stroke-linecap="round" />
    <path
      d="M6.66266 27.6751C5.89138 28.7644 5.43312 29.7903 2.21539 41.4853C1.395 44.4671 3.0551 48.5298 4.88377 49.1751C7.5521 50.1167 11.7945 51.9201 25.7861 51.9999C32.4571 51.9999 34.9022 46.9641 35.7185 45.4087C36.4597 43.9963 35.5429 27.3381 35.1894 25.635C34.5707 22.6532 34.6426 20.5033 34.6807 21.3978C34.7908 19.0909 32.4125 17.1567 32 17.0369C31.6872 16.946 31.8355 16.1844 30.5189 17.9954C27.6016 15.2394 25.0449 15.2773 24.2574 15.1196C23.6303 14.994 20.7994 15.0006 19.4116 15.1204C19.5599 14.3357 19 15 19 15L17.5026 15.1194L17.4991 15.1198C17.4453 15.1274 15.0736 15.4845 11.7029 19.8284L9.47929 22.9671L7.55212 25.9488L6.66266 27.6751Z"
      fill="#444243" />
    <path
      d="M19.4102 17.0368C19.3967 16.5358 19.4206 15.8243 19.4116 15.1204M29.9297 19.5532C29.8549 19.1189 30.0994 18.5725 30.5189 17.9954M19.4116 15.1204C19.5599 14.3357 19 15 19 15L17.5026 15.1194C17.5009 15.1196 17.5008 15.1195 17.4991 15.1198C17.4453 15.1274 15.0736 15.4845 11.7029 19.8284L9.47929 22.9671L7.55212 25.9488L6.66266 27.6751C5.89138 28.7644 5.43312 29.7903 2.21539 41.4853C1.395 44.4671 3.0551 48.5298 4.88377 49.1751C7.5521 50.1167 11.7945 51.9201 25.7861 51.9999C32.4571 51.9999 34.9022 46.9641 35.7185 45.4087C36.4597 43.9963 35.5429 27.3381 35.1894 25.635C34.5707 22.6532 34.6426 20.5033 34.6807 21.3978C34.7908 19.0909 32.4125 17.1567 32 17.0369C31.6872 16.946 31.8355 16.1844 30.5189 17.9954M19.4116 15.1204C20.7994 15.0006 23.6303 14.994 24.2574 15.1196C25.0449 15.2773 27.6016 15.2394 30.5189 17.9954"
      stroke="#101010" stroke-width="1.5" stroke-linecap="round" />
    <ellipse cx="14.9957" cy="23.0926" rx="2.51858" ry="2.64282"
      transform="rotate(11.5217 14.9957 23.0926)" fill="#101010" />
    <path d="M16.7713 25.4646C15.2847 25.1629 14.6089 25.3138 13.9332 25.6155" stroke="#101010"
      stroke-linecap="round" />
    <circle cx="14.4062" cy="21.9892" r="1.10368" fill="white" />
    <circle cx="13.9332" cy="23.4081" r="0.630672" fill="white" />
    <circle cx="15.1947" cy="23.0928" r="0.315336" fill="white" />
    <ellipse cx="23.9957" cy="23.0926" rx="2.51858" ry="2.64282"
      transform="rotate(11.5217 23.9957 23.0926)" fill="#101010" />
    <path d="M26.203 25.6756C24.784 25.1295 23.2073 25.518 22.5767 25.6756" stroke="#101010"
      stroke-linecap="round" />
    <circle cx="23.365" cy="22.1095" r="1.10368" fill="white" />
    <circle cx="22.892" cy="23.529" r="0.630672" fill="white" />
    <circle cx="24.1533" cy="23.2137" r="0.315336" fill="white" />
    <path
      d="M20.0188 24.8853C19.1812 24.5971 18.6228 24.5971 17.506 24.8855C17.506 25.0777 18.6097 26.7189 18.902 27.1919C19.4604 26.327 20.1173 24.9192 20.0188 24.8853Z"
      fill="#101010" />
    <path d="M18.9248 26.561V26.8764V27.1917V27.6647" stroke="#101010" stroke-linecap="round" />
    <path
      d="M34.5 20.9999C34.5 20.9999 34.9296 20.673 35.3836 21.2589C35.3736 21.8981 34.7187 22.4203 34.463 22.4163C34.2073 22.4123 33.99 22.6391 34 21.9999C34 20.9999 34.0189 20.7409 34.5 20.9999Z"
      fill="#101010" />
    <path
      d="M24 51.5001C22.8333 48.5001 20.4 40.6001 20 33.0001C23 33.5 24.6014 32.3987 26.5 30.5001C27.5 29.5001 28.5 27.5001 29 25.5001C29.6667 23.6668 28 18 29.5 17.5C32.1563 16.6146 34 18.5 37.5 18.0001C37.1667 27.5001 35 49 35 49C35 49 28.1667 50.1668 24 51.5001Z"
      fill="#325ECE" />
    <path
      d="M1 45.5L10 13.5L34.5 18.5L35 24.5C32.6667 26.8333 29 28.5 29 25C29 19 21 17.5 19.5 18C17 18 13 18 11.5 24C10.128 29.488 16 33.5 20 33C22.5 38.6667 26.3 50.5 21.5 52.5C16.7 54.5 5.66667 51.5 1 45.5Z"
      fill="#325ECE" />
    <path
      d="M28.7327 25.5C28.7327 29.7533 24.8437 33.25 19.9827 33.25C15.1217 33.25 11.2327 29.7533 11.2327 25.5C11.2327 21.2467 15.1217 17.75 19.9827 17.75C24.8437 17.75 28.7327 21.2467 28.7327 25.5Z"
      stroke="white" stroke-width="0.5" />
    <path
      d="M37.2272 17.9856C37.2272 17.9856 37.227 17.9878 37.224 17.993C37.2208 17.9987 37.2139 18.0087 37.1998 18.0223C37.1703 18.0508 37.1178 18.0872 37.0317 18.1262C36.8587 18.2048 36.5941 18.2751 36.2347 18.3308C35.5195 18.4417 34.4894 18.4859 33.2131 18.4612C30.6641 18.4119 27.174 18.0889 23.3488 17.5025C19.5235 16.9161 16.0969 16.1788 13.6503 15.4623C12.4252 15.1035 11.4556 14.7528 10.8064 14.4328C10.4802 14.2719 10.2488 14.1256 10.1073 13.9988C10.0369 13.9357 9.99765 13.8854 9.97806 13.8493C9.96869 13.8321 9.96509 13.8205 9.96373 13.8141C9.96251 13.8084 9.96291 13.8062 9.96293 13.8061L9.96293 13.8061L9.96293 13.8061C9.96295 13.806 9.96321 13.8038 9.9661 13.7987C9.9693 13.793 9.97622 13.783 9.99031 13.7694C10.0198 13.7409 10.0723 13.7046 10.1584 13.6655C10.3314 13.5869 10.596 13.5166 10.9554 13.4609C11.6706 13.35 12.7008 13.3058 13.9771 13.3305C16.526 13.3798 20.0161 13.7028 23.8414 14.2892C27.6666 14.8756 31.0932 15.6129 33.5399 16.3294C34.7649 16.6882 35.7345 17.039 36.3837 17.359C36.7099 17.5198 36.9413 17.6661 37.0828 17.7929C37.1532 17.856 37.1925 17.9064 37.2121 17.9424C37.2214 17.9596 37.225 17.9712 37.2264 17.9776C37.2276 17.9835 37.2272 17.9856 37.2272 17.9856Z"
      fill="#919191" stroke="#646363" stroke-width="0.5" />
    <path
      d="M24.1342 14.9996C23.8187 15.1476 23.4641 15.3036 23.0642 15.4571L23.4227 16.3906L24.6124 16.2452M24.1342 14.9996C25.2916 14.4565 25.9223 14.0203 26.3317 14.2026C26.8526 14.4345 26.5818 16.2488 25.469 16.1405L24.6124 16.2452M24.1342 14.9996C24.5419 15.3089 24.6229 15.9589 24.6124 16.2452"
      stroke="#646363" stroke-width="0.5" />
    <path
      d="M6.01556 40.3628C5.89812 40.3381 5.81107 40.2823 5.7544 40.1955C5.70287 40.1165 5.68946 40.0183 5.71415 39.9009L6.68537 35.2819C6.79889 34.7744 7.01561 34.3431 7.33552 33.988C7.66333 33.6277 8.05417 33.3727 8.50805 33.2229C8.96844 33.0744 9.45308 33.0537 9.96195 33.1607C10.4839 33.2704 10.925 33.4892 11.2852 33.817C11.6468 34.1383 11.9019 34.5291 12.0503 34.9895C12.2053 35.4513 12.2279 35.9432 12.1182 36.4651C12.0098 36.9805 11.795 37.419 11.4737 37.7806C11.1589 38.1436 10.7772 38.404 10.3285 38.5617C9.8811 38.7129 9.40625 38.7356 8.90391 38.63C8.4668 38.5381 8.08804 38.3631 7.76763 38.105C7.45511 37.8417 7.22345 37.5341 7.07263 37.1822L6.46767 40.0593C6.44298 40.1767 6.3879 40.2605 6.30241 40.3107C6.22208 40.3687 6.12647 40.3861 6.01556 40.3628ZM8.95987 37.9265C9.33826 38.006 9.69603 37.9893 10.0332 37.8763C10.3703 37.7632 10.6559 37.5712 10.89 37.3002C11.132 37.0241 11.2935 36.6936 11.3744 36.3087C11.4567 35.9173 11.442 35.5497 11.3304 35.206C11.2252 34.8637 11.0411 34.573 10.778 34.3337C10.5163 34.0879 10.1963 33.9253 9.81791 33.8457C9.44604 33.7675 9.09085 33.7882 8.75234 33.9078C8.4152 34.0208 8.12958 34.2128 7.89548 34.4838C7.66138 34.7548 7.50318 35.086 7.42087 35.4774C7.33994 35.8623 7.35136 36.2292 7.45514 36.578C7.56029 36.9203 7.7444 37.2111 8.00747 37.4503C8.27053 37.6896 8.588 37.8483 8.95987 37.9265ZM15.4511 40.0067C14.9226 39.8955 14.4769 39.6826 14.1139 39.3678C13.7588 39.0479 13.507 38.6578 13.3586 38.1974C13.2166 37.7384 13.2012 37.2446 13.3124 36.7162C13.4248 36.1812 13.6313 35.7341 13.9316 35.3749C14.2398 35.0105 14.6111 34.7514 15.0454 34.5974C15.4797 34.4435 15.948 34.4194 16.4504 34.525C16.9462 34.6292 17.3528 34.8339 17.6701 35.1391C17.9953 35.4391 18.2172 35.8094 18.3358 36.2499C18.4544 36.6903 18.4602 37.165 18.3532 37.6739C18.3312 37.7783 18.2808 37.8562 18.2018 37.9078C18.1242 37.9528 18.0332 37.9643 17.9288 37.9423L13.7698 37.0678L13.9015 36.4415L18.1388 37.3325L17.6542 37.5474C17.7403 37.1704 17.7432 36.8167 17.6627 36.4864C17.5823 36.1561 17.4262 35.8781 17.1944 35.6522C16.9691 35.4277 16.6737 35.277 16.3084 35.2002C15.9365 35.122 15.5918 35.1415 15.2742 35.2587C14.9567 35.3758 14.6867 35.5745 14.4643 35.8548C14.2497 36.1298 14.1006 36.4664 14.017 36.8643C13.9333 37.2623 13.944 37.6324 14.0492 37.9747C14.1608 38.3184 14.3482 38.6098 14.6113 38.8491C14.8743 39.0883 15.2016 39.2491 15.593 39.3314C15.8279 39.3808 16.071 39.391 16.3223 39.3621C16.5815 39.3281 16.7959 39.2642 16.9655 39.1704C17.0496 39.1268 17.1374 39.1146 17.2287 39.1338C17.3214 39.1464 17.3949 39.1857 17.4492 39.2516C17.5175 39.3478 17.5421 39.4415 17.5229 39.5328C17.5102 39.6255 17.4579 39.6963 17.3659 39.7451C17.1122 39.8825 16.8059 39.9782 16.4471 40.0322C16.0897 40.0796 15.7577 40.0711 15.4511 40.0067ZM18.9457 43.0815C18.8283 43.0568 18.7412 43.0011 18.6845 42.9142C18.633 42.8353 18.6196 42.7371 18.6443 42.6196L19.6155 38.0006C19.729 37.4931 19.9458 37.0618 20.2657 36.7067C20.5935 36.3465 20.9843 36.0914 21.4382 35.9416C21.8986 35.7932 22.3832 35.7725 22.8921 35.8795C23.414 35.9892 23.8551 36.208 24.2154 36.5358C24.577 36.8571 24.832 37.2479 24.9805 37.7083C25.1354 38.1701 25.1581 38.6619 25.0483 39.1838C24.9399 39.6992 24.7251 40.1378 24.4038 40.4994C24.0891 40.8624 23.7073 41.1227 23.2586 41.2804C22.8113 41.4316 22.3364 41.4544 21.8341 41.3488C21.3969 41.2569 21.0182 41.0819 20.6978 40.8237C20.3853 40.5605 20.1536 40.2529 20.0028 39.901L19.3978 42.7781C19.3731 42.8955 19.318 42.9793 19.2326 43.0295C19.1522 43.0875 19.0566 43.1049 18.9457 43.0815ZM21.89 40.6452C22.2684 40.7248 22.6262 40.7081 22.9633 40.595C23.3005 40.482 23.5861 40.29 23.8202 40.019C24.0622 39.7429 24.2236 39.4124 24.3046 39.0275C24.3869 38.636 24.3722 38.2685 24.2605 37.9248C24.1554 37.5825 23.9713 37.2917 23.7082 37.0525C23.4465 36.8067 23.1265 36.644 22.7481 36.5645C22.3762 36.4863 22.021 36.507 21.6825 36.6265C21.3453 36.7396 21.0597 36.9316 20.8256 37.2026C20.5915 37.4735 20.4333 37.8047 20.351 38.1962C20.2701 38.5811 20.2815 38.9479 20.3853 39.2968C20.4904 39.6391 20.6746 39.9298 20.9376 40.1691C21.2007 40.4083 21.5182 40.5671 21.89 40.6452ZM27.8234 42.6081C27.4385 42.5272 27.0705 42.3817 26.7196 42.1717C26.3686 41.9616 26.1032 41.7014 25.9232 41.3911C25.8679 41.2977 25.857 41.2035 25.8906 41.1083C25.9243 41.0132 25.991 40.9387 26.0909 40.8848C26.196 40.8387 26.2961 40.8325 26.3912 40.8662C26.4863 40.8998 26.5589 40.9593 26.6091 41.0448C26.7273 41.2604 26.9033 41.4439 27.1371 41.5953C27.3775 41.748 27.6543 41.8573 27.9674 41.9231C28.4502 42.0246 28.8164 42.0165 29.066 41.8986C29.3169 41.7743 29.4704 41.5954 29.5263 41.3619C29.5757 41.127 29.5052 40.9112 29.315 40.7145C29.1261 40.5113 28.7861 40.3138 28.2951 40.122C27.6581 39.8791 27.2137 39.5949 26.962 39.2694C26.7102 38.944 26.622 38.6019 26.6975 38.2431C26.7675 37.9103 26.9138 37.6516 27.1366 37.4668C27.3594 37.282 27.6293 37.165 27.9462 37.1159C28.2631 37.0667 28.5977 37.0791 28.9499 37.1532C29.3871 37.2451 29.7464 37.399 30.028 37.6149C30.3161 37.8322 30.5313 38.0886 30.6735 38.3842C30.7209 38.4827 30.7285 38.5763 30.6963 38.6649C30.664 38.7535 30.596 38.8175 30.4924 38.857C30.4045 38.8863 30.3097 38.8834 30.2081 38.8484C30.1143 38.8082 30.0398 38.7415 29.9845 38.6481C29.8612 38.4246 29.7008 38.2478 29.5033 38.1177C29.3072 37.9811 29.0689 37.8833 28.7884 37.8243C28.4296 37.7489 28.1267 37.7636 27.8799 37.8683C27.6344 37.9666 27.4884 38.1266 27.4417 38.3485C27.4102 38.4985 27.4219 38.6372 27.4769 38.7646C27.5384 38.8933 27.658 39.0207 27.8359 39.1466C28.0203 39.274 28.2858 39.4047 28.6323 39.5389C29.1051 39.7201 29.4653 39.9184 29.7129 40.134C29.9684 40.3444 30.133 40.5663 30.2065 40.7998C30.2879 41.0281 30.3033 41.263 30.2525 41.5043C30.188 41.811 30.0398 42.0625 29.8077 42.259C29.5836 42.4503 29.2979 42.5776 28.9508 42.6408C28.6102 42.7055 28.2344 42.6946 27.8234 42.6081ZM31.7781 43.3886C31.6606 43.3639 31.5729 43.3114 31.5148 43.231C31.4647 43.1456 31.452 43.0441 31.4767 42.9267L32.4417 38.337C32.4664 38.2196 32.5182 38.1351 32.5972 38.0836C32.684 38.0269 32.7862 38.0109 32.9036 38.0356C33.0145 38.0589 33.095 38.1133 33.1452 38.1988C33.2032 38.2792 33.2199 38.378 33.1952 38.4955L32.2302 43.0851C32.2055 43.2025 32.1497 43.2896 32.0629 43.3463C31.9839 43.3978 31.889 43.4119 31.7781 43.3886ZM33.1078 37.0158C32.9643 36.9856 32.8513 36.9074 32.7689 36.7811C32.6864 36.6547 32.661 36.5165 32.6925 36.3665C32.7268 36.2034 32.8058 36.0871 32.9294 36.0177C33.0609 35.9432 33.1984 35.921 33.3419 35.9512C33.4789 35.98 33.5893 36.0543 33.6731 36.1741C33.7648 36.2888 33.7935 36.4277 33.7592 36.5908C33.7277 36.7408 33.6487 36.8571 33.5224 36.9395C33.3961 37.0219 33.2579 37.0474 33.1078 37.0158Z"
      fill="white" />
    <path
      d="M36.5581 40.3654C36.1973 40.8096 35.9297 41.0944 35.6789 41.2646C35.4527 41.418 35.2419 41.4772 34.9645 41.4488C34.6589 41.4176 34.2511 41.2774 33.6549 40.9635C33.064 40.6523 32.3285 40.1928 31.374 39.5618C29.5285 38.3417 28.6096 37.0734 28.2456 36.025C27.8781 34.9666 28.0756 34.1545 28.4084 33.7448C28.5694 33.5466 28.7282 33.4665 28.9166 33.4499C29.1316 33.431 29.442 33.4906 29.8948 33.7014C30.8062 34.1256 32.0732 35.0525 33.8968 36.5339C34.5438 37.0595 35.0978 37.4891 35.5546 37.8434C35.7416 37.9883 35.9122 38.1207 36.0663 38.2418C36.6172 38.6749 36.9264 38.9432 37.0856 39.1534C37.1581 39.2493 37.1784 39.3071 37.1847 39.3385C37.1899 39.3646 37.1918 39.4024 37.1675 39.4732C37.1062 39.6521 36.9322 39.9049 36.5581 40.3654Z"
      fill="#444243" stroke="#101010" />
    <path
      d="M19.9276 28.8065C19.9276 28.9953 19.8149 29.2343 19.6176 29.4351C19.42 29.6362 19.1859 29.75 19 29.75C18.8153 29.75 18.5873 29.6373 18.3957 29.4374C18.2045 29.238 18.0946 28.9983 18.0946 28.8065C18.0946 28.4138 18.413 28.0565 18.9813 28.0565C19.5416 28.0565 19.9276 28.4333 19.9276 28.8065Z"
      fill="#D74141" stroke="#101010" stroke-width="0.5" />
  </g>
</svg>