<svg xmlns="http://www.w3.org/2000/svg" fill="none" viewBox="0 0 48 48"><mask id="a" style="mask-type:alpha" maskUnits="userSpaceOnUse" x="0" y="0" width="48" height="48"><rect width="48" height="48" rx="24" fill="#E9E9E9"/></mask><g mask="url(#a)"><circle cx="24" cy="24" r="24" fill="#D4D4D4"/><path d="m6.2 29.4-1.8 4.3-.4 1.1-.6 1-.1.1H3l-.1-.1c-.8-.4-1.3-.7-1.6-1.4-.2-.8-.2-2.4 1-5.6a10 10 0 0 1 6.5-5c.6-.2 1-.1 1.3 0h.1l-.1.3-.5.5c-.9 1-2.2 2.4-3.4 4.8Z" fill="#444243" stroke="#101010"/><path d="M34.4 40.4c.8-1.4 1-2 1.7-2.8 0-8.8.8-16 4.3-16 2-.3 7.5 1.7 6.4 5.7-1.4 2.9-4 2-6.1-1h-.3c-1 .5-.9 5.3-1.3 8.4-.3 2.8-3.4 7.7-4.7 7.3v-1.6Z" fill="#444243"/><path d="M40.7 26.2c2.2 3.2 4.7 4 6.1 1.1 1-4-4.4-6-6.4-5.6-3.5 0-4.3 7-4.3 15.9-.6.8-1 1.4-1.7 2.8V42c1.3.4 4.4-4.5 4.7-7.3.4-3.4.3-8.8 1.6-8.5Zm0 0c-.8.3.3-.6.3-.6" stroke="#101010" stroke-width="1.5" stroke-linecap="round"/><path d="M6.7 27.7c-.8 1-1.3 2-4.5 13.8-.8 3 .9 7 2.7 7.7 2.7 1 6.9 2.7 20.9 2.8 6.7 0 9.1-5 10-6.6.7-1.4-.3-18-.6-19.8-.6-3-.6-5.1-.5-4.2 0-2.3.9-7.1.5-7.2-.3-.1-3.4 2-4.7 3.8-2.9-2.8-5.5-2.7-6.2-2.9h-4.9l.5-2.6.5-3.1a523.2 523.2 0 0 0-8.7 10.5l-2.2 3-2 3-.8 1.8Z" fill="#444243"/><path d="M19.4 17v-1.9M30 19.6c0-.5.2-1 .6-1.6m-11-2.9c0-.8.4-2.6.4-2.6l.5-3.1a523.2 523.2 0 0 0-8.7 10.5l-2.2 3-2 3-.8 1.8c-.8 1-1.3 2-4.5 13.8-.8 3 .9 7 2.7 7.7 2.7 1 6.9 2.7 20.9 2.8 6.7 0 9.1-5 10-6.6.7-1.4-.3-18-.6-19.8-.6-3-.6-5.1-.5-4.2 0-2.3.9-7.1.5-7.2-.3-.1-3.4 2-4.7 3.8m-11-2.9h4.8c.7.2 3.3.1 6.2 2.9" stroke="#101010" stroke-width="1.5" stroke-linecap="round"/><path d="M15 26.5c-.3 1-1.5 1-2.8.6-1.4-.4-2.3-1.1-2-2.2.4-1 2-.9 3.4-.4 1.3.4 1.7 1 1.4 2ZM29 26.2c-.5.3-.6 1-2 1.3-1.4.2-2.8.6-3-.5-.2-1 1-1.6 2.4-1.8 1.4-.2 2.4-.1 2.5 1Z" fill="#EE6767" fill-opacity=".3"/><path d="m11 25 .5 1M12 25l.5 1M25.8 25.8l-.5 1M26.8 25.8l-.5 1M27.8 25.8l-.5 1M13 25l.5 1" stroke="#6C2222" stroke-width=".1" stroke-linecap="round"/><ellipse cx="15" cy="23.1" rx="2.5" ry="2.6" transform="rotate(11.5 15 23)" fill="#101010"/><path d="M27 24c0 1.5-1.3 2-3 2s-3 .2-3-1.5c.5-3 1.5-3 2.5-3 1.7 0 3 .5 3.5 2.5Z" fill="#0D1A3C" fill-opacity=".3"/><path d="M25 25c0 .7.1 1-1 1s-2.5-.3-2.5-1c.3-1.3 1.5-1 2.2-1 1 0 1 .1 1.3 1Z" fill="#102F27" fill-opacity=".3"/><path d="M16.8 25.5c-1.5-.3-2.2-.2-2.9.1M25.8 22.9c-1.5-.3-2.5.7-3.8 2" stroke="#101010" stroke-linecap="round"/><path d="M22.4 22.2c1 .2 2.1 2.2 2.7 3.2" stroke="#101010" stroke-linecap="round"/><circle cx="14.4" cy="22" r="1.1" fill="#fff"/><circle cx="13.9" cy="23.4" r=".6" fill="#fff"/><circle cx="15.2" cy="23.1" r=".3" fill="#fff"/><path d="M19 26.6v1.1M19 27.7l-2 .4M21 28.1l-2-.4" stroke="#101010" stroke-linecap="round"/><path d="M20 24.9c-.8-.3-1.4-.3-2.5 0 0 .2 1.1 1.8 1.4 2.3.6-.9 1.2-2.3 1.1-2.3Z" fill="#6C2222"/><path d="M34.5 21s.4-.3.9.3c0 .6-.7 1.1-1 1.1-.2 0-.4.2-.4-.4 0-1 0-1.3.5-1Z" fill="#101010"/><path d="M25.3 30.8c1-.3 1.8-1.5 3.4-5l1.6.5c-1.5 3.8-1 5.4-.5 6 .1.2.2.5.1.7l-2 6.8s-3 0-5.4-1.8a.5.5 0 0 1-.2-.5l2.6-6.3c0-.2.2-.3.4-.4Z" fill="#2C5E43"/><path d="m30.3 26.3-1.9-.7-.3 1 1.1-.2.8.8.3-.9Z" fill="#DFB10E"/><path d="M29.5 33.4a6 6 0 0 1-4.3-1.5l-1 2.9 4.3 1.4 1-2.8Z" fill="#DAAD0D" fill-opacity=".7"/><path d="m35.5 36-.1 1.3c0 .2-.2.4-.5.5-.2.2-.6.4-1.3.5l-2.6.3c-2.2.3-3.7-.1-4.7-.7S25 36.5 25 36c0-.3 0-.4.2-.5a2 2 0 0 1 1-.5c.9-.2 2.5-.3 4.8-.3h2.1a95.6 95.6 0 0 1 2.2.1l.1.1.1 1.1Z" fill="#444243" stroke="#101010"/></g></svg>