<svg xmlns="http://www.w3.org/2000/svg" width="48" height="48" viewBox="0 0 48 48" fill="none">
  <defs>
    <clipPath id="mask">
      <circle cx="24" cy="24" r="24"></circle>
    </clipPath>
  </defs>
  <g clip-path="url(#mask)">
    <circle cx="24" cy="24" r="24" fill="#D4D4D4" />
    <path
      d="M6.23175 29.3779C5.36199 31.1242 4.79634 32.6175 4.37271 33.7358C4.2152 34.1516 4.07732 34.5156 3.95074 34.8215C3.70309 35.42 3.52416 35.73 3.373 35.8661C3.31461 35.9187 3.28249 35.9243 3.26449 35.9258C3.23758 35.9281 3.16837 35.9245 3.03448 35.8579C2.97495 35.8282 2.91639 35.7994 2.85888 35.771C2.14893 35.4214 1.59785 35.1499 1.34323 34.4059C1.05205 33.5551 1.12368 31.9742 2.34085 28.8235C3.34141 26.8274 4.9944 25.3936 6.58044 24.5472C7.37548 24.1229 8.14027 23.8535 8.77993 23.7328C9.44143 23.6078 9.89025 23.6561 10.1133 23.7672C10.1649 23.7929 10.2012 23.8145 10.2263 23.8312C10.1988 23.8821 10.149 23.958 10.0627 24.0667C9.94335 24.2171 9.78428 24.3941 9.58116 24.6176C9.56167 24.639 9.54188 24.6607 9.52181 24.6828C8.70804 25.5774 7.41874 26.9947 6.23175 29.3779Z"
      fill="#444243" stroke="#101010" />
    <path
      d="M34.4203 40.3919C35.1647 39.0042 35.48 38.3735 36.1107 37.5852C36.09 28.7844 36.8991 21.6606 40.3677 21.6606C42.4174 21.3454 47.8748 23.3109 46.8321 27.3367C45.4131 30.1748 42.8904 29.3864 40.683 26.233C40.4826 26.3132 40.4045 26.3118 40.3994 26.2652C39.4112 26.777 39.5138 31.5845 39.1064 34.7471C38.7521 37.4973 35.7278 42.4285 34.4241 41.9845L34.4203 40.3919Z"
      fill="#444243" />
    <path
      d="M40.683 26.233C42.8904 29.3864 45.4131 30.1748 46.8321 27.3367C47.8748 23.3109 42.4174 21.3454 40.3677 21.6606C36.8991 21.6606 36.09 28.7844 36.1107 37.5852C35.48 38.3735 35.1647 39.0042 34.4203 40.3919L34.4241 41.9845C35.7278 42.4285 38.7521 37.4973 39.1064 34.7471C39.5492 31.3095 39.3895 25.9284 40.683 26.233ZM40.683 26.233C39.8947 26.5484 40.9984 25.6023 40.9984 25.6023"
      stroke="#101010" stroke-width="1.5" stroke-linecap="round" />
    <path
      d="M6.66266 27.6752C5.89138 28.7644 5.43312 29.7903 2.21539 41.4854C1.395 44.4672 3.0551 48.5299 4.88377 49.1752C7.5521 50.1168 11.7945 51.9201 25.7861 52C32.4571 52 34.9022 46.9642 35.7185 45.4088C36.4597 43.9963 35.5429 27.3382 35.1894 25.635C34.5707 22.6533 34.6426 20.5034 34.6807 21.3978C34.7908 19.0909 35.602 14.2809 35.1894 14.1611C34.8766 14.0702 31.8355 16.1845 30.5189 17.9955C27.6016 15.2395 25.0449 15.2774 24.2574 15.1197C23.6303 14.9941 20.7994 15.0006 19.4116 15.1204C19.5599 14.3358 19.8564 12.4526 19.8564 12.4526L20.386 9.36875C20.4033 9.26785 20.2762 9.209 20.211 9.2879C19.1387 10.5846 14.6842 15.9864 11.7029 19.8285L9.47929 22.9672L7.55212 25.9489L6.66266 27.6752Z"
      fill="#444243" />
    <path
      d="M19.4102 17.0369C19.3967 16.5358 19.4206 15.8244 19.4116 15.1204M29.9297 19.5533C29.8549 19.1189 30.0994 18.5726 30.5189 17.9955M19.4116 15.1204C19.5599 14.3358 19.8564 12.4526 19.8564 12.4526L20.386 9.36875C20.4033 9.26785 20.2762 9.209 20.211 9.2879C19.1387 10.5846 14.6842 15.9864 11.7029 19.8285L9.47929 22.9672L7.55212 25.9489L6.66266 27.6752C5.89138 28.7644 5.43312 29.7903 2.21539 41.4854C1.395 44.4672 3.0551 48.5299 4.88377 49.1752C7.5521 50.1168 11.7945 51.9201 25.7861 52C32.4571 52 34.9022 46.9642 35.7185 45.4088C36.4597 43.9963 35.5429 27.3382 35.1894 25.635C34.5707 22.6533 34.6426 20.5034 34.6807 21.3978C34.7908 19.0909 35.602 14.2809 35.1894 14.1611C34.8766 14.0702 31.8355 16.1845 30.5189 17.9955M19.4116 15.1204C20.7994 15.0006 23.6303 14.9941 24.2574 15.1197C25.0449 15.2774 27.6016 15.2395 30.5189 17.9955"
      stroke="#101010" stroke-width="1.5" stroke-linecap="round" />
    <path
      d="M15 26.5C14.6555 27.5495 13.4687 27.5761 12.1569 27.1454C10.845 26.7148 9.90491 25.99 10.2494 24.9405C10.5939 23.891 12.2558 24.0204 13.5676 24.451C14.8794 24.8817 15.3445 25.4505 15 26.5Z"
      fill="#EE6767" fill-opacity="0.29" />
    <path
      d="M28.9329 26.1834C28.5 26.5 28.3622 27.2745 27 27.5C25.6378 27.7255 24.1805 28.0898 24 27.0001C23.8196 25.9103 25.0708 25.4089 26.433 25.1834C27.7951 24.9579 28.7525 25.0937 28.9329 26.1834Z"
      fill="#EE6767" fill-opacity="0.29" />
    <path d="M11 25L11.5 26" stroke="#6C2222" stroke-width="0.1" stroke-linecap="round" />
    <path d="M12 25L12.5 26" stroke="#6C2222" stroke-width="0.1" stroke-linecap="round" />
    <path d="M25.7924 25.8185L25.3051 26.8247" stroke="#6C2222" stroke-width="0.1"
      stroke-linecap="round" />
    <path d="M26.7972 25.8L26.2972 26.8" stroke="#6C2222" stroke-width="0.1" stroke-linecap="round" />
    <path d="M27.7972 25.8L27.2972 26.8" stroke="#6C2222" stroke-width="0.1" stroke-linecap="round" />
    <path d="M13 25L13.5 26" stroke="#6C2222" stroke-width="0.1" stroke-linecap="round" />
    <ellipse cx="14.9957" cy="23.0926" rx="2.51858" ry="2.64282"
      transform="rotate(11.5217 14.9957 23.0926)" fill="#101010" />
    <path
      d="M27 24C27 25.5 25.6569 26 24 26C22.3431 26 21 26.1569 21 24.5C21.5 21.5 22.5 21.5 23.5 21.5C25.1569 21.5 26.5 22 27 24Z"
      fill="#0D1A3C" fill-opacity="0.3" />
    <path
      d="M25 25C25 25.6661 25.1046 25.9983 24 25.9983C22.8954 25.9983 21.5 25.7357 21.5 25C21.8333 23.6679 23 24 23.6667 24C24.7712 24 24.6667 24.1119 25 25Z"
      fill="#102F27" fill-opacity="0.3" />
    <path d="M16.7713 25.4646C15.2847 25.1629 14.6089 25.3138 13.9332 25.6155" stroke="#101010"
      stroke-linecap="round" />
    <path d="M25.8079 22.8834C24.3348 22.6005 23.2649 23.6443 22 24.9289" stroke="#101010"
      stroke-linecap="round" />
    <path d="M22.3706 22.2235C23.3527 22.4121 24.5002 24.3908 25.0784 25.3986" stroke="#101010"
      stroke-linecap="round" />
    <circle cx="14.4062" cy="21.9892" r="1.10368" fill="white" />
    <circle cx="13.9332" cy="23.4081" r="0.630672" fill="white" />
    <circle cx="15.1947" cy="23.0928" r="0.315336" fill="white" />
    <path d="M18.9248 26.561V26.8764V27.1917V27.6647" stroke="#101010" stroke-linecap="round" />
    <path d="M18.9247 27.6652L17.0327 28.1382" stroke="#101010" stroke-linecap="round" />
    <path d="M20.9744 28.1378L18.9248 27.6648" stroke="#101010" stroke-linecap="round" />
    <path
      d="M20.0188 24.8853C19.1812 24.5971 18.6228 24.5971 17.506 24.8855C17.506 25.0777 18.6097 26.7189 18.902 27.1919C19.4604 26.327 20.1173 24.9192 20.0188 24.8853Z"
      fill="#6C2222" />
    <path
      d="M34.5 21C34.5 21 34.9296 20.6731 35.3836 21.2591C35.3736 21.8982 34.7187 22.4204 34.463 22.4164C34.2073 22.4124 33.99 22.6392 34 22C34 21 34.0189 20.741 34.5 21Z"
      fill="#101010" />
    <path
      d="M25.2981 30.8304C26.2595 30.5389 27.0713 29.2695 28.7224 25.7483L30.2506 26.272C28.7625 30.081 29.3775 31.7384 29.7815 32.3315C29.9066 32.5151 29.9805 32.7531 29.9101 32.9638C29.1074 35.3687 27.8216 39.7639 27.8216 39.7639C27.8216 39.7639 24.9082 39.7491 22.4552 38.0447C22.2696 37.9157 22.2057 37.6734 22.292 37.4645L24.8958 31.1626C24.9654 30.994 25.1235 30.8833 25.2981 30.8304Z"
      fill="#2C5E43" />
    <path
      d="M30.3233 26.2969L28.4314 25.6484L28.1072 26.5944L29.2152 26.4457L29.9991 27.2429L30.3233 26.2969Z"
      fill="#DFB10E" />
    <path
      d="M29.4726 33.4051C28.5762 33.4503 26.8482 33.3513 25.2157 31.946L24.243 34.784L28.4998 36.2431L29.4726 33.4051Z"
      fill="#DAAD0D" fill-opacity="0.69" />
    <path
      d="M35.5 36C35.5 36.5724 35.4719 36.9621 35.3845 37.2523C35.3057 37.5141 35.1794 37.6929 34.9462 37.8458C34.6893 38.0142 34.2844 38.1625 33.6237 38.2948C32.9689 38.4259 32.1083 38.533 30.9696 38.645C28.7679 38.8617 27.255 38.4567 26.3114 37.8724C25.3588 37.2827 25 36.5279 25 36C25 35.7447 25.0727 35.5824 25.2085 35.4507C25.3635 35.3004 25.642 35.151 26.1263 35.0291C27.1012 34.7837 28.669 34.7042 31.0185 34.7042C31.8521 34.7042 32.553 34.6883 33.1309 34.6753C33.3674 34.6699 33.5833 34.665 33.7793 34.6619C34.48 34.6507 34.8891 34.664 35.1452 34.7268C35.262 34.7554 35.3141 34.7875 35.3388 34.8079C35.3593 34.8249 35.3847 34.8531 35.4105 34.9233C35.4757 35.1008 35.5 35.4067 35.5 36Z"
      fill="#444243" stroke="#101010" />
  </g>
</svg>