<svg xmlns="http://www.w3.org/2000/svg" fill="none" viewBox="0 0 48 48"><mask id="a" style="mask-type:alpha" maskUnits="userSpaceOnUse" x="0" y="0" width="48" height="48"><rect width="48" height="48" rx="24" fill="#E9E9E9"/></mask><g mask="url(#a)"><circle cx="24" cy="24" r="24" fill="#D4D4D4"/><path d="m6.2 29.4-1.8 4.3-.4 1.1-.6 1-.1.1H3l-.1-.1c-.8-.4-1.3-.7-1.6-1.4-.2-.8-.2-2.4 1-5.6a10 10 0 0 1 6.5-5c.6-.2 1-.1 1.3 0h.1l-.1.3-.5.5c-.9 1-2.2 2.4-3.4 4.8Z" fill="#444243" stroke="#101010"/><path d="M34.4 40.4c.8-1.4 1-2 1.7-2.8 0-8.8.8-16 4.3-16 2-.3 7.5 1.7 6.4 5.7-1.4 2.9-4 2-6.1-1h-.3c-1 .5-.9 5.3-1.3 8.4-.3 2.8-3.4 7.7-4.7 7.3v-1.6Z" fill="#444243"/><path d="M40.7 26.2c2.2 3.2 4.7 4 6.1 1.1 1-4-4.4-6-6.4-5.6-3.5 0-4.3 7-4.3 15.9-.6.8-1 1.4-1.7 2.8V42c1.3.4 4.4-4.5 4.7-7.3.4-3.4.3-8.8 1.6-8.5Zm0 0c-.8.3.3-.6.3-.6" stroke="#101010" stroke-width="1.5" stroke-linecap="round"/><path d="M6.7 27.7c-.8 1-1.3 2-4.5 13.8-.8 3 .9 7 2.7 7.7 2.7 1 6.9 2.7 20.9 2.8 6.7 0 9.1-5 10-6.6.7-1.4-.3-18-.6-19.8-.6-3-.6-5.1-.5-4.2 0-2.3.9-7.1.5-7.2-.3-.1-3.4 2-4.7 3.8-2.9-2.8-5.5-2.7-6.2-2.9h-4.9l.5-2.6.5-3.1a523.2 523.2 0 0 0-8.7 10.5l-2.2 3-2 3-.8 1.8Z" fill="#444243"/><path d="M19.4 17v-1.9M30 19.6c0-.5.2-1 .6-1.6m-11-2.9c0-.8.4-2.6.4-2.6l.5-3.1a523.2 523.2 0 0 0-8.7 10.5l-2.2 3-2 3-.8 1.8c-.8 1-1.3 2-4.5 13.8-.8 3 .9 7 2.7 7.7 2.7 1 6.9 2.7 20.9 2.8 6.7 0 9.1-5 10-6.6.7-1.4-.3-18-.6-19.8-.6-3-.6-5.1-.5-4.2 0-2.3.9-7.1.5-7.2-.3-.1-3.4 2-4.7 3.8m-11-2.9h4.8c.7.2 3.3.1 6.2 2.9" stroke="#101010" stroke-width="1.5" stroke-linecap="round"/><ellipse cx="15" cy="23.1" rx="2.5" ry="2.6" transform="rotate(11.5 15 23)" fill="#101010"/><path d="M16.8 25.5c-1.5-.3-2.2-.2-2.9.1" stroke="#101010" stroke-linecap="round"/><circle cx="14.4" cy="22" r="1.1" fill="#fff"/><circle cx="13.9" cy="23.4" r=".6" fill="#fff"/><circle cx="15.2" cy="23.1" r=".3" fill="#fff"/><ellipse cx="24" cy="23.1" rx="2.5" ry="2.6" transform="rotate(11.5 24 23)" fill="#101010"/><path d="M26.2 25.7c-1.4-.6-3-.2-3.6 0" stroke="#101010" stroke-linecap="round"/><circle cx="23.4" cy="22.1" r="1.1" fill="#fff"/><circle cx="22.9" cy="23.5" r=".6" fill="#fff"/><circle cx="24.2" cy="23.2" r=".3" fill="#fff"/><path d="M20 24.5c-.8-.3-1.4-.3-2.5 0 0 .2 1.2 1.5 1.5 2 .6-.9 1.1-2 1-2Z" fill="#101010"/><path d="M19 26.6v1.1M19 27.7l-2 .4M21 28.1l-2-.4" stroke="#101010" stroke-linecap="round"/><path d="M34.5 21s.4-.3.9.3c0 .6-.7 1.1-1 1.1-.2 0-.4.2-.4-.4 0-1 0-1.3.5-1Z" fill="#101010"/><path d="m6.2 27.2-.2.3.2-.3c2.4-3.8-2.8-2.9-3-5.6l.7-3-.3-2.7 2.6 2.7c1.9 2.3 2 5.5.5 8l-.5.6Z" fill="#777"/><path d="M22.5 26.5c-.2-.2-1-1.5-2.6-1.5l-.6.2-.7.2s-1-.6-1.8-.4c-1 .3-1.8 1.5-1.8 1.5l-4 1s4 1.4 5.2 1c1.1-.4 2.4-1.6 2.4-1.6s1.3 1.3 2.5 1.8c1.4.7 4.9-.7 4.9-.7-.2-.2-3.3-1.3-3.5-1.5Z" fill="#F6F5F5" stroke="#000" stroke-width=".2"/><path d="m8.3 26.7 10.4 1 .4 1.6-.6 1L8 29.6l.3-3Z" fill="#5E3A0F"/><path d="m6.3 26.5 2.5-.3.4 1.6-.7 2-2.4-1.3.2-2Z" fill="#4F3B35"/><path d="M16.3 27.5c.2 1.2-.1 2.7-.3 3" stroke="#E3A70C"/><path d="M8 29.7s-2-1.1-1.8-2.2c.2-1 2.1-1.3 2.1-1.3M8 29.7s1.2-1 1.2-2c0-.7-.9-1.5-.9-1.5M8 29.7l7.8.7 1 .1c.7.1 1.6 0 2-.6.3-.4.4-.8.3-1.3-.1-.6-.7-1-1.3-1l-1.7-.3-7.8-1.1" stroke="#000"/><path d="m32 33.9-.7 1c-.2.2-.4.3-.8.3s-1 0-1.9-.3l-3.4-1.2c-2.8-1-4.6-2.3-5.5-3.4-1-1.1-1.1-2-1-2.4l.6-.4 1.4.2c1.3.3 3.3 1.1 6.2 2.4l2.6 1.2.8.3 1.7.9c.3.2.3.3.3.4 0 .2 0 .4-.3 1Z" fill="#444243" stroke="#101010"/><path d="M17.7 21.3c.2 0 .6-.5.2-1 0 0-3.4-1.5-4.4-1.1-1.8.6 4.2 2 4.2 2ZM21.5 21.3c-.2 0-.6-.5-.2-1 0 0 3.4-1.5 4.4-1.1 1.8.6-4.2 2-4.2 2Z" fill="#F9F9F9" stroke="#000" stroke-width=".2"/><path d="M41.2 15.6c-.7 3.8-8.9 3.6-17.2 2-8.4-1.4-15.2-3.9-14.6-7.7.7-3.8 5.2-6.2 13.5-4.7 8.4 1.4 19 6.5 18.3 10.4Z" fill="#042507"/><path d="M35.7 17.5 36 16s-8.1-3.4-13.6-4.3c-3.7-.7-9-.3-9-.3l-.4 2.2c0 .1.1.3.3.2 1.2-.3 6-1.4 9-.9 4.8.8 11.7 4.2 13 4.9.2 0 .3 0 .4-.2Z" fill="#7C0606"/><path d="m13.8 16.5 8.3.9L33.3 20l-4.9 1a10 10 0 0 1-3.7 0l-15-2.6 4-1.9Z" fill="#000"/><path d="m35.1 20.7.8-4.4s-8-3.4-13.6-4c-3.5-.4-9 0-9 0l-.9 4.4.2.3c1 0 5.7.3 8.8.7a121.3 121.3 0 0 1 13.7 3Z" fill="#A80909"/><path d="M12.7 15a111.3 111.3 0 0 0 22.7 4l-.2 1.3s-8-2-12.5-2.8c-4.4-.8-10.2-1.2-10.2-1.2l.2-1.2Z" fill="#F8DF85"/><path d="M23.9 14.4a1.3 1.3 0 1 1-2.5-.4 1.3 1.3 0 0 1 2.5.4Z" fill="#F4CC3F"/><path d="M23.3 14.3a.6.6 0 1 1-1.3-.2.6.6 0 0 1 1.3.2Z" fill="#A80909"/><path d="m22.4 14 .3-.4.1.5h.5l-.4.2v.5l-.3-.4-.5.2.2-.4-.3-.2h.4Z" fill="#F8C034"/><path d="M25.2 36.4v1" stroke="#000" stroke-width=".2"/><path d="M23.8 35.6h2.8v.8h-2.8v-.8Z" fill="#BC1313" stroke="#F8C034" stroke-width=".2"/><path d="m24.7 38 .5-1 .4 1h1l-.8.5.3 1-1-.6-1 .6.4-1-.8-.5h1Z" fill="#F8C034"/></g></svg>