<svg xmlns="http://www.w3.org/2000/svg" width="48" height="48" viewBox="0 0 48 48" fill="none">
  <defs>
    <clipPath id="mask">
      <circle cx="24" cy="24" r="24"></circle>
    </clipPath>
  </defs>
  <g clip-path="url(#mask)">
    <circle cx="24" cy="24" r="24" fill="#D4D4D4" />
    <path
      d="M34.4203 40.3919C35.1647 39.0042 35.48 38.3735 36.1107 37.5852C36.09 28.7844 36.8991 21.6606 40.3677 21.6606C42.4174 21.3454 47.8748 23.3109 46.8321 27.3367C45.4131 30.1748 42.8904 29.3864 40.683 26.233C40.4826 26.3132 40.4045 26.3118 40.3994 26.2652C39.4112 26.777 39.5138 31.5845 39.1064 34.7471C38.7521 37.4973 35.7278 42.4285 34.4241 41.9845L34.4203 40.3919Z"
      fill="#444243" />
    <path
      d="M40.683 26.233C42.8904 29.3864 45.4131 30.1748 46.8321 27.3367C47.8748 23.3109 42.4174 21.3454 40.3677 21.6606C36.8991 21.6606 36.09 28.7844 36.1107 37.5852C35.48 38.3735 35.1647 39.0042 34.4203 40.3919L34.4241 41.9845C35.7278 42.4285 38.7521 37.4973 39.1064 34.7471C39.5492 31.3095 39.3895 25.9284 40.683 26.233ZM40.683 26.233C39.8947 26.5484 40.9984 25.6023 40.9984 25.6023"
      stroke="#101010" stroke-width="1.5" stroke-linecap="round" />
    <path
      d="M6.66266 27.6752C5.89138 28.7644 5.43312 29.7903 2.21539 41.4854C1.395 44.4672 3.0551 48.5299 4.88377 49.1752C7.5521 50.1168 11.7945 51.9201 25.7861 52C32.4571 52 34.9022 46.9642 35.7185 45.4088C36.4597 43.9963 35.5429 27.3382 35.1894 25.635C34.5707 22.6533 34.6426 20.5034 34.6807 21.3978C34.7908 19.0909 35.602 14.2809 35.1894 14.1611C34.8766 14.0702 31.8355 16.1845 30.5189 17.9955C27.6016 15.2395 25.0449 15.2774 24.2574 15.1197C23.6303 14.9941 20.7994 15.0006 19.4116 15.1204C19.5599 14.3358 19.8564 12.4526 19.8564 12.4526L20.386 9.36875C20.4033 9.26785 20.2762 9.209 20.211 9.2879C19.1387 10.5846 14.6842 15.9864 11.7029 19.8285L9.47929 22.9672L7.55212 25.9489L6.66266 27.6752Z"
      fill="#444243" />
    <path
      d="M19.4102 17.0369C19.3967 16.5358 19.4206 15.8244 19.4116 15.1204M29.9297 19.5533C29.8549 19.1189 30.0994 18.5726 30.5189 17.9955M19.4116 15.1204C19.5599 14.3358 19.8564 12.4526 19.8564 12.4526L20.386 9.36875C20.4033 9.26785 20.2762 9.209 20.211 9.2879C19.1387 10.5846 14.6842 15.9864 11.7029 19.8285L9.47929 22.9672L7.55212 25.9489L6.66266 27.6752C5.89138 28.7644 5.43312 29.7903 2.21539 41.4854C1.395 44.4672 3.0551 48.5299 4.88377 49.1752C7.5521 50.1168 11.7945 51.9201 25.7861 52C32.4571 52 34.9022 46.9642 35.7185 45.4088C36.4597 43.9963 35.5429 27.3382 35.1894 25.635C34.5707 22.6533 34.6426 20.5034 34.6807 21.3978C34.7908 19.0909 35.602 14.2809 35.1894 14.1611C34.8766 14.0702 31.8355 16.1845 30.5189 17.9955M19.4116 15.1204C20.7994 15.0006 23.6303 14.9941 24.2574 15.1197C25.0449 15.2774 27.6016 15.2395 30.5189 17.9955"
      stroke="#101010" stroke-width="1.5" stroke-linecap="round" />
    <ellipse cx="14.9957" cy="24.3927" rx="2.51858" ry="2.64282"
      transform="rotate(11.5217 14.9957 24.3927)" fill="#101010" />
    <path
      d="M16.1605 25.4229C16.1605 26.0324 15.6663 26.5266 15.0568 26.5266C14.4473 26.5266 13.9531 26.0324 13.9531 25.4229C13.9531 24.8133 14.4473 24.3192 15.0568 24.3192C15.6663 24.3192 16.1605 24.8133 16.1605 25.4229Z"
      fill="white" />
    <path d="M16.5072 26.7C15.1014 26.7 14.3668 26.7 13.3 26.7" stroke="#101010"
      stroke-linecap="round" />
    <ellipse cx="24.9959" cy="25.0926" rx="2.51858" ry="2.64282"
      transform="rotate(11.5217 24.9959 25.0926)" fill="#101010" />
    <path
      d="M25.6037 26.1037C25.6037 26.7132 25.1095 27.2074 24.5 27.2074C23.8905 27.2074 23.3963 26.7132 23.3963 26.1037C23.3963 25.4941 23.8905 25 24.5 25C25.1095 25 25.6037 25.4941 25.6037 26.1037Z"
      fill="white" />
    <path
      d="M26.9264 27.5C25.7234 27.5 23.9269 27.5 23.3 27.5M26.6264 22.5C25.4234 22.5 23.6269 22.5 23 22.5M17 22C15.797 22 14.0005 22 13.3736 22"
      stroke="#101010" stroke-linecap="round" />
    <path
      d="M25.8153 25.3153C25.8153 25.4895 25.6742 25.6307 25.5 25.6307C25.3258 25.6307 25.1847 25.4895 25.1847 25.3153C25.1847 25.1412 25.3258 25 25.5 25C25.6742 25 25.8153 25.1412 25.8153 25.3153Z"
      fill="white" />
    <path
      d="M16.3153 24.6847C16.3153 24.8588 16.1741 25 16 25C15.8258 25 15.6846 24.8588 15.6846 24.6847C15.6846 24.5105 15.8258 24.3693 16 24.3693C16.1741 24.3693 16.3153 24.5105 16.3153 24.6847Z"
      fill="white" />
    <path
      d="M20.5128 25.2162C19.6752 24.9279 19.1168 24.9279 18 25.2163C18 25.4085 19.1037 27.0497 19.396 27.5227C19.9544 26.6578 20.6113 25.25 20.5128 25.2162Z"
      fill="#101010" />
    <path d="M19.3 26.5V26.8153V27.1307V27.6037" stroke="#101010" stroke-linecap="round" />
    <path d="M19.5 28H18H17" stroke="#101010" stroke-linecap="round" />
    <path d="M21.5001 28L19.5 28" stroke="#101010" stroke-linecap="round" />
    <path
      d="M34.5 21C34.5 21 34.9296 20.6731 35.3836 21.2591C35.3736 21.8982 34.7187 22.4204 34.463 22.4164C34.2073 22.4124 33.99 22.6392 34 22C34 21 34.0189 20.741 34.5 21Z"
      fill="#101010" />
    <path
      d="M35.0677 31.7956C35.3959 32.2645 35.5964 32.5999 35.6913 32.8878C35.7768 33.1474 35.7759 33.3663 35.6725 33.6253C35.5587 33.9106 35.312 34.2643 34.8466 34.7515C34.3853 35.2345 33.7417 35.8158 32.8731 36.5606C31.1936 38.0007 29.722 38.5365 28.6139 38.599C27.4954 38.6621 26.7686 38.2495 26.4658 37.8171C26.3194 37.6079 26.2859 37.4332 26.3216 37.2475C26.3624 37.0355 26.5049 36.7534 26.8317 36.3758C27.4896 35.6157 28.7284 34.6515 30.6533 33.3041C31.3361 32.8261 31.9012 32.4111 32.3672 32.069C32.5579 31.929 32.7319 31.8011 32.8907 31.6862C33.4582 31.2752 33.801 31.0515 34.0469 30.956C34.159 30.9125 34.2201 30.9089 34.252 30.9115C34.2786 30.9136 34.3155 30.9222 34.3769 30.9649C34.5321 31.0729 34.7275 31.3096 35.0677 31.7956Z"
      fill="#444243" stroke="#101010" />
    <path
      d="M6.70263 28.6115C6.28062 28.9972 6.01945 29.2786 5.87489 29.5395C5.74645 29.7714 5.70455 29.9971 5.77086 30.3086C5.8432 30.6484 6.04606 31.0945 6.44947 31.7334C6.84934 32.3668 7.42181 33.1526 8.19777 34.1679C9.70935 36.1457 11.167 37.1362 12.3304 37.5275C13.5088 37.9238 14.3276 37.6968 14.6968 37.3594C14.8717 37.1996 14.9384 37.0401 14.933 36.8314C14.9268 36.5895 14.8211 36.2448 14.5406 35.7536C13.9794 34.7706 12.8467 33.4141 11.0769 31.4774C10.4495 30.7908 9.93438 30.2037 9.50863 29.7184C9.334 29.5194 9.17441 29.3375 9.02828 29.1729C8.51041 28.5896 8.18278 28.2497 7.93007 28.0714C7.81132 27.9876 7.73668 27.9603 7.6919 27.9516C7.65519 27.9444 7.6149 27.9447 7.54993 27.9685C7.37873 28.0311 7.14161 28.2104 6.70263 28.6115Z"
      fill="#444243" stroke="#101010" />
    <path
      d="M32 23C27 22 22 17.4999 22 17.4999C22 17.4999 15.5 19 14 18.5C12.6583 18.0528 12 17.9999 12 17.9999C12 17.9999 17.1213 14.8731 20 14.4999C22.5 14.1758 24.5 14.4999 24.5 14.4999C24.5 14.4999 28 15.163 29.5 15.9999C32.4038 17.62 35.5 23 35.5 23C35.5 23 33.5 23.3 32 23Z"
      fill="black" />
    <path
      d="M24.5 14.4999L22 17.4999M24.5 14.4999C24.5 14.4999 28 15.163 29.5 15.9999C32.4038 17.62 35.5 23 35.5 23C35.5 23 33.5 23.3 32 23C27 22 22 17.4999 22 17.4999M24.5 14.4999C24.5 14.4999 22.5 14.1758 20 14.4999C17.1213 14.8731 12 17.9999 12 17.9999C12 17.9999 12.6583 18.0528 14 18.5C15.5 19 22 17.4999 22 17.4999"
      stroke="#4F1212" stroke-width="0.2" />
    <path
      d="M33.5933 25.912C33.5933 25.912 33.5933 25.912 33.5933 25.912L33.5504 25.9093L33.551 25.9038L33.5935 25.9088C33.5935 25.9088 33.5935 25.9088 33.5935 25.9088L33.551 25.9037L33.551 25.9036L33.5511 25.9034L33.5512 25.9025L33.5516 25.8993L33.5531 25.8876C33.5545 25.8774 33.5565 25.8626 33.5593 25.8438C33.5649 25.8062 33.5736 25.7524 33.5859 25.687C33.6105 25.5564 33.6497 25.3783 33.7085 25.1895C33.764 25.0109 33.8377 24.82 33.9346 24.6496C33.9005 24.5575 33.8745 24.4709 33.8552 24.3982C33.8383 24.3346 33.8263 24.2812 33.8186 24.2434C33.8148 24.2245 33.8119 24.2095 33.8101 24.1991L33.81 24.1989C33.8073 24.1936 33.8041 24.187 33.8005 24.1793C33.7902 24.1574 33.7765 24.1259 33.7616 24.0855C33.7318 24.0048 33.6973 23.8885 33.6768 23.7429C33.6358 23.4509 33.6515 23.043 33.8715 22.5718L33.8776 22.5586L33.8872 22.5478C34.0135 22.4053 34.2217 22.3462 34.441 22.3402C34.664 22.334 34.9182 22.3815 35.1611 22.4741C35.6411 22.657 36.1151 23.0327 36.1882 23.5696C36.2647 24.1325 36.1811 24.5761 35.958 24.8978C35.9353 24.9306 35.9113 24.9618 35.886 24.9917C35.9615 25.1666 36.0151 25.3662 36.0452 25.5879C36.0627 25.7167 36.0665 25.8381 36.058 25.9523C36.2499 26.2446 36.3853 26.5699 36.4314 26.8693C36.4826 27.2021 36.4383 27.5986 36.3171 27.9679C36.47 28.2282 36.5773 28.5075 36.6173 28.7673C36.6651 29.0782 36.6296 29.4447 36.5259 29.7927C36.7297 30.0936 36.874 30.4327 36.9219 30.7437C36.9698 31.0547 36.9342 31.4214 36.8303 31.7696C37.0341 32.0704 37.1783 32.4094 37.2262 32.7205C37.2721 33.0185 37.2412 33.3678 37.1472 33.7029C37.3438 33.9976 37.4824 34.3439 37.5307 34.6989C37.6098 35.2806 37.3826 35.846 37.0363 36.2785C36.9778 36.3517 36.9154 36.4215 36.8501 36.4874C36.8779 36.6081 36.9005 36.7367 36.9189 36.8722C36.9965 37.4423 36.8653 37.8598 36.5925 38.1504C36.5517 38.1938 36.5081 38.2341 36.462 38.2714C36.4893 38.4123 36.5123 38.5639 36.534 38.7237C36.5721 39.0037 36.5667 39.2204 36.5165 39.3888C36.5017 39.4385 36.4831 39.4837 36.4609 39.5246C36.5196 39.5774 36.5771 39.6327 36.6333 39.6899C37.086 40.1517 37.4617 40.7615 37.5316 41.2753C37.5728 41.5786 37.4836 41.7989 37.2989 41.9474C37.1231 42.0887 36.8728 42.1548 36.6107 42.1884C36.3462 42.2224 36.0523 42.225 35.7791 42.2274L35.7781 42.2274C35.5013 42.2298 35.2486 42.232 35.0529 42.2622C34.8009 42.301 34.2527 42.3521 33.7803 42.344C33.5455 42.34 33.3208 42.3214 33.1593 42.2755C33.0799 42.253 33.0033 42.2205 32.9501 42.1697C32.9223 42.1431 32.8989 42.1097 32.8871 42.0688C32.8752 42.0275 32.877 41.9853 32.889 41.9448C33.0381 41.4457 33.3865 40.7372 33.8001 40.1376C34.0048 39.8406 34.2279 39.5671 34.4536 39.3575C34.416 39.2268 34.4197 39.0864 34.4628 38.9418C34.5332 38.7062 34.565 38.4967 34.5856 38.3109C34.592 38.2535 34.5973 38.197 34.6025 38.1421C34.6138 38.0236 34.6243 37.9125 34.6425 37.8166C34.6532 37.7601 34.667 37.7054 34.6864 37.6535C34.6759 37.5554 34.671 37.4634 34.6689 37.3856C34.667 37.3128 34.6675 37.2517 34.6686 37.2086C34.6692 37.187 34.6698 37.17 34.6704 37.1581L34.671 37.1444L34.671 37.1443L34.671 37.1441L34.6707 37.1306C34.6705 37.1189 34.6702 37.1019 34.6702 37.0804C34.6702 37.0375 34.6711 36.9763 34.6749 36.9027C34.6824 36.7558 34.7011 36.5573 34.7466 36.3536C34.7824 36.1931 34.8356 36.0254 34.9157 35.8762C34.8918 35.7061 34.8784 35.5445 34.8708 35.4132C34.8653 35.3176 34.8628 35.2377 34.8618 35.1814C34.8612 35.1533 34.8611 35.131 34.861 35.1157L34.861 35.0981L34.861 35.0955L34.8609 35.093L34.8599 35.0755C34.859 35.0603 34.858 35.0382 34.8569 35.0102C34.8548 34.9541 34.8527 34.8741 34.8527 34.7777C34.8528 34.6362 34.8576 34.4587 34.8741 34.2696C34.7104 33.9126 34.6127 33.489 34.5576 33.1312C34.5108 32.8271 34.4791 32.4683 34.5006 32.1282C34.3778 31.8103 34.3001 31.4587 34.2533 31.1545C34.2065 30.8506 34.1749 30.4921 34.1963 30.1522C34.0733 29.8343 33.9955 29.4824 33.9487 29.1781C33.8986 28.8527 33.8658 28.4649 33.897 28.1042C33.7704 27.7884 33.6859 27.4519 33.6421 27.1672L33.6416 27.1673L33.6411 27.1572C33.6342 27.0266 33.6271 26.904 33.6204 26.7891C33.6193 26.7704 33.6182 26.7519 33.6172 26.7335C33.6135 26.718 33.61 26.7024 33.6067 26.6869C33.5658 26.4951 33.5519 26.3008 33.5481 26.1557C33.5462 26.0829 33.5467 26.0218 33.5478 25.9787C33.5484 25.9572 33.549 25.9401 33.5496 25.9283L33.5502 25.9146L33.5504 25.9108L33.5505 25.9098L33.5505 25.9095L33.5505 25.9094L33.5933 25.912Z"
      fill="black" stroke="#4F1212" stroke-width="0.2" />
    <path
      d="M35.7936 23.7264C35.7664 23.4516 35.4159 23.1307 35.4168 23.1281C35.4177 23.1255 35.683 24.2141 35.683 24.2141C35.6822 24.2166 35.8128 23.9207 35.7936 23.7264Z"
      fill="#743030" />
    <path
      d="M36.6818 31.1084C36.6546 30.8336 36.3048 30.5105 36.3048 30.5105L36.571 31.5963C36.571 31.5963 36.701 31.3027 36.6818 31.1084Z"
      fill="#743030" />
    <path
      d="M37.2325 35.3351C37.4805 34.3663 36.9929 34.2556 36.9929 34.2556L36.7716 35.2309L36.6609 35.7185C36.6609 35.7185 37.1841 35.5242 37.2325 35.3351Z"
      fill="#743030" />
    <path
      d="M33.8873 25.3482C33.7769 25.8358 33.9715 26.3256 33.9693 26.3274C33.9672 26.3292 34.5072 24.8902 34.2983 24.8778C33.998 24.8599 33.9247 25.1832 33.8873 25.3482Z"
      fill="#743030" />
    <path
      d="M34.777 29.7055C34.7784 29.7059 34.6018 29.57 34.4269 29.4123C34.1748 28.9136 34.4734 28.0164 34.3093 28.0066C34.009 27.9888 34.1256 28.817 34.0882 28.9819C34.0693 29.0654 34.2472 29.2504 34.4269 29.4123C34.4957 29.5485 34.6055 29.6549 34.777 29.7055Z"
      fill="#743030" />
    <path
      d="M36.0272 34.1224C36.0285 34.1228 35.8645 34.0372 35.6732 33.8952C35.1801 33.3765 35.0592 32.2476 34.8858 32.2373C34.5856 32.2195 35.0709 33.1495 35.1521 33.3232C35.2586 33.5508 35.4798 33.7517 35.6732 33.8952C35.7743 34.0016 35.8911 34.0823 36.0272 34.1224Z"
      fill="#743030" />
    <path
      d="M35.9939 27.3645C36.2151 26.3892 35.5845 26.0515 35.7276 26.2786C35.8904 26.5369 35.9637 27.0111 35.9761 27.4431C35.8717 27.9031 35.7729 28.3397 35.7729 28.3397C35.9029 28.5067 35.9923 28.0116 35.9761 27.4431C35.982 27.4169 35.9879 27.3907 35.9939 27.3645Z"
      fill="#743030" />
    <path
      d="M35.0963 35.9955C34.9859 36.4832 35.1804 36.973 35.1783 36.9748C35.1762 36.9765 35.7162 35.5375 35.5073 35.5251C35.207 35.5073 35.1336 35.8306 35.0963 35.9955Z"
      fill="#743030" />
    <path
      d="M33.4903 38.3935C33.2248 39.5637 34.1381 39.7681 35.2152 40.0125C36.2924 40.257 37.1256 40.449 37.3912 39.2787C37.5378 38.6324 36.8474 37.8116 35.7702 37.5672C34.693 37.3227 33.637 37.7472 33.4903 38.3935Z"
      fill="#D9D9D9" />
    <path
      d="M35.9553 40.1832C35.8086 40.8295 35.7783 40.9636 35.7783 40.9636C35.7783 40.9636 36.5888 41.0065 36.7354 40.3602C36.8821 39.7139 37.3026 39.6686 36.523 39.4888C35.9052 39.3463 36.102 39.5369 35.9553 40.1832Z"
      fill="#D9D9D9" />
    <path
      d="M34.785 39.9176C34.6384 40.5639 34.608 40.6978 34.9981 40.7863C35.3882 40.8748 35.4185 40.741 35.5652 40.0947C35.7119 39.4484 36.1323 39.403 35.3528 39.2232C34.735 39.0807 34.9317 39.2713 34.785 39.9176Z"
      fill="#D9D9D9" />
    <path
      d="M33.6142 39.6548C33.4675 40.3011 34.2179 40.6095 34.2179 40.6095C34.2179 40.6095 34.2179 40.6095 34.3944 39.8319C34.541 39.1856 34.9615 39.1402 34.1819 38.9604C33.5641 38.8179 33.7609 39.0085 33.6142 39.6548Z"
      fill="#D9D9D9" />
    <path
      d="M33.4903 38.3935C33.2248 39.5637 34.1381 39.7681 35.2152 40.0125C36.2924 40.257 37.1256 40.449 37.3912 39.2787C37.5378 38.6324 36.8474 37.8116 35.7702 37.5672C34.693 37.3227 33.637 37.7472 33.4903 38.3935Z"
      stroke="black" stroke-width="0.2" />
    <path
      d="M35.9553 40.1832C35.8086 40.8295 35.7783 40.9636 35.7783 40.9636C35.7783 40.9636 36.5888 41.0065 36.7354 40.3602C36.8821 39.7139 37.3026 39.6686 36.523 39.4888C35.9052 39.3463 36.102 39.5369 35.9553 40.1832Z"
      stroke="black" stroke-width="0.2" />
    <path
      d="M34.785 39.9176C34.6384 40.5639 34.608 40.6978 34.9981 40.7863C35.3882 40.8748 35.4185 40.741 35.5652 40.0947C35.7119 39.4484 36.1323 39.403 35.3528 39.2232C34.735 39.0807 34.9317 39.2713 34.785 39.9176Z"
      stroke="black" stroke-width="0.2" />
    <path
      d="M33.6142 39.6548C33.4675 40.3011 34.2179 40.6095 34.2179 40.6095C34.2179 40.6095 34.2179 40.6095 34.3944 39.8319C34.541 39.1856 34.9615 39.1402 34.1819 38.9604C33.5641 38.8179 33.7609 39.0085 33.6142 39.6548Z"
      stroke="black" stroke-width="0.2" />
    <path
      d="M37.0011 39.1902C36.611 39.1017 35.0983 38.7583 33.8795 38.4818C33.4895 38.3933 33.5197 39.0698 33.7023 39.2619C34.6965 40.3079 36.3453 40.272 36.824 39.9704C37.3025 39.669 37.0011 39.1902 37.0011 39.1902Z"
      fill="#D9D9D9" />
    <path
      d="M35.7422 39.3147C35.6537 39.7048 35.6537 39.7048 35.6537 39.7048C35.9553 40.1834 36.7354 40.3605 37.3026 39.6688C37.3515 39.4534 37.0895 38.8001 36.6995 38.7116C36.3398 38.63 35.7911 39.0993 35.7422 39.3147Z"
      fill="black" />
    <path
      d="M34.9621 39.1378C34.8736 39.5279 34.8736 39.5279 34.8736 39.5279C34.395 39.8294 33.6148 39.6524 33.4018 38.7837C33.4507 38.5683 33.9689 38.0921 34.359 38.1806C34.7186 38.2622 35.011 38.9224 34.9621 39.1378Z"
      fill="black" />
    <path
      d="M12.9861 21.3466C12.9861 21.3466 12.9861 21.3466 12.9861 21.3466L13.0271 21.3596L13.0285 21.3542L12.9871 21.3435C12.9871 21.3435 12.9871 21.3435 12.9871 21.3435L13.0285 21.3542L13.0285 21.3541L13.0286 21.3538L13.0288 21.353L13.0296 21.3499L13.0324 21.3383C13.0349 21.3284 13.0383 21.3139 13.0425 21.2953C13.0509 21.2582 13.0623 21.205 13.0746 21.1396C13.099 21.0089 13.127 20.8288 13.1407 20.6314C13.1537 20.4449 13.1542 20.2403 13.1257 20.0463C13.1909 19.9729 13.2465 19.9015 13.2909 19.8408C13.3297 19.7877 13.3602 19.7422 13.381 19.7098C13.3915 19.6936 13.3996 19.6806 13.4051 19.6716L13.4052 19.6714C13.4096 19.6674 13.415 19.6625 13.4212 19.6566C13.4387 19.6399 13.463 19.6155 13.4915 19.5833C13.5485 19.5189 13.6228 19.423 13.6946 19.2947C13.8387 19.0374 13.972 18.6516 13.9378 18.1328L13.9369 18.1183L13.9318 18.1046C13.8658 17.9261 13.6932 17.7956 13.491 17.7104C13.2854 17.6238 13.0313 17.5759 12.7714 17.5741C12.2577 17.5706 11.6797 17.7488 11.417 18.2228C11.1956 18.6221 11.0986 18.9871 11.1165 19.3128C10.8331 19.4359 10.5833 19.6434 10.4125 19.9515C10.3015 20.1518 10.2543 20.3527 10.2547 20.5488C10.1162 20.6671 9.99889 20.8019 9.91339 20.95C9.72767 21.2716 9.63827 21.7495 9.64871 22.2237C9.33357 22.4309 9.06495 22.6876 8.9134 22.95C8.74227 23.2463 8.6736 23.6303 8.69414 24.0128C8.46056 24.1986 8.2623 24.4177 8.13229 24.6428C7.97491 24.9153 7.87517 25.27 7.84573 25.6321C7.54678 25.8386 7.28945 26.1023 7.13207 26.3748C6.98124 26.636 6.88334 26.9726 6.84955 27.319C6.55943 27.5224 6.30472 27.7949 6.131 28.1082C5.84637 28.6217 5.85317 29.231 6.01905 29.7596C6.04711 29.8491 6.0799 29.9367 6.11689 30.0217C6.04723 30.1242 5.97954 30.2359 5.91325 30.3555C5.63428 30.8587 5.60519 31.2953 5.75411 31.6651C5.77635 31.7203 5.8024 31.7736 5.83188 31.8251C5.75527 31.9465 5.67895 32.0795 5.60073 32.2206C5.46375 32.4677 5.3902 32.6716 5.37593 32.8467C5.37172 32.8985 5.37271 32.9473 5.37853 32.9935C5.30471 33.0215 5.23101 33.0521 5.15796 33.0851C4.56857 33.3513 3.9974 33.7834 3.74601 34.2369C3.5976 34.5047 3.60091 34.7423 3.71921 34.9477C3.83182 35.1431 4.04114 35.2954 4.27323 35.4218C4.5074 35.5493 4.78032 35.6583 5.03411 35.7596L5.03506 35.76C5.29211 35.8626 5.52682 35.9562 5.69831 36.0553C5.9191 36.1828 6.41146 36.4292 6.85464 36.5929C7.07486 36.6743 7.29108 36.7384 7.45817 36.7542C7.54036 36.762 7.62351 36.7595 7.69154 36.7314C7.72712 36.7168 7.76099 36.6941 7.78683 36.6603C7.81296 36.626 7.82657 36.5861 7.82998 36.544C7.87199 36.0248 7.80417 35.2382 7.63612 34.5294C7.55292 34.1784 7.44425 33.8426 7.30989 33.5655C7.39231 33.4573 7.43979 33.3251 7.45196 33.1747C7.47179 32.9296 7.51809 32.7228 7.56627 32.5422C7.58114 32.4864 7.59664 32.4318 7.61169 32.3787C7.64415 32.2642 7.67459 32.1569 7.69245 32.0609C7.70297 32.0043 7.70992 31.9484 7.71071 31.893C7.75602 31.8053 7.79396 31.7214 7.82409 31.6497C7.85229 31.5825 7.8739 31.5253 7.88852 31.4848C7.89584 31.4645 7.90141 31.4484 7.9052 31.4371L7.90954 31.4241L7.90959 31.424L7.90964 31.4239L7.91487 31.4113C7.91935 31.4005 7.92572 31.3848 7.93351 31.3648C7.94908 31.3247 7.97037 31.2674 7.99357 31.1974C8.03985 31.0579 8.09436 30.8661 8.12584 30.6597C8.15064 30.4972 8.16181 30.3216 8.14126 30.1534C8.22524 30.0036 8.29636 29.8578 8.35104 29.7382C8.3908 29.6512 8.42207 29.5775 8.44345 29.5255C8.45415 29.4995 8.46237 29.4788 8.46796 29.4646L8.47435 29.4482L8.47528 29.4457L8.47635 29.4434L8.48361 29.4275C8.48988 29.4137 8.49889 29.3934 8.51005 29.3677C8.53238 29.3162 8.56336 29.2424 8.59822 29.1525C8.64942 29.0206 8.70933 28.8534 8.76252 28.6712C9.04448 28.3978 9.28914 28.0385 9.47018 27.7251C9.62408 27.4586 9.78367 27.1357 9.88695 26.811C10.1166 26.5592 10.3165 26.2596 10.4704 25.9931C10.6242 25.7268 10.7837 25.4043 10.8869 25.0797C11.1168 24.828 11.3168 24.5283 11.4708 24.2616C11.6354 23.9765 11.8066 23.627 11.9084 23.2795C12.1408 23.0311 12.3415 22.7481 12.4856 22.4987L12.486 22.4989L12.4902 22.4898C12.5439 22.3705 12.595 22.2588 12.6429 22.1542C12.6507 22.1371 12.6584 22.1203 12.666 22.1036C12.6751 22.0904 12.684 22.0772 12.6927 22.0639C12.8004 21.8999 12.8837 21.7239 12.9399 21.5901C12.9681 21.5229 12.9897 21.4658 13.0043 21.4252C13.0116 21.4049 13.0172 21.3888 13.021 21.3776L13.0253 21.3646L13.0265 21.361L13.0268 21.36L13.0269 21.3597L13.0269 21.3596L12.9861 21.3466Z"
      fill="black" stroke="#4F1212" stroke-width="0.2" />
    <path
      d="M11.7279 18.512C11.8528 18.2658 12.2958 18.0938 12.296 18.091C12.2961 18.0883 11.6541 19.0066 11.6541 19.0066C11.654 19.0092 11.6395 18.6861 11.7279 18.512Z"
      fill="#743030" />
    <path
      d="M8.22393 25.0698C8.34888 24.8235 8.79205 24.6492 8.79205 24.6492L8.15028 25.5647C8.15028 25.5647 8.13557 25.2439 8.22393 25.0698Z"
      fill="#743030" />
    <path
      d="M6.17831 28.8092C6.29838 27.8164 6.79296 27.8901 6.79296 27.8901L6.64564 28.8792L6.57202 29.3737C6.57202 29.3737 6.15486 29.003 6.17831 28.8092Z"
      fill="#743030" />
    <path
      d="M12.9165 20.7144C12.8426 21.2089 12.4837 21.5948 12.4851 21.5973C12.4864 21.5997 12.5048 20.0628 12.704 20.127C12.9903 20.2192 12.9415 20.5471 12.9165 20.7144Z"
      fill="#743030" />
    <path
      d="M10.5077 24.4527C10.5063 24.4526 10.7201 24.39 10.9403 24.3065C11.356 23.9331 11.403 22.9886 11.5595 23.039C11.8458 23.1312 11.4369 23.8608 11.4119 24.0281C11.3993 24.1128 11.1665 24.2206 10.9403 24.3065C10.8268 24.4084 10.6858 24.4678 10.5077 24.4527Z"
      fill="#743030" />
    <path
      d="M7.74125 28.116C7.73986 28.1158 7.92382 28.0955 8.15359 28.0325C8.80115 27.7279 9.32313 26.7196 9.48844 26.7729C9.77471 26.8651 8.98521 27.556 8.84659 27.6883C8.66483 27.8619 8.38581 27.9689 8.15359 28.0325C8.02076 28.095 7.88265 28.1279 7.74125 28.116Z"
      fill="#743030" />
    <path
      d="M10.2224 21.8299C10.3698 20.8407 11.0799 20.7546 10.8642 20.9144C10.6188 21.0961 10.3786 21.5115 10.2105 21.9096C10.1409 22.3761 10.0748 22.8188 10.0748 22.8188C9.89303 22.9274 9.98926 22.4335 10.2105 21.9096C10.2144 21.8831 10.2184 21.8565 10.2224 21.8299Z"
      fill="#743030" />
    <path
      d="M7.92967 30.1992C7.85576 30.6937 7.4969 31.0797 7.49826 31.0821C7.49957 31.0845 7.518 29.5476 7.71723 29.6118C8.0035 29.7041 7.95467 30.032 7.92967 30.1992Z"
      fill="#743030" />
    <path
      d="M8.55707 33.0162C8.38032 34.2031 7.45509 34.0625 6.36256 33.8998C5.27004 33.7371 4.42395 33.6139 4.6007 32.427C4.69831 31.7715 5.63938 31.2569 6.7319 31.4196C7.82442 31.5823 8.65469 32.3607 8.55707 33.0162Z"
      fill="#D9D9D9" />
    <path
      d="M5.61098 33.7905C5.51337 34.4461 5.49301 34.5821 5.49301 34.5821C5.49301 34.5821 4.72209 34.3282 4.81971 33.6727C4.91732 33.0172 4.54189 32.8225 5.33362 32.9376C5.96106 33.0287 5.7086 33.135 5.61098 33.7905Z"
      fill="#D9D9D9" />
    <path
      d="M6.7979 33.9673C6.70028 34.6228 6.68002 34.7586 6.28438 34.6996C5.88878 34.6407 5.909 34.505 6.00662 33.8495C6.10424 33.1939 5.72881 32.9993 6.52053 33.1143C7.14797 33.2055 6.89551 33.3118 6.7979 33.9673Z"
      fill="#D9D9D9" />
    <path
      d="M7.98436 34.1468C7.88675 34.8024 7.07556 34.8177 7.07556 34.8177C7.07556 34.8177 7.07556 34.8177 7.19309 34.029C7.29071 33.3735 6.91527 33.1788 7.707 33.2939C8.33444 33.385 8.08198 33.4913 7.98436 34.1468Z"
      fill="#D9D9D9" />
    <path
      d="M8.55707 33.0162C8.38032 34.2031 7.45509 34.0625 6.36256 33.8998C5.27004 33.7371 4.42395 33.6139 4.6007 32.427C4.69831 31.7715 5.63938 31.2569 6.7319 31.4196C7.82442 31.5823 8.65469 32.3607 8.55707 33.0162Z"
      stroke="black" stroke-width="0.2" />
    <path
      d="M5.61098 33.7905C5.51337 34.4461 5.49301 34.5821 5.49301 34.5821C5.49301 34.5821 4.72209 34.3282 4.81971 33.6727C4.91732 33.0172 4.54189 32.8225 5.33362 32.9376C5.96106 33.0287 5.7086 33.135 5.61098 33.7905Z"
      stroke="black" stroke-width="0.2" />
    <path
      d="M6.7979 33.9673C6.70028 34.6228 6.68002 34.7586 6.28438 34.6996C5.88878 34.6407 5.909 34.505 6.00662 33.8495C6.10424 33.1939 5.72881 32.9993 6.52053 33.1143C7.14797 33.2055 6.89551 33.3118 6.7979 33.9673Z"
      stroke="black" stroke-width="0.2" />
    <path
      d="M7.98436 34.1468C7.88675 34.8024 7.07556 34.8177 7.07556 34.8177C7.07556 34.8177 7.07556 34.8177 7.19309 34.029C7.29071 33.3735 6.91527 33.1788 7.707 33.2939C8.33444 33.385 8.08198 33.4913 7.98436 34.1468Z"
      stroke="black" stroke-width="0.2" />
    <path
      d="M4.99622 32.486C5.39186 32.5449 6.92621 32.7732 8.16225 32.9574C8.55788 33.0163 8.28447 33.6359 8.04466 33.7487C6.73883 34.3631 5.2152 33.7318 4.87841 33.2773C4.54172 32.8228 4.99622 32.486 4.99622 32.486Z"
      fill="#D9D9D9" />
    <path
      d="M6.12426 33.0584C6.06535 33.4541 6.06535 33.4541 6.06535 33.4541C5.61079 33.7908 4.81952 33.673 4.54171 32.8228C4.57425 32.6043 5.05518 32.0904 5.45082 32.1493C5.81555 32.2036 6.1568 32.8399 6.12426 33.0584Z"
      fill="black" />
    <path
      d="M6.91558 33.1762C6.85667 33.5719 6.85667 33.5719 6.85667 33.5719C7.19339 34.0264 7.98466 34.1442 8.49813 33.4119C8.53067 33.1934 8.22033 32.5617 7.82469 32.5028C7.45996 32.4485 6.94812 32.9577 6.91558 33.1762Z"
      fill="black" />
    <path
      d="M28.2641 14.6706L28.6629 12.3513L32.4005 12.994L31.6827 17.1686L31.5232 18.0963L31.1516 18.8456C30.9637 19.2247 30.7726 19.6682 30.3735 19.8089C30.2472 19.8535 30.0901 19.8401 29.9466 19.8077C29.752 19.7639 29.7226 19.5237 29.8789 19.3998C29.9837 19.3167 30.0688 19.2115 30.1282 19.0917L30.6926 17.9535L30.8521 17.0258L29.862 17.8107C29.5344 18.0704 29.262 18.3928 28.9802 18.7016C28.7054 19.0027 28.3103 19.3366 27.8818 19.3805C27.789 19.39 27.6827 19.3828 27.5779 19.3676C27.3443 19.3338 27.2919 19.0469 27.4769 18.9002L28.5364 18.0603L29.0314 17.6679L29.3924 17.1302C29.4498 17.0447 29.3559 16.9387 29.2641 16.9853L28.2008 17.5251L28.0731 17.6264C27.5087 18.0738 27.1381 18.7229 26.6422 19.2453C26.4971 19.3981 26.3283 19.5197 26.1409 19.5587C26.0091 19.5861 25.8485 19.5682 25.7037 19.537C25.5047 19.4941 25.446 19.2575 25.5784 19.1029L26.3802 18.1671L27.3703 17.3823L28.092 16.8101C28.1704 16.748 28.1192 16.6221 28.0197 16.6322L26.6194 16.7756L25.6293 17.5605C25.6293 17.5605 25.0545 18.4168 24.6393 18.3454C24.224 18.2739 24.3037 17.8101 24.3037 17.8101L24.7987 17.4176L25.2938 17.0252L26.2839 16.2403L27.4577 15.8264C27.5665 15.788 27.5347 15.6265 27.4195 15.6322L25.9484 15.7051L25.4532 16.0975C25.4532 16.0975 24.8784 16.9538 24.4632 16.8824C24.0481 16.811 24.1277 16.3471 24.1277 16.3471L24.6228 15.9547L25.6129 15.1698L28.2641 14.6706Z"
      fill="#CDBDB3" stroke="#4F1212" stroke-width="0.1" />
    <path
      d="M29.8015 13.1884C29.1607 12.9472 28.6628 12.3512 28.6628 12.3512C28.6628 12.3512 29.3928 11.8354 30.6387 12.0496C31.8846 12.2638 32.4004 12.9939 32.4004 12.9939C32.4004 12.9939 30.5786 13.4808 29.8015 13.1884Z"
      fill="#2F1010" stroke="#4F1212" stroke-width="0.1" />
    <path
      d="M24.6912 16.7991C24.3688 17.0092 24.1834 17.0401 23.9477 16.9663C23.6146 16.862 24.1365 16.3631 24.2061 16.3794C24.1366 16.3631 24.4067 16.4478 24.7399 16.552C25.1464 16.6793 24.6912 16.7991 24.6912 16.7991Z"
      fill="#4F1212" />
    <path
      d="M25.0999 18.152C24.6604 18.4643 24.2836 18.4206 24.1341 18.3738C23.801 18.2695 24.3229 17.7706 24.3926 17.7869C24.323 17.7706 24.5931 17.8553 24.9263 17.9596C25.2594 18.0638 25.0999 18.152 25.0999 18.152Z"
      fill="#4F1212" />
    <path
      d="M26.1316 19.6121C25.8218 19.7232 25.5904 19.7045 25.4409 19.6577C25.1078 19.5534 25.6297 19.0545 25.6993 19.0708C25.6298 19.0545 25.8999 19.1392 26.233 19.2434C26.7095 19.3926 26.1316 19.6121 26.1316 19.6121Z"
      fill="#4F1212" />
    <path
      d="M28.1075 19.3105C27.8983 19.4489 27.5294 19.4874 27.3799 19.4407C27.0468 19.3364 27.5687 18.8374 27.6384 18.8537C27.5688 18.8375 27.8389 18.9221 28.1721 19.0264C28.5052 19.1307 28.1075 19.3105 28.1075 19.3105Z"
      fill="#4F1212" />
    <path
      d="M30.7486 19.5112C30.5872 20.0297 29.9364 19.8971 29.7869 19.8503C29.4537 19.746 29.9757 19.2471 30.0453 19.2634C29.9758 19.2471 30.2459 19.3317 30.579 19.436C30.9122 19.5403 30.8167 19.5229 30.7486 19.5112Z"
      fill="#4F1212" />
    <path
      d="M29.698 15.1414C30.0012 15.2445 30.0769 15.1704 30.3402 15.1971M32.0623 14.8529C31.9583 14.9285 31.7862 15.0318 31.558 15.1132M30.3402 15.1971C30.2441 15.0145 30.1779 14.8748 30.27 14.6853M30.3402 15.1971C30.4993 15.4993 30.752 15.622 31.0047 15.7447M30.3402 15.1971C30.5865 15.246 30.8142 15.2526 31.0194 15.2329M31.0194 15.2329C31.0967 15.5552 31.4415 15.4883 31.4415 15.4883M31.0194 15.2329C30.6834 15.1202 30.7754 14.9307 30.7754 14.9307M31.0194 15.2329C31.2222 15.2135 31.403 15.1684 31.558 15.1132M31.558 15.1132C31.5335 15.2988 31.6935 15.4053 31.9462 15.528M31.558 15.1132C31.558 15.1132 31.1201 14.8639 31.2121 14.6743"
      stroke="#4F1212" stroke-width="0.1" />
    <path
      d="M28.296 14.4857C28.3483 14.8016 28.4494 14.8334 28.5502 15.078M29.6667 16.4335C29.551 16.3776 29.3786 16.2746 29.1992 16.1119M28.5502 15.078C28.6657 14.9071 28.7576 14.7828 28.9681 14.7745M28.5502 15.078C28.3589 15.361 28.3701 15.6417 28.3812 15.9224M28.5502 15.078C28.6234 15.3183 28.7251 15.5221 28.8393 15.6937M28.8393 15.6937C28.5918 15.914 28.8135 16.1864 28.8135 16.1864M28.8393 15.6937C28.7799 15.3443 28.9905 15.3359 28.9905 15.3359M28.8393 15.6937C28.9522 15.8633 29.0773 16.0014 29.1992 16.1119M29.1992 16.1119C29.024 16.178 29.0057 16.3693 29.0168 16.65M29.1992 16.1119C29.1992 16.1119 29.2122 15.6082 29.4227 15.5998"
      stroke="#4F1212" stroke-width="0.1" />
  </g>
</svg>