<svg width="48" height="48" viewBox="0 0 48 48" fill="none" xmlns="http://www.w3.org/2000/svg">
<mask id="mask0_32_2" style="mask-type:alpha" maskUnits="userSpaceOnUse" x="0" y="0" width="48" height="48">
<rect width="48" height="48" rx="24" fill="#E9E9E9"/>
</mask>
<g mask="url(#mask0_32_2)">
<circle cx="24" cy="24" r="24" fill="#D4D4D4"/>
<path d="M6.23175 29.3779C5.36199 31.1242 4.79635 32.6175 4.37272 33.7358C4.21521 34.1516 4.07733 34.5156 3.95074 34.8215C3.70309 35.42 3.52416 35.73 3.37301 35.8661C3.31461 35.9187 3.28249 35.9243 3.26449 35.9258C3.23758 35.9281 3.16837 35.9245 3.03448 35.8579C2.97495 35.8282 2.91639 35.7994 2.85888 35.771C2.14893 35.4214 1.59785 35.1499 1.34323 34.4059C1.05205 33.5551 1.12368 31.9742 2.34085 28.8235C3.34141 26.8274 4.99441 25.3936 6.58044 24.5472C7.37548 24.1229 8.14027 23.8535 8.77993 23.7328C9.44143 23.6078 9.89025 23.6561 10.1133 23.7672C10.1649 23.7929 10.2012 23.8145 10.2263 23.8312C10.1988 23.8821 10.149 23.958 10.0627 24.0667C9.94335 24.2171 9.78428 24.3941 9.58116 24.6176C9.56167 24.639 9.54188 24.6607 9.52181 24.6828C8.70804 25.5774 7.41874 26.9947 6.23175 29.3779Z" fill="#444243" stroke="#101010"/>
<path d="M34.4203 40.3919C35.1647 39.0042 35.48 38.3735 36.1107 37.5852C36.09 28.7844 36.8991 21.6606 40.3677 21.6606C42.4174 21.3454 47.8748 23.3109 46.8321 27.3367C45.4131 30.1748 42.8904 29.3864 40.683 26.233C40.4826 26.3132 40.4045 26.3118 40.3994 26.2652C39.4112 26.777 39.5138 31.5845 39.1064 34.7471C38.7521 37.4973 35.7278 42.4285 34.4241 41.9845L34.4203 40.3919Z" fill="#444243"/>
<path d="M40.683 26.233C42.8904 29.3864 45.4131 30.1748 46.8321 27.3367C47.8748 23.3109 42.4174 21.3454 40.3677 21.6606C36.8991 21.6606 36.09 28.7844 36.1107 37.5852C35.48 38.3735 35.1647 39.0042 34.4203 40.3919L34.4241 41.9845C35.7278 42.4285 38.7521 37.4973 39.1064 34.7471C39.5492 31.3095 39.3895 25.9284 40.683 26.233ZM40.683 26.233C39.8947 26.5484 40.9984 25.6023 40.9984 25.6023" stroke="#101010" stroke-width="1.5" stroke-linecap="round"/>
<path d="M6.66266 27.6752C5.89138 28.7644 5.43312 29.7903 2.21539 41.4854C1.395 44.4672 3.0551 48.5299 4.88377 49.1752C7.5521 50.1168 11.7945 51.9201 25.7861 52C32.4571 52 34.9022 46.9642 35.7185 45.4088C36.4597 43.9963 35.5429 27.3382 35.1894 25.635C34.5707 22.6533 34.6426 20.5034 34.6807 21.3978C34.7908 19.0909 35.602 14.2809 35.1894 14.1611C34.8766 14.0702 31.8355 16.1845 30.5189 17.9955C27.6016 15.2395 25.0449 15.2774 24.2574 15.1197C23.6303 14.9941 20.7994 15.0006 19.4116 15.1204C19.5599 14.3358 19.8564 12.4526 19.8564 12.4526L20.386 9.36875C20.4033 9.26785 20.2762 9.209 20.211 9.2879C19.1387 10.5846 14.6842 15.9864 11.7029 19.8285L9.47929 22.9672L7.55212 25.9489L6.66266 27.6752Z" fill="#444243"/>
<path d="M19.4102 17.0369C19.3967 16.5358 19.4206 15.8244 19.4116 15.1204M29.9297 19.5533C29.8549 19.1189 30.0994 18.5726 30.5189 17.9955M19.4116 15.1204C19.5599 14.3358 19.8564 12.4526 19.8564 12.4526L20.386 9.36875C20.4033 9.26785 20.2762 9.209 20.211 9.2879C19.1387 10.5846 14.6842 15.9864 11.7029 19.8285L9.47929 22.9672L7.55212 25.9489L6.66266 27.6752C5.89138 28.7644 5.43312 29.7903 2.21539 41.4854C1.395 44.4672 3.0551 48.5299 4.88377 49.1752C7.5521 50.1168 11.7945 51.9201 25.7861 52C32.4571 52 34.9022 46.9642 35.7185 45.4088C36.4597 43.9963 35.5429 27.3382 35.1894 25.635C34.5707 22.6533 34.6426 20.5034 34.6807 21.3978C34.7908 19.0909 35.602 14.2809 35.1894 14.1611C34.8766 14.0702 31.8355 16.1845 30.5189 17.9955M19.4116 15.1204C20.7994 15.0006 23.6303 14.9941 24.2574 15.1197C25.0449 15.2774 27.6016 15.2395 30.5189 17.9955" stroke="#101010" stroke-width="1.5" stroke-linecap="round"/>
<ellipse cx="14.9957" cy="23.0926" rx="2.51858" ry="2.64282" transform="rotate(11.5217 14.9957 23.0926)" fill="#101010"/>
<path d="M16.7713 25.4646C15.2847 25.1629 14.6089 25.3138 13.9332 25.6155" stroke="#101010" stroke-linecap="round"/>
<ellipse cx="23.9957" cy="23.0926" rx="2.51858" ry="2.64282" transform="rotate(11.5217 23.9957 23.0926)" fill="#101010"/>
<path d="M26.203 25.6756C24.784 25.1295 23.2073 25.518 22.5767 25.6756" stroke="#101010" stroke-linecap="round"/>
<path d="M20.0188 24.8853C19.1812 24.5971 18.6228 24.5971 17.506 24.8855C17.506 25.0777 18.6097 26.7189 18.902 27.1919C19.4604 26.327 20.1173 24.9192 20.0188 24.8853Z" fill="#101010"/>
<path d="M18.9248 26.561V26.8764V27.1917V27.6647" stroke="#101010" stroke-linecap="round"/>
<path d="M18.9247 27.6652L17.9514 27.8939C17.6515 27.9644 17.3444 28 17.0363 28H16.5" stroke="#101010" stroke-linecap="round"/>
<path d="M22 27.5L21.9835 27.511C21.0696 28.1203 19.8952 28.1793 18.9248 27.6648V27.6648" stroke="#101010" stroke-linecap="round"/>
<path d="M34.5 21C34.5 21 34.9296 20.6731 35.3836 21.2591C35.3736 21.8982 34.7187 22.4204 34.463 22.4164C34.2073 22.4124 33.99 22.6392 34 22C34 21 34.0189 20.741 34.5 21Z" fill="#101010"/>
<path d="M27.0564 33.5575C27.1566 33.4539 27.2788 33.3753 27.4143 33.3272L28.2596 33.027L28.4159 33.9109C28.4417 34.0566 28.4364 34.2049 28.4004 34.3456L28.1925 35.1592C28.1477 35.3347 28.0795 35.5021 27.9899 35.6569L27.6171 36.3009C27.392 36.6899 27.041 36.9829 26.6221 37.1316L26.2183 37.275L26.1447 37.1813C25.7383 36.6636 25.5918 35.9869 25.7512 35.3633L25.7815 35.2448C25.8658 34.9151 26.0316 34.6165 26.2633 34.377L27.0564 33.5575Z" fill="#2A8D35"/>
<path d="M26.6525 38.9424C25.6701 35.97 25.604 32.6892 25.6937 31.4203" stroke="#2F943A" stroke-width="0.5" stroke-linecap="round"/>
<path d="M27.027 28.6318C27.6245 30.2198 27.3478 31.3196 25.694 31.4202C24.0402 31.5209 23.6322 30.4632 24.0326 28.8142C24.433 27.1653 24.626 29.6518 25.5828 29.5936C26.5395 29.5353 26.4295 27.0438 27.027 28.6318Z" fill="#811212"/>
<path d="M26.5605 29.2016C27.6244 30.2197 26.245 31.3866 25.6937 31.4202C25.1425 31.4537 23.6317 30.4628 24.5642 29.3231C24.9662 28.8317 25.0177 28.687 25.3265 28.3576C25.4191 28.2588 25.5749 28.2583 25.6728 28.3519C25.9053 28.5744 25.6557 28.3355 26.5605 29.2016Z" fill="#AC1818"/>
<path d="M27.5233 28.5587C27.6155 30.0719 27.3476 31.3195 25.6938 31.4202C24.0401 31.5209 23.6228 30.315 23.5307 28.8017C23.4386 27.2885 23.9289 29.6942 25.5827 29.5935C27.2364 29.4929 27.4312 27.0454 27.5233 28.5587Z" fill="#D71E1E"/>
<path d="M35.5 36C35.5 36.5724 35.4719 36.9621 35.3845 37.2523C35.3057 37.5141 35.1794 37.6929 34.9462 37.8458C34.6893 38.0142 34.2844 38.1625 33.6237 38.2948C32.9689 38.4259 32.1083 38.533 30.9696 38.645C28.7679 38.8617 27.255 38.4567 26.3114 37.8724C25.3588 37.2827 25 36.5279 25 36C25 35.7447 25.0727 35.5824 25.2085 35.4507C25.3635 35.3004 25.642 35.151 26.1263 35.0291C27.1012 34.7837 28.669 34.7042 31.0185 34.7042C31.8521 34.7042 32.553 34.6883 33.1309 34.6753C33.3674 34.6699 33.5833 34.665 33.7793 34.6619C34.48 34.6507 34.8891 34.664 35.1452 34.7268C35.262 34.7554 35.3141 34.7875 35.3388 34.8079C35.3593 34.8249 35.3847 34.8531 35.4105 34.9233C35.4757 35.1008 35.5 35.4067 35.5 36Z" fill="#444243" stroke="#101010"/>
<path d="M22.4704 23.0185C22.6301 22.9568 22.7981 23.0379 23 23.4417C23.2019 23.0378 23.3699 22.9568 23.5296 23.0185C23.8752 23.1519 23.8521 23.6636 23.6466 23.9719C23.339 24.4333 22.661 24.4333 22.3534 23.9719C22.1479 23.6636 22.1248 23.1519 22.4704 23.0185Z" fill="#D9D9D9"/>
<path d="M24.2262 22.5134C24.3087 22.4748 24.3952 22.5116 24.5 22.7275C24.6048 22.5116 24.6913 22.4748 24.7739 22.5134C24.9398 22.591 24.9295 22.8365 24.8299 22.9903C24.6751 23.2295 24.3249 23.2295 24.1701 22.9903C24.0705 22.8365 24.0602 22.591 24.2262 22.5134Z" fill="#D9D9D9"/>
<path d="M15.2262 22.5134C15.3087 22.4748 15.3952 22.5116 15.5 22.7275C15.6048 22.5116 15.6913 22.4748 15.7739 22.5134C15.9398 22.591 15.9295 22.8365 15.8299 22.9903C15.6751 23.2295 15.3249 23.2295 15.1701 22.9903C15.0705 22.8365 15.0602 22.591 15.2262 22.5134Z" fill="#D9D9D9"/>
<path d="M13.4704 23.0185C13.6301 22.9568 13.7981 23.0379 14 23.4417C14.2019 23.0378 14.3699 22.9568 14.5296 23.0185C14.8752 23.1519 14.8521 23.6636 14.6466 23.9719C14.339 24.4333 13.661 24.4333 13.3534 23.9719C13.1479 23.6636 13.1248 23.1519 13.4704 23.0185Z" fill="#D9D9D9"/>
</g>
</svg>
