<svg width="48" height="48" viewBox="0 0 48 48" fill="none" xmlns="http://www.w3.org/2000/svg">
  <mask id="mask0_100_445" style="mask-type:alpha" maskUnits="userSpaceOnUse" x="0" y="0" width="48"
    height="48">
    <rect width="48" height="48" rx="24" fill="#E9E9E9" />
  </mask>
  <g mask="url(#mask0_100_445)">
    <path
      d="M6.23175 29.3779C5.36199 31.1242 4.79635 32.6175 4.37272 33.7358C4.21521 34.1516 4.07733 34.5156 3.95074 34.8215C3.70309 35.42 3.52416 35.73 3.37301 35.8661C3.31461 35.9187 3.28249 35.9243 3.26449 35.9258C3.23758 35.9281 3.16837 35.9245 3.03448 35.8579C2.97495 35.8282 2.91639 35.7994 2.85888 35.771C2.14893 35.4214 1.59785 35.1499 1.34323 34.4059C1.05205 33.5551 1.12368 31.9742 2.34085 28.8235C3.34141 26.8274 4.99441 25.3936 6.58044 24.5472C7.37548 24.1229 8.14027 23.8535 8.77993 23.7328C9.44143 23.6078 9.89025 23.6561 10.1133 23.7672C10.1649 23.7929 10.2012 23.8145 10.2263 23.8312C10.1988 23.8821 10.149 23.958 10.0627 24.0667C9.94335 24.2171 9.78428 24.3941 9.58116 24.6176C9.56167 24.639 9.54188 24.6607 9.52181 24.6828C8.70804 25.5774 7.41874 26.9947 6.23175 29.3779Z"
      fill="#444243" stroke="#101010" />
    <path
      d="M34.4203 40.3919C35.1647 39.0042 35.48 38.3735 36.1107 37.5852C36.09 28.7844 36.8991 21.6606 40.3677 21.6606C42.4174 21.3454 47.8748 23.3109 46.8321 27.3367C45.4131 30.1748 42.8904 29.3864 40.683 26.233C40.4826 26.3132 40.4045 26.3118 40.3994 26.2652C39.4112 26.777 39.5138 31.5845 39.1064 34.7471C38.7521 37.4973 35.7278 42.4285 34.4241 41.9845L34.4203 40.3919Z"
      fill="#444243" />
    <path
      d="M40.683 26.233C42.8904 29.3864 45.4131 30.1748 46.8321 27.3367C47.8748 23.3109 42.4174 21.3454 40.3677 21.6606C36.8991 21.6606 36.09 28.7844 36.1107 37.5852C35.48 38.3735 35.1647 39.0042 34.4203 40.3919L34.4241 41.9845C35.7278 42.4285 38.7521 37.4973 39.1064 34.7471C39.5492 31.3095 39.3895 25.9284 40.683 26.233ZM40.683 26.233C39.8947 26.5484 40.9984 25.6023 40.9984 25.6023"
      stroke="#101010" stroke-width="1.5" stroke-linecap="round" />
    <path
      d="M6.66266 27.6752C5.89138 28.7644 5.43312 29.7903 2.21539 41.4854C1.395 44.4672 3.0551 48.5299 4.88377 49.1752C7.5521 50.1168 11.7945 51.9201 25.7861 52C32.4571 52 34.9022 46.9642 35.7185 45.4088C36.4597 43.9963 35.5429 27.3382 35.1894 25.635C34.5707 22.6533 34.6426 20.5034 34.6807 21.3978C34.7908 19.0909 35.602 14.2809 35.1894 14.1611C34.8766 14.0702 31.8355 16.1845 30.5189 17.9955C27.6016 15.2395 25.0449 15.2774 24.2574 15.1197C23.6303 14.9941 20.7994 15.0006 19.4116 15.1204C19.5599 14.3358 19.8564 12.4526 19.8564 12.4526L20.386 9.36875C20.4033 9.26785 20.2762 9.209 20.211 9.2879C19.1387 10.5846 14.6842 15.9864 11.7029 19.8285L9.47929 22.9672L7.55212 25.9489L6.66266 27.6752Z"
      fill="#444243" />
    <path
      d="M19.4102 17.0369C19.3967 16.5358 19.4206 15.8244 19.4116 15.1204M29.9297 19.5533C29.8549 19.1189 30.0994 18.5726 30.5189 17.9955M19.4116 15.1204C19.5599 14.3358 19.8564 12.4526 19.8564 12.4526L20.386 9.36875C20.4033 9.26785 20.2762 9.209 20.211 9.2879C19.1387 10.5846 14.6842 15.9864 11.7029 19.8285L9.47929 22.9672L7.55212 25.9489L6.66266 27.6752C5.89138 28.7644 5.43312 29.7903 2.21539 41.4854C1.395 44.4672 3.0551 48.5299 4.88377 49.1752C7.5521 50.1168 11.7945 51.9201 25.7861 52C32.4571 52 34.9022 46.9642 35.7185 45.4088C36.4597 43.9963 35.5429 27.3382 35.1894 25.635C34.5707 22.6533 34.6426 20.5034 34.6807 21.3978C34.7908 19.0909 35.602 14.2809 35.1894 14.1611C34.8766 14.0702 31.8355 16.1845 30.5189 17.9955M19.4116 15.1204C20.7994 15.0006 23.6303 14.9941 24.2574 15.1197C25.0449 15.2774 27.6016 15.2395 30.5189 17.9955"
      stroke="#101010" stroke-width="1.5" stroke-linecap="round" />
    <ellipse cx="14.9957" cy="23.0926" rx="2.51858" ry="2.64282"
      transform="rotate(11.5217 14.9957 23.0926)" fill="#101010" />
    <path d="M16.7713 25.4646C15.2847 25.1629 14.6089 25.3138 13.9332 25.6155" stroke="#101010"
      stroke-linecap="round" />
    <circle cx="14.4062" cy="21.9892" r="1.10368" fill="white" />
    <circle cx="13.9332" cy="23.4081" r="0.630672" fill="white" />
    <circle cx="15.1947" cy="23.0928" r="0.315336" fill="white" />
    <ellipse cx="23.9957" cy="23.0926" rx="2.51858" ry="2.64282"
      transform="rotate(11.5217 23.9957 23.0926)" fill="#101010" />
    <path d="M26.203 25.6756C24.784 25.1295 23.2073 25.518 22.5767 25.6756" stroke="#101010"
      stroke-linecap="round" />
    <circle cx="23.365" cy="22.1095" r="1.10368" fill="white" />
    <circle cx="22.892" cy="23.529" r="0.630672" fill="white" />
    <circle cx="24.1533" cy="23.2137" r="0.315336" fill="white" />
    <path
      d="M20.0188 24.8853C19.1812 24.5971 18.6228 24.5971 17.506 24.8855C17.506 25.0777 18.6097 26.7189 18.902 27.1919C19.4604 26.327 20.1173 24.9192 20.0188 24.8853Z"
      fill="#101010" />
    <path d="M18.9248 26.561V26.8764V27.1917V27.6647" stroke="#101010" stroke-linecap="round" />
    <path d="M18.9247 27.6652L17.0327 28.1382" stroke="#101010" stroke-linecap="round" />
    <path d="M20.9744 28.1378L18.9248 27.6648" stroke="#101010" stroke-linecap="round" />
    <path
      d="M34.5 21C34.5 21 34.9296 20.6731 35.3836 21.2591C35.3736 21.8982 34.7187 22.4204 34.463 22.4164C34.2073 22.4124 33.99 22.6392 34 22C34 21 34.0189 20.741 34.5 21Z"
      fill="#101010" />
    <circle cx="26" cy="36" r="6.75" fill="#EA9736" stroke="#C16902" stroke-width="0.5" />
    <line x1="26.25" y1="29.25" x2="26.25" y2="42.75" stroke="#C16902" stroke-width="0.5"
      stroke-linecap="round" />
    <line x1="32.746" y1="36.4157" x2="19.247" y2="36.2531" stroke="#C16902" stroke-width="0.5"
      stroke-linecap="round" />
    <path d="M26 36.5L21.5 41" stroke="#C16902" stroke-width="0.5" stroke-linecap="round" />
    <path d="M31 31.5L26.5 36" stroke="#C16902" stroke-width="0.5" stroke-linecap="round" />
    <path d="M21 31.5L26 36" stroke="#C16902" stroke-width="0.5" stroke-linecap="round" />
    <path d="M26.5 36.5L31 40.5" stroke="#C16902" stroke-width="0.5" stroke-linecap="round" />
    <circle cx="22.5" cy="31.5" r="0.5" fill="#C43838" />
    <path
      d="M27.558 31.6834C27.081 31.8366 27.2928 32.4957 27.0641 31.7776C26.9471 31.4136 27.0827 31.1089 27.3462 31.0242C27.6096 30.9396 27.9179 31.1661 28.0349 31.5301C28.2467 32.1892 28.0349 31.5301 27.558 31.6834Z"
      fill="#17641F" />
    <path
      d="M29.6869 34.8124C29.2099 34.9656 29.4217 35.6247 29.193 34.9067C29.076 34.5426 29.2116 34.2379 29.4751 34.1533C29.7385 34.0686 30.0468 34.2951 30.1638 34.6591C30.3756 35.3182 30.1638 34.6591 29.6869 34.8124Z"
      fill="#17641F" />
    <path
      d="M27.7617 39.7682C27.4008 40.1157 27.8811 40.6143 27.3597 40.0702C27.0944 39.7948 27.0821 39.4615 27.2814 39.2695C27.4807 39.0776 27.8572 39.1452 28.1225 39.4206C28.6027 39.9193 28.1225 39.4206 27.7617 39.7682Z"
      fill="#17641F" />
    <path
      d="M23.8397 40.8462C23.4788 41.1937 23.9591 41.6923 23.4377 41.1482C23.1724 40.8728 23.1601 40.5395 23.3594 40.3475C23.5587 40.1556 23.9352 40.2232 24.2005 40.4986C24.6807 40.9973 24.2005 40.4986 23.8397 40.8462Z"
      fill="#17641F" />
    <path
      d="M23.8397 37.8462C23.4788 38.1937 23.9591 38.6923 23.4377 38.1482C23.1724 37.8728 23.1601 37.5395 23.3594 37.3475C23.5587 37.1556 23.9352 37.2232 24.2005 37.4986C24.6807 37.9973 24.2005 37.4986 23.8397 37.8462Z"
      fill="#17641F" />
    <path
      d="M20.6433 34.6284C20.3108 35.0031 20.8286 35.4626 20.2662 34.961C19.9802 34.7072 19.9418 34.3759 20.1254 34.1689C20.309 33.962 20.6897 33.9999 20.9757 34.2537C21.4936 34.7131 20.9757 34.2537 20.6433 34.6284Z"
      fill="#17641F" />
    <path
      d="M23.6701 32.4102C23.9061 32.8521 24.5167 32.526 23.8511 32.8793C23.5138 33.0595 23.1898 32.9805 23.0594 32.7364C22.929 32.4924 23.0968 32.1485 23.434 31.9684C24.0446 31.6422 23.434 31.9684 23.6701 32.4102Z"
      fill="#17641F" />
    <path
      d="M27.5001 31.5C27.024 31.6529 27.177 32.129 27.0123 31.6102C26.9279 31.3473 27.0842 31.1084 27.3471 31.0239C27.61 30.9395 27.8916 31.0841 27.9761 31.347C28.129 31.823 27.9761 31.347 27.5001 31.5Z"
      fill="#2F943A" />
    <path
      d="M29.629 34.629C29.1529 34.782 29.3059 35.258 29.1412 34.7392C29.0568 34.4763 29.2131 34.2374 29.476 34.153C29.7389 34.0685 30.0205 34.2131 30.105 34.476C30.258 34.9521 30.105 34.476 29.629 34.629Z"
      fill="#2F943A" />
    <path
      d="M27.629 39.629C27.2688 39.9758 27.6157 40.336 27.2395 39.9426C27.0479 39.7437 27.0832 39.4604 27.2821 39.2689C27.481 39.0773 27.7975 39.0832 27.9891 39.2821C28.3359 39.6423 27.9891 39.2821 27.629 39.629Z"
      fill="#2F943A" />
    <path
      d="M23.707 40.707C23.3468 41.0538 23.6937 41.414 23.3175 41.0206C23.1259 40.8217 23.1612 40.5384 23.3601 40.3469C23.559 40.1553 23.8755 40.1612 24.0671 40.3601C24.4139 40.7203 24.0671 40.3601 23.707 40.707Z"
      fill="#2F943A" />
    <path
      d="M23.707 37.707C23.3468 38.0538 23.6937 38.414 23.3175 38.0206C23.1259 37.8217 23.1612 37.5384 23.3601 37.3469C23.559 37.1553 23.8755 37.1612 24.0671 37.3601C24.4139 37.7203 24.0671 37.3601 23.707 37.707Z"
      fill="#2F943A" />
    <path
      d="M20.5001 34.5001C20.1682 34.874 20.5422 35.2059 20.1364 34.8432C19.9298 34.6599 19.9428 34.3748 20.126 34.1682C20.3093 33.9616 20.6253 33.9428 20.8319 34.126C21.2059 34.4579 20.8319 34.126 20.5001 34.5001Z"
      fill="#2F943A" />
    <path
      d="M23.5 32.5C23.7355 32.941 24.1766 32.7054 23.6956 32.9602C23.452 33.0903 23.1891 32.9791 23.0589 32.7356C22.9288 32.492 23.0208 32.1891 23.2644 32.059C23.7054 31.8234 23.2644 32.059 23.5 32.5Z"
      fill="#2F943A" />
    <circle cx="24.5" cy="31.5" r="0.5" fill="#C43838" />
    <circle cx="25.5" cy="33.5" r="0.5" fill="#C43838" />
    <circle cx="21.5" cy="34.5" r="0.5" fill="#C43838" />
    <circle cx="23.5" cy="35.5" r="0.5" fill="#C43838" />
    <circle cx="20.5" cy="37.5" r="0.5" fill="#C43838" />
    <circle cx="22.5" cy="38.5" r="0.5" fill="#C43838" />
    <circle cx="24.5" cy="39.5" r="0.5" fill="#C43838" />
    <circle cx="30.5" cy="33.5" r="0.5" fill="#C43838" />
    <circle cx="28.5" cy="35.5" r="0.5" fill="#C43838" />
    <circle cx="31.5" cy="35.5" r="0.5" fill="#C43838" />
    <path
      d="M25.1228 38.5C24.8719 38.6153 24.7839 38.9598 24.6685 38.7089C24.5531 38.458 24.8719 38.6153 25.1228 38.5C25.577 38.291 25.4617 38.0402 25.577 38.2911C25.6346 38.4163 25.3737 38.3846 25.1228 38.5Z"
      fill="#F8C034" />
    <path
      d="M24.1228 33.4999C24.3202 33.693 24.6733 33.652 24.4803 33.8495C24.2872 34.0469 24.3202 33.693 24.1228 33.4999C23.7652 33.1504 23.5722 33.3479 23.7652 33.1504C23.8616 33.0519 23.9253 33.3069 24.1228 33.4999Z"
      fill="#F8C034" />
    <path
      d="M22.1227 37.5C21.922 37.6897 21.949 38.0442 21.7593 37.8435C21.5696 37.6428 21.922 37.6897 22.1227 37.5C22.486 37.1565 22.2963 36.9559 22.486 37.1566C22.5807 37.2567 22.3234 37.3104 22.1227 37.5Z"
      fill="#F8C034" />
    <path
      d="M29.1228 31.5C28.9433 31.7099 29.0077 32.0595 28.7978 31.88C28.588 31.7006 28.9433 31.7099 29.1228 31.5C29.4476 31.1199 29.2378 30.9405 29.4477 31.1199C29.5524 31.2095 29.3022 31.2901 29.1228 31.5Z"
      fill="#F8C034" />
    <path
      d="M21.1228 39.5C21.2587 39.7404 21.6092 39.7994 21.3688 39.9353C21.1284 40.0712 21.2587 39.7404 21.1228 39.5C20.8767 39.0648 20.6363 39.2006 20.8767 39.0647C20.9967 38.9969 20.9869 39.2596 21.1228 39.5Z"
      fill="#F8C034" />
    <path
      d="M30.1228 38.5001C29.8685 38.6077 29.77 38.9493 29.6623 38.695C29.5547 38.4407 29.8685 38.6077 30.1228 38.5001C30.5832 38.3051 30.4756 38.0509 30.5832 38.3052C30.637 38.4321 30.3771 38.3924 30.1228 38.5001Z"
      fill="#F8C034" />
    <path
      d="M21.1227 33.5C21.333 33.6789 21.6824 33.6137 21.5035 33.824C21.3245 34.0343 21.333 33.6789 21.1227 33.5C20.7419 33.176 20.5629 33.3862 20.7419 33.1759C20.8312 33.071 20.9124 33.321 21.1227 33.5Z"
      fill="#F8C034" />
    <circle cx="31.5" cy="37.5" r="0.5" fill="#C43838" />
    <circle cx="29.5" cy="37.5" r="0.5" fill="#C43838" />
    <circle cx="29.5" cy="40.5" r="0.5" fill="#C43838" />
    <circle cx="27.5" cy="40.5" r="0.5" fill="#C43838" />
    <circle cx="27.5" cy="38.5" r="0.5" fill="#C43838" />
    <circle cx="25.5" cy="41.5" r="0.5" fill="#C43838" />
    <circle cx="27.5" cy="32.5" r="0.5" fill="#C43838" />
    <path
      d="M35.5 36C35.5 36.5724 35.4719 36.9621 35.3845 37.2523C35.3057 37.5141 35.1794 37.6929 34.9462 37.8458C34.6893 38.0142 34.2844 38.1625 33.6237 38.2948C32.9689 38.4259 32.1083 38.533 30.9696 38.645C28.7679 38.8617 27.255 38.4567 26.3114 37.8724C25.3588 37.2827 25 36.5279 25 36C25 35.7447 25.0727 35.5824 25.2085 35.4507C25.3635 35.3004 25.642 35.151 26.1263 35.0291C27.1012 34.7837 28.669 34.7042 31.0185 34.7042C31.8521 34.7042 32.553 34.6883 33.1309 34.6753C33.3674 34.6699 33.5833 34.665 33.7793 34.6619C34.48 34.6507 34.8891 34.664 35.1452 34.7268C35.262 34.7554 35.3141 34.7875 35.3388 34.8079C35.3593 34.8249 35.3847 34.8531 35.4105 34.9233C35.4757 35.1008 35.5 35.4067 35.5 36Z"
      fill="#444243" stroke="#101010" />
    <path
      d="M30.5 18.4999C29.5 19.1208 25.9095 16.8665 23.5 15.9999C20.4624 15.9999 19 16.0523 19 15.5C19 14.7279 22 13 26 13.4999C30.5 15 31.5 17.8791 30.5 18.4999Z"
      fill="#2C2727" />
    <path
      d="M30.5 18.5C31.9999 19 20 18 16.7886 17.3429C13.3216 16.4116 14.7885 16.2023 16.7885 15.7025C18.7886 15.2027 20.2827 15.22 23.7496 16.1513C27.2166 17.0826 29.0001 18 30.5 18.5Z"
      fill="#9D0505" />
    <path
      d="M25.8173 15.4641C25.6506 15.9324 25.1359 16.1768 24.6676 16.0101C24.1993 15.8434 23.9549 15.3286 24.1216 14.8604C24.2883 14.3921 24.8031 14.1477 25.2713 14.3144C25.7396 14.4811 25.984 14.9958 25.8173 15.4641Z"
      fill="#EA9736" stroke="#C16902" stroke-width="0.2" />
  </g>
</svg>
  