<svg width="48" height="48" viewBox="0 0 48 48" fill="none" xmlns="http://www.w3.org/2000/svg">
<mask id="mask0_32_179" style="mask-type:alpha" maskUnits="userSpaceOnUse" x="0" y="0" width="48" height="48">
<rect width="48" height="48" rx="24" fill="#E9E9E9"/>
</mask>
<g mask="url(#mask0_32_179)">
<circle cx="24" cy="24" r="24" fill="#D4D4D4"/>
<path d="M7.23175 28.3779C6.36199 30.1242 5.79635 31.6175 5.37272 32.7358C5.21521 33.1516 5.07733 33.5156 4.95074 33.8215C4.70309 34.42 4.52416 34.73 4.37301 34.8661C4.31461 34.9187 4.28249 34.9243 4.26449 34.9258C4.23758 34.9281 4.16837 34.9245 4.03448 34.8579C3.97495 34.8282 3.91639 34.7994 3.85888 34.771C3.14893 34.4214 2.59785 34.1499 2.34323 33.4059C2.05205 32.5551 2.12368 30.9742 3.34085 27.8235C4.34141 25.8274 5.99441 24.3936 7.58044 23.5472C8.37548 23.1229 9.14027 22.8535 9.77993 22.7328C10.4414 22.6078 10.8903 22.6561 11.1133 22.7672C11.1649 22.7929 11.2012 22.8145 11.2263 22.8312C11.1988 22.8821 11.149 22.958 11.0627 23.0667C10.9433 23.2171 10.7843 23.3941 10.5812 23.6176C10.5617 23.639 10.5419 23.6607 10.5218 23.6828C9.70804 24.5774 8.41874 25.9947 7.23175 28.3779Z" fill="#444243" stroke="#101010"/>
<path d="M35.4203 39.3919C36.1647 38.0042 36.48 37.3735 37.1107 36.5852C37.09 27.7844 37.8991 20.6606 41.3677 20.6606C43.4174 20.3454 48.8748 22.3109 47.8321 26.3367C46.4131 29.1748 43.8904 28.3864 41.683 25.233C41.4826 25.3132 41.4045 25.3118 41.3994 25.2652C40.4112 25.777 40.5138 30.5845 40.1064 33.7471C39.7521 36.4973 36.7278 41.4285 35.4241 40.9845L35.4203 39.3919Z" fill="#444243"/>
<path d="M41.683 25.233C43.8904 28.3864 46.4131 29.1748 47.8321 26.3367C48.8748 22.3109 43.4174 20.3454 41.3677 20.6606C37.8991 20.6606 37.09 27.7844 37.1107 36.5852C36.48 37.3735 36.1647 38.0042 35.4203 39.3919L35.4241 40.9845C36.7278 41.4285 39.7521 36.4973 40.1064 33.7471C40.5492 30.3095 40.3895 24.9284 41.683 25.233ZM41.683 25.233C40.8947 25.5484 41.9984 24.6023 41.9984 24.6023" stroke="#101010" stroke-width="1.5" stroke-linecap="round"/>
<path d="M7.66266 26.6752C6.89138 27.7644 6.43312 28.7903 3.21539 40.4854C2.395 43.4672 4.0551 47.5299 5.88377 48.1752C8.5521 49.1168 12.7945 50.9201 26.7861 51C33.4571 51 35.9022 45.9642 36.7185 44.4088C37.4597 42.9963 36.5429 26.3382 36.1894 24.635C35.5707 21.6533 35.6426 19.5034 35.6807 20.3978C35.7908 18.0909 36.602 13.2809 36.1894 13.1611C35.8766 13.0702 32.8355 15.1845 31.5189 16.9955C28.6016 14.2395 26.0449 14.2774 25.2574 14.1197C24.6303 13.9941 21.7994 14.0006 20.4116 14.1204C20.5599 13.3358 20.8564 11.4526 20.8564 11.4526L21.386 8.36875C21.4033 8.26785 21.2762 8.209 21.211 8.2879C20.1387 9.58462 15.6842 14.9864 12.7029 18.8285L10.4793 21.9672L8.55212 24.9489L7.66266 26.6752Z" fill="#444243"/>
<path d="M20.4102 16.0369C20.3967 15.5358 20.4206 14.8244 20.4116 14.1204M30.9297 18.5533C30.8549 18.1189 31.0994 17.5726 31.5189 16.9955M20.4116 14.1204C20.5599 13.3358 20.8564 11.4526 20.8564 11.4526L21.386 8.36875C21.4033 8.26785 21.2762 8.209 21.211 8.2879C20.1387 9.58462 15.6842 14.9864 12.7029 18.8285L10.4793 21.9672L8.55212 24.9489L7.66266 26.6752C6.89138 27.7644 6.43312 28.7903 3.21539 40.4854C2.395 43.4672 4.0551 47.5299 5.88377 48.1752C8.5521 49.1168 12.7945 50.9201 26.7861 51C33.4571 51 35.9022 45.9642 36.7185 44.4088C37.4597 42.9963 36.5429 26.3382 36.1894 24.635C35.5707 21.6533 35.6426 19.5034 35.6807 20.3978C35.7908 18.0909 36.602 13.2809 36.1894 13.1611C35.8766 13.0702 32.8355 15.1845 31.5189 16.9955M20.4116 14.1204C21.7994 14.0006 24.6303 13.9941 25.2574 14.1197C26.0449 14.2774 28.6016 14.2395 31.5189 16.9955" stroke="#101010" stroke-width="1.5" stroke-linecap="round"/>
<ellipse cx="15.9957" cy="22.0926" rx="2.51858" ry="2.64282" transform="rotate(11.5217 15.9957 22.0926)" fill="#101010"/>
<path d="M17.7713 24.4646C16.2847 24.1629 15.6089 24.3138 14.9332 24.6155" stroke="#101010" stroke-linecap="round"/>
<circle cx="15.4062" cy="20.9892" r="1.10368" fill="white"/>
<circle cx="14.9332" cy="22.4081" r="0.630672" fill="white"/>
<circle cx="16.1947" cy="22.0928" r="0.315336" fill="white"/>
<ellipse cx="24.9957" cy="22.0926" rx="2.51858" ry="2.64282" transform="rotate(11.5217 24.9957 22.0926)" fill="#101010"/>
<path d="M27.203 24.6756C25.784 24.1295 24.2073 24.518 23.5767 24.6756" stroke="#101010" stroke-linecap="round"/>
<circle cx="24.365" cy="21.1095" r="1.10368" fill="white"/>
<circle cx="23.892" cy="22.529" r="0.630672" fill="white"/>
<circle cx="25.1533" cy="22.2137" r="0.315336" fill="white"/>
<path d="M21.0188 23.8853C20.1812 23.5971 19.6228 23.5971 18.506 23.8855C18.506 24.0777 19.6097 25.7189 19.902 26.1919C20.4604 25.327 21.1173 23.9192 21.0188 23.8853Z" fill="#101010"/>
<path d="M19.9248 25.561V25.8764V26.1917V26.6647" stroke="#101010" stroke-linecap="round"/>
<path d="M19.9247 26.6652L18.0327 27.1382" stroke="#101010" stroke-linecap="round"/>
<path d="M21.9744 27.1378L19.9248 26.6648" stroke="#101010" stroke-linecap="round"/>
<path d="M35.5 20C35.5 20 35.9296 19.6731 36.3836 20.2591C36.3736 20.8982 35.7187 21.4204 35.463 21.4164C35.2073 21.4124 34.99 21.6392 35 21C35 20 35.0189 19.741 35.5 20Z" fill="#101010"/>
<circle cx="27" cy="35" r="6.75" fill="#EA9736" stroke="#C16902" stroke-width="0.5"/>
<line x1="27.25" y1="28.25" x2="27.25" y2="41.75" stroke="#C16902" stroke-width="0.5" stroke-linecap="round"/>
<line x1="33.746" y1="35.4157" x2="20.247" y2="35.2531" stroke="#C16902" stroke-width="0.5" stroke-linecap="round"/>
<path d="M27 35.5L22.5 40" stroke="#C16902" stroke-width="0.5" stroke-linecap="round"/>
<path d="M32 30.5L27.5 35" stroke="#C16902" stroke-width="0.5" stroke-linecap="round"/>
<path d="M22 30.5L27 35" stroke="#C16902" stroke-width="0.5" stroke-linecap="round"/>
<path d="M27.5 35.5L32 39.5" stroke="#C16902" stroke-width="0.5" stroke-linecap="round"/>
<circle cx="23.5" cy="30.5" r="0.5" fill="#C43838"/>
<path d="M28.558 30.6834C28.081 30.8366 28.2928 31.4957 28.0641 30.7776C27.9471 30.4136 28.0827 30.1089 28.3462 30.0242C28.6096 29.9396 28.9179 30.1661 29.0349 30.5301C29.2467 31.1892 29.0349 30.5301 28.558 30.6834Z" fill="#17641F"/>
<path d="M30.6869 33.8124C30.2099 33.9656 30.4217 34.6247 30.193 33.9067C30.076 33.5426 30.2116 33.2379 30.4751 33.1533C30.7385 33.0686 31.0468 33.2951 31.1638 33.6591C31.3756 34.3182 31.1638 33.6591 30.6869 33.8124Z" fill="#17641F"/>
<path d="M28.7617 38.7682C28.4008 39.1157 28.8811 39.6143 28.3597 39.0702C28.0944 38.7948 28.0821 38.4615 28.2814 38.2695C28.4807 38.0776 28.8572 38.1452 29.1225 38.4206C29.6027 38.9193 29.1225 38.4206 28.7617 38.7682Z" fill="#17641F"/>
<path d="M24.8397 39.8462C24.4788 40.1937 24.9591 40.6923 24.4377 40.1482C24.1724 39.8728 24.1601 39.5395 24.3594 39.3475C24.5587 39.1556 24.9352 39.2232 25.2005 39.4986C25.6807 39.9973 25.2005 39.4986 24.8397 39.8462Z" fill="#17641F"/>
<path d="M24.8397 36.8462C24.4788 37.1937 24.9591 37.6923 24.4377 37.1482C24.1724 36.8728 24.1601 36.5395 24.3594 36.3475C24.5587 36.1556 24.9352 36.2232 25.2005 36.4986C25.6807 36.9973 25.2005 36.4986 24.8397 36.8462Z" fill="#17641F"/>
<path d="M21.6433 33.6284C21.3108 34.0031 21.8286 34.4626 21.2662 33.961C20.9802 33.7072 20.9418 33.3759 21.1254 33.1689C21.309 32.962 21.6897 32.9999 21.9757 33.2537C22.4936 33.7131 21.9757 33.2537 21.6433 33.6284Z" fill="#17641F"/>
<path d="M24.6701 31.4102C24.9061 31.8521 25.5167 31.526 24.8511 31.8793C24.5138 32.0595 24.1898 31.9805 24.0594 31.7364C23.929 31.4924 24.0968 31.1485 24.434 30.9684C25.0446 30.6422 24.434 30.9684 24.6701 31.4102Z" fill="#17641F"/>
<path d="M28.5001 30.5C28.024 30.6529 28.177 31.129 28.0123 30.6102C27.9279 30.3473 28.0842 30.1084 28.3471 30.0239C28.61 29.9395 28.8916 30.0841 28.9761 30.347C29.129 30.823 28.9761 30.347 28.5001 30.5Z" fill="#2F943A"/>
<path d="M30.629 33.629C30.1529 33.782 30.3059 34.258 30.1412 33.7392C30.0568 33.4763 30.2131 33.2374 30.476 33.153C30.7389 33.0685 31.0205 33.2131 31.105 33.476C31.258 33.9521 31.105 33.476 30.629 33.629Z" fill="#2F943A"/>
<path d="M28.629 38.629C28.2688 38.9758 28.6157 39.336 28.2395 38.9426C28.0479 38.7437 28.0832 38.4604 28.2821 38.2689C28.481 38.0773 28.7975 38.0832 28.9891 38.2821C29.3359 38.6423 28.9891 38.2821 28.629 38.629Z" fill="#2F943A"/>
<path d="M24.707 39.707C24.3468 40.0538 24.6937 40.414 24.3175 40.0206C24.1259 39.8217 24.1612 39.5384 24.3601 39.3469C24.559 39.1553 24.8755 39.1612 25.0671 39.3601C25.4139 39.7203 25.0671 39.3601 24.707 39.707Z" fill="#2F943A"/>
<path d="M24.707 36.707C24.3468 37.0538 24.6937 37.414 24.3175 37.0206C24.1259 36.8217 24.1612 36.5384 24.3601 36.3469C24.559 36.1553 24.8755 36.1612 25.0671 36.3601C25.4139 36.7203 25.0671 36.3601 24.707 36.707Z" fill="#2F943A"/>
<path d="M21.5001 33.5001C21.1682 33.874 21.5422 34.2059 21.1364 33.8432C20.9298 33.6599 20.9428 33.3748 21.126 33.1682C21.3093 32.9616 21.6253 32.9428 21.8319 33.126C22.2059 33.4579 21.8319 33.126 21.5001 33.5001Z" fill="#2F943A"/>
<path d="M24.5 31.5C24.7355 31.941 25.1766 31.7054 24.6956 31.9602C24.452 32.0903 24.1891 31.9791 24.0589 31.7356C23.9288 31.492 24.0208 31.1891 24.2644 31.059C24.7054 30.8234 24.2644 31.059 24.5 31.5Z" fill="#2F943A"/>
<circle cx="25.5" cy="30.5" r="0.5" fill="#C43838"/>
<circle cx="26.5" cy="32.5" r="0.5" fill="#C43838"/>
<circle cx="22.5" cy="33.5" r="0.5" fill="#C43838"/>
<circle cx="24.5" cy="34.5" r="0.5" fill="#C43838"/>
<circle cx="21.5" cy="36.5" r="0.5" fill="#C43838"/>
<circle cx="23.5" cy="37.5" r="0.5" fill="#C43838"/>
<circle cx="25.5" cy="38.5" r="0.5" fill="#C43838"/>
<circle cx="31.5" cy="32.5" r="0.5" fill="#C43838"/>
<circle cx="29.5" cy="34.5" r="0.5" fill="#C43838"/>
<circle cx="32.5" cy="34.5" r="0.5" fill="#C43838"/>
<path d="M26.1228 37.5C25.8719 37.6153 25.7839 37.9598 25.6685 37.7089C25.5531 37.458 25.8719 37.6153 26.1228 37.5C26.577 37.291 26.4617 37.0402 26.577 37.2911C26.6346 37.4163 26.3737 37.3846 26.1228 37.5Z" fill="#F8C034"/>
<path d="M25.1228 32.4999C25.3202 32.693 25.6733 32.652 25.4803 32.8495C25.2872 33.0469 25.3202 32.693 25.1228 32.4999C24.7652 32.1504 24.5722 32.3479 24.7652 32.1504C24.8616 32.0519 24.9253 32.3069 25.1228 32.4999Z" fill="#F8C034"/>
<path d="M23.1227 36.5C22.922 36.6897 22.949 37.0442 22.7593 36.8435C22.5696 36.6428 22.922 36.6897 23.1227 36.5C23.486 36.1565 23.2963 35.9559 23.486 36.1566C23.5807 36.2567 23.3234 36.3104 23.1227 36.5Z" fill="#F8C034"/>
<path d="M30.1228 30.5C29.9433 30.7099 30.0077 31.0595 29.7978 30.88C29.588 30.7006 29.9433 30.7099 30.1228 30.5C30.4476 30.1199 30.2378 29.9405 30.4477 30.1199C30.5524 30.2095 30.3022 30.2901 30.1228 30.5Z" fill="#F8C034"/>
<path d="M22.1228 38.5C22.2587 38.7404 22.6092 38.7994 22.3688 38.9353C22.1284 39.0712 22.2587 38.7404 22.1228 38.5C21.8767 38.0648 21.6363 38.2006 21.8767 38.0647C21.9967 37.9969 21.9869 38.2596 22.1228 38.5Z" fill="#F8C034"/>
<path d="M31.1228 37.5001C30.8685 37.6077 30.77 37.9493 30.6623 37.695C30.5547 37.4407 30.8685 37.6077 31.1228 37.5001C31.5832 37.3051 31.4756 37.0509 31.5832 37.3052C31.637 37.4321 31.3771 37.3924 31.1228 37.5001Z" fill="#F8C034"/>
<path d="M22.1227 32.5C22.333 32.6789 22.6824 32.6137 22.5035 32.824C22.3245 33.0343 22.333 32.6789 22.1227 32.5C21.7419 32.176 21.5629 32.3862 21.7419 32.1759C21.8312 32.071 21.9124 32.321 22.1227 32.5Z" fill="#F8C034"/>
<circle cx="32.5" cy="36.5" r="0.5" fill="#C43838"/>
<circle cx="30.5" cy="36.5" r="0.5" fill="#C43838"/>
<circle cx="30.5" cy="39.5" r="0.5" fill="#C43838"/>
<circle cx="28.5" cy="39.5" r="0.5" fill="#C43838"/>
<circle cx="28.5" cy="37.5" r="0.5" fill="#C43838"/>
<circle cx="26.5" cy="40.5" r="0.5" fill="#C43838"/>
<circle cx="28.5" cy="31.5" r="0.5" fill="#C43838"/>
<path d="M36.5 35C36.5 35.5724 36.4719 35.9621 36.3845 36.2523C36.3057 36.5141 36.1794 36.6929 35.9462 36.8458C35.6893 37.0142 35.2844 37.1625 34.6237 37.2948C33.9689 37.4259 33.1083 37.533 31.9696 37.645C29.7679 37.8617 28.255 37.4567 27.3114 36.8724C26.3588 36.2827 26 35.5279 26 35C26 34.7447 26.0727 34.5824 26.2085 34.4507C26.3635 34.3004 26.642 34.151 27.1263 34.0291C28.1012 33.7837 29.669 33.7042 32.0185 33.7042C32.8521 33.7042 33.553 33.6883 34.1309 33.6753C34.3674 33.6699 34.5833 33.665 34.7793 33.6619C35.48 33.6507 35.8891 33.664 36.1452 33.7268C36.262 33.7554 36.3141 33.7875 36.3388 33.8079C36.3593 33.8249 36.3847 33.8531 36.4105 33.9233C36.4757 34.1008 36.5 34.4067 36.5 35Z" fill="#444243" stroke="#101010"/>
<path d="M31.5 17.4999C30.5 18.1208 26.9095 15.8665 24.5 14.9999C21.4624 14.9999 20 15.0523 20 14.5C20 13.7279 23 12 27 12.4999C31.5 14 32.5 16.8791 31.5 17.4999Z" fill="#2C2727"/>
<path d="M31.5 17.5C32.9999 18 21 17 17.7886 16.3429C14.3216 15.4116 15.7885 15.2023 17.7885 14.7025C19.7886 14.2027 21.2827 14.22 24.7496 15.1513C28.2166 16.0826 30.0001 17 31.5 17.5Z" fill="#9D0505"/>
<path d="M26.8173 14.4641C26.6506 14.9324 26.1359 15.1768 25.6676 15.0101C25.1993 14.8434 24.9549 14.3286 25.1216 13.8604C25.2883 13.3921 25.8031 13.1477 26.2713 13.3144C26.7396 13.4811 26.984 13.9958 26.8173 14.4641Z" fill="#EA9736" stroke="#C16902" stroke-width="0.2"/>
</g>
</svg>
