<svg width="48" height="48" viewBox="0 0 48 48" fill="none" xmlns="http://www.w3.org/2000/svg">
  <mask id="mask0_34_120" style="mask-type:alpha" maskUnits="userSpaceOnUse" x="0" y="0" width="48"
    height="48">
    <rect width="48" height="48" rx="24" fill="#E9E9E9" />
  </mask>
  <g mask="url(#mask0_34_120)">
    <path
      d="M6.23175 29.3779C5.36199 31.1242 4.79635 32.6175 4.37272 33.7358C4.21521 34.1516 4.07733 34.5156 3.95074 34.8215C3.70309 35.42 3.52416 35.73 3.37301 35.8661C3.31461 35.9187 3.28249 35.9243 3.26449 35.9258C3.23758 35.9281 3.16837 35.9245 3.03448 35.8579C2.97495 35.8282 2.91639 35.7994 2.85888 35.771C2.14893 35.4214 1.59785 35.1499 1.34323 34.4059C1.05205 33.5551 1.12368 31.9742 2.34085 28.8235C3.34141 26.8274 4.99441 25.3936 6.58044 24.5472C7.37548 24.1229 8.14027 23.8535 8.77993 23.7328C9.44143 23.6078 9.89025 23.6561 10.1133 23.7672C10.1649 23.7929 10.2012 23.8145 10.2263 23.8312C10.1988 23.8821 10.149 23.958 10.0627 24.0667C9.94335 24.2171 9.78428 24.3941 9.58116 24.6176C9.56167 24.639 9.54188 24.6607 9.52181 24.6828C8.70804 25.5774 7.41874 26.9947 6.23175 29.3779Z"
      fill="#444243" stroke="#101010" />
    <path
      d="M34.4203 40.3919C35.1647 39.0042 35.48 38.3735 36.1107 37.5852C36.09 28.7844 36.8991 21.6606 40.3677 21.6606C42.4174 21.3454 47.8748 23.3109 46.8321 27.3367C45.4131 30.1748 42.8904 29.3864 40.683 26.233C40.4826 26.3132 40.4045 26.3118 40.3994 26.2652C39.4112 26.777 39.5138 31.5845 39.1064 34.7471C38.7521 37.4973 35.7278 42.4285 34.4241 41.9845L34.4203 40.3919Z"
      fill="#444243" />
    <path
      d="M40.683 26.233C42.8904 29.3864 45.4131 30.1748 46.8321 27.3367C47.8748 23.3109 42.4174 21.3454 40.3677 21.6606C36.8991 21.6606 36.09 28.7844 36.1107 37.5852C35.48 38.3735 35.1647 39.0042 34.4203 40.3919L34.4241 41.9845C35.7278 42.4285 38.7521 37.4973 39.1064 34.7471C39.5492 31.3095 39.3895 25.9284 40.683 26.233ZM40.683 26.233C39.8947 26.5484 40.9984 25.6023 40.9984 25.6023"
      stroke="#101010" stroke-width="1.5" stroke-linecap="round" />
    <path
      d="M6.66266 27.6752C5.89138 28.7644 5.43312 29.7903 2.21539 41.4854C1.395 44.4672 3.0551 48.5299 4.88377 49.1752C7.5521 50.1168 11.7945 51.9201 25.7861 52C32.4571 52 34.9022 46.9642 35.7185 45.4088C36.4597 43.9963 35.5429 27.3382 35.1894 25.635C34.5707 22.6533 34.6426 20.5034 34.6807 21.3978C34.7908 19.0909 35.602 14.2809 35.1894 14.1611C34.8766 14.0702 31.8355 16.1845 30.5189 17.9955C27.6016 15.2395 25.0449 15.2774 24.2574 15.1197C23.6303 14.9941 20.7994 15.0006 19.4116 15.1204C19.5599 14.3358 19.8564 12.4526 19.8564 12.4526L20.386 9.36875C20.4033 9.26785 20.2762 9.209 20.211 9.2879C19.1387 10.5846 14.6842 15.9864 11.7029 19.8285L9.47929 22.9672L7.55212 25.9489L6.66266 27.6752Z"
      fill="#444243" />
    <path
      d="M19.4102 17.0369C19.3967 16.5358 19.4206 15.8244 19.4116 15.1204M29.9297 19.5533C29.8549 19.1189 30.0994 18.5726 30.5189 17.9955M19.4116 15.1204C19.5599 14.3358 19.8564 12.4526 19.8564 12.4526L20.386 9.36875C20.4033 9.26785 20.2762 9.209 20.211 9.2879C19.1387 10.5846 14.6842 15.9864 11.7029 19.8285L9.47929 22.9672L7.55212 25.9489L6.66266 27.6752C5.89138 28.7644 5.43312 29.7903 2.21539 41.4854C1.395 44.4672 3.0551 48.5299 4.88377 49.1752C7.5521 50.1168 11.7945 51.9201 25.7861 52C32.4571 52 34.9022 46.9642 35.7185 45.4088C36.4597 43.9963 35.5429 27.3382 35.1894 25.635C34.5707 22.6533 34.6426 20.5034 34.6807 21.3978C34.7908 19.0909 35.602 14.2809 35.1894 14.1611C34.8766 14.0702 31.8355 16.1845 30.5189 17.9955M19.4116 15.1204C20.7994 15.0006 23.6303 14.9941 24.2574 15.1197C25.0449 15.2774 27.6016 15.2395 30.5189 17.9955"
      stroke="#101010" stroke-width="1.5" stroke-linecap="round" />
    <ellipse cx="14.9957" cy="23.0926" rx="2.51858" ry="2.64282"
      transform="rotate(11.5217 14.9957 23.0926)" fill="#101010" />
    <path d="M16.7713 25.4646C15.2847 25.1629 14.6089 25.3138 13.9332 25.6155" stroke="#101010"
      stroke-linecap="round" />
    <circle cx="14.4062" cy="21.9892" r="1.10368" fill="white" />
    <circle cx="13.9332" cy="23.4081" r="0.630672" fill="white" />
    <circle cx="15.1947" cy="23.0928" r="0.315336" fill="white" />
    <ellipse cx="23.9957" cy="23.0926" rx="2.51858" ry="2.64282"
      transform="rotate(11.5217 23.9957 23.0926)" fill="#101010" />
    <path d="M26.203 25.6756C24.784 25.1295 23.2073 25.518 22.5767 25.6756" stroke="#101010"
      stroke-linecap="round" />
    <circle cx="23.365" cy="22.1095" r="1.10368" fill="white" />
    <circle cx="22.892" cy="23.529" r="0.630672" fill="white" />
    <circle cx="24.1533" cy="23.2137" r="0.315336" fill="white" />
    <path
      d="M20.0188 24.8853C19.1812 24.5971 18.6228 24.5971 17.506 24.8855C17.506 25.0777 18.6097 26.7189 18.902 27.1919C19.4604 26.327 20.1173 24.9192 20.0188 24.8853Z"
      fill="#101010" />
    <path d="M18.9248 26.561V26.8764V27.1917V27.5" stroke="#101010" stroke-linecap="round" />
    <path
      d="M34.5 21C34.5 21 34.9296 20.6731 35.3836 21.2591C35.3736 21.8982 34.7187 22.4204 34.463 22.4164C34.2073 22.4124 33.99 22.6392 34 22C34 21 34.0189 20.741 34.5 21Z"
      fill="#101010" />
    <rect x="18.156" y="34.5138" width="10" height="10" transform="rotate(-10.9697 18.156 34.5138)"
      fill="#A24BE6" />
    <path d="M15.5114 34.0078L18.156 34.5138L20.0589 44.3311L17.4142 43.8251L15.5114 34.0078Z"
      fill="#853FBD" />
    <path d="M15.5114 34.0078L26.3104 31.9146L27.9732 32.6109L18.156 34.5138L15.5114 34.0078Z"
      fill="#AF5FEE" />
    <rect x="18.9171" y="38.4408" width="10" height="1" transform="rotate(-10.9697 18.9171 38.4408)"
      fill="#D28CBF" />
    <rect x="22.0829" y="33.7527" width="1" height="10" transform="rotate(-10.9697 22.0829 33.7527)"
      fill="#EA9CD4" />
    <path d="M18.9224 38.4581L19.1109 39.4402L16.6531 39.8982L16.4662 38.9342L18.9224 38.4581Z"
      fill="#BD7EAB" />
    <path d="M23.0648 33.5625L22.083 33.7528L21.4018 32.8662L22.3835 32.676L23.0648 33.5625Z"
      fill="#F3ABDF" />
    <path d="M23.0366 29.9847L24.681 31.3248L22.9313 33.404L22.3832 32.9573L23.0366 29.9847Z"
      fill="#EA9CD4" />
    <path d="M19.1493 30.7562L18.9439 32.3239L22.0829 33.7527L21.6429 33.1108L19.1493 30.7562Z"
      fill="#EA9CD4" />
    <path
      d="M35.5 36C35.5 36.5724 35.4719 36.9621 35.3845 37.2523C35.3057 37.5141 35.1794 37.6929 34.9462 37.8458C34.6893 38.0142 34.2844 38.1625 33.6237 38.2948C32.9689 38.4259 32.1083 38.533 30.9696 38.645C28.7679 38.8617 27.255 38.4567 26.3114 37.8724C25.3588 37.2827 25 36.5279 25 36C25 35.7447 25.0727 35.5824 25.2085 35.4507C25.3635 35.3004 25.642 35.151 26.1263 35.0291C27.1012 34.7837 28.669 34.7042 31.0185 34.7042C31.8521 34.7042 32.553 34.6883 33.1309 34.6753C33.3674 34.6699 33.5833 34.665 33.7793 34.6619C34.48 34.6507 34.8891 34.664 35.1452 34.7268C35.262 34.7554 35.3141 34.7875 35.3388 34.8079C35.3593 34.8249 35.3847 34.8531 35.4105 34.9233C35.4757 35.1008 35.5 35.4067 35.5 36Z"
      fill="#444243" stroke="#101010" />
    <path d="M18 18C19.0002 19.5 29.5 21.5 31 20.5" stroke="#9144CD" stroke-linecap="round" />
    <path
      d="M27.0313 4.69263L29.2227 12.5466L31.3075 20.0183C31.3619 20.2134 31.22 20.4081 31.0177 20.416V20.416C26.4362 20.5952 21.8727 19.747 17.6616 17.9336V17.9336C17.4757 17.8535 17.4132 17.6208 17.5341 17.4584L27.0313 4.69263Z"
      fill="#A24BE7" />
    <path
      d="M28.0222 5.50108C28.0222 6.05337 27.5745 6.5011 27.0222 6.5011C26.4699 6.5011 26.0222 6.05337 26.0222 5.50108C26.0222 4.9488 26.4699 4.5011 27.0222 4.5011C27.5222 4.5011 28.0222 4.9488 28.0222 5.50108Z"
      fill="#F8C034" />
    <path d="M27.0222 5.001C27.5222 4.0011 28.0222 4.50111 28.0222 4.50111" stroke="#F8C034"
      stroke-width="0.2" stroke-linecap="round" />
    <path
      d="M26.0222 4.5011C26.5222 4.0011 27.0222 5.0011 27.0222 5.0011C27.0222 5.0011 26.5222 4.00109 27.0222 4.00109"
      stroke="#F8C034" stroke-width="0.2" stroke-linecap="round" />
    <path d="M26.5303 5.09006C25.821 4.2259 25.4443 4.82432 25.4443 4.82432" stroke="#F8C034"
      stroke-width="0.2" stroke-linecap="round" />
    <path d="M27.5223 6.00116C28.5222 5.5011 28.5222 6.00114 28.5222 6.00114" stroke="#F8C034"
      stroke-width="0.2" stroke-linecap="round" />
    <path d="M26.3614 5.68657C27.0014 6.60329 26.3615 6.82652 26.3615 6.82652" stroke="#F8C034"
      stroke-width="0.2" stroke-linecap="round" />
    <path d="M26.2645 6.17616C25.1785 5.91024 25.2894 6.39784 25.2894 6.39784" stroke="#F8C034"
      stroke-width="0.2" stroke-linecap="round" />
    <path d="M27.5222 5.0011C28.0222 4.3763 28.5222 5.001 28.5222 5.001" stroke="#F8C034"
      stroke-width="0.2" stroke-linecap="round" />
    <path d="M27.351 5.54134C28.0418 5.94532 27.5222 7.0011 27.5222 7.0011" stroke="#F8C034"
      stroke-width="0.2" stroke-linecap="round" />
    <path d="M26.5223 5.50101C25.5222 5.0011 25.0222 5.50111 25.0222 5.50111" stroke="#F8C034"
      stroke-width="0.2" stroke-linecap="round" />
    <path d="M27.5222 5.501C28.5222 5.0011 28.5223 5.50105 28.5223 5.50105" stroke="#F8C034"
      stroke-width="0.2" stroke-linecap="round" />
    <path d="M26.8562 5.61407C27.496 6.53088 27.0222 7.0011 27.0222 7.0011" stroke="#F8C034"
      stroke-width="0.2" stroke-linecap="round" />
    <path d="M26.1535 5.68855C25.0676 5.42279 25.1784 5.91032 25.1784 5.91032" stroke="#F8C034"
      stroke-width="0.2" stroke-linecap="round" />
    <circle cx="23.5" cy="11.5" r="0.5" fill="#FC8AC8" />
    <circle cx="27.5" cy="12.5" r="0.5" fill="#FC8AC8" />
    <circle cx="25.5" cy="11.5" r="0.5" fill="#FFE9B3" />
    <circle cx="22.5" cy="14.5" r="0.5" fill="#FFE9B3" />
    <circle cx="26.5" cy="13.5" r="0.5" fill="#FFE9B3" />
    <circle cx="24.5" cy="9.5" r="0.5" fill="#FFE9B3" />
    <circle cx="28.5" cy="14.5" r="0.5" fill="#FFE9B3" />
    <circle cx="21.5" cy="17.5" r="0.5" fill="#FFE9B3" />
    <circle cx="26.5" cy="17.5" r="0.5" fill="#FFE9B3" />
    <circle cx="28.5" cy="18.5" r="0.5" fill="#FC8AC8" />
    <circle cx="19.5" cy="16.5" r="0.5" fill="#FC8AC8" />
    <circle cx="24.5" cy="14.5" r="0.5" fill="#FC8AC8" />
    <circle cx="23.5" cy="17.5" r="0.5" fill="#FC8AC8" />
    <circle cx="26.5" cy="9.5" r="0.5" fill="#FC8AC8" />
    <circle cx="27.5" cy="15.5" r="0.5" fill="#FC8AC8" />
    <path
      d="M20.0896 29.0004C20.0896 29.0344 20.0753 29.0903 20.0115 29.1685C19.9475 29.2471 19.8476 29.3299 19.7185 29.4062C19.4543 29.5625 19.1402 29.6504 18.9396 29.6504C18.739 29.6504 18.4249 29.5625 18.1606 29.4062C18.0316 29.3299 17.9317 29.2471 17.8676 29.1685C17.8038 29.0903 17.7896 29.0344 17.7896 29.0004C17.7896 28.9522 17.8144 28.8532 17.8983 28.7098C17.9781 28.5736 18.0941 28.4266 18.23 28.2907C18.3658 28.1549 18.5128 28.0389 18.649 27.9591C18.7924 27.8752 18.8914 27.8504 18.9396 27.8504C18.9877 27.8504 19.0867 27.8752 19.2301 27.9591C19.3664 28.0389 19.5133 28.1549 19.6492 28.2907C19.7851 28.4266 19.9011 28.5736 19.9808 28.7098C20.0648 28.8532 20.0896 28.9522 20.0896 29.0004Z"
      fill="#A47B7B" stroke="#101010" stroke-width="0.7" />
  </g>
</svg>