<svg width="120" height="120" viewBox="0 0 120 120" fill="none" xmlns="http://www.w3.org/2000/svg">
<mask id="mask0_79_41" style="mask-type:alpha" maskUnits="userSpaceOnUse" x="0" y="0" width="120" height="121">
<rect y="0.5" width="120" height="120" rx="60" fill="#E9E9E9"/>
</mask>
<g mask="url(#mask0_79_41)">
<circle cx="60" cy="60.5" r="60" fill="#D4D4D4"/>
<path d="M16.2504 74.2792C14.0944 78.6079 12.7047 82.2769 11.6474 85.0682C11.2486 86.1211 10.8971 87.0492 10.5696 87.8406C9.95757 89.3196 9.45587 90.2526 8.93419 90.7226C8.69054 90.9421 8.46122 91.0422 8.22293 91.062C7.97571 91.0825 7.6631 91.021 7.25153 90.816C7.09606 90.7385 6.94067 90.6624 6.78596 90.5866C5.04496 89.7336 3.389 88.9223 2.64817 86.7577C1.82565 84.3544 2.10418 80.1686 5.16512 72.255C7.74726 67.0836 12.0148 63.3851 16.0977 61.2062C18.1412 60.1157 20.1249 59.4132 21.8103 59.0949C23.5176 58.7725 24.8389 58.859 25.6172 59.2467C26.0511 59.4628 26.2454 59.6426 26.3253 59.7746C26.3844 59.8723 26.4074 59.9853 26.3343 60.1936C26.2526 60.4265 26.0653 60.728 25.7439 61.133C25.4271 61.5321 25.0119 61.9935 24.5076 62.5484C24.4595 62.6013 24.4106 62.6549 24.3611 62.7094C22.338 64.9334 19.1713 68.4147 16.2504 74.2792Z" fill="#444243" stroke="#101010"/>
<path d="M86.0509 101.48C87.9118 98.0104 88.7002 96.4337 90.2768 94.4629C90.2251 72.4608 92.2478 54.6515 100.919 54.6515C106.044 53.8633 119.687 58.7771 117.08 68.8418C113.533 75.9369 107.226 73.966 101.708 66.0825C101.207 66.2829 101.011 66.2795 100.999 66.1629C98.5281 67.4425 98.7846 79.4612 97.7661 87.3678C96.8804 94.2431 89.3197 106.571 86.0603 105.461L86.0509 101.48Z" fill="#444243"/>
<path d="M101.708 66.0825C107.226 73.966 113.533 75.9369 117.08 68.8418C119.687 58.7771 106.044 53.8633 100.919 54.6515C92.2478 54.6515 90.2251 72.4608 90.2768 94.4629C88.7002 96.4337 87.9118 98.0104 86.0509 101.48L86.0603 105.461C89.3197 106.571 96.8804 94.2431 97.7661 87.3678C98.8732 78.7736 98.4738 65.321 101.708 66.0825ZM101.708 66.0825C99.7369 66.8708 102.496 64.5058 102.496 64.5058" stroke="#101010" stroke-width="1.5" stroke-linecap="round"/>
<path d="M16.6571 69.688C14.7289 72.4111 13.5833 74.9758 5.53897 104.214C3.48799 111.668 7.63825 121.825 12.2099 123.438C18.8807 125.792 29.4867 130.3 64.4658 130.5C81.1432 130.5 87.2559 117.911 89.2966 114.022C91.1497 110.491 88.8577 68.8454 87.9741 64.5876C86.4271 57.1332 86.607 51.7584 86.7024 53.9945C86.9776 48.2274 89.0054 36.2022 87.9741 35.9026C87.192 35.6755 79.5892 40.9612 76.2977 45.4888C69.0045 38.5987 62.6127 38.6934 60.644 38.2992C59.0762 37.9852 51.999 38.0015 48.5296 38.3011C48.9002 36.3394 49.6414 31.6314 49.6414 31.6314L51.0605 23.3687C51.0778 23.2678 50.9591 23.1987 50.8938 23.2776C49.0935 25.4521 37.1241 39.9334 29.2579 50.0712L23.6987 57.9179L18.8808 65.3723L16.6571 69.688Z" fill="#444243"/>
<path d="M48.526 43.0922C48.4923 41.8396 48.5521 40.0609 48.5296 38.3011M74.8247 49.3831C74.6378 48.2973 75.2489 46.9315 76.2977 45.4888M48.5296 38.3011C48.9002 36.3394 49.6414 31.6314 49.6414 31.6314L51.0605 23.3687C51.0778 23.2678 50.9591 23.1987 50.8938 23.2776C49.0935 25.4521 37.1241 39.9334 29.2579 50.0712L23.6987 57.9179L18.8808 65.3723L16.6571 69.688C14.7289 72.4111 13.5833 74.9758 5.53897 104.214C3.48799 111.668 7.63825 121.825 12.2099 123.438C18.8807 125.792 29.4867 130.3 64.4658 130.5C81.1432 130.5 87.2559 117.911 89.2966 114.022C91.1497 110.491 88.8577 68.8454 87.9741 64.5876C86.4271 57.1332 86.607 51.7584 86.7024 53.9945C86.9776 48.2274 89.0054 36.2022 87.9741 35.9026C87.192 35.6755 79.5892 40.9612 76.2977 45.4888M48.5296 38.3011C51.999 38.0015 59.0762 37.9852 60.644 38.2992C62.6127 38.6934 69.0045 38.5987 76.2977 45.4888" stroke="#101010" stroke-width="1.5" stroke-linecap="round"/>
<ellipse cx="37.4888" cy="58.2315" rx="6.29645" ry="6.60704" transform="rotate(11.5217 37.4888 58.2315)" fill="#101010"/>
<path d="M41.9281 64.1615C38.2116 63.4072 36.5223 63.7845 34.833 64.5387" stroke="#101010" stroke-linecap="round"/>
<circle cx="36.0153" cy="55.4731" r="2.75919" fill="white"/>
<circle cx="34.8328" cy="59.0205" r="1.57668" fill="white"/>
<circle cx="37.9866" cy="58.2321" r="0.78834" fill="white"/>
<ellipse cx="59.9898" cy="58.2315" rx="6.29645" ry="6.60704" transform="rotate(11.5217 59.9898 58.2315)" fill="#101010"/>
<path d="M65.5078 64.6892C61.9603 63.3237 58.0186 64.2951 56.4419 64.6891" stroke="#101010" stroke-linecap="round"/>
<circle cx="58.4125" cy="55.774" r="2.75919" fill="white"/>
<circle cx="57.23" cy="59.3226" r="1.57668" fill="white"/>
<circle cx="60.3831" cy="58.5343" r="0.78834" fill="white"/>
<path d="M50.0467 62.7134C47.9527 61.9928 46.5567 61.9929 43.7646 62.7137C43.7646 63.1942 46.5238 67.2972 47.2547 68.4797C48.6507 66.3177 50.2928 62.7981 50.0467 62.7134Z" fill="#101010"/>
<path d="M47.3123 66.9026V67.6909V68.4793V69.6618" stroke="#101010" stroke-linecap="round"/>
<path d="M47.1325 69.8966L42.5002 68.3755" stroke="#101010" stroke-linecap="round"/>
<path d="M52.6647 68.7797L47.5412 69.9652" stroke="#101010" stroke-linecap="round"/>
<path d="M89.5005 90.5C89.5005 91.9333 89.4331 93.0061 89.18 93.847C88.9354 94.6595 88.5167 95.2568 87.7773 95.7416C87.0142 96.242 85.889 96.6356 84.2071 96.9724C82.5309 97.3079 80.3477 97.5786 77.4979 97.859C71.8739 98.4123 67.9166 97.3867 65.3841 95.8188C62.8426 94.2453 61.7505 92.1436 61.7505 90.5C61.7505 89.6868 61.9956 89.0772 62.4995 88.5884C63.0227 88.0809 63.8653 87.6646 65.1331 87.3454C67.6749 86.7055 71.6872 86.5105 77.5468 86.5105C79.6217 86.5105 81.3586 86.4712 82.801 86.4386C83.3952 86.4251 83.9395 86.4128 84.4368 86.4048C86.167 86.3771 87.2908 86.4042 88.0421 86.5885C88.4066 86.6779 88.6515 86.7976 88.8261 86.9423C88.9965 87.0835 89.1288 87.2724 89.2306 87.5496C89.4479 88.141 89.5005 89.0458 89.5005 90.5Z" fill="#444243" stroke="#101010"/>
</g>
<path fill-rule="evenodd" clip-rule="evenodd" d="M44.7469 79.8565L38.5821 75.2081C38.4228 75.088 38.195 75.1923 38.1831 75.3908L37.4534 87.4846C37.4406 87.6958 37.6795 87.828 37.8503 87.7042L44.4989 82.8834C44.933 83.6622 45.7369 84.1851 46.6569 84.1851C47.4921 84.1851 48.2317 83.754 48.6857 83.0918L54.5542 88.3411C54.7071 88.478 54.9487 88.3847 54.9681 88.1814L56.1209 76.0673C56.1404 75.8621 55.9174 75.7204 55.7418 75.8265L48.7199 80.0677C48.2694 79.3766 47.5135 78.9232 46.6569 78.9232C45.8909 78.9232 45.2055 79.2857 44.7469 79.8565Z" fill="#D81A14"/>
</svg>
