<svg
  width="16"
  height="13"
  viewBox="0 0 16 13"
  fill="none"
  xmlns="http://www.w3.org/2000/svg"
>
  <path
    d="M13.2687 9.87429C10.4915 10.8 4.32009 11.1086 2.16009 9.87429L1.28823 4.06188C1.25611 3.84778 1.36544 3.63732 1.55909 3.5405L1.56538 3.53736C1.73981 3.45014 1.94904 3.4723 2.10133 3.59414L4.71638 5.68617C4.8337 5.78003 5.00672 5.74994 5.08546 5.62198L7.33259 1.9704C7.37809 1.89647 7.45869 1.85143 7.5455 1.85143H7.88325C7.97006 1.85143 8.05066 1.89647 8.09616 1.9704L10.3433 5.62198C10.422 5.74994 10.595 5.78003 10.7124 5.68617L13.5772 3.39429C13.7829 3.39429 14.1944 3.456 14.1944 3.70286C13.8858 8.02286 13.5772 7.92 13.2687 9.87429Z"
    fill="#F8C034"
  />
  <circle cx="7.71427" cy="1.23429" r="1.23429" fill="#F8C034" />
  <circle cx="1.23429" cy="3.27089" r="1.23429" fill="#F8C034" />
  <circle cx="14.1942" cy="3.27089" r="1.23429" fill="#F8C034" />
  <path
    d="M2.57141 11.1429C6.6857 12.6952 11.0476 11.7897 12.8571 11.1429"
    stroke="#F8C034"
    stroke-width="2"
    stroke-linecap="round"
  />
</svg>