<svg width="32" height="32" viewBox="0 0 28 29" fill="none" xmlns="http://www.w3.org/2000/svg">
  <path
    d="M0.0193543 7.52938L8.32146 0.075514L8.31648 4.22209C8.31648 4.22209 14.5473 3.95106 19.0247 5.77766C24.8727 8.16337 27.5203 17.2408 27.5203 17.2408C25.4624 11.5898 19.8805 10.4784 17.7069 10.2665C14.2995 9.93427 8.30851 10.8566 8.30851 10.8566L8.30353 15.0032L0.0193543 7.52938Z"
    fill="#D71E1E" />
  <path
    d="M27.5215 20.7282L19.2194 28.1821L19.2244 24.0355C19.2244 24.0355 12.9936 24.3065 8.5162 22.4799C2.66824 20.0942 0.0206216 11.0168 0.0206216 11.0168C2.07846 16.6678 7.66042 17.7791 9.83395 17.9911C13.2414 18.3233 19.2324 17.401 19.2324 17.401L19.2374 13.2544L27.5215 20.7282Z"
    fill="#D71E1E" />
</svg>