<svg
  xmlns="http://www.w3.org/2000/svg"
  xmlns:xlink="http://www.w3.org/1999/xlink"
  version="1.1"
  viewBox="0 0 100 100"
  fill="#fff"
  width="30"
  height="30"
>
  <path
    d="M63.619,54.874c12.9,0,23.357-10.458,23.359-23.358c0-12.901-10.459-23.36-23.359-23.36 c-12.901,0-23.359,10.459-23.36,23.36C40.259,44.417,50.718,54.875,63.619,54.874z M61.484,18.34v-3.361 c0-0.295,0.238-0.533,0.533-0.533h3.2c0.296,0,0.534,0.238,0.534,0.533l-0.001,3.366c3.381,0.537,5.937,2.367,6.97,5.066 c0.104,0.274-0.058,0.573-0.338,0.66l-4.087,1.232c-0.28,0.084-0.573-0.081-0.733-0.328c-0.596-0.925-2.016-1.462-3.943-1.462 c-1.001,0-4.268,0.192-4.268,2.667c0,2.474,3.267,2.667,4.268,2.667c5.742,0,9.602,3.215,9.602,8.002 c0,4.165-2.925,7.14-7.468,7.841l-0.001,3.36c0,0.295-0.238,0.534-0.533,0.534H62.02c-0.297,0-0.535-0.239-0.533-0.534l-0.002-3.366 c-3.379-0.538-5.934-2.367-6.969-5.067c-0.104-0.274,0.058-0.573,0.338-0.66l4.086-1.232c0.281-0.084,0.574,0.082,0.734,0.328  c0.594,0.925,2.016,1.462,3.944,1.461c1.001,0.001,4.268-0.192,4.268-2.667c0-2.475-3.267-2.667-4.268-2.667  c-5.742,0-9.601-3.215-9.601-8.001C54.018,22.015,56.941,19.042,61.484,18.34z" />
  <path
    d="M93.861,59.143c-1.82-2.324-5.182-2.732-7.506-0.912L69.787,71.156c-0.08,0.061-0.11,0.16-0.089,0.25  c0.005,0.014,0.013,0.048,0.014,0.052c0.808,3.015-0.188,6.354-2.794,8.397c-2.361,1.85-5.525,2.228-8.264,0.982l-18.908-8.177  c-0.677-0.292-0.988-1.077-0.695-1.757c0.293-0.678,1.081-0.989,1.758-0.696l18.931,8.187c1.761,0.811,3.898,0.633,5.531-0.646  c2.322-1.821,2.731-5.183,0.91-7.507c-0.589-0.753-1.342-1.301-2.168-1.643L37.426,57.089c-4.773-1.993-10.459-1.417-14.824,2.001  L5.304,72.639c-0.345,0.271-0.406,0.77-0.135,1.113l10.618,13.557c0.27,0.344,0.77,0.404,1.114,0.135l4.274-3.348  c1.716-1.346,4.795-1.919,6.879-1.287l29.008,8.799c1.74,0.513,3.694,0.203,5.232-0.998L92.948,66.65 C95.273,64.829,95.684,61.469,93.861,59.143z"
  />
</svg>