<svg
  width="15"
  height="21"
  viewBox="0 0 15 21"
  fill="none"
  xmlns="http://www.w3.org/2000/svg"
>
  <path
    d="M6.22387 15.9228C6.22387 15.9228 6.11873 15.5047 6.05126 15.2369C5.98379 14.9692 5.62204 14.9805 4.93636 15.1532C4.25069 15.3259 4.59095 13.7817 3.90516 13.9546C3.48586 14.0604 3.16251 14.0055 2.97454 13.9469C2.86912 13.914 2.83618 13.7941 2.89282 13.6993L10.2278 1.42366L12.2011 2.02032L13.6615 3.4754L6.22387 15.9228Z"
    fill="#2A2A2A"
  />
  <path
    d="M13.7334 3.43854L6.24884 15.909L2.25244 18.6723L2.80822 13.8439L10.293 1.37304C11.7108 1.44475 13.0021 2.21854 13.7334 3.43854Z"
    stroke="#2A2A2A"
    stroke-width="0.5"
  />
  <path
    d="M2.45529 18.3307L2.62273 16.1009L4.33959 17.1268L2.45529 18.3307Z"
    fill="#2A2A2A"
  />
</svg>