<svg width="48" height="50" viewBox="0 0 48 50" fill="none" xmlns="http://www.w3.org/2000/svg">
  <path d="M2.76434 15.6918L9.71496 15.6918L22.2897 5.79012C24.9136 3.72401 28.7643 5.59309 28.7643 8.93278L28.7643 40.7803C28.7643 44.1497 24.8533 46.0096 22.2398 43.883L9.71496 33.6918L2.76434 33.6918C1.65977 33.6918 0.764343 32.7964 0.764343 31.6918L0.764343 17.6918C0.764343 16.5873 1.65977 15.6918 2.76434 15.6918Z" fill="white"/>
  <path d="M32.7643 33.6918L34.1546 31.8738C37.1707 27.9297 37.1707 22.454 34.1546 18.5099L32.7643 16.6918" stroke="white" stroke-width="4" stroke-linecap="round"/>
  <path d="M37.7643 36.6918L38.8478 35.3916C43.9595 29.2577 43.7664 20.2941 38.3953 14.3859L37.7643 13.6918" stroke="white" stroke-width="4" stroke-linecap="round"/>
  </svg>
  