<svg width="150" height="99" viewBox="0 0 230 151" fill="none" xmlns="http://www.w3.org/2000/svg">
  <path
    d="M67.1416 40.174L67.1784 40.1563L67.2118 40.1328C67.5054 39.9266 67.7902 39.7248 68.0671 39.5286C69.5955 38.4458 70.8825 37.5341 72.0836 36.9798C73.4463 36.351 74.6137 36.223 75.8235 36.8261C76.1378 37.1244 76.2253 37.4506 76.1517 37.8544C76.0665 38.3217 75.7593 38.9013 75.2238 39.593C74.1572 40.9708 72.3582 42.5809 70.3683 44.3328C68.4113 46.0558 66.2816 47.5797 64.5348 48.5327C63.6579 49.0111 62.9024 49.3318 62.3273 49.4705C62.0392 49.5399 61.8232 49.557 61.6729 49.5409C61.5267 49.5253 61.4806 49.4837 61.4668 49.468C61.4537 49.4531 61.3964 49.3597 61.378 49.1035C61.3607 48.8632 61.3823 48.5432 61.4522 48.1555C61.5916 47.3822 61.9114 46.4045 62.4035 45.3821C63.3931 43.3259 65.0274 41.194 67.1416 40.174Z"
    fill="#444243" stroke="#101010" />
  <path
    d="M11.377 35.8055L11.3403 35.7878L11.3069 35.7643C11.0132 35.558 10.7284 35.3563 10.4516 35.1601C8.92313 34.0773 7.63618 33.1655 6.43505 32.6113C5.07237 31.9825 3.90501 31.8545 2.69522 32.4576C2.38092 32.7559 2.2934 33.082 2.36701 33.4859C2.45218 33.9531 2.7594 34.5327 3.29487 35.2245C4.36148 36.6023 6.16049 38.2123 8.15038 39.9643C10.1074 41.6873 12.2371 43.2112 13.9839 44.1642C14.8608 44.6426 15.6163 44.9633 16.1914 45.102C16.4795 45.1714 16.6955 45.1885 16.8458 45.1724C16.992 45.1568 17.0381 45.1152 17.0519 45.0995C17.065 45.0846 17.1223 44.9911 17.1407 44.7349C17.158 44.4947 17.1364 44.1747 17.0665 43.787C16.927 43.0137 16.6073 42.036 16.1152 41.0136C15.1256 38.9574 13.4913 36.8255 11.377 35.8055Z"
    fill="#444243" stroke="#101010" />
  <path
    d="M31.9277 3.66674C31.9277 3.66674 19.7319 20.6347 17.0807 28.1428C14.4296 35.651 12.569 49.3974 24.5043 57.7523C29.8068 61.4641 44.6539 64.1336 54.1984 59.3431C59.5291 56.6675 64.2731 43.9657 64.2731 36.012L65.3336 10.0297L52.0179 28.1428L31.9277 25.407L31.9277 3.66674Z"
    fill="#444243" stroke="#101010" stroke-width="2" />
  <path
    d="M52.6077 30.7096C52.2956 32.4387 49.747 32.6896 44.6539 31.7701C39.7547 30.8856 33.7368 29.2572 34.049 27.5281C34.3612 25.799 37.5603 25.5939 42.4595 26.4783C47.3587 27.3628 52.9199 28.9805 52.6077 30.7096Z"
    fill="#3E3D3D" />
  <path d="M40.9376 48.3704L38.4441 43.4562L43.9466 43.7539L40.9376 48.3704Z" fill="#101010" />
  <path d="M40.9422 47.1473C39.8817 49.7986 37.2305 48.7381 35.6397 47.1473" stroke="#101010"
    stroke-linecap="round" />
  <path d="M40.9422 47.1473C41.4725 49.7986 44.1237 48.2078 45.7145 47.1473" stroke="#101010"
    stroke-linecap="round" />
  <path d="M50.8981 44.2594L57.4191 42.9054" stroke="black" stroke-linecap="round" />
  <path d="M30.739 43.0552L24.478 40.7844" stroke="black" stroke-linecap="round" />
  <path d="M50.8488 45.5789L57.5033 45.8521" stroke="black" stroke-linecap="round" />
  <path d="M30.5995 44.3682L23.9742 43.689" stroke="black" stroke-linecap="round" />
  <path d="M50.6411 46.9101L56.9184 49.1353" stroke="black" stroke-linecap="round" />
  <path d="M30.6152 45.7156L24.0845 47.0221" stroke="black" stroke-linecap="round" />
  <path
    d="M44.6741 39.7891C45.2791 38.5778 47.8153 38.0676 52.6077 39.7238C52.6077 39.7238 48.3857 40.3196 47.8555 40.8498C47.3252 41.3801 47.0303 42.4755 45.7266 42.1594C44.4229 41.8434 44.1442 40.8501 44.6741 39.7891Z"
    fill="#101010" />
  <path
    d="M37.7608 39.724C37.5122 38.5646 34.5792 37.0727 29.2767 38.6635C29.2767 38.6635 34.1983 39.6083 34.5793 40.2542C34.9603 40.9001 34.8287 41.8254 36.17 41.845C37.5113 41.8646 38.0094 40.8835 37.7608 39.724Z"
    fill="#101010" />
  <path
    d="M37.7608 37.6029C37.5519 37.8118 36.7003 38.1252 35.6397 37.6029C34.8516 37.2148 33.26 36.0073 33.5187 35.4819C33.7775 34.9564 35.3814 35.3627 36.7003 36.0121C37.3914 36.3525 38.1977 37.1659 37.7608 37.6029Z"
    fill="#393839" />
  <path
    d="M43.7472 37.9013C43.9315 38.1321 44.743 38.5384 45.855 38.1375C46.6815 37.8396 48.3977 36.8168 48.199 36.2658C48.0004 35.7148 46.3612 35.94 44.9782 36.4385C44.2535 36.6998 43.3616 37.4184 43.7472 37.9013Z"
    fill="#393839" />
  <path d="M31.9278 25.4074L31.9279 28.5886" stroke="#101010" stroke-width="2" />
  <path
    d="M50.6527 30.339C46.1727 31.1605 36.7448 30.0221 33.8499 27.3485L34.2968 16.9778C34.3057 16.773 34.4386 16.5944 34.6322 16.5271L35.0003 16.3991C35.2023 16.3289 35.4266 16.3949 35.5583 16.5633L39.0668 21.0486C39.1659 21.1754 39.3573 21.1768 39.4583 21.0515L44.112 15.2769C44.1693 15.2059 44.2607 15.1717 44.3505 15.1877L44.9927 15.302C45.0825 15.318 45.1565 15.3816 45.1857 15.468L47.5613 22.4936C47.6128 22.6461 47.793 22.7108 47.9298 22.6261L53.0743 19.4383C53.3854 19.4937 53.9891 19.7091 53.9147 20.1275C52.1447 27.3669 51.709 27.1095 50.6527 30.339Z"
    fill="#F8C034" />
  <ellipse cx="44.8578" cy="14.1987" rx="1.89631" ry="2.12502"
    transform="rotate(10.0916 44.8578 14.1987)" fill="#F8C034" />
  <ellipse cx="34.4418" cy="15.9064" rx="1.89631" ry="2.12502"
    transform="rotate(10.0916 34.4418 15.9064)" fill="#F8C034" />
  <ellipse cx="54.0449" cy="19.3954" rx="1.89631" ry="2.12502"
    transform="rotate(10.0916 54.0449 19.3954)" fill="#F8C034" />
  <rect x="71.6972" y="45.4802" width="28.5524" height="50.8978" rx="4" fill="#D9D9D9" />
  <ellipse cx="85.457" cy="72.2947" rx="5.76775" ry="5.46215" fill="#2A2A2A" />
  <path
    d="M80.7728 64.6103C80.7889 64.5864 80.8246 64.5868 80.8408 64.6111L82.7833 67.5152L83.1206 68.0989C83.8989 69.446 83.8304 71.109 82.9447 72.3673L81.3997 74.5625C81.2386 74.7914 80.8979 74.7948 80.7265 74.5693L80.421 74.1674C79.9448 73.5411 79.6724 72.7866 79.6409 72.0066L79.5632 70.0832C79.5127 68.8331 79.6457 67.5847 79.9579 66.3773C80.1138 65.7747 80.3712 65.204 80.7195 64.6891L80.7728 64.6103Z"
    fill="#2A2A2A" />
  <path
    d="M89.7901 64.6103C89.774 64.5864 89.7383 64.5868 89.7221 64.611L87.7796 67.5152L87.4205 68.1367C86.6535 69.4642 86.708 71.1006 87.5612 72.3542L88.9049 74.3288C89.1316 74.662 89.6284 74.6569 89.8568 74.319L90.5146 73.3455C90.9761 72.6627 91.2088 71.8543 91.1791 71.0374L91.1444 70.0816C91.0988 68.8295 90.918 67.5876 90.605 66.3773C90.4491 65.7747 90.1917 65.2039 89.8434 64.6891L89.7901 64.6103Z"
    fill="#2A2A2A" />
  <path
    d="M89.3791 71.0225L86.1492 72.8432C86.6106 73.0708 87.6219 73.6486 88.687 73.2984C89.3791 73.0708 89.6098 71.7052 89.3791 71.0225Z"
    fill="white" />
  <path d="M88.3598 72.9879L87.5963 71.625L88.3439 71.4308L88.3598 72.9879Z" fill="#2A2A2A" />
  <path
    d="M81.6215 71.0225L84.8514 72.8432C84.39 73.0708 83.3787 73.6486 82.3136 73.2984C81.6215 73.0708 81.3908 71.7052 81.6215 71.0225Z"
    fill="white" />
  <path d="M82.6409 72.9879L83.4043 71.625L82.6568 71.4308L82.6409 72.9879Z" fill="#2A2A2A" />
  <rect x="103.974" y="45.4802" width="28.5524" height="50.8978" rx="4" fill="#D9D9D9" />
  <ellipse cx="117.733" cy="72.2947" rx="5.76775" ry="5.46215" fill="#2A2A2A" />
  <path
    d="M113.049 64.6103C113.065 64.5864 113.101 64.5868 113.117 64.6111L115.06 67.5152L115.397 68.0989C116.175 69.446 116.107 71.109 115.221 72.3673L113.676 74.5625C113.515 74.7914 113.174 74.7948 113.003 74.5693L112.697 74.1674C112.221 73.5411 111.949 72.7866 111.917 72.0066L111.84 70.0832C111.789 68.8331 111.922 67.5847 112.234 66.3773C112.39 65.7747 112.648 65.204 112.996 64.6891L113.049 64.6103Z"
    fill="#2A2A2A" />
  <path
    d="M122.067 64.6103C122.05 64.5864 122.015 64.5868 121.999 64.611L120.056 67.5152L119.697 68.1367C118.93 69.4642 118.984 71.1006 119.838 72.3542L121.181 74.3288C121.408 74.662 121.905 74.6569 122.133 74.319L122.791 73.3455C123.252 72.6627 123.485 71.8543 123.455 71.0374L123.421 70.0816C123.375 68.8295 123.194 67.5876 122.881 66.3773C122.726 65.7747 122.468 65.2039 122.12 64.6891L122.067 64.6103Z"
    fill="#2A2A2A" />
  <path
    d="M121.656 71.0225L118.426 72.8432C118.887 73.0708 119.898 73.6486 120.963 73.2984C121.656 73.0708 121.886 71.7052 121.656 71.0225Z"
    fill="white" />
  <path d="M120.636 72.9879L119.873 71.625L120.62 71.4308L120.636 72.9879Z" fill="#2A2A2A" />
  <path
    d="M113.898 71.0225L117.128 72.8432C116.666 73.0708 115.655 73.6486 114.59 73.2984C113.898 73.0708 113.667 71.7052 113.898 71.0225Z"
    fill="white" />
  <path d="M114.917 72.9879L115.681 71.625L114.933 71.4308L114.917 72.9879Z" fill="#2A2A2A" />
  <rect x="136.25" y="45.4802" width="28.5524" height="50.8978" rx="4" fill="#D9D9D9" />
  <ellipse cx="150.01" cy="72.2947" rx="5.76775" ry="5.46215" fill="#2A2A2A" />
  <path
    d="M145.326 64.6103C145.342 64.5864 145.378 64.5868 145.394 64.6111L147.336 67.5152L147.674 68.0989C148.452 69.446 148.384 71.109 147.498 72.3673L145.953 74.5625C145.792 74.7914 145.451 74.7948 145.28 74.5693L144.974 74.1674C144.498 73.5411 144.226 72.7866 144.194 72.0066L144.116 70.0832C144.066 68.8331 144.199 67.5847 144.511 66.3773C144.667 65.7747 144.924 65.204 145.273 64.6891L145.326 64.6103Z"
    fill="#2A2A2A" />
  <path
    d="M154.343 64.6103C154.327 64.5864 154.291 64.5868 154.275 64.611L152.333 67.5152L151.974 68.1367C151.207 69.4642 151.261 71.1006 152.114 72.3542L153.458 74.3288C153.685 74.662 154.182 74.6569 154.41 74.319L155.068 73.3455C155.529 72.6627 155.762 71.8543 155.732 71.0374L155.697 70.0816C155.652 68.8295 155.471 67.5876 155.158 66.3773C155.002 65.7747 154.745 65.2039 154.397 64.6891L154.343 64.6103Z"
    fill="#2A2A2A" />
  <path
    d="M153.932 71.0225L150.702 72.8432C151.164 73.0708 152.175 73.6486 153.24 73.2984C153.932 73.0708 154.163 71.7052 153.932 71.0225Z"
    fill="white" />
  <path d="M152.913 72.9879L152.15 71.625L152.897 71.4308L152.913 72.9879Z" fill="#2A2A2A" />
  <path
    d="M146.175 71.0225L149.405 72.8432C148.943 73.0708 147.932 73.6486 146.867 73.2984C146.175 73.0708 145.944 71.7052 146.175 71.0225Z"
    fill="white" />
  <path d="M147.194 72.9879L147.958 71.625L147.21 71.4308L147.194 72.9879Z" fill="#2A2A2A" />
  <rect x="168.527" y="45.4802" width="28.5524" height="50.8978" rx="4" fill="#D9D9D9" />
  <ellipse cx="182.287" cy="72.2947" rx="5.76775" ry="5.46215" fill="#2A2A2A" />
  <path
    d="M177.603 64.6103C177.619 64.5864 177.654 64.5868 177.671 64.6111L179.613 67.5152L179.95 68.0989C180.729 69.446 180.66 71.109 179.774 72.3673L178.229 74.5625C178.068 74.7914 177.728 74.7948 177.556 74.5693L177.251 74.1674C176.775 73.5411 176.502 72.7866 176.471 72.0066L176.393 70.0832C176.342 68.8331 176.475 67.5847 176.788 66.3773C176.944 65.7747 177.201 65.204 177.549 64.6891L177.603 64.6103Z"
    fill="#2A2A2A" />
  <path
    d="M186.62 64.6103C186.604 64.5864 186.568 64.5868 186.552 64.611L184.609 67.5152L184.25 68.1367C183.483 69.4642 183.538 71.1006 184.391 72.3542L185.735 74.3288C185.961 74.662 186.458 74.6569 186.686 74.319L187.344 73.3455C187.806 72.6627 188.039 71.8543 188.009 71.0374L187.974 70.0816C187.929 68.8295 187.748 67.5876 187.435 66.3773C187.279 65.7747 187.021 65.2039 186.673 64.6891L186.62 64.6103Z"
    fill="#2A2A2A" />
  <path
    d="M186.209 71.0225L182.979 72.8432C183.44 73.0708 184.452 73.6486 185.517 73.2984C186.209 73.0708 186.44 71.7052 186.209 71.0225Z"
    fill="white" />
  <path d="M185.189 72.9879L184.426 71.625L185.174 71.4308L185.189 72.9879Z" fill="#2A2A2A" />
  <path
    d="M178.451 71.0225L181.681 72.8432C181.22 73.0708 180.208 73.6486 179.143 73.2984C178.451 73.0708 178.221 71.7052 178.451 71.0225Z"
    fill="white" />
  <path d="M179.471 72.9879L180.234 71.625L179.486 71.4308L179.471 72.9879Z" fill="#2A2A2A" />
  <rect x="200.804" y="45.4802" width="28.5524" height="50.8978" rx="4" fill="#D9D9D9" />
  <ellipse cx="214.563" cy="72.2947" rx="5.76775" ry="5.46215" fill="#2A2A2A" />
  <path
    d="M209.879 64.6103C209.895 64.5864 209.931 64.5868 209.947 64.6111L211.89 67.5152L212.227 68.0989C213.005 69.446 212.937 71.109 212.051 72.3673L210.506 74.5625C210.345 74.7914 210.004 74.7948 209.833 74.5693L209.527 74.1674C209.051 73.5411 208.779 72.7866 208.747 72.0066L208.669 70.0832C208.619 68.8331 208.752 67.5847 209.064 66.3773C209.22 65.7747 209.478 65.204 209.826 64.6891L209.879 64.6103Z"
    fill="#2A2A2A" />
  <path
    d="M218.896 64.6103C218.88 64.5864 218.845 64.5868 218.828 64.611L216.886 67.5152L216.527 68.1367C215.76 69.4642 215.814 71.1006 216.667 72.3542L218.011 74.3288C218.238 74.662 218.735 74.6569 218.963 74.319L219.621 73.3455C220.082 72.6627 220.315 71.8543 220.285 71.0374L220.251 70.0816C220.205 68.8295 220.024 67.5876 219.711 66.3773C219.555 65.7747 219.298 65.2039 218.95 64.6891L218.896 64.6103Z"
    fill="#2A2A2A" />
  <path
    d="M218.485 71.0225L215.255 72.8432C215.717 73.0708 216.728 73.6486 217.793 73.2984C218.485 73.0708 218.716 71.7052 218.485 71.0225Z"
    fill="white" />
  <path d="M217.466 72.9879L216.703 71.625L217.45 71.4308L217.466 72.9879Z" fill="#2A2A2A" />
  <path
    d="M210.728 71.0225L213.958 72.8432C213.496 73.0708 212.485 73.6486 211.42 73.2984C210.728 73.0708 210.497 71.7052 210.728 71.0225Z"
    fill="white" />
  <path d="M211.747 72.9879L212.511 71.625L211.763 71.4308L211.747 72.9879Z" fill="#2A2A2A" />
  <rect x="200.804" y="100.102" width="28.5524" height="50.8978" rx="4" fill="#D9D9D9" />
  <ellipse cx="214.563" cy="126.917" rx="5.76775" ry="5.46215" fill="#2A2A2A" />
  <path
    d="M209.879 119.232C209.895 119.208 209.931 119.209 209.947 119.233L211.89 122.137L212.227 122.721C213.005 124.068 212.937 125.731 212.051 126.989L210.506 129.184C210.345 129.413 210.004 129.417 209.833 129.191L209.527 128.789C209.051 128.163 208.779 127.409 208.747 126.629L208.669 124.705C208.619 123.455 208.752 122.207 209.064 120.999C209.22 120.397 209.478 119.826 209.826 119.311L209.879 119.232Z"
    fill="#2A2A2A" />
  <path
    d="M218.896 119.232C218.88 119.208 218.845 119.209 218.828 119.233L216.886 122.137L216.527 122.759C215.76 124.086 215.814 125.723 216.667 126.976L218.011 128.951C218.238 129.284 218.735 129.279 218.963 128.941L219.621 127.967C220.082 127.285 220.315 126.476 220.285 125.659L220.251 124.704C220.205 123.451 220.024 122.21 219.711 120.999C219.555 120.397 219.298 119.826 218.95 119.311L218.896 119.232Z"
    fill="#2A2A2A" />
  <path
    d="M218.485 125.644L215.255 127.465C215.717 127.693 216.728 128.271 217.793 127.92C218.485 127.693 218.716 126.327 218.485 125.644Z"
    fill="white" />
  <path d="M217.466 127.61L216.703 126.247L217.45 126.053L217.466 127.61Z" fill="#2A2A2A" />
  <path
    d="M210.728 125.644L213.958 127.465C213.496 127.693 212.485 128.271 211.42 127.92C210.728 127.693 210.497 126.327 210.728 125.644Z"
    fill="white" />
  <path d="M211.747 127.61L212.511 126.247L211.763 126.053L211.747 127.61Z" fill="#2A2A2A" />
  <rect x="168.527" y="100.102" width="28.5524" height="50.8978" rx="4" fill="#D9D9D9" />
  <ellipse cx="182.287" cy="126.917" rx="5.76775" ry="5.46215" fill="#2A2A2A" />
  <path
    d="M177.603 119.232C177.619 119.208 177.654 119.209 177.671 119.233L179.613 122.137L179.95 122.721C180.729 124.068 180.66 125.731 179.774 126.989L178.229 129.184C178.068 129.413 177.728 129.417 177.556 129.191L177.251 128.789C176.775 128.163 176.502 127.409 176.471 126.629L176.393 124.705C176.342 123.455 176.475 122.207 176.788 120.999C176.944 120.397 177.201 119.826 177.549 119.311L177.603 119.232Z"
    fill="#2A2A2A" />
  <path
    d="M186.62 119.232C186.604 119.208 186.568 119.209 186.552 119.233L184.609 122.137L184.25 122.759C183.483 124.086 183.538 125.723 184.391 126.976L185.735 128.951C185.961 129.284 186.458 129.279 186.686 128.941L187.344 127.967C187.806 127.285 188.039 126.476 188.009 125.659L187.974 124.704C187.929 123.451 187.748 122.21 187.435 120.999C187.279 120.397 187.021 119.826 186.673 119.311L186.62 119.232Z"
    fill="#2A2A2A" />
  <path
    d="M186.209 125.644L182.979 127.465C183.44 127.693 184.452 128.271 185.517 127.92C186.209 127.693 186.44 126.327 186.209 125.644Z"
    fill="white" />
  <path d="M185.189 127.61L184.426 126.247L185.174 126.053L185.189 127.61Z" fill="#2A2A2A" />
  <path
    d="M178.451 125.644L181.681 127.465C181.22 127.693 180.208 128.271 179.143 127.92C178.451 127.693 178.221 126.327 178.451 125.644Z"
    fill="white" />
  <path d="M179.471 127.61L180.234 126.247L179.486 126.053L179.471 127.61Z" fill="#2A2A2A" />
  <rect x="71.6972" y="100.102" width="28.5524" height="50.8978" rx="4" fill="#D9D9D9" />
  <ellipse cx="85.457" cy="126.917" rx="5.76775" ry="5.46215" fill="#2A2A2A" />
  <path
    d="M80.7728 119.232C80.7889 119.208 80.8246 119.209 80.8408 119.233L82.7833 122.137L83.1206 122.721C83.8989 124.068 83.8304 125.731 82.9447 126.989L81.3997 129.184C81.2386 129.413 80.8979 129.417 80.7265 129.191L80.421 128.789C79.9448 128.163 79.6724 127.409 79.6409 126.629L79.5632 124.705C79.5127 123.455 79.6457 122.207 79.9579 120.999C80.1138 120.397 80.3712 119.826 80.7195 119.311L80.7728 119.232Z"
    fill="#2A2A2A" />
  <path
    d="M89.7901 119.232C89.774 119.208 89.7383 119.209 89.7221 119.233L87.7796 122.137L87.4205 122.759C86.6535 124.086 86.708 125.723 87.5612 126.976L88.9049 128.951C89.1316 129.284 89.6284 129.279 89.8568 128.941L90.5146 127.967C90.9761 127.285 91.2088 126.476 91.1791 125.659L91.1444 124.704C91.0988 123.451 90.918 122.21 90.605 120.999C90.4491 120.397 90.1917 119.826 89.8434 119.311L89.7901 119.232Z"
    fill="#2A2A2A" />
  <path
    d="M89.3791 125.644L86.1492 127.465C86.6106 127.693 87.6219 128.271 88.687 127.92C89.3791 127.693 89.6098 126.327 89.3791 125.644Z"
    fill="white" />
  <path d="M88.3598 127.61L87.5963 126.247L88.3439 126.053L88.3598 127.61Z" fill="#2A2A2A" />
  <path
    d="M81.6215 125.644L84.8514 127.465C84.39 127.693 83.3787 128.271 82.3136 127.92C81.6215 127.693 81.3908 126.327 81.6215 125.644Z"
    fill="white" />
  <path d="M82.6409 127.61L83.4043 126.247L82.6568 126.053L82.6409 127.61Z" fill="#2A2A2A" />
  <rect x="103.974" y="100.102" width="28.5524" height="50.8978" rx="4" fill="#D9D9D9" />
  <ellipse cx="117.733" cy="126.917" rx="5.76775" ry="5.46215" fill="#2A2A2A" />
  <path
    d="M113.049 119.232C113.065 119.208 113.101 119.209 113.117 119.233L115.06 122.137L115.397 122.721C116.175 124.068 116.107 125.731 115.221 126.989L113.676 129.184C113.515 129.413 113.174 129.417 113.003 129.191L112.697 128.789C112.221 128.163 111.949 127.409 111.917 126.629L111.84 124.705C111.789 123.455 111.922 122.207 112.234 120.999C112.39 120.397 112.648 119.826 112.996 119.311L113.049 119.232Z"
    fill="#2A2A2A" />
  <path
    d="M122.067 119.232C122.05 119.208 122.015 119.209 121.999 119.233L120.056 122.137L119.697 122.759C118.93 124.086 118.984 125.723 119.838 126.976L121.181 128.951C121.408 129.284 121.905 129.279 122.133 128.941L122.791 127.967C123.252 127.285 123.485 126.476 123.455 125.659L123.421 124.704C123.375 123.451 123.194 122.21 122.881 120.999C122.726 120.397 122.468 119.826 122.12 119.311L122.067 119.232Z"
    fill="#2A2A2A" />
  <path
    d="M121.656 125.644L118.426 127.465C118.887 127.693 119.898 128.271 120.963 127.92C121.656 127.693 121.886 126.327 121.656 125.644Z"
    fill="white" />
  <path d="M120.636 127.61L119.873 126.247L120.62 126.053L120.636 127.61Z" fill="#2A2A2A" />
  <path
    d="M113.898 125.644L117.128 127.465C116.666 127.693 115.655 128.271 114.59 127.92C113.898 127.693 113.667 126.327 113.898 125.644Z"
    fill="white" />
  <path d="M114.917 127.61L115.681 126.247L114.933 126.053L114.917 127.61Z" fill="#2A2A2A" />
  <rect x="136.25" y="100.102" width="28.5524" height="50.8978" rx="4" fill="#D9D9D9" />
  <ellipse cx="150.01" cy="126.917" rx="5.76775" ry="5.46215" fill="#2A2A2A" />
  <path
    d="M145.326 119.232C145.342 119.208 145.378 119.209 145.394 119.233L147.336 122.137L147.674 122.721C148.452 124.068 148.384 125.731 147.498 126.989L145.953 129.184C145.792 129.413 145.451 129.417 145.28 129.191L144.974 128.789C144.498 128.163 144.226 127.409 144.194 126.629L144.116 124.705C144.066 123.455 144.199 122.207 144.511 120.999C144.667 120.397 144.924 119.826 145.273 119.311L145.326 119.232Z"
    fill="#2A2A2A" />
  <path
    d="M154.343 119.232C154.327 119.208 154.291 119.209 154.275 119.233L152.333 122.137L151.974 122.759C151.207 124.086 151.261 125.723 152.114 126.976L153.458 128.951C153.685 129.284 154.182 129.279 154.41 128.941L155.068 127.967C155.529 127.285 155.762 126.476 155.732 125.659L155.697 124.704C155.652 123.451 155.471 122.21 155.158 120.999C155.002 120.397 154.745 119.826 154.397 119.311L154.343 119.232Z"
    fill="#2A2A2A" />
  <path
    d="M153.932 125.644L150.702 127.465C151.164 127.693 152.175 128.271 153.24 127.92C153.932 127.693 154.163 126.327 153.932 125.644Z"
    fill="white" />
  <path d="M152.913 127.61L152.15 126.247L152.897 126.053L152.913 127.61Z" fill="#2A2A2A" />
  <path
    d="M146.175 125.644L149.405 127.465C148.943 127.693 147.932 128.271 146.867 127.92C146.175 127.693 145.944 126.327 146.175 125.644Z"
    fill="white" />
  <path d="M147.194 127.61L147.958 126.247L147.21 126.053L147.194 127.61Z" fill="#2A2A2A" />
  <path
    d="M30.3371 77.0535C30.3371 74.8443 32.128 73.0535 34.3371 73.0535H55.3392C57.5484 73.0535 59.3392 74.8443 59.3392 77.0535V120.753C59.3392 122.962 57.5484 124.753 55.3392 124.753H34.3371C32.128 124.753 30.3371 122.962 30.3371 120.753V77.0535Z"
    fill="#D81A14" />
</svg>