<svg width="30" height="30" viewBox="0 0 45 45" fill="none" xmlns="http://www.w3.org/2000/svg">
  <circle cx="22.5" cy="22.5" r="18.7969" fill="white" stroke="black" stroke-width="2" />
  <path d="M22.5 7.27197C22.5 14.4084 22.5 24.0232 22.5 24.0232" stroke="black" stroke-width="2"
    stroke-linecap="round" />
  <path d="M22.5001 24.0227L35.4444 18.6928" stroke="black" stroke-width="2" stroke-linecap="round" />
  <path d="M14.0159 26.4595V40.0345" stroke="#14CBF3" stroke-linecap="round" />
  <path d="M15.7124 27.3076L14.0155 29.0045L12.3186 27.3076" stroke="#14CBF3" stroke-linecap="round" />
  <path d="M15.7124 39.186L14.0155 37.4892L12.3186 39.186" stroke="#14CBF3" stroke-linecap="round" />
  <path d="M7.23608 33.2468L20.8109 33.1842" stroke="#14CBF3" stroke-linecap="round" />
  <path d="M8.07688 31.5462L9.78156 33.2353L8.09253 34.9399" stroke="#14CBF3" stroke-linecap="round" />
  <path d="M19.9548 31.4913L18.2658 33.196L19.9705 34.885" stroke="#14CBF3" stroke-linecap="round" />
  <path d="M9.18066 28.459L18.8651 37.9718" stroke="#14CBF3" stroke-linecap="round" />
  <path d="M10.9756 27.8428L10.9971 30.2425L8.59741 30.2639" stroke="#14CBF3" stroke-linecap="round" />
  <path d="M19.449 36.167L17.0493 36.1885L17.0708 38.5881" stroke="#14CBF3" stroke-linecap="round" />
  <path d="M9.15601 37.9451L18.8926 28.4857" stroke="#14CBF3" stroke-linecap="round" />
  <path d="M8.58217 36.1371L10.9817 36.1718L10.947 38.5713" stroke="#14CBF3" stroke-linecap="round" />
  <path d="M17.1019 27.86L17.0673 30.2595L19.4668 30.2942" stroke="#14CBF3" stroke-linecap="round" />
  <path d="M33.2991 5.44604L30.076 12.6792" stroke="#14CBF3" stroke-width="0.5"
    stroke-linecap="round" />
  <path d="M34.0016 6.30041L32.6946 6.80166L32.1934 5.49463" stroke="#14CBF3" stroke-width="0.5"
    stroke-linecap="round" />
  <path d="M31.1816 12.6298L30.6803 11.3227L29.3733 11.824" stroke="#14CBF3" stroke-width="0.5"
    stroke-linecap="round" />
  <path d="M28.0752 7.45264L35.3231 10.6424" stroke="#14CBF3" stroke-width="0.5"
    stroke-linecap="round" />
  <path d="M28.9263 6.74613L29.4336 8.05083L28.1289 8.55811" stroke="#14CBF3" stroke-width="0.5"
    stroke-linecap="round" />
  <path d="M35.2684 9.53714L33.9637 10.0444L34.4709 11.3491" stroke="#14CBF3" stroke-width="0.5"
    stroke-linecap="round" />
  <path d="M30.248 5.36353L33.1495 12.7316" stroke="#14CBF3" stroke-width="0.5"
    stroke-linecap="round" />
  <path d="M31.3501 5.46139L30.7917 6.74509L29.5081 6.18677" stroke="#14CBF3" stroke-width="0.5"
    stroke-linecap="round" />
  <path d="M33.8889 11.9084L32.6052 11.3501L32.0469 12.6338" stroke="#14CBF3" stroke-width="0.5"
    stroke-linecap="round" />
  <path d="M27.9824 10.4121L35.4163 7.68365" stroke="#14CBF3" stroke-width="0.5"
    stroke-linecap="round" />
  <path d="M28.1057 9.31195L29.376 9.90012L28.7878 11.1704" stroke="#14CBF3" stroke-width="0.5"
    stroke-linecap="round" />
  <path d="M34.6106 6.92499L34.0224 8.19527L35.2927 8.78345" stroke="#14CBF3" stroke-width="0.5"
    stroke-linecap="round" />
  <path d="M9.97754 13.9104L5.66253 17.5674" stroke="#14CBF3" stroke-width="0.4"
    stroke-linecap="round" />
  <path d="M10.1652 14.6788L9.16873 14.5966L9.25098 13.6001" stroke="#14CBF3" stroke-width="0.4"
    stroke-linecap="round" />
  <path d="M6.3896 17.8786L6.47185 16.8821L5.47534 16.7998" stroke="#14CBF3" stroke-width="0.4"
    stroke-linecap="round" />
  <path d="M5.99341 13.5842L9.67029 17.8823" stroke="#14CBF3" stroke-width="0.4"
    stroke-linecap="round" />
  <path d="M6.7608 13.393L6.68315 14.3899L5.68628 14.3123" stroke="#14CBF3" stroke-width="0.4"
    stroke-linecap="round" />
  <path d="M9.9776 17.154L8.98073 17.0764L8.90308 18.0732" stroke="#14CBF3" stroke-width="0.4"
    stroke-linecap="round" />
  <path d="M8.03955 12.9121L7.62471 18.5531" stroke="#14CBF3" stroke-width="0.4"
    stroke-linecap="round" />
  <path d="M8.7186 13.3168L7.96162 13.9701L7.30835 13.2131" stroke="#14CBF3" stroke-width="0.4"
    stroke-linecap="round" />
  <path d="M8.35557 18.2524L7.70229 17.4954L6.94531 18.1487" stroke="#14CBF3" stroke-width="0.4"
    stroke-linecap="round" />
  <path d="M5.01709 15.4602L10.6469 16.0068" stroke="#14CBF3" stroke-width="0.4"
    stroke-linecap="round" />
  <path d="M5.43719 14.7903L6.07258 15.5624L5.30054 16.1978" stroke="#14CBF3" stroke-width="0.4"
    stroke-linecap="round" />
  <path d="M10.363 15.2686L9.59092 15.904L10.2263 16.676" stroke="#14CBF3" stroke-width="0.4"
    stroke-linecap="round" />
  <path d="M33.9441 23.4653L36.9997 33.1772" stroke="#14CBF3" stroke-width="0.7"
    stroke-linecap="round" />
  <path d="M35.3489 23.6907L34.5168 25.2866L32.9209 24.4546" stroke="#14CBF3" stroke-width="0.7"
    stroke-linecap="round" />
  <path d="M38.0225 32.1887L36.4265 31.3567L35.5945 32.9526" stroke="#14CBF3" stroke-width="0.7"
    stroke-linecap="round" />
  <path d="M30.6213 29.8477L40.319 26.7473" stroke="#14CBF3" stroke-width="0.7"
    stroke-linecap="round" />
  <path d="M30.8399 28.4415L32.4397 29.2662L31.615 30.866" stroke="#14CBF3" stroke-width="0.7"
    stroke-linecap="round" />
  <path d="M39.3257 25.7286L38.5011 27.3284L40.1008 28.1531" stroke="#14CBF3" stroke-width="0.7"
    stroke-linecap="round" />
  <path d="M30.9348 25.9844L40.0045 30.6102" stroke="#14CBF3" stroke-width="0.7"
    stroke-linecap="round" />
  <path d="M32.08 25.1398L32.6355 26.8517L30.9236 27.4072" stroke="#14CBF3" stroke-width="0.7"
    stroke-linecap="round" />
  <path d="M40.0161 29.1872L38.3041 29.7427L38.8596 31.4546" stroke="#14CBF3" stroke-width="0.7"
    stroke-linecap="round" />
  <path d="M33.0518 32.7771L37.8883 23.818" stroke="#14CBF3" stroke-width="0.7"
    stroke-linecap="round" />
  <path d="M32.2341 31.6126L33.9586 31.0973L34.4739 32.8218" stroke="#14CBF3" stroke-width="0.7"
    stroke-linecap="round" />
  <path d="M36.4663 23.7728L36.9816 25.4973L38.7061 24.9819" stroke="#14CBF3" stroke-width="0.7"
    stroke-linecap="round" />
</svg>