<svg width="45" height="45" viewBox="0 0 45 45" fill="none" xmlns="http://www.w3.org/2000/svg">
  <path
    d="M31.0981 11.3892L33.3411 0.174561C33.3411 0.174561 43.7621 15.7594 41.5652 20.361C38.3525 27.0898 31.8458 17.3704 31.8458 17.3704L31.0981 11.3892Z"
    fill="#D71E1E" />
  <path
    d="M33.3411 12.8416L34.8979 5.4082C34.8979 5.4082 42.1313 15.7382 40.6063 18.7883C38.3764 23.2483 33.86 16.806 33.86 16.806L33.3411 12.8416Z"
    fill="#F8C034" />
  <circle cx="22.8738" cy="23.3518" r="18.4388" fill="white" stroke="black" stroke-width="2" />
  <path d="M22.874 8.39868C22.874 15.406 22.874 24.8469 22.874 24.8469" stroke="black"
    stroke-width="2" stroke-linecap="round" />
  <path d="M22.8739 24.8466L35.584 19.6132" stroke="black" stroke-width="2" stroke-linecap="round" />
  <path
    d="M4.18279 29.3324C2.6875 24.8466 2.6875 20.3607 2.6875 20.3607C2.6875 20.3607 12.4069 33.1059 12.4069 30.0801V17.3701C12.4069 17.3701 26.333 34.0974 30.3503 30.0801C32.5933 27.8371 37.8268 20.3607 37.8268 20.3607C37.8268 20.3607 41.4295 27.496 39.3223 33.8183C38.5747 36.0612 35.0857 41.2947 31.0983 42.79C24.508 45.2614 19.0125 45.0746 13.0751 41.2947C8.79494 38.5699 5.85799 34.358 4.18279 29.3324Z"
    fill="#D71E1E" />
  <path
    d="M13.1545 38.3043L11.6592 31.5755L19.8833 36.809L19.1356 28.585C19.1356 28.585 30.2018 37.8588 31.0979 40.5473C31.8456 42.7902 29.6026 43.5378 27.3597 44.2855C22.853 45.7877 16.3904 43.7832 15.3974 42.7902C13.9021 41.2949 13.641 40.4939 13.1545 38.3043Z"
    fill="#F8C034" />
</svg>