<svg xmlns="http://www.w3.org/2000/svg" width="48" height="48" viewBox="0 0 48 48" fill="none">
  <defs>
    <clipPath id="mask">
      <circle cx="24" cy="24" r="24"></circle>
    </clipPath>
  </defs>
  <g clip-path="url(#mask)">
    <circle cx="24" cy="24" r="24" fill="#D4D4D4" />
    <path
      d="M6.23175 29.3779C5.36199 31.1242 4.79634 32.6175 4.37271 33.7358C4.2152 34.1516 4.07732 34.5156 3.95074 34.8215C3.70309 35.42 3.52416 35.73 3.373 35.8661C3.31461 35.9187 3.28249 35.9243 3.26449 35.9258C3.23758 35.9281 3.16837 35.9245 3.03448 35.8579C2.97495 35.8282 2.91639 35.7994 2.85888 35.771C2.14893 35.4214 1.59785 35.1499 1.34323 34.4059C1.05205 33.5551 1.12368 31.9742 2.34085 28.8235C3.34141 26.8274 4.9944 25.3936 6.58044 24.5472C7.37548 24.1229 8.14027 23.8535 8.77993 23.7328C9.44143 23.6078 9.89025 23.6561 10.1133 23.7672C10.1649 23.7929 10.2012 23.8145 10.2263 23.8312C10.1988 23.8821 10.149 23.958 10.0627 24.0667C9.94335 24.2171 9.78428 24.3941 9.58116 24.6176C9.56167 24.639 9.54188 24.6607 9.52181 24.6828C8.70804 25.5774 7.41874 26.9947 6.23175 29.3779Z"
      fill="#444243" stroke="#101010" />
    <path
      d="M34.4203 40.3919C35.1647 39.0042 35.48 38.3735 36.1107 37.5852C36.09 28.7844 36.8991 21.6606 40.3677 21.6606C42.4174 21.3454 47.8748 23.3109 46.8321 27.3367C45.4131 30.1748 42.8904 29.3864 40.683 26.233C40.4826 26.3132 40.4045 26.3118 40.3994 26.2652C39.4112 26.777 39.5138 31.5845 39.1064 34.7471C38.7521 37.4973 35.7278 42.4285 34.4241 41.9845L34.4203 40.3919Z"
      fill="#444243" />
    <path
      d="M40.683 26.233C42.8904 29.3864 45.4131 30.1748 46.8321 27.3367C47.8748 23.3109 42.4174 21.3454 40.3677 21.6606C36.8991 21.6606 36.09 28.7844 36.1107 37.5852C35.48 38.3735 35.1647 39.0042 34.4203 40.3919L34.4241 41.9845C35.7278 42.4285 38.7521 37.4973 39.1064 34.7471C39.5492 31.3095 39.3895 25.9284 40.683 26.233ZM40.683 26.233C39.8947 26.5484 40.9984 25.6023 40.9984 25.6023"
      stroke="#101010" stroke-width="1.5" stroke-linecap="round" />
    <path
      d="M6.66266 27.6752C5.89138 28.7644 5.43312 29.7903 2.21539 41.4854C1.395 44.4672 3.0551 48.5299 4.88377 49.1752C7.5521 50.1168 11.7945 51.9201 25.7861 52C32.4571 52 34.9022 46.9642 35.7185 45.4088C36.4597 43.9963 35.5429 27.3382 35.1894 25.635C34.5707 22.6533 34.6426 20.5034 34.6807 21.3978C34.7908 19.0909 35.602 14.2809 35.1894 14.1611C34.8766 14.0702 31.8355 16.1845 30.5189 17.9955C27.6016 15.2395 25.0449 15.2774 24.2574 15.1197C23.6303 14.9941 20.7994 15.0006 19.4116 15.1204C19.5599 14.3358 19.8564 12.4526 19.8564 12.4526L20.386 9.36875C20.4033 9.26785 20.2762 9.209 20.211 9.2879C19.1387 10.5846 14.6842 15.9864 11.7029 19.8285L9.47929 22.9672L7.55212 25.9489L6.66266 27.6752Z"
      fill="#444243" />
    <path
      d="M19.4102 17.0369C19.3967 16.5358 19.4206 15.8244 19.4116 15.1204M29.9297 19.5533C29.8549 19.1189 30.0994 18.5726 30.5189 17.9955M19.4116 15.1204C19.5599 14.3358 19.8564 12.4526 19.8564 12.4526L20.386 9.36875C20.4033 9.26785 20.2762 9.209 20.211 9.2879C19.1387 10.5846 14.6842 15.9864 11.7029 19.8285L9.47929 22.9672L7.55212 25.9489L6.66266 27.6752C5.89138 28.7644 5.43312 29.7903 2.21539 41.4854C1.395 44.4672 3.0551 48.5299 4.88377 49.1752C7.5521 50.1168 11.7945 51.9201 25.7861 52C32.4571 52 34.9022 46.9642 35.7185 45.4088C36.4597 43.9963 35.5429 27.3382 35.1894 25.635C34.5707 22.6533 34.6426 20.5034 34.6807 21.3978C34.7908 19.0909 35.602 14.2809 35.1894 14.1611C34.8766 14.0702 31.8355 16.1845 30.5189 17.9955M19.4116 15.1204C20.7994 15.0006 23.6303 14.9941 24.2574 15.1197C25.0449 15.2774 27.6016 15.2395 30.5189 17.9955"
      stroke="#101010" stroke-width="1.5" stroke-linecap="round" />
    <ellipse cx="14.9957" cy="23.0926" rx="2.51858" ry="2.64282"
      transform="rotate(11.5217 14.9957 23.0926)" fill="#101010" />
    <path d="M16.7713 25.4646C15.2847 25.1629 14.6089 25.3138 13.9332 25.6155" stroke="#101010"
      stroke-linecap="round" />
    <path d="M16.838 20.1645C15.3514 19.8627 13.6757 20.1983 13 20.5" stroke="#101010"
      stroke-linecap="round" />
    <circle cx="14.4062" cy="21.9892" r="1.10368" fill="white" />
    <circle cx="13.9332" cy="23.4081" r="0.630672" fill="white" />
    <circle cx="15.1947" cy="23.0928" r="0.315336" fill="white" />
    <ellipse cx="23.9957" cy="23.0926" rx="2.51858" ry="2.64282"
      transform="rotate(11.5217 23.9957 23.0926)" fill="#101010" />
    <path d="M26.203 25.6756C24.784 25.1295 23.2073 25.518 22.5767 25.6756" stroke="#101010"
      stroke-linecap="round" />
    <path d="M25.6264 20.2817C24.2074 19.7355 22.6307 20.1241 22 20.2817" stroke="#101010"
      stroke-linecap="round" />
    <circle cx="23.365" cy="22.1095" r="1.10368" fill="white" />
    <circle cx="22.892" cy="23.529" r="0.630672" fill="white" />
    <circle cx="24.1533" cy="23.2137" r="0.315336" fill="white" />
    <path d="M18.9248 26.561V26.8764V27.1917V27.6647" stroke="#101010" stroke-linecap="round" />
    <path
      d="M18.9247 27.6652C18.9247 27.6652 18.2351 28.7976 17.5 29C16.7238 29.2138 15.5 28.5 15.5 28.5"
      stroke="#101010" stroke-linecap="round" />
    <path
      d="M22.5 27.6649C22.5 27.6649 21.433 29.1073 20.5 29C19.6989 28.9079 18.9249 27.6648 18.9249 27.6648"
      stroke="#101010" stroke-linecap="round" />
    <path
      d="M34.5 21C34.5 21 34.9296 20.6731 35.3836 21.2591C35.3736 21.8982 34.7187 22.4204 34.463 22.4164C34.2073 22.4124 33.99 22.6392 34 22C34 21 34.0189 20.741 34.5 21Z"
      fill="#101010" />
    <path
      d="M25.2956 33.8082C24.3798 34.9264 22.6697 36.4229 23.1552 33.4628C22.5588 33.3032 21.3789 32.5937 21.43 31.0321C21.4811 29.4705 23.5704 29.9637 24.4968 30.6407C24.8375 30.126 27.9788 28.1642 27.6914 30.5865C30.5346 30.6656 26.9354 34.6003 25.2956 33.8082Z"
      fill="#51A4D3" />
    <ellipse cx="25.1358" cy="32.3264" rx="1.5032" ry="1.08161"
      transform="rotate(-20.7593 25.1358 32.3264)" fill="#ECF020" />
    <path
      d="M29.4804 35.3064C29.7871 36.1155 27.6063 40.258 26.4776 42.2281C26.5917 41.5325 26.6563 40.1444 26.4343 38.3889C27.3219 37.0242 29.1737 34.4973 29.4804 35.3064Z"
      fill="#349D4B" />
    <path
      d="M25.2955 33.8081C25.9195 35.4545 26.2626 37.0315 26.4343 38.3889M26.4343 38.3889C26.6563 40.1444 26.5917 41.5325 26.4776 42.2281C27.6063 40.258 29.7871 36.1155 29.4804 35.3064C29.1737 34.4973 27.3219 37.0242 26.4343 38.3889Z"
      stroke="#3AB655" />
    <path
      d="M35.5 36C35.5 36.5724 35.4719 36.9621 35.3845 37.2523C35.3057 37.5141 35.1794 37.6929 34.9462 37.8458C34.6893 38.0142 34.2844 38.1625 33.6237 38.2948C32.9689 38.4259 32.1083 38.533 30.9696 38.645C28.7679 38.8617 27.255 38.4567 26.3114 37.8724C25.3588 37.2827 25 36.5279 25 36C25 35.7447 25.0727 35.5824 25.2085 35.4507C25.3635 35.3004 25.642 35.151 26.1263 35.0291C27.1012 34.7837 28.669 34.7042 31.0185 34.7042C31.8521 34.7042 32.553 34.6883 33.1309 34.6753C33.3674 34.6699 33.5833 34.665 33.7793 34.6619C34.48 34.6507 34.8891 34.664 35.1452 34.7268C35.262 34.7554 35.3141 34.7875 35.3388 34.8079C35.3593 34.8249 35.3847 34.8531 35.4105 34.9233C35.4757 35.1008 35.5 35.4067 35.5 36Z"
      fill="#444243" stroke="#101010" />
    <path
      d="M20.5 25.4146C20.5 26.2431 19.8284 26.9146 19 26.9146C18.1716 26.9146 17.5 26.2431 17.5 25.4146C17.5 24.5862 18.1716 23.9146 19 23.9146C19.8284 23.9146 20.5 24.5862 20.5 25.4146Z"
      fill="#F81616" />
    <path
      d="M9.00007 23C7.00007 19.4 9 17.6667 11 17.5C9 15.8333 9.70008 13.4998 12.5001 13.4998C15.3001 13.4998 14 13.4998 16.0001 13.9999C14.5001 12.1665 15.2 11.5 18 11.5C20.8 11.5 20.1667 13.8332 20.5001 14.4998C20.6667 10.9998 22.7001 8.79997 25.5001 14C25.6667 11.9999 27.2001 9.59989 30.0001 11.9999C32.6845 14.3009 31.9068 16.1728 30.6631 16.9109C32.4872 15.9151 35.0001 14.5584 35.0001 16.4999C35.0001 18.4999 35.3334 20.6667 35.0001 21.5C37.5001 21.8333 38.0001 21.0001 37.5001 23.5C37.0426 25.7871 36.1667 27.5 35.5001 27.5C33.5001 24.6666 25 18.4999 21 18C17.8 17.6001 11.5001 20.5001 9.00007 23Z"
      fill="#E85527" />
    <path fill-rule="evenodd" clip-rule="evenodd"
      d="M18.1744 32.4006L17.0143 31.1357C16.8757 30.9846 16.628 31.0518 16.5882 31.2512L16.0647 33.873C16.0223 34.0852 16.2504 34.2517 16.436 34.1439L17.989 33.242C18.0699 33.4769 18.2567 33.6535 18.4944 33.6874C18.7101 33.7181 18.9184 33.6243 19.0623 33.4549L20.1306 34.8388C20.2599 35.0062 20.5194 34.9534 20.5668 34.75L21.1774 32.1296C21.2252 31.9244 21.0147 31.7493 20.8265 31.8378L19.1924 32.6064C19.1037 32.3955 18.9265 32.2402 18.7052 32.2087C18.5073 32.1804 18.3157 32.2571 18.1744 32.4006Z"
      fill="#D81A14" />
  </g>
</svg>