<svg xmlns="http://www.w3.org/2000/svg" width="48" height="48" viewBox="0 0 48 48" fill="none">
  <defs>
    <clipPath id="mask">
      <circle cx="24" cy="24" r="24"></circle>
    </clipPath>
  </defs>
  <g clip-path="url(#mask)">
    <circle cx="24" cy="24" r="24" fill="#D4D4D4" />
    <path
      d="M6.23175 29.3779C5.36199 31.1242 4.79634 32.6175 4.37271 33.7358C4.2152 34.1516 4.07732 34.5156 3.95074 34.8215C3.70309 35.42 3.52416 35.73 3.373 35.8661C3.31461 35.9187 3.28249 35.9243 3.26449 35.9258C3.23758 35.9281 3.16837 35.9245 3.03448 35.8579C2.97495 35.8282 2.91639 35.7994 2.85888 35.771C2.14893 35.4214 1.59785 35.1499 1.34323 34.4059C1.05205 33.5551 1.12368 31.9742 2.34085 28.8235C3.34141 26.8274 4.9944 25.3936 6.58044 24.5472C7.37548 24.1229 8.14027 23.8535 8.77993 23.7328C9.44143 23.6078 9.89025 23.6561 10.1133 23.7672C10.1649 23.7929 10.2012 23.8145 10.2263 23.8312C10.1988 23.8821 10.149 23.958 10.0627 24.0667C9.94335 24.2171 9.78428 24.3941 9.58116 24.6176C9.56167 24.639 9.54188 24.6607 9.52181 24.6828C8.70804 25.5774 7.41874 26.9947 6.23175 29.3779Z"
      fill="#444243" stroke="#101010" />
    <path
      d="M34.4203 40.3918C35.1647 39.0041 35.48 38.3734 36.1107 37.585C36.09 28.7842 36.8991 21.6605 40.3677 21.6605C42.4174 21.3452 47.8748 23.3108 46.8321 27.3366C45.4131 30.1746 42.8904 29.3863 40.683 26.2329C40.4826 26.3131 40.4045 26.3117 40.3994 26.2651C39.4112 26.7769 39.5138 31.5844 39.1064 34.747C38.7521 37.4972 35.7278 42.4284 34.4241 41.9844L34.4203 40.3918Z"
      fill="#444243" />
    <path
      d="M40.683 26.2329C42.8904 29.3863 45.4131 30.1746 46.8321 27.3366C47.8748 23.3108 42.4174 21.3452 40.3677 21.6605C36.8991 21.6605 36.09 28.7842 36.1107 37.585C35.48 38.3734 35.1647 39.0041 34.4203 40.3918L34.4241 41.9844C35.7278 42.4284 38.7521 37.4972 39.1064 34.747C39.5492 31.3094 39.3895 25.9283 40.683 26.2329ZM40.683 26.2329C39.8947 26.5482 40.9984 25.6022 40.9984 25.6022"
      stroke="#101010" stroke-width="1.5" stroke-linecap="round" />
    <path
      d="M6.66266 27.6751C5.89138 28.7644 5.43312 29.7903 2.21539 41.4854C1.395 44.4671 3.0551 48.5298 4.88377 49.1751C7.5521 50.1167 11.7945 51.9201 25.7861 52C32.4571 52 34.9022 46.9642 35.7185 45.4087C36.4597 43.9963 35.5429 27.3381 35.1894 25.635C34.5707 22.6532 34.6426 20.5033 34.6807 21.3978C34.7908 19.0909 32.9125 15.6198 32.5 15.5C32.1872 15.4091 31.8355 16.1844 30.5189 17.9955C27.6016 15.2395 25.0449 15.2773 24.2574 15.1196C23.6303 14.994 20.7994 15.0006 19.4116 15.1204C19.5599 14.3357 19.5 13.5 19.5 13.5L19.0189 14.1361C19.0066 14.1523 18.9923 14.1635 18.9731 14.1703C18.624 14.2919 14.9472 15.6474 11.7029 19.8284L9.47929 22.9671L7.55212 25.9489L6.66266 27.6751Z"
      fill="#444243" />
    <path
      d="M19.4102 17.0369C19.3967 16.5358 19.4206 15.8243 19.4116 15.1204M29.9297 19.5532C29.8549 19.1189 30.0994 18.5726 30.5189 17.9955M19.4116 15.1204C19.5599 14.3357 19.5 13.5 19.5 13.5L19.0189 14.1361C19.0066 14.1523 18.9923 14.1635 18.9731 14.1703C18.624 14.2919 14.9472 15.6474 11.7029 19.8284L9.47929 22.9671L7.55212 25.9489L6.66266 27.6751C5.89138 28.7644 5.43312 29.7903 2.21539 41.4854C1.395 44.4671 3.0551 48.5298 4.88377 49.1751C7.5521 50.1167 11.7945 51.9201 25.7861 52C32.4571 52 34.9022 46.9642 35.7185 45.4087C36.4597 43.9963 35.5429 27.3381 35.1894 25.635C34.5707 22.6532 34.6426 20.5033 34.6807 21.3978C34.7908 19.0909 32.9125 15.6198 32.5 15.5C32.1872 15.4091 31.8355 16.1844 30.5189 17.9955M19.4116 15.1204C20.7994 15.0006 23.6303 14.994 24.2574 15.1196C25.0449 15.2773 27.6016 15.2395 30.5189 17.9955"
      stroke="#101010" stroke-width="1.5" stroke-linecap="round" />
    <ellipse cx="14.9957" cy="23.0926" rx="2.51858" ry="2.64282"
      transform="rotate(11.5217 14.9957 23.0926)" fill="#101010" />
    <path d="M16.7713 25.4646C15.2847 25.1629 14.6089 25.3138 13.9332 25.6155" stroke="#101010"
      stroke-linecap="round" />
    <circle cx="14.4062" cy="21.9892" r="1.10368" fill="white" />
    <circle cx="13.9332" cy="23.4081" r="0.630672" fill="white" />
    <circle cx="15.1947" cy="23.0928" r="0.315336" fill="white" />
    <ellipse cx="23.9957" cy="23.0926" rx="2.51858" ry="2.64282"
      transform="rotate(11.5217 23.9957 23.0926)" fill="#101010" />
    <path d="M26.203 25.6756C24.784 25.1295 23.2073 25.518 22.5767 25.6756" stroke="#101010"
      stroke-linecap="round" />
    <circle cx="23.365" cy="22.1095" r="1.10368" fill="white" />
    <circle cx="22.892" cy="23.529" r="0.630672" fill="white" />
    <circle cx="24.1533" cy="23.2137" r="0.315336" fill="white" />
    <path
      d="M20.0188 24.8853C19.1812 24.5971 18.6228 24.5971 17.506 24.8855C17.506 25.0777 18.6097 26.7189 18.902 27.1919C19.4604 26.327 20.1173 24.9192 20.0188 24.8853Z"
      fill="#101010" />
    <path d="M18.9248 26.561V26.8764V27.1917V27.6647" stroke="#101010" stroke-linecap="round" />
    <path d="M18.9247 27.665L17.0327 28.138" stroke="#101010" stroke-linecap="round" />
    <path d="M20.9744 28.1378L18.9248 27.6648" stroke="#101010" stroke-linecap="round" />
    <path
      d="M34.5 20.9999C34.5 20.9999 34.9296 20.673 35.3836 21.2589C35.3736 21.8981 34.7187 22.4203 34.463 22.4163C34.2073 22.4123 33.99 22.6391 34 21.9999C34 20.9999 34.0189 20.7409 34.5 20.9999Z"
      fill="#101010" />
    <path
      d="M31.1746 38.0132C31.1276 37.6885 31.1024 37.5438 31.1105 37.3336C30.0178 35.8613 29.2716 34.5674 29.8529 34.1381C30.1574 33.8315 31.3152 33.4855 31.6388 34.2892C31.7522 34.9404 31.2319 35.1205 30.4717 34.8653C30.448 34.9035 30.4348 34.913 30.4281 34.9058C30.3259 35.1139 30.9381 35.9068 31.2613 36.4872C31.5423 36.992 31.6458 38.1927 31.3724 38.2796L31.1746 38.0132Z"
      fill="#444243" />
    <path
      d="M30.4717 34.8653C31.2319 35.1205 31.7522 34.9404 31.6388 34.2892C31.3152 33.4855 30.1574 33.8315 29.8529 34.1381C29.2716 34.5674 30.0178 35.8613 31.1105 37.3336C31.1024 37.5438 31.1276 37.6885 31.1746 38.0132L31.3724 38.2796C31.6458 38.1927 31.5423 36.992 31.2613 36.4872C30.91 35.8563 30.2172 34.9744 30.4717 34.8653ZM30.4717 34.8653C30.3786 35.0157 30.4465 34.7206 30.4465 34.7206"
      stroke="#101010" stroke-width="0.2" stroke-linecap="round" />
    <path
      d="M25.0446 39.7101C25.1565 40.1014 25.3974 40.8434 25.9131 42.1825C26.1447 42.7837 27.1865 42.9314 27.5885 42.8913C28.2258 42.8278 28.5306 42.7908 29.0154 42.5226C30.5367 41.6808 32.2465 40.4048 31.8419 38.7139C31.6569 37.9403 29.7472 35.6867 29.4771 35.445C29.0044 35.0219 28.7503 34.6527 28.8674 34.7979C28.6004 34.3977 28.8504 35.36 28.7664 35.391C28.7028 35.4145 27.7454 34.2764 27.7489 34.7428C26.9189 34.6421 26.4951 34.9649 26.3436 35.0359C26.223 35.0925 25.7494 35.4439 25.5317 35.6358C25.4594 35.4859 25.4621 35.9667 25.4621 35.9667L25.1246 35.9684C25.0968 35.9686 25.0707 35.9805 25.0565 36.0044C24.9964 36.1064 24.8445 36.4532 24.8226 37.3789L24.8384 38.1801L24.8845 38.9183L24.885 38.9212C24.9279 39.1864 24.9708 39.4517 25.0446 39.7101Z"
      fill="#444243" />
    <path
      d="M25.7686 35.9571C25.7044 35.8748 25.6203 35.7526 25.5317 35.6358M27.843 35.0768C27.7767 35.0133 27.75 34.8915 27.7489 34.7428M25.5317 35.6358C25.4594 35.4859 25.4621 35.9667 25.4621 35.9667L25.1246 35.9684C25.0968 35.9686 25.0707 35.9805 25.0565 36.0044C24.9964 36.1064 24.8445 36.4532 24.8226 37.3789L24.8384 38.1801L24.8845 38.9183V38.9183C24.9276 39.1845 24.9705 39.4508 25.0446 39.7101C25.1565 40.1014 25.3974 40.8434 25.9131 42.1825C26.1447 42.7837 27.1865 42.9314 27.5885 42.8913C28.2258 42.8278 28.5306 42.7908 29.0154 42.5226C30.5367 41.6808 32.2465 40.4048 31.8419 38.7139V38.7139C31.6569 37.9403 29.7472 35.6867 29.4771 35.445C29.0044 35.0219 28.7503 34.6527 28.8674 34.7979C28.6004 34.3977 28.8504 35.36 28.7664 35.391C28.7028 35.4145 27.7454 34.2764 27.7489 34.7428M25.5317 35.6358C25.7494 35.4439 26.223 35.0925 26.3436 35.0359C26.4951 34.9649 26.9189 34.6421 27.7489 34.7428"
      stroke="#101010" stroke-width="0.2" stroke-linecap="round" />
    <path d="M26.7345 38.1014C26.5451 38.2747 26.2253 38.4643 26.1429 38.5718" stroke="#8C1414"
      stroke-opacity="0.5" stroke-width="0.3" stroke-linecap="round" />
    <ellipse cx="26.4341" cy="37.9149" rx="0.525018" ry="0.550915"
      transform="rotate(-24.9269 26.4341 37.9149)" fill="#101010" />
    <path d="M27.0252 38.0925C26.7385 38.226 26.6439 38.335 26.568 38.4693" stroke="#101010"
      stroke-width="0.2" stroke-linecap="round" />
    <circle cx="26.1987" cy="37.8029" r="0.23007" transform="rotate(-36.4486 26.1987 37.8029)"
      fill="white" />
    <circle cx="26.2949" cy="38.0995" r="0.131469" transform="rotate(-36.4486 26.2949 38.0995)"
      fill="white" />
    <circle cx="26.4673" cy="37.8904" r="0.0657343" transform="rotate(-36.4486 26.4673 37.8904)"
      fill="white" />
    <path d="M28.762 36.6374C28.4564 36.7216 28.2401 36.982 28.1539 37.0865" stroke="#8C1414"
      stroke-opacity="0.5" stroke-width="0.3" stroke-linecap="round" />
    <ellipse cx="28.043" cy="36.7267" rx="0.525018" ry="0.550915"
      transform="rotate(-24.9269 28.043 36.7267)" fill="#101010" />
    <path d="M28.7326 36.8861C28.427 36.9702 28.2107 37.2307 28.1245 37.3352" stroke="#101010"
      stroke-width="0.3" stroke-linecap="round" />
    <circle cx="27.8156" cy="36.6401" r="0.23007" transform="rotate(-36.4486 27.8156 36.6401)"
      fill="white" />
    <circle cx="27.912" cy="36.9365" r="0.131469" transform="rotate(-36.4486 27.912 36.9365)"
      fill="white" />
    <circle cx="28.0844" cy="36.7274" r="0.0657343" transform="rotate(-36.4486 28.0844 36.7274)"
      fill="white" />
    <path
      d="M27.4749 37.6441C27.2987 37.6995 27.2051 37.7687 27.0535 37.9553C27.0773 37.9876 27.4656 38.1261 27.5732 38.1692C27.5598 37.955 27.4956 37.6376 27.4749 37.6441Z"
      fill="#101010" />
    <path d="M27.4988 38.0604L27.5378 38.1133L27.5769 38.1662L27.6355 38.2455" stroke="#101010"
      stroke-width="0.2" stroke-linecap="round" />
    <path d="M27.6355 38.2455L27.3768 38.5592" stroke="#101010" stroke-width="0.2"
      stroke-linecap="round" />
    <path d="M28.0376 38.071L27.6354 38.2455" stroke="#101010" stroke-width="0.2"
      stroke-linecap="round" />
    <path
      d="M30.0817 37.1415C30.2009 37.1351 30.2828 37.1365 30.3449 37.1516C30.4011 37.1653 30.4406 37.1901 30.4757 37.2377C30.5141 37.29 30.5497 37.3732 30.5846 37.5093C30.6193 37.6444 30.6513 37.8224 30.6874 38.0581C30.7573 38.5145 30.69 38.8349 30.5785 39.0388C30.466 39.2446 30.3118 39.3289 30.2001 39.3349C30.146 39.3378 30.1103 39.3242 30.0804 39.2966C30.0466 39.2653 30.0121 39.2082 29.9812 39.1085C29.919 38.9078 29.8849 38.5819 29.8585 38.0931C29.8491 37.9197 29.8379 37.7741 29.8287 37.654C29.825 37.6048 29.8215 37.5599 29.8187 37.5191C29.8085 37.3736 29.8066 37.2877 29.8169 37.2331C29.8216 37.2081 29.8279 37.1962 29.8323 37.1902C29.8362 37.185 29.8424 37.179 29.8573 37.1726C29.8943 37.1567 29.9584 37.1482 30.0817 37.1415Z"
      fill="#444243" stroke="#101010" stroke-width="0.2" />
    <path
      d="M25.733 39.981C25.6728 40.0839 25.6365 40.1575 25.6216 40.2195C25.608 40.2758 25.612 40.3223 25.6384 40.3753C25.6672 40.4333 25.725 40.503 25.8301 40.5964C25.9343 40.689 26.078 40.7989 26.2711 40.9388C26.645 41.2096 26.9607 41.2963 27.193 41.2904C27.4275 41.2844 27.573 41.1858 27.6294 41.0893C27.6567 41.0425 27.661 41.0045 27.65 40.9653C27.6377 40.9209 27.6027 40.8641 27.5281 40.7911C27.3781 40.644 27.1039 40.4646 26.6813 40.2175C26.5313 40.1299 26.407 40.0534 26.3044 39.9903C26.2624 39.9645 26.224 39.9409 26.189 39.9197C26.0643 39.844 25.9888 39.8031 25.9355 39.7873C25.9111 39.78 25.8976 39.7802 25.8902 39.7814C25.8839 39.7824 25.8757 39.7852 25.8632 39.7955C25.8322 39.8212 25.7953 39.8743 25.733 39.981Z"
      fill="#444243" stroke="#101010" stroke-width="0.2" />
    <path
      d="M29.4464 42.1395L29.4466 42.1396L29.4494 42.1343C29.5176 42.0057 29.5638 41.8856 29.6015 41.7821C29.6078 41.7647 29.6138 41.7481 29.6196 41.7321C29.6495 41.6495 29.6732 41.5836 29.7011 41.5292C29.7331 41.4667 29.7641 41.4328 29.8015 41.4139C29.8399 41.3946 29.9008 41.3833 30.0082 41.3994C30.1829 41.4257 30.309 41.4517 30.397 41.4867C30.4829 41.5209 30.5168 41.5573 30.5313 41.5961C30.5479 41.6407 30.5489 41.7137 30.5112 41.8417C30.474 41.9675 30.4045 42.1303 30.3011 42.3447C30.1006 42.7604 29.8638 42.9865 29.6564 43.0916C29.4472 43.1976 29.2723 43.1799 29.1769 43.1217C29.1127 43.0826 29.0801 43.0544 29.0633 43.0278C29.0499 43.0066 29.0407 42.9768 29.0517 42.9171C29.0634 42.8537 29.0965 42.7652 29.1619 42.6362C29.2267 42.5084 29.3198 42.3471 29.4464 42.1395Z"
      fill="#444243" stroke="#101010" stroke-width="0.2" />
    <path
      d="M27.0949 42.9595L27.095 42.9597L27.0991 42.9553C27.1983 42.8497 27.2725 42.7512 27.3342 42.6671C27.3422 42.6561 27.3499 42.6456 27.3573 42.6354C27.409 42.5645 27.4489 42.5099 27.4902 42.4668C27.5348 42.4203 27.5747 42.3945 27.622 42.3828C27.6712 42.3706 27.7401 42.371 27.8469 42.3988C27.9812 42.4338 28.0716 42.4817 28.1281 42.5353C28.1823 42.5866 28.209 42.6463 28.212 42.7178C28.2186 42.8716 28.1157 43.0948 27.8654 43.3825C27.626 43.6577 27.3375 43.8173 27.0875 43.882C26.9623 43.9143 26.8495 43.9222 26.7592 43.9109C26.6675 43.8994 26.608 43.8696 26.5762 43.836C26.5246 43.7814 26.5005 43.7457 26.4914 43.7156C26.4841 43.6916 26.483 43.6603 26.5093 43.6057C26.5373 43.5476 26.5926 43.4709 26.6897 43.3637C26.7858 43.2575 26.9181 43.1264 27.0949 42.9595Z"
      fill="#444243" stroke="#101010" stroke-width="0.2" />
    <path
      d="M24.5344 39.76C24.4819 38.6701 24.5382 37.7274 24.5909 37.1531C24.6269 36.7595 24.7494 36.3813 24.9288 36.029C25.0843 35.7236 25.3088 35.4586 25.5846 35.255L25.8307 35.0733C26.1866 34.8105 26.5989 34.634 27.0348 34.5579L27.4731 34.4814C27.4731 34.4814 28.4627 34.4042 28.8717 34.6918C30.1651 35.6014 31.7555 36.9131 31.6504 37.6123C31.5924 37.9985 30.846 38.2064 30.846 38.2064L28.0672 35.2858L27.9621 35.985L25.5489 37.7673L25.3572 36.666C25.2192 37.5831 25.3172 38.5203 25.6421 39.3889L26.4219 41.474C26.4219 41.474 26.4044 41.704 26.0197 41.771C25.7476 41.8184 25.5753 41.772 25.3204 41.6659C24.577 41.3567 24.5732 40.5642 24.5344 39.76Z"
      fill="#F9D5EF" stroke="black" stroke-width="0.1" />
    <path d="M25.5047 36.2552L26.0004 36.0459L25.8572 36.3984L25.5047 36.2552Z" fill="white"
      stroke="black" stroke-width="0.07" />
    <path d="M26.5388 35.6171L27.0346 35.4078L26.8913 35.7603L26.5388 35.6171Z" fill="white"
      stroke="black" stroke-width="0.07" />
    <path
      d="M25.3396 36.5159C25.2513 36.5878 25.1658 36.6575 25.0747 36.7275C25.2633 36.248 25.7352 35.8307 26.3902 35.4248C26.738 35.2093 27.11 35.0882 27.3957 35.0211C27.5237 34.991 27.6341 34.9717 27.7168 34.9597C27.6299 35.0115 27.5076 35.0846 27.3637 35.1711C27.0728 35.3459 26.6937 35.5752 26.3414 35.7935C25.8612 36.0911 25.5895 36.3124 25.3396 36.5159Z"
      fill="white" stroke="black" stroke-width="0.07" />
    <path d="M26.059 35.845L25.8256 36.3361L25.445 36.2985L26.059 35.845Z" fill="white" />
    <path d="M27.0929 35.1952L26.874 35.6758L26.4934 35.6381L27.0929 35.1952Z" fill="white" />
    <path
      d="M25.9151 35.7877L25.2403 35.6691C25.2403 35.6691 25.1556 36.1542 25.8295 36.2751L25.9151 35.7877Z"
      fill="#D71E1E" stroke="black" stroke-width="0.07" />
    <path
      d="M26.9877 35.2274L26.3356 35.0171C26.3356 35.0171 26.1849 35.4859 26.8358 35.6983L26.9877 35.2274Z"
      fill="#D71E1E" stroke="black" stroke-width="0.07" />
    <path
      d="M35.0445 34.6507C35.4515 35.0531 35.7089 35.3472 35.8538 35.6134C35.9845 35.8534 36.0228 36.069 35.9675 36.3423C35.9066 36.6434 35.7273 37.0356 35.3568 37.5983C34.9895 38.1561 34.4605 38.8434 33.7395 39.7318C32.3453 41.4495 30.9935 42.2404 29.9146 42.5005C28.8254 42.7631 28.0364 42.4874 27.6611 42.1163C27.4796 41.9367 27.4153 41.7709 27.4172 41.5818C27.4193 41.3659 27.5089 41.0628 27.7628 40.6327C28.2738 39.767 29.3198 38.5964 30.9719 36.9258C31.5581 36.3332 32.0396 35.8237 32.4367 35.4036C32.5992 35.2317 32.7476 35.0747 32.8832 34.9331C33.3679 34.4271 33.665 34.1456 33.8898 34.0076C33.9923 33.9447 34.0517 33.9302 34.0836 33.927C34.1101 33.9244 34.148 33.9262 34.216 33.9572C34.3881 34.0357 34.6227 34.2335 35.0445 34.6507Z"
      fill="#444243" stroke="#101010" />
    <path
      d="M7 31.5H5L5.5 29L35 31L31.5 34.5L29.5 33L26.5 34L24.5 32.5L21.5 34L20.5 32L18 33.5L15.5 32L13 33.5L10.5 32L8.5 33.5L7 31.5Z"
      fill="#252525" />
    <path
      d="M35.1267 14.9522L37.971 13.0196C37.9819 13.0122 37.9963 13.0215 37.9942 13.0345L35.1267 30.4285L31.7745 33.9999L35.1267 14.9522Z"
      fill="#826A30" stroke="black" stroke-width="0.5" />
    <path d="M17.4083 9L13.5773 10.7857L35.1266 14.9524L37.521 13.1667L17.4083 9Z" fill="#AC8E46"
      stroke="black" stroke-width="0.5" />
    <path
      d="M35.1267 14.9523L13.7383 10.9067C13.3657 10.8362 12.9948 11.037 12.8501 11.3875L4.5 31.619L7 31L8.30977 32.8095L10.7041 31.619L13.0985 32.8095L15.4929 31.619L17.8872 32.8095L20.2816 31.619L21.7182 33.4048L24.5915 32.2143L26.507 33.4048L29.3802 32.2143L31.7746 34L35.1267 14.9523Z"
      fill="#B59850" stroke="black" stroke-width="0.5" />
    <path
      d="M17.0146 21.0831C16.8009 22.4472 16.5984 23.5 14.5984 24C13.5071 23.829 12.7551 22.4276 13.0629 20.4638C13.3706 18.5 14.906 17.716 15.9972 17.887C17.2936 18.0902 17.2284 19.719 17.0146 21.0831Z"
      fill="#101010" />
    <path
      d="M24.9999 22.0767C24.7861 23.4408 24.5836 24.4936 22.5836 24.9936C21.4924 24.8226 20.7404 23.4213 21.0481 21.4574C21.3559 19.4936 22.8912 18.7097 23.9824 18.8807C25.2789 19.0838 25.2136 20.7127 24.9999 22.0767Z"
      fill="#101010" />
    <path d="M15.5 10L25.5 12L36.5 14" stroke="black" stroke-width="0.2" />
    <path d="M36.5 14L33.5 32" stroke="black" stroke-width="0.2" />
  </g>
</svg>